<svg width="515" height="397" viewBox="0 0 515 397" fill="none" xmlns="http://www.w3.org/2000/svg">
<path d="M175 263.963V385.385C175 391.792 171.618 397 167.445 397H7.5546C3.38165 397 0 391.792 0 385.385V263.963C0 257.544 3.38165 251 7.5546 251H167.445C171.618 251 175 257.544 175 263.963Z" fill="#E3D2FF"/>
<path d="M290 181.894V330.759C290 338.615 285.227 345 279.337 345H53.6628C47.773 345 43 338.615 43 330.759V181.894C43 174.023 47.773 166 53.6628 166H279.337C285.227 166 290 174.023 290 181.894Z" fill="#B995F4"/>
<path d="M379.836 289.498L308.034 268.098C293.152 275.262 276.844 278.971 260.328 278.949C204.174 278.949 158.49 237.123 158.49 185.717C158.49 134.311 204.174 92.4854 260.328 92.4854C316.482 92.4854 362.165 134.303 362.165 185.717C362.165 211.664 350.253 236.571 329.448 254.185L379.836 289.498ZM307.919 266.549L308.191 266.628L371.775 285.59L327.103 254.271L327.82 253.669C348.74 236.299 360.738 211.521 360.738 185.703C360.738 135.085 315.7 93.9053 260.335 93.9053C204.97 93.9053 159.932 135.085 159.932 185.703C159.932 236.32 204.97 277.5 260.335 277.5C276.729 277.524 292.915 273.821 307.668 266.671L307.919 266.549Z" fill="white"/>
<path d="M510.636 30.2787V301.21C510.636 309.271 502.862 315.819 493.266 315.819H125.668C116.072 315.819 108.298 309.271 108.298 301.21V30.2787C108.298 22.2034 116.072 13.9775 125.668 13.9775H493.266C502.862 13.9775 510.636 22.2034 510.636 30.2787Z" fill="#1F244D" stroke="black" stroke-width="7"/>
<path d="M476.338 30.2787V301.21C476.338 309.271 468.563 315.819 458.968 315.819H91.3698C81.7741 315.819 74 309.271 74 301.21V30.2787C74 22.2034 81.7741 13.9775 91.3698 13.9775H458.968C468.563 13.9775 476.338 22.2034 476.338 30.2787Z" fill="#4B518C" stroke="#1F244D" stroke-width="7"/>
<path d="M476.338 30.2787V301.21C476.338 309.271 468.563 315.819 458.968 315.819H91.3698C81.7741 315.819 74 309.271 74 301.21V30.2787C74 22.2034 81.7741 13.9775 91.3698 13.9775H458.968C468.563 13.9775 476.338 22.2034 476.338 30.2787Z" fill="#4B518C" stroke="#1F244D" stroke-width="7"/>
<path d="M476.338 31.3473V73.9398H74.0073V31.3473C74.0092 26.7424 75.8389 22.3265 79.0944 19.0696C82.3499 15.8128 86.765 13.9813 91.3699 13.9775H458.968C463.573 13.9794 467.989 15.8091 471.246 19.0646C474.502 22.3201 476.334 26.7352 476.338 31.3401V31.3473Z" fill="#8991DC" stroke="#1F244D" stroke-width="7"/>
<path d="M96.067 55.5729C102.48 55.5729 107.678 50.3745 107.678 43.962C107.678 37.5495 102.48 32.3511 96.067 32.3511C89.6544 32.3511 84.4561 37.5495 84.4561 43.962C84.4561 50.3745 89.6544 55.5729 96.067 55.5729Z" fill="white"/>
<path d="M129.853 55.5729C136.265 55.5729 141.464 50.3745 141.464 43.962C141.464 37.5495 136.265 32.3511 129.853 32.3511C123.44 32.3511 118.242 37.5495 118.242 43.962C118.242 50.3745 123.44 55.5729 129.853 55.5729Z" fill="white"/>
<path d="M163.645 55.5729C170.058 55.5729 175.256 50.3745 175.256 43.962C175.256 37.5495 170.058 32.3511 163.645 32.3511C157.233 32.3511 152.034 37.5495 152.034 43.962C152.034 50.3745 157.233 55.5729 163.645 55.5729Z" fill="white"/>
<path opacity="0.1" d="M346.867 1.56344C347.299 1.56344 347.649 1.21345 347.649 0.781725C347.649 0.349995 347.299 0 346.867 0C346.435 0 346.085 0.349995 346.085 0.781725C346.085 1.21345 346.435 1.56344 346.867 1.56344Z" fill="black"/>
<path d="M444.28 144.451H306.111V149.464H444.28V144.451Z" fill="#F8F8F8"/>
<path d="M444.28 160.645H306.111V165.658H444.28V160.645Z" fill="#FCB427"/>
<path d="M444.28 176.839H306.111V181.852H444.28V176.839Z" fill="#F8F8F8"/>
<path d="M434.154 222.293H418.312V239.806H434.154V222.293Z" fill="#FCB427"/>
<path d="M408.637 222.293H392.795V239.806H408.637V222.293Z" fill="#F8F8F8"/>
<path d="M383.121 222.293H367.279V239.806H383.121V222.293Z" fill="#FCB427"/>
<path d="M357.595 222.293H341.753V239.806H357.595V222.293Z" fill="#FCB427"/>
<path d="M332.08 222.293H316.238V239.806H332.08V222.293Z" fill="#FCB427"/>
<path d="M444.28 193.025H306.111V198.038H444.28V193.025Z" fill="#F8F8F8"/>
<g filter="url(#filter0_i_376_121)">
<path d="M190.202 249.404C230.078 249.404 262.404 217.078 262.404 177.202C262.404 137.326 230.078 105 190.202 105C150.326 105 118 137.326 118 177.202C118 217.078 150.326 249.404 190.202 249.404Z" fill="#88C9F9"/>
</g>
<g filter="url(#filter1_d_376_121)">
<mask id="mask0_376_121" style="mask-type:alpha" maskUnits="userSpaceOnUse" x="118" y="105" width="145" height="145">
<path d="M190.202 249.404C230.078 249.404 262.404 217.078 262.404 177.202C262.404 137.326 230.078 105 190.202 105C150.326 105 118 137.326 118 177.202C118 217.078 150.326 249.404 190.202 249.404Z" fill="#88C9F9"/>
</mask>
<g mask="url(#mask0_376_121)">
<g filter="url(#filter2_d_376_121)">
<path fill-rule="evenodd" clip-rule="evenodd" d="M229.952 115.184C229.254 115.117 228.598 115.358 228.118 115.796C224.137 115.739 220.352 114.739 216.238 113.652C215.75 113.523 215.257 113.393 214.758 113.262C210.052 112.035 204.933 110.857 199.341 111.581C192.524 112.463 184.317 115.782 177.536 120.667C170.795 125.523 165.041 132.242 163.881 140.129C163.128 145.248 163.117 150.316 164.448 155.124C163.87 155.262 163.343 155.615 162.997 156.154C161.39 158.659 159.675 161.102 157.928 163.592L157.912 163.615C156.169 166.098 154.394 168.628 152.726 171.234C152.577 171.466 152.089 172.3 151.687 173.044C151.489 173.411 151.271 173.832 151.12 174.179C151.067 174.302 150.929 174.621 150.863 174.975C150.844 175.081 150.816 175.262 150.819 175.485C150.822 175.675 150.847 176.122 151.11 176.609C151.435 177.209 152.033 177.696 152.805 177.832C153.433 177.943 153.924 177.776 154.13 177.694C155.54 177.13 156.936 176.28 158.154 175.512C158.38 175.37 158.6 175.23 158.815 175.094L158.816 175.093C159.827 174.452 160.718 173.887 161.576 173.445C163.493 172.46 165.445 171.318 167.306 170.23L167.505 170.114C169.092 169.186 170.606 168.304 172.042 167.544C173.844 169.204 175.755 170.561 177.657 171.911L177.985 172.144C180.983 174.274 184.362 175.506 187.661 176.399C189.313 176.847 190.98 177.218 192.587 177.567C192.794 177.613 193.001 177.657 193.206 177.702L193.206 177.702C193.956 177.865 194.69 178.024 195.412 178.187C195.554 178.423 195.708 178.63 195.855 178.806C196.268 179.304 196.752 179.711 197.136 180.014C197.335 180.171 197.536 180.322 197.709 180.452L197.711 180.454L197.712 180.455C197.893 180.59 198.043 180.703 198.183 180.813C198.322 180.922 198.424 181.009 198.5 181.079C198.551 181.126 198.579 181.155 198.59 181.168L198.595 181.173L198.596 181.174C200.013 183.011 200.684 185.053 201.508 187.689C201.571 187.891 201.634 188.094 201.698 188.298C203.149 192.947 204.652 197.763 206.965 202.387C214.771 218 232.906 223.707 248.477 223.707C249.395 223.707 250.192 223.187 250.589 222.425C251.34 222.55 252.11 222.304 252.651 221.771C252.687 221.763 252.73 221.754 252.78 221.746C253.268 221.66 253.987 221.623 254.861 221.63C255.713 221.637 256.604 221.684 257.408 221.732L257.793 221.756C258.412 221.794 259.023 221.832 259.417 221.832C260.372 221.832 261.136 221.434 261.663 221.035C262.186 220.639 262.604 220.147 262.931 219.691C263.584 218.781 264.131 217.651 264.564 216.629C265.008 215.582 265.387 214.518 265.675 213.682C265.751 213.463 265.814 213.276 265.872 213.107L265.99 212.761L266.013 212.695L266.042 212.614C266.091 212.472 266.13 212.361 266.161 212.277C266.173 212.247 266.181 212.225 266.188 212.209C266.194 212.193 266.198 212.183 266.2 212.178L266.201 212.175L266.198 212.181C266.583 211.345 266.974 210.503 267.368 209.655C269.333 205.429 271.363 201.062 272.947 196.596C275.528 189.324 275.368 182.04 275.202 174.976C274.976 165.384 274.067 155.137 268.479 146.289C264.502 139.992 259.374 133.854 253.571 129.056C252.917 128.515 252.229 127.934 251.511 127.33L251.511 127.329C248.981 125.195 246.089 122.756 243.05 120.666C239.147 117.982 234.69 115.643 229.952 115.184ZM155.473 176.105L155.476 176.096C155.474 176.103 155.471 176.108 155.47 176.112C155.468 176.117 155.467 176.12 155.467 176.12C155.467 176.12 155.468 176.118 155.469 176.113L155.473 176.105Z" fill="#62BB5A"/>
<path fill-rule="evenodd" clip-rule="evenodd" d="M166.642 218.465C166.264 218.758 165.969 219.168 165.821 219.662C165.444 220.921 166.158 222.247 167.417 222.625C170.769 223.631 174.39 224.082 177.762 224.503L177.763 224.503C179.135 224.674 180.465 224.84 181.719 225.035C181.932 225.069 182.154 225.104 182.384 225.141C183.962 225.394 185.88 225.702 187.662 225.702C188.21 225.702 188.927 225.639 189.609 225.291C190.419 224.876 190.919 224.199 191.154 223.474C191.345 222.884 191.343 222.313 191.339 222.023C191.335 221.772 191.33 221.656 191.325 221.556C191.321 221.45 191.317 221.363 191.317 221.149C191.317 218.56 190.515 216.089 189.684 213.938C189.384 213.161 189.089 212.443 188.809 211.761L188.808 211.759C188.256 210.415 187.76 209.208 187.393 207.958C186.997 206.607 186.543 205.258 186.107 203.962C185.974 203.565 185.842 203.172 185.713 202.786C185.156 201.109 184.653 199.5 184.29 197.878C184.264 197.764 184.239 197.639 184.209 197.48L184.203 197.45C184.175 197.308 184.142 197.135 184.104 196.965C184.037 196.656 183.901 196.073 183.593 195.537C183.236 194.915 182.428 194.03 181.063 194.032C180.01 194.035 179.201 194.599 178.748 194.965C174.78 198.17 173.293 203.831 172.98 208.051C172.694 211.914 170.482 215.599 167.143 217.984C166.948 218.123 166.781 218.286 166.642 218.465ZM180.061 200.586C178.702 202.703 177.933 205.609 177.726 208.402C177.43 212.396 175.695 216.116 173.058 219.043C174.632 219.312 176.235 219.511 177.897 219.718L177.898 219.718C179.364 219.9 180.876 220.087 182.453 220.334C182.693 220.371 182.931 220.409 183.165 220.446C184.36 220.636 185.492 220.816 186.554 220.898C186.505 219.301 185.994 217.593 185.245 215.652C185.028 215.089 184.78 214.486 184.523 213.859C183.92 212.386 183.264 210.787 182.827 209.298C182.459 208.044 182.047 206.818 181.618 205.542L181.617 205.539L181.613 205.527C181.611 205.523 181.61 205.518 181.608 205.513C181.473 205.11 181.335 204.702 181.197 204.286C180.801 203.092 180.406 201.858 180.061 200.586Z" fill="#62BB5A"/>
<path fill-rule="evenodd" clip-rule="evenodd" d="M114.285 196.827C114.254 196.581 114.262 196.338 114.304 196.106C114.279 195.969 114.266 195.827 114.266 195.682C114.266 194.368 115.332 193.302 116.646 193.302C118.982 193.302 121.456 193.399 123.899 193.495L123.901 193.495C125.389 193.553 126.866 193.611 128.293 193.646C132.169 193.741 135.904 193.683 139.395 193.12C140.134 193.001 141.828 192.766 143.462 192.821C144.263 192.847 145.225 192.947 146.098 193.264C146.947 193.573 148.197 194.282 148.614 195.812C149.937 200.662 147.966 205.472 145.373 209.322C142.737 213.233 139.147 216.63 136.326 218.894C136.097 219.078 135.844 219.315 135.491 219.649L135.465 219.674C135.145 219.978 134.747 220.354 134.322 220.703C133.492 221.385 132.166 222.3 130.443 222.3L130.251 222.3C128.956 222.301 127.238 222.302 125.586 221.997C123.834 221.675 121.85 220.959 120.376 219.258C117.589 216.042 116.318 211.958 115.607 208.043C115.155 205.55 114.895 202.854 114.661 200.412C114.537 199.124 114.42 197.907 114.285 196.827ZM140.153 197.818C140.801 197.714 142.135 197.538 143.304 197.577C143.666 197.589 143.949 197.62 144.157 197.657C144.648 200.368 143.583 203.462 141.426 206.663C139.152 210.038 135.952 213.092 133.347 215.183C132.95 215.502 132.563 215.869 132.248 216.167L132.219 216.194C131.872 216.523 131.587 216.792 131.302 217.025C130.69 217.528 130.457 217.541 130.443 217.541H130.402C128.997 217.541 127.663 217.541 126.448 217.318C125.239 217.095 124.456 216.701 123.972 216.142C122.009 213.877 120.942 210.787 120.289 207.192C119.866 204.861 119.65 202.584 119.433 200.297C119.363 199.565 119.294 198.831 119.217 198.095C120.643 198.129 122.08 198.186 123.546 198.244C125.052 198.303 126.589 198.364 128.176 198.403C132.137 198.5 136.222 198.452 140.153 197.818Z" fill="#62BB5A"/>
<path d="M143.304 197.577C142.135 197.538 140.801 197.714 140.153 197.818C136.222 198.452 132.137 198.5 128.176 198.403C126.589 198.364 125.052 198.303 123.546 198.244C122.08 198.186 120.643 198.129 119.217 198.095C119.294 198.831 119.363 199.565 119.433 200.297C119.65 202.584 119.866 204.861 120.289 207.192C120.942 210.787 122.009 213.877 123.972 216.142C124.456 216.701 125.239 217.095 126.448 217.318C127.663 217.541 128.997 217.541 130.402 217.541H130.443C130.457 217.541 130.69 217.528 131.302 217.025C131.587 216.792 131.872 216.523 132.219 216.194L132.248 216.167C132.563 215.869 132.95 215.502 133.347 215.183C135.952 213.092 139.152 210.038 141.426 206.663C143.583 203.462 144.648 200.368 144.157 197.657C143.949 197.62 143.666 197.589 143.304 197.577Z" fill="#62BB5A"/>
<path d="M177.726 208.402C177.933 205.609 178.702 202.703 180.061 200.586C180.406 201.858 180.801 203.092 181.197 204.286C181.335 204.702 181.473 205.11 181.608 205.513L181.613 205.527L181.617 205.539L181.618 205.542C182.047 206.818 182.459 208.044 182.827 209.298C183.264 210.787 183.92 212.386 184.523 213.859C184.78 214.486 185.028 215.089 185.245 215.652C185.994 217.593 186.505 219.301 186.554 220.898C185.492 220.816 184.36 220.636 183.165 220.446C182.931 220.409 182.693 220.371 182.453 220.334C180.876 220.087 179.364 219.9 177.898 219.718L177.897 219.718C176.235 219.511 174.632 219.312 173.058 219.043C175.695 216.116 177.43 212.396 177.726 208.402Z" fill="#62BB5A"/>
<path d="M130.213 172.1C132.361 172.294 136.785 173.916 138.94 173.916C137.941 174.915 137.126 176.069 136.102 177.056C134.389 178.706 132.367 180.154 130.806 181.949C130.36 182.462 129.841 183.031 129.305 182.189C128.506 180.933 128.358 178.766 128.044 177.371C127.743 176.036 127.473 174.691 127.148 173.361C127.082 173.089 126.599 171.978 126.657 171.621C126.659 171.608 130.05 172.085 130.213 172.1Z" fill="#62BB5A"/>
</g>
<g style="mix-blend-mode:plus-darker" filter="url(#filter3_f_376_121)">
<rect width="224.186" height="366.212" transform="matrix(0.933834 -0.357707 0.124825 0.992179 148 257.193)" fill="#D9D9D9"/>
</g>
<ellipse cx="185.919" cy="147.395" rx="4.32603" ry="4.32602" fill="white"/>
</g>
</g>
<ellipse cx="190" cy="280" rx="56" ry="7" fill="#1F244D"/>
<path d="M433.287 317.677L445.452 329.798L433.774 341.476L421.652 329.311L419.178 326.828L416.698 329.307L405.484 340.521L389.174 285.176L444.499 301.506L433.283 312.723L430.803 315.202L433.287 317.677Z" fill="white" stroke="black" stroke-width="7"/>
<defs>
<filter id="filter0_i_376_121" x="118" y="101" width="148.404" height="148.404" filterUnits="userSpaceOnUse" color-interpolation-filters="sRGB">
<feFlood flood-opacity="0" result="BackgroundImageFix"/>
<feBlend mode="normal" in="SourceGraphic" in2="BackgroundImageFix" result="shape"/>
<feColorMatrix in="SourceAlpha" type="matrix" values="0 0 0 0 0 0 0 0 0 0 0 0 0 0 0 0 0 0 127 0" result="hardAlpha"/>
<feOffset dx="17" dy="-17"/>
<feGaussianBlur stdDeviation="2"/>
<feComposite in2="hardAlpha" operator="arithmetic" k2="-1" k3="1"/>
<feColorMatrix type="matrix" values="0 0 0 0 0 0 0 0 0 0 0 0 0 0 0 0 0 0 0.25 0"/>
<feBlend mode="normal" in2="shape" result="effect1_innerShadow_376_121"/>
</filter>
<filter id="filter1_d_376_121" x="114" y="111.359" width="152.404" height="146.045" filterUnits="userSpaceOnUse" color-interpolation-filters="sRGB">
<feFlood flood-opacity="0" result="BackgroundImageFix"/>
<feColorMatrix in="SourceAlpha" type="matrix" values="0 0 0 0 0 0 0 0 0 0 0 0 0 0 0 0 0 0 127 0" result="hardAlpha"/>
<feOffset dy="4"/>
<feGaussianBlur stdDeviation="2"/>
<feComposite in2="hardAlpha" operator="out"/>
<feColorMatrix type="matrix" values="0 0 0 0 0 0 0 0 0 0 0 0 0 0 0 0 0 0 0.25 0"/>
<feBlend mode="normal" in2="BackgroundImageFix" result="effect1_dropShadow_376_121"/>
<feBlend mode="normal" in="SourceGraphic" in2="effect1_dropShadow_376_121" result="shape"/>
</filter>
<filter id="filter2_d_376_121" x="110.266" y="111.359" width="169.017" height="122.343" filterUnits="userSpaceOnUse" color-interpolation-filters="sRGB">
<feFlood flood-opacity="0" result="BackgroundImageFix"/>
<feColorMatrix in="SourceAlpha" type="matrix" values="0 0 0 0 0 0 0 0 0 0 0 0 0 0 0 0 0 0 127 0" result="hardAlpha"/>
<feOffset dy="4"/>
<feGaussianBlur stdDeviation="2"/>
<feComposite in2="hardAlpha" operator="out"/>
<feColorMatrix type="matrix" values="0 0 0 0 0 0 0 0 0 0 0 0 0 0 0 0 0 0 0.25 0"/>
<feBlend mode="normal" in2="BackgroundImageFix" result="effect1_dropShadow_376_121"/>
<feBlend mode="normal" in="SourceGraphic" in2="effect1_dropShadow_376_121" result="shape"/>
</filter>
<filter id="filter3_f_376_121" x="98" y="127" width="355.066" height="543.541" filterUnits="userSpaceOnUse" color-interpolation-filters="sRGB">
<feFlood flood-opacity="0" result="BackgroundImageFix"/>
<feBlend mode="normal" in="SourceGraphic" in2="BackgroundImageFix" result="shape"/>
<feGaussianBlur stdDeviation="25" result="effect1_foregroundBlur_376_121"/>
</filter>
</defs>
</svg>
