<svg width="258" height="245" viewBox="0 0 258 245" fill="none" xmlns="http://www.w3.org/2000/svg">
<path d="M8.99936 3.5C8.99936 3.5 5.97079 10.6567 4.99936 15.5C4.22756 19.3481 4.08922 21.5763 3.99936 25.5C3.88279 30.5905 3.98215 33.5108 4.99936 38.5C5.9862 43.3402 6.51851 46.2284 8.99936 50.5C11.8432 55.3967 14.7763 57.2276 18.9994 61C25.3818 66.7015 29.9403 68.6613 36.9994 73.5C42.4492 77.2356 45.6921 79.0644 50.9994 83C56.2413 86.8871 59.4563 88.8151 63.9994 93.5C67.9695 97.594 69.7137 100.339 72.9994 105C76.8391 110.447 78.9781 113.559 81.9994 119.5C84.7774 124.962 86.0757 128.182 87.9994 134C89.3971 138.228 90.9994 145 90.9994 145M95 165C95 165 101.436 176.886 109.499 183.5C115.118 188.109 118.838 190.096 125.499 193C134.355 196.861 139.857 198.407 149.499 199C157.722 199.505 162.354 198.231 170.499 197C176.596 196.079 179.884 194.783 185.999 194C191.823 193.254 195.141 192.612 200.999 193C207.994 193.463 211.97 194.448 218.499 197C223.87 199.099 231.499 204 231.499 204" stroke="#02365E" stroke-width="6" stroke-linecap="round"/>
<path d="M164.573 185.341C156.889 198.474 143.725 197.801 138.104 195.823C145.395 163.445 169.062 166.065 179.984 171.423C178.049 170.59 172.257 172.209 164.573 185.341Z" fill="#2B99D6" stroke="#02365E" stroke-width="4" stroke-linecap="round" stroke-linejoin="round"/>
<path d="M170.649 174.839C163.733 182.721 152.528 194.576 146.19 193.442" stroke="#E1F3FF" stroke-width="4" stroke-linecap="round" stroke-linejoin="round"/>
<path d="M164.573 185.341C156.889 198.474 143.725 197.801 138.104 195.823C145.395 163.445 169.062 166.065 179.984 171.423C178.049 170.59 172.257 172.209 164.573 185.341Z" stroke="#02365E" stroke-width="4" stroke-linecap="round" stroke-linejoin="round"/>
<path d="M141.981 193.529C146.665 189.223 156.619 180.515 158.969 180.13" stroke="#02365E" stroke-width="4" stroke-linecap="round" stroke-linejoin="round"/>
<path d="M37.0547 38.3547C33.6355 31.5163 14.2601 32.6561 4.99983 34.0807C7.84915 59.7246 40.8538 61.3868 57 59.0123C51.7762 54.9758 40.4739 45.1931 37.0547 38.3547Z" fill="#2B99D6" stroke="#02365E" stroke-width="4" stroke-linecap="round" stroke-linejoin="round"/>
<path d="M9.42503 35.0044C18.0231 35.0044 33.8435 37.9851 42.0977 47.6149" stroke="#E1F3FF" stroke-width="4" stroke-linecap="round" stroke-linejoin="round"/>
<path d="M37.0547 38.3547C33.6355 31.5163 14.2601 32.6561 4.99983 34.0807C7.84915 59.7246 40.8538 61.3868 57 59.0123C51.7762 54.9758 40.4739 45.1931 37.0547 38.3547Z" stroke="#02365E" stroke-width="4" stroke-linecap="round" stroke-linejoin="round"/>
<path d="M5.41052 34.4312C5.41052 34.4312 14.5818 41.8828 25.4727 44.7488" stroke="#02365E" stroke-width="4" stroke-linecap="round" stroke-linejoin="round"/>
<path d="M69.1305 98.4925C79.9641 105.452 104.803 117.462 117.491 109.821C114.505 97.3984 100.652 77.7415 69.1305 98.4925Z" fill="#2B99D6" stroke="#02365E" stroke-width="4" stroke-linecap="round" stroke-linejoin="round"/>
<path d="M78.4668 97.5925C86.2013 94.0699 97.6655 91.3353 107.078 98.2055" stroke="#E1F3FF" stroke-width="4" stroke-linecap="round" stroke-linejoin="round"/>
<path d="M69.1305 98.4925C79.9641 105.452 104.803 117.462 117.491 109.821C114.505 97.3984 100.652 77.7415 69.1305 98.4925Z" stroke="#02365E" stroke-width="4" stroke-linecap="round" stroke-linejoin="round"/>
<path d="M71.5879 99.2339C77.5595 98.0891 90.5824 96.4813 94.9016 99.209" stroke="#02365E" stroke-width="4" stroke-linecap="round" stroke-linejoin="round"/>
<path d="M183.645 194.249C193.126 201.305 211.351 218.023 208.402 228.451C197.843 225.3 178.11 214.048 183.645 194.249Z" fill="#2B99D6" stroke="#02365E" stroke-width="4" stroke-linecap="round" stroke-linejoin="round"/>
<path d="M187.053 199.084C182.267 205.372 193.104 219.436 198.089 223.936" stroke="#E1F3FF" stroke-width="4" stroke-linecap="round" stroke-linejoin="round"/>
<path d="M183.645 194.249C193.126 201.305 211.351 218.023 208.402 228.451C197.843 225.3 178.11 214.048 183.645 194.249Z" stroke="#02365E" stroke-width="4" stroke-linecap="round" stroke-linejoin="round"/>
<path d="M182.775 194.431L195.771 213.607" stroke="#02365E" stroke-width="4" stroke-linecap="round" stroke-linejoin="round"/>
<path d="M220.819 197C228.243 208.814 242.005 234.311 237.664 241.79C251.168 234.107 266.705 214.392 220.819 197Z" fill="#2B99D6" stroke="#02365E" stroke-width="4" stroke-linecap="round" stroke-linejoin="round"/>
<path d="M228.504 203.945C232.547 208.676 240.325 221.875 239.097 236.818" stroke="#E1F3FF" stroke-width="4" stroke-linecap="round" stroke-linejoin="round"/>
<path d="M220.819 197C228.243 208.814 242.005 234.311 237.664 241.79C251.168 234.107 266.705 214.392 220.819 197Z" stroke="#02365E" stroke-width="4" stroke-linecap="round" stroke-linejoin="round"/>
<path d="M226.409 201.79L237.903 215.763" stroke="#02365E" stroke-width="4" stroke-linecap="round" stroke-linejoin="round"/>
<path d="M44.923 78.191C61.8788 86.3587 54.6018 132.43 54.6018 132.43C36.4826 132.22 31.6308 85.7291 44.923 78.191Z" fill="#2B99D6" stroke="#02365E" stroke-width="4" stroke-linecap="round" stroke-linejoin="round"/>
<path d="M49.013 92.0252C51.9935 100.962 51.649 106.798 52.368 110.826" stroke="#E1F3FF" stroke-width="4" stroke-linecap="round" stroke-linejoin="round"/>
<path d="M44.923 78.191C61.8788 86.3587 54.6018 132.43 54.6018 132.43C36.4826 132.22 31.6308 85.7291 44.923 78.191Z" stroke="#02365E" stroke-width="4" stroke-linecap="round" stroke-linejoin="round"/>
<path d="M43.9308 79.0746C45.3927 85.9733 46.8064 95.19 45.6782 104.398" stroke="#02365E" stroke-width="4" stroke-linecap="round" stroke-linejoin="round"/>
</svg>
