<svg xmlns="http://www.w3.org/2000/svg" width="536" height="430" fill="none">
  <path stroke="#FFD028" stroke-linecap="round" stroke-width="15" d="M232 170c-12-27-28-72 1-38 36 42-56 0-36-25 21-24 19-28 8-44"/>
  <path stroke="#54CD63" stroke-linecap="round" stroke-width="15" d="M471 384c-21-21-52-57-13-36 50 27-52 21-42-9 10-31 7-33-9-44m-130-90c14-7 45-15 54 11 13 33-39 28-27 1 11-21 45-14 62-8m-175 13c-6 35-30 93-84 46-67-59 86-30 5 28-65 47-55 15-42-8"/>
  <path stroke="#A9DEFE" stroke-linecap="round" stroke-width="15" d="M269 273c-8 34-16 106 13 120 37 17 29-40 6-31-22 8-7 59 14 60 17 1 18-7 17-12m-45-289c-2-8-3-26 17-31"/>
  <path stroke="#FFD028" stroke-linecap="round" stroke-width="15" d="M360 307c-5-12-22-35-50-33M142 384c11-11 31-35 17-39"/>
  <path stroke="#A9DEFE" stroke-linecap="round" stroke-width="15" d="M146 185c-14-6-44-16-46-9"/>
  <path stroke="#54CD63" stroke-linecap="round" stroke-width="15" d="m138 47 15 23"/>
  <path stroke="#FFD028" stroke-linecap="round" stroke-width="15" d="m70 118 22 5"/>
  <path stroke="#54CD63" stroke-linecap="round" stroke-width="15" d="M203 189c-14-5-43-24-44-53"/>
  <path stroke="#A9DEFE" stroke-linecap="round" stroke-width="15" d="m429 240 30-3"/>
  <path stroke="#FFD028" stroke-linecap="round" stroke-width="15" d="m216 383-7 35"/>
  <path stroke="#54CD63" stroke-linecap="round" stroke-width="15" d="m230 266-6 33M406 96c-22 20-69 54-74 32-6-27 51-11 21 20-23 25-36 2-40-12"/>
  <path stroke="#FFD028" stroke-linecap="round" stroke-width="15" d="M407 185c7-10 25-26 47-8 26 22-49-6 5-29s19 66 24 25c5-32 32-27 45-21"/>
  <path stroke="#A9DEFE" stroke-linecap="round" stroke-width="15" d="M30 262 8 274M360 71c15-11 43-40 36-63"/>
  <circle r="11" fill="#F2463A" transform="matrix(1 0 0 -1 223 214)"/>
  <circle r="11" fill="#F2463A" transform="matrix(1 0 0 -1 134 350)"/>
  <circle r="11" fill="#F2463A" transform="matrix(1 0 0 -1 50 70)"/>
  <circle r="11" fill="#F2463A" transform="matrix(1 0 0 -1 276 29)"/>
  <circle r="11" fill="#F2463A" transform="matrix(1 0 0 -1 19 340)"/>
  <circle r="11" fill="#F2463A" transform="matrix(1 0 0 -1 493 270)"/>
  <circle r="11" fill="#F2463A" transform="matrix(1 0 0 -1 368 372)"/>
  <circle r="11" fill="#F2463A" transform="matrix(1 0 0 -1 401 128)"/>
  <circle r="11" fill="#F2463A" transform="matrix(1 0 0 -1 38 200)"/>
</svg>