<svg xmlns="http://www.w3.org/2000/svg" width="486" height="616" fill="none">
  <path stroke="#FFD028" stroke-linecap="round" stroke-width="15" d="M207 367c-21-20-54-55-13-35 50 25-52 23-43-8s6-34-10-44m327 221c-27-11-70-32-26-28 56 5-39 40-42 8s-7-33-26-37M19 60c16 25 39 66 5 38-43-36 55-10 39 18s-14 31 0 45"/>
  <path stroke="#54CD63" stroke-linecap="round" stroke-width="15" d="M263 382c10-12 35-32 54-12 25 26-25 42-24 12 1-23 36-31 53-32"/>
  <path stroke="#FFD028" stroke-linecap="round" stroke-width="15" d="M191 432c8 34 9 96-59 75-85-28 66-62 15 24-41 69-45 35-42 9"/>
  <path stroke="#A9DEFE" stroke-linecap="round" stroke-width="15" d="M277 436c6 35 27 104 60 105 41 1 11-48-7-31-17 16 17 57 37 50 16-6 14-14 11-18"/>
  <path stroke="#54CD63" stroke-linecap="round" stroke-width="15" d="M253 208c16-31 42-98 17-119-32-25-38 31-14 29 24-3 22-56 2-62-16-5-20 3-19 7m-12 242c-6-6-13-21 3-34"/>
  <path stroke="#FFD028" stroke-linecap="round" stroke-width="15" d="M403 405c-9-9-34-24-59-11M233 562c6-15 15-45 0-43"/>
  <path stroke="#54CD63" stroke-linecap="round" stroke-width="15" d="M135 415c-16 1-47 3-46 10M46 290l23 16"/>
  <path stroke="#FFD028" stroke-linecap="round" stroke-width="15" d="m39 384 22-5"/>
  <path stroke="#A9DEFE" stroke-linecap="round" stroke-width="15" d="M189 396c-15 1-49-5-62-31m53-253c-12-10-32-38-22-66"/>
  <path stroke="#54CD63" stroke-linecap="round" stroke-width="15" d="m431 349 26-15M277 573l8 35m-52-183 7 33"/>
  <path stroke="#A9DEFE" stroke-linecap="round" stroke-width="15" d="M338 230c-12 27-41 78-55 59-16-22 43-30 28 10-12 32-33 17-42 5m104-6c2-12 13-34 40-26 33 10-47 14-6-29 41-42 43 53 32 14-9-31 18-37 32-37M59 532l-16 19m146-293c9-16 23-54 7-71"/>
  <circle r="11" fill="#F2463A" transform="scale(1 -1) rotate(-8 -2638 -1902)"/>
  <circle r="11" fill="#F2463A" transform="scale(1 -1) rotate(-8 -981 -1115)"/>
  <circle r="11" fill="#F2463A" transform="scale(1 -1) rotate(-8 56 -2062)"/>
  <circle r="11" fill="#F2463A" transform="scale(1 -1) rotate(-8 -4050 -1538)"/>
  <circle r="11" fill="#F2463A" transform="scale(1 -1) rotate(-8 -1528 -745)"/>
  <circle r="11" fill="#F2463A" transform="scale(1 -1) rotate(-8 -1350 -2371)"/>
  <circle r="11" fill="#F2463A" transform="scale(1 -1) rotate(-8 -3431 -390)"/>
  <circle r="11" fill="#F2463A" transform="scale(1 -1) rotate(-8 -2921 -3586)"/>
  <circle r="11" fill="#F2463A" transform="scale(1 -1) rotate(-8 -3806 -2463)"/>
  <circle r="11" fill="#F2463A" transform="scale(1 -1) rotate(-8 -2145 -2946)"/>
  <circle r="11" fill="#F2463A" transform="scale(1 -1) rotate(-8 -2446 -595)"/>
</svg>