<svg width="1271" height="1172" viewBox="0 0 1271 1172" fill="none" xmlns="http://www.w3.org/2000/svg">
<mask id="path-1-inside-1_636_123" fill="white">
<path d="M0 117H551.5H1271V1161.49C1271 1167.01 1266.52 1171.49 1261 1171.49H9.99999C4.47714 1171.49 0 1167.01 0 1161.49V117Z"/>
</mask>
<path d="M0 117H551.5H1271V1161.49C1271 1167.01 1266.52 1171.49 1261 1171.49H9.99999C4.47714 1171.49 0 1167.01 0 1161.49V117Z" fill="#C4C4C4"/>
<path d="M0 115C-1.10457 115 -2 115.895 -2 117C-2 118.105 -1.10457 119 0 119V115ZM1271 119C1272.1 119 1273 118.105 1273 117C1273 115.895 1272.1 115 1271 115V119ZM1193.63 119H1271V115H1193.63V119ZM0 119H204.943V115H0V119ZM204.943 119H1193.63V115H204.943V119ZM29.4902 143.57H1210.21V139.57H29.4902V143.57ZM1218.21 151.57V1133.68H1222.21V151.57H1218.21ZM1210.21 1141.68H29.4902V1145.68H1210.21V1141.68ZM21.4902 1133.68V151.57H17.4902V1133.68H21.4902ZM1242.02 1145.68H1246.23V1141.68H1242.02V1145.68ZM1246.23 139.57H1242.02V143.57H1246.23V139.57ZM1258.23 426.712V217.22H1254.23V426.712H1258.23ZM1230.02 217.22V426.712H1234.02V217.22H1230.02ZM1230.02 151.57V171.313H1234.02V151.57H1230.02ZM1230.02 171.313V217.22H1234.02V171.313H1230.02ZM1258.23 217.22V171.313H1254.23V217.22H1258.23ZM1258.23 171.313V151.57H1254.23V171.313H1258.23ZM1232.02 173.313H1256.23V169.313H1232.02V173.313ZM1230.02 426.712V1112.65H1234.02V426.712H1230.02ZM1230.02 1112.65V1133.68H1234.02V1112.65H1230.02ZM1258.23 1133.68V1112.65H1254.23V1133.68H1258.23ZM1258.23 1112.65V426.712H1254.23V1112.65H1258.23ZM1232.02 1114.65H1256.23V1110.65H1232.02V1114.65ZM1242.13 217.22V426.712H1246.13V217.22H1242.13ZM1252.18 426.712V217.22H1248.18V426.712H1252.18ZM1236.07 217.22V426.712H1240.07V217.22H1236.07ZM1232.02 428.712H1235.05V424.712H1232.02V428.712ZM1235.05 428.712H1238.07V424.712H1235.05V428.712ZM1238.07 215.22H1235.05V219.22H1238.07V215.22ZM1235.05 215.22H1232.02V219.22H1235.05V215.22ZM1237.05 426.712V217.22H1233.05V426.712H1237.05ZM1244.13 215.22H1241.1V219.22H1244.13V215.22ZM1241.1 215.22H1238.07V219.22H1241.1V215.22ZM1238.07 428.712H1241.1V424.712H1238.07V428.712ZM1241.1 428.712H1244.13V424.712H1241.1V428.712ZM1239.1 217.22V426.712H1243.1V217.22H1239.1ZM1244.13 428.712H1247.15V424.712H1244.13V428.712ZM1247.15 428.712H1250.18V424.712H1247.15V428.712ZM1250.18 215.22H1247.15V219.22H1250.18V215.22ZM1247.15 215.22H1244.13V219.22H1247.15V215.22ZM1249.15 426.712V217.22H1245.15V426.712H1249.15ZM1256.23 215.22H1253.21V219.22H1256.23V215.22ZM1253.21 215.22H1250.18V219.22H1253.21V215.22ZM1250.18 428.712H1253.21V424.712H1250.18V428.712ZM1253.21 428.712H1256.23V424.712H1253.21V428.712ZM1251.21 217.22V426.712H1255.21V217.22H1251.21ZM1246.23 1145.68C1252.86 1145.68 1258.23 1140.31 1258.23 1133.68H1254.23C1254.23 1138.1 1250.65 1141.68 1246.23 1141.68V1145.68ZM1242.02 1141.68C1237.6 1141.68 1234.02 1138.1 1234.02 1133.68H1230.02C1230.02 1140.31 1235.39 1145.68 1242.02 1145.68V1141.68ZM1242.02 139.57C1235.39 139.57 1230.02 144.943 1230.02 151.57H1234.02C1234.02 147.152 1237.6 143.57 1242.02 143.57V139.57ZM29.4902 1141.68C25.0719 1141.68 21.4902 1138.1 21.4902 1133.68H17.4902C17.4902 1140.31 22.8628 1145.68 29.4902 1145.68V1141.68ZM29.4902 139.57C22.8628 139.57 17.4902 144.943 17.4902 151.57H21.4902C21.4902 147.152 25.072 143.57 29.4902 143.57V139.57ZM1218.21 1133.68C1218.21 1138.1 1214.63 1141.68 1210.21 1141.68V1145.68C1216.83 1145.68 1222.21 1140.31 1222.21 1133.68H1218.21ZM1210.21 143.57C1214.63 143.57 1218.21 147.152 1218.21 151.57H1222.21C1222.21 144.943 1216.83 139.57 1210.21 139.57V143.57ZM1246.23 143.57C1250.65 143.57 1254.23 147.152 1254.23 151.57H1258.23C1258.23 144.943 1252.86 139.57 1246.23 139.57V143.57ZM0 117V113C-2.20914 113 -4 114.791 -4 117H0ZM1271 117H1275C1275 114.791 1273.21 113 1271 113V117ZM1261 1167.49H9.99999V1175.49H1261V1167.49ZM4 1161.49V117H-4V1161.49H4ZM1267 117V1161.49H1275V117H1267ZM0 121H551.5V113H0V121ZM551.5 121H1271V113H551.5V121ZM9.99999 1167.49C6.68629 1167.49 4 1164.8 4 1161.49H-4C-4 1169.22 2.268 1175.49 9.99999 1175.49V1167.49ZM1261 1175.49C1268.73 1175.49 1275 1169.22 1275 1161.49H1267C1267 1164.8 1264.31 1167.49 1261 1167.49V1175.49Z" fill="#1C1C1C" mask="url(#path-1-inside-1_636_123)"/>
<path d="M1242.55 150.153C1243.3 148.731 1245.34 148.731 1246.09 150.153L1251.99 161.332C1252.69 162.664 1251.72 164.266 1250.22 164.266H1238.42C1236.91 164.266 1235.95 162.664 1236.65 161.332L1242.55 150.153Z" fill="#1C1C1C"/>
<path d="M1242.53 1137.54C1243.27 1139.01 1245.37 1139.01 1246.11 1137.54L1252.09 1125.58C1252.75 1124.25 1251.79 1122.68 1250.3 1122.68H1238.34C1236.85 1122.68 1235.88 1124.25 1236.55 1125.58L1242.53 1137.54Z" fill="#1C1C1C"/>
<mask id="path-5-outside-2_636_123" maskUnits="userSpaceOnUse" x="15.4041" y="137.271" width="1210" height="1007" fill="black">
<rect fill="white" x="15.4041" y="137.271" width="1210" height="1007"/>
<path d="M1210.55 141.271H29.4045C23.8817 141.271 19.4045 145.748 19.4045 151.271L19.4041 1130.18C19.4041 1135.71 23.8812 1140.18 29.4041 1140.18H619.976H1210.55C1216.07 1140.18 1220.55 1135.71 1220.55 1130.18L1220.55 151.271C1220.55 145.748 1216.07 141.271 1210.55 141.271Z"/>
</mask>
<path d="M1210.55 141.271H29.4045C23.8817 141.271 19.4045 145.748 19.4045 151.271L19.4041 1130.18C19.4041 1135.71 23.8812 1140.18 29.4041 1140.18H619.976H1210.55C1216.07 1140.18 1220.55 1135.71 1220.55 1130.18L1220.55 151.271C1220.55 145.748 1216.07 141.271 1210.55 141.271Z" fill="white"/>
<path d="M1210.55 141.271H29.4045C23.8817 141.271 19.4045 145.748 19.4045 151.271L19.4041 1130.18C19.4041 1135.71 23.8812 1140.18 29.4041 1140.18H619.976H1210.55C1216.07 1140.18 1220.55 1135.71 1220.55 1130.18L1220.55 151.271C1220.55 145.748 1216.07 141.271 1210.55 141.271Z" stroke="#1C1C1C" stroke-width="8" mask="url(#path-5-outside-2_636_123)"/>
<mask id="path-6-inside-3_636_123" fill="white">
<path d="M0 59.4854V9.99999C0 4.47715 4.47715 0 10 0H1115.08H1167.05H1220.21H1261C1266.52 0 1271 4.47715 1271 10V59.4854V129.316H1193.63H204.943H0V59.4854Z"/>
</mask>
<path d="M0 59.4854V9.99999C0 4.47715 4.47715 0 10 0H1115.08H1167.05H1220.21H1261C1266.52 0 1271 4.47715 1271 10V59.4854V129.316H1193.63H204.943H0V59.4854Z" fill="#C4C4C4"/>
<path d="M0 57.4854C-1.10457 57.4854 -2 58.3809 -2 59.4854C-2 60.59 -1.10457 61.4854 0 61.4854V57.4854ZM1271 61.4854C1272.1 61.4854 1273 60.59 1273 59.4854C1273 58.3809 1272.1 57.4854 1271 57.4854V61.4854ZM1222.21 0C1222.21 -1.10457 1221.31 -2 1220.21 -2C1219.1 -2 1218.21 -1.10457 1218.21 0H1222.21ZM1169.05 0C1169.05 -1.10457 1168.16 -2 1167.05 -2C1165.95 -2 1165.05 -1.10457 1165.05 0H1169.05ZM1117.08 0C1117.08 -1.10457 1116.18 -2 1115.08 -2C1113.97 -2 1113.08 -1.10457 1113.08 0H1117.08ZM1191.63 129.316C1191.63 130.421 1192.53 131.316 1193.63 131.316C1194.73 131.316 1195.63 130.421 1195.63 129.316H1191.63ZM202.943 129.316C202.943 130.421 203.838 131.316 204.943 131.316C206.047 131.316 206.943 130.421 206.943 129.316H202.943ZM1123.94 44.5538C1122.83 44.5538 1121.94 45.4492 1121.94 46.5538C1121.94 47.6584 1122.83 48.5538 1123.94 48.5538V44.5538ZM1157.01 48.5538C1158.12 48.5538 1159.01 47.6584 1159.01 46.5538C1159.01 45.4492 1158.12 44.5538 1157.01 44.5538V48.5538ZM1235.84 17.3825C1235.08 16.5769 1233.82 16.5365 1233.01 17.2922C1232.21 18.048 1232.17 19.3136 1232.92 20.1192L1235.84 17.3825ZM1254.74 44.0029C1255.47 44.8286 1256.74 44.903 1257.56 44.1692C1258.39 43.4355 1258.46 42.1713 1257.73 41.3457L1254.74 44.0029ZM1257.73 20.0794C1258.46 19.2538 1258.39 17.9897 1257.56 17.2559C1256.74 16.5221 1255.47 16.5966 1254.74 17.4222L1257.73 20.0794ZM1232.92 41.306C1232.17 42.1115 1232.21 43.3772 1233.01 44.1329C1233.82 44.8887 1235.08 44.8483 1235.84 44.0427L1232.92 41.306ZM1220.21 61.4854H1271V57.4854H1220.21V61.4854ZM1222.21 59.4854V0H1218.21V59.4854H1222.21ZM1165.05 0V59.4854H1169.05V0H1165.05ZM1115.08 61.4854H1167.05V57.4854H1115.08V61.4854ZM1117.08 59.4854V0H1113.08V59.4854H1117.08ZM276.179 85.0034V105.738H280.179V85.0034H276.179ZM288.179 117.738H1170.64V113.738H288.179V117.738ZM1182.64 105.738V85.0033H1178.64V105.738H1182.64ZM1170.64 73.0034H288.179V77.0034H1170.64V73.0034ZM1167.05 61.4854H1193.63V57.4854H1167.05V61.4854ZM1193.63 61.4854H1220.21V57.4854H1193.63V61.4854ZM1191.63 59.4854V129.316H1195.63V59.4854H1191.63ZM0 61.4854H204.943V57.4854H0V61.4854ZM204.943 61.4854H1115.08V57.4854H204.943V61.4854ZM202.943 59.4854V129.316H206.943V59.4854H202.943ZM1123.94 48.5538H1157.01V44.5538H1123.94V48.5538ZM1232.92 20.1192L1244.15 32.081L1247.06 29.3442L1235.84 17.3825L1232.92 20.1192ZM1244.11 32.0412L1254.74 44.0029L1257.73 41.3457L1247.1 29.384L1244.11 32.0412ZM1247.1 32.0412L1257.73 20.0794L1254.74 17.4222L1244.11 29.384L1247.1 32.0412ZM1186.5 48.5538H1198.99V44.5538H1186.5V48.5538ZM1204.46 12.8714H1181.03V16.8714H1204.46V12.8714ZM1174.5 23.9235V36.5538H1178.5V23.9235H1174.5ZM1210.99 36.5538V23.9235H1206.99V36.5538H1210.99ZM1176.5 25.9235H1208.99V21.9235H1176.5V25.9235ZM1210.99 23.9235V19.3974H1206.99V23.9235H1210.99ZM1174.5 19.3974V23.9235H1178.5V19.3974H1174.5ZM1208.99 17.3974H1176.5V21.3974H1208.99V17.3974ZM1244.15 29.3442L1232.92 41.306L1235.84 44.0427L1247.06 32.081L1244.15 29.3442ZM1204.46 16.8714C1205.85 16.8714 1206.99 18.0023 1206.99 19.3974H1210.99C1210.99 15.7932 1208.06 12.8714 1204.46 12.8714V16.8714ZM1198.99 48.5538C1205.61 48.5538 1210.99 43.1812 1210.99 36.5538H1206.99C1206.99 40.9721 1203.4 44.5538 1198.99 44.5538V48.5538ZM1186.5 44.5538C1182.08 44.5538 1178.5 40.9721 1178.5 36.5538H1174.5C1174.5 43.1812 1179.87 48.5538 1186.5 48.5538V44.5538ZM1181.03 12.8714C1177.42 12.8714 1174.5 15.7932 1174.5 19.3974H1178.5C1178.5 18.0023 1179.63 16.8714 1181.03 16.8714V12.8714ZM1182.64 85.0033C1182.64 78.3759 1177.26 73.0034 1170.64 73.0034V77.0034C1175.05 77.0034 1178.64 80.5851 1178.64 85.0033H1182.64ZM1170.64 117.738C1177.26 117.738 1182.64 112.365 1182.64 105.738H1178.64C1178.64 110.156 1175.05 113.738 1170.64 113.738V117.738ZM276.179 105.738C276.179 112.365 281.551 117.738 288.179 117.738V113.738C283.761 113.738 280.179 110.156 280.179 105.738H276.179ZM280.179 85.0034C280.179 80.5851 283.761 77.0034 288.179 77.0034V73.0034C281.551 73.0034 276.179 78.3759 276.179 85.0034H280.179ZM0 129.316H-4C-4 131.525 -2.20914 133.316 0 133.316L0 129.316ZM1271 129.316V133.316C1273.21 133.316 1275 131.525 1275 129.316H1271ZM4 59.4854V9.99999H-4V59.4854H4ZM1267 10V59.4854H1275V10H1267ZM1220.21 4H1261V-4H1220.21V4ZM1167.05 4H1220.21V-4H1167.05V4ZM10 4H1115.08V-4H10V4ZM1115.08 4H1167.05V-4H1115.08V4ZM4 129.316V59.4854H-4V129.316H4ZM1267 59.4854V129.316H1275V59.4854H1267ZM1193.63 133.316H1271V125.316H1193.63V133.316ZM0 133.316H204.943V125.316H0V133.316ZM204.943 133.316H1193.63V125.316H204.943V133.316ZM1275 10C1275 2.26801 1268.73 -4 1261 -4V4C1264.31 4 1267 6.6863 1267 10H1275ZM4 9.99999C4 6.68629 6.68629 4 10 4V-4C2.26802 -4 -4 2.268 -4 9.99999H4Z" fill="#1C1C1C" mask="url(#path-6-inside-3_636_123)"/>
<mask id="path-8-inside-4_636_123" fill="white">
<path d="M0 10V59.4644H204.943H1115.08V0H10C4.47715 0 0 4.47716 0 10Z"/>
</mask>
<path d="M0 10V59.4644H204.943H1115.08V0H10C4.47715 0 0 4.47716 0 10Z" fill="#FCB427"/>
<path d="M1269 10V59.4644H1273V10H1269ZM1220.21 2H1261V-2H1220.21V2ZM1167.05 2H1220.21V-2H1167.05V2ZM1115.08 61.4644H1167.05V57.4644H1115.08V61.4644ZM1115.08 2H1167.05V-2H1115.08V2ZM2 129.27V59.4644H-2V129.27H2ZM1269 59.4644V129.27H1273V59.4644H1269ZM1167.05 61.4644H1193.63V57.4644H1167.05V61.4644ZM1193.63 61.4644H1220.21V57.4644H1193.63V61.4644ZM1123.94 48.5373H1157.01V44.5373H1123.94V48.5373ZM1230.5 16.1683L1244.09 32.0039L1247.12 29.3995L1233.54 13.5639L1230.5 16.1683ZM1244.09 32.0039L1257.67 47.8395L1260.71 45.2352L1247.12 29.3995L1244.09 32.0039ZM1247.12 32.0039L1260.71 16.1683L1257.67 13.5639L1244.09 29.3995L1247.12 32.0039ZM1244.09 29.3995L1230.5 45.2352L1233.54 47.8395L1247.12 32.0039L1244.09 29.3995ZM1273 10C1273 3.37258 1267.63 -2 1261 -2V2C1265.42 2 1269 5.58173 1269 10H1273ZM0 59.4644H-4V63.4644H0V59.4644ZM1115.08 59.4644V63.4644H1119.08V59.4644H1115.08ZM1115.08 0H1119.08V-4H1115.08V0ZM4 59.4644V10H-4V59.4644H4ZM10 4H1115.08V-4H10V4ZM1119.08 59.4644V0H1111.08V59.4644H1119.08ZM0 63.4644H204.943V55.4644H0V63.4644ZM204.943 63.4644H1115.08V55.4644H204.943V63.4644ZM4 10C4 6.68629 6.68629 4 10 4V-4C2.26801 -4 -4 2.26802 -4 10H4Z" fill="#1C1C1C" mask="url(#path-8-inside-4_636_123)"/>
<path d="M235.449 77.4846C241.115 79.2941 245.259 85.0762 245.259 91.9295C245.259 99.5671 240.112 105.874 233.447 106.835M235.449 77.4846L237.713 83.5781M235.449 77.4846L240.731 75.2268M227.903 106.374C222.236 104.565 218.092 98.7827 218.092 91.9295C218.092 84.2918 223.239 77.9846 229.904 77.0238M227.903 106.374L226.393 100.698M227.903 106.374L222.62 108.215" stroke="#1C1C1C" stroke-width="4" stroke-linecap="round" stroke-linejoin="round"/>
<path fill-rule="evenodd" clip-rule="evenodd" d="M93.3045 110.649L116.346 91.6172L93.3045 72.5854V82.5683H71.4443V99.3734H93.3045V110.649Z" fill="#1C1C1C"/>
<path fill-rule="evenodd" clip-rule="evenodd" d="M33.0416 110.649L9.99998 91.6172L33.0416 72.5854V82.5683H54.9017V99.3734H33.0416V110.649Z" fill="#1C1C1C"/>
<path fill-rule="evenodd" clip-rule="evenodd" d="M163.02 70L181.335 87.81H181.335V87.8104L181.335 87.8106H181.335V113.969H169.634V95.0461H161.494V113.969H144.705V87.81H144.706L163.02 70Z" fill="#1C1C1C"/>
<mask id="path-14-outside-5_636_123" maskUnits="userSpaceOnUse" x="258" y="70" width="926" height="49" fill="black">
<rect fill="white" x="258" y="70" width="926" height="49"/>
<path d="M262 104.733V84C262 78.4772 266.477 74 272 74H1169.55C1175.07 74 1179.55 78.4772 1179.55 84V104.733C1179.55 110.255 1175.07 114.733 1169.55 114.733H272C266.477 114.733 262 110.255 262 104.733Z"/>
</mask>
<path d="M262 104.733V84C262 78.4772 266.477 74 272 74H1169.55C1175.07 74 1179.55 78.4772 1179.55 84V104.733C1179.55 110.255 1175.07 114.733 1169.55 114.733H272C266.477 114.733 262 110.255 262 104.733Z" fill="white"/>
<path d="M262 104.733V84C262 78.4772 266.477 74 272 74H1169.55C1175.07 74 1179.55 78.4772 1179.55 84V104.733C1179.55 110.255 1175.07 114.733 1169.55 114.733H272C266.477 114.733 262 110.255 262 104.733Z" stroke="#1C1C1C" stroke-width="8" mask="url(#path-14-outside-5_636_123)"/>
<rect x="1206" y="80.7319" width="50.4519" height="33.958" rx="1" fill="#1C1C1C"/>
<path d="M1208.12 72.6227C1208.27 72.2462 1208.64 72 1209.04 72H1224.3C1224.71 72 1225.07 72.2462 1225.23 72.6227L1226.78 76.4441C1227.05 77.1018 1226.57 77.8214 1225.86 77.8214H1207.49C1206.78 77.8214 1206.29 77.1018 1206.56 76.4441L1208.12 72.6227Z" fill="#1C1C1C"/>
<rect x="1178" y="16" width="29" height="7" fill="#1C1C1C"/>
<rect y="56" width="1117" height="5" fill="#1C1C1C"/>
<rect x="1111" width="6" height="57" fill="#1C1C1C"/>
</svg>
