<svg width="1440" height="270" viewBox="0 0 1440 270" fill="none" xmlns="http://www.w3.org/2000/svg">
<path d="M540 175.717H632V270H540V175.717Z" fill="#FFCC95"/>
<rect x="628" y="175.717" width="93" height="94.283" fill="#FFCC95"/>
<rect x="721" y="175.717" width="89" height="94.283" fill="#FFCC95"/>
<rect x="181" y="90" width="89" height="88" fill="#FFCC95"/>
<rect x="810" y="175.717" width="90" height="94.283" fill="#FED9AF"/>
<rect x="900" y="175.717" width="89" height="94.283" fill="#FFCC95"/>
<rect x="989" y="175.717" width="91" height="94.283" fill="#FED9AF"/>
<rect x="1080" y="175.717" width="89" height="94.283" fill="#FFCC95"/>
<rect x="1169" y="175.717" width="91" height="94.283" fill="#FED9AF"/>
<rect x="1260" y="91.3585" width="90" height="85" fill="#FED9AF"/>
<rect x="1256.13" y="175.717" width="93.9348" height="94.283" fill="#FED9AF"/>
<rect x="1350" y="175.717" width="90" height="94.283" fill="#FED9AF"/>
<rect x="359" y="175.717" width="91" height="94.283" fill="#FFCC95"/>
<rect x="450" y="175.717" width="90" height="94.283" fill="#FED9AF"/>
<rect x="178" y="176" width="92" height="94" fill="#FFCC95"/>
<rect x="270" y="90" width="89" height="86" fill="#FED9AF"/>
<rect x="721" y="89.3735" width="89" height="86.3434" fill="#FED9AF"/>
<rect x="900" width="89" height="89" fill="#FED9AF"/>
<rect x="270" y="176" width="89" height="94" fill="#FED9AF"/>
<rect y="175.717" width="89.9375" height="94.283" fill="#FED9AF"/>
<rect x="89.9375" y="175.717" width="90.9369" height="94.283" fill="#FED9AF"/>
</svg>
