<svg width="1440" height="453" viewBox="0 0 1440 453" fill="none" xmlns="http://www.w3.org/2000/svg">
<path d="M0 2H45M1440 2H1395M0 325H90M1440 325H1350M720 2H765M720 2H675M720 2L630 325M1080 2H1125M1080 2H1035M1080 2L1440 53H0L360 2M360 2H405M360 2H315M900 2H945M900 2H855M900 2L1350 325M540 2H585M540 2H495M540 2L90 325M90 2H225M90 2H135M90 2H45M270 2H405M270 2H315M270 2H225M270 2L0 15.5H1440L1215 2M450 2H585M450 2H495M450 2H405M450 2L0 168H1440L990 2M630 2H765M630 2H675M630 2H585M810 2H945M810 2H855M810 2H765M810 2L990 325M990 2H1035M990 2H945M1395 2H1350H1305M1395 2H1305M1305 2H1260H1215M1305 2H1215M1215 2H1170H1125M1215 2H1125M1125 2L1440 25H0L315 2M1035 2L1440 100H0L405 2M945 2L1440 255.5H0L495 2M855 2L1170 325M765 2L810 325M675 2H585M675 2L450 325M585 2L270 325M225 2H180H135M135 2H45M630 325H540H450M630 325H720H810M630 325H810M630 325H270M630 325V452.5M810 325H900H990M810 325H990M810 325V452.5M990 325H1080H1170M990 325H1170M990 325V452.5M1170 325H1260H1350M1170 325H1350M1170 325V452.5M1350 325V452.5M450 325H360H270M450 325H270M450 325V452.5M270 325H180H90M270 325H90M270 325V452.5M90 325V452.5M1440 7H0M0 38.5H1440M0 73.5H1440M0 131H1440M0 209H1440" stroke="url(#paint0_diamond_34_724)" stroke-width="4"/>
<defs>
<radialGradient id="paint0_diamond_34_724" cx="0" cy="0" r="1" gradientUnits="userSpaceOnUse" gradientTransform="translate(720 227.25) rotate(90) scale(402.25 1285.77)">
<stop stop-color="white"/>
<stop offset="1" stop-color="white" stop-opacity="0"/>
</radialGradient>
</defs>
</svg>
