<svg width="808" height="415" viewBox="0 0 808 415" fill="none" xmlns="http://www.w3.org/2000/svg">
<path d="M78.7756 339.918L3.49805 273.338H157.475H231.042H386.729H395.284H515.614H529.301H695.824H804.748L759.695 290.549L755.704 295.078L699.816 290.549L682.707 295.078L661.036 298.249L639.365 287.379L625.679 290.549L611.992 302.778L592.602 316.819H585.759L573.783 334.936H564.658L560.788 344.9L480.826 342.182L472.842 351.727L426.649 406.951L393.573 404.082L377.035 412.386L343.184 401.516L263.548 410.574L231.042 379.322L193.403 394.269L183.138 365.735H167.74L146.069 342.182L111.282 336.294L98.1653 344.9L78.7756 339.918Z" fill="#90685A"/>
<path d="M146.069 342.182L111.282 336.294L98.1653 344.9L78.7756 339.918L3.49805 273.338H157.475M146.069 342.182L168.631 349.429L111.282 305.948L85.619 294.172M146.069 342.182L167.74 365.735M167.74 365.735H183.138M167.74 365.735L180.286 313.195M183.138 365.735L193.403 394.269L231.042 379.322M183.138 365.735L219.636 337.653M231.042 379.322L263.548 410.574L343.184 401.516M231.042 379.322L249.861 365.735L249.861 331.765L283.508 314.101L299.476 331.765V353.053L330.841 342.182L349.091 394.269L343.184 401.516M343.184 401.516L377.035 412.386M377.035 412.386L393.573 404.082M377.035 412.386L386.729 394.269M480.826 342.182L560.788 344.9M480.826 342.182L494.513 316.819L515.614 309.572L529.301 273.338M480.826 342.182L472.842 351.727M560.788 344.9L557.244 309.119L571.502 291.908L574.353 295.078L570.361 316.819L564.658 334.936M560.788 344.9L564.658 334.936M564.658 334.936H573.783L585.759 316.819H592.602M564.658 334.936L576.064 316.819L592.602 290.549M592.602 316.819L611.992 302.778L625.679 290.549M592.602 316.819V306.401L625.679 290.549M625.679 290.549L639.365 287.379M639.365 287.379L661.036 298.249L682.707 295.078L699.816 290.549L755.704 295.078L759.695 290.549L804.748 273.338H695.824M639.365 287.379L695.824 273.338M695.824 273.338H529.301M529.301 273.338H515.614M515.614 273.338L494.513 298.249L455.163 328.142M515.614 273.338H395.284M455.163 328.142L472.842 351.727M455.163 328.142V345.353L429.501 379.322L426.649 370.264M472.842 351.727L426.649 406.951L393.573 404.082M426.649 370.264L451.172 319.536H440.906L430.641 298.702L420.946 328.142L403.268 330.859M426.649 370.264L419.236 372.981M419.236 372.981L393.573 404.082M419.236 372.981L413.533 370.264L403.268 330.859M393.573 404.082L386.729 394.269M386.729 394.269L399.276 386.569L403.268 330.859M157.475 273.338L180.286 313.195M157.475 273.338H231.042M180.286 313.195L196.254 295.078L198.535 306.401L219.636 337.653M219.636 337.653L249.861 302.778L231.042 273.338M231.042 273.338H386.729M395.284 273.338L410.681 313.195L379.886 294.625L352.512 353.053L367.34 298.249L386.729 273.338M395.284 273.338H386.729" stroke="#02365E" stroke-width="5" stroke-linecap="round" stroke-linejoin="round"/>
<path d="M183.138 365.735H167.74L180.286 313.195L196.254 295.078L198.535 306.401L219.636 337.653L183.138 365.735L193.403 394.269L231.042 379.322L249.861 365.735L249.861 331.765L283.508 314.101L299.476 331.765V353.053L330.841 342.182L349.091 394.269L343.184 401.516L377.035 412.386L386.729 394.269L399.276 386.569L403.268 330.859L420.946 328.142L430.641 298.702L440.906 319.536H451.172L426.649 370.264L429.501 379.322L455.163 345.353V328.142L494.513 298.249L515.614 273.338H395.284L410.681 313.195L379.886 294.625L352.512 353.053L367.34 298.249L386.729 273.338H395.284H515.614H529.301L515.614 309.572L494.513 316.819L480.826 342.182L560.788 344.9L557.244 309.119L571.502 291.908L574.353 295.078L570.361 316.819L564.658 334.936H573.783L585.759 316.819H592.602V306.401L625.679 290.549L639.365 287.379L695.824 273.338H804.748L759.695 290.549L755.704 295.078L699.816 290.549L682.707 295.078L661.036 298.249L639.365 287.379L625.679 290.549L611.992 302.778L592.602 316.819H585.759L573.783 334.936H564.658L560.788 344.9L480.826 342.182L472.842 351.727L426.649 406.951L393.573 404.082L377.035 412.386L343.184 401.516L263.548 410.574L231.042 379.322L193.403 394.269L183.138 365.735Z" fill="#30262D"/>
<path d="M3.49805 273.338L78.7756 339.918L98.1653 344.9L111.282 336.294L146.069 342.182M146.069 342.182L168.631 349.429L111.282 305.948L85.619 294.172M146.069 342.182L167.74 365.735M167.74 365.735H183.138M167.74 365.735L180.286 313.195M183.138 365.735L193.403 394.269L231.042 379.322M183.138 365.735L219.636 337.653M231.042 379.322L263.548 410.574L343.184 401.516M231.042 379.322L249.861 365.735L249.861 331.765L283.508 314.101L299.476 331.765V353.053L330.841 342.182L349.091 394.269L343.184 401.516M343.184 401.516L377.035 412.386M377.035 412.386L393.573 404.082M377.035 412.386L386.729 394.269M480.826 342.182L560.788 344.9M480.826 342.182L494.513 316.819L515.614 309.572L529.301 273.338H515.614M480.826 342.182L472.842 351.727M560.788 344.9L557.244 309.119L571.502 291.908L574.353 295.078L570.361 316.819L564.658 334.936M560.788 344.9L564.658 334.936M564.658 334.936H573.783L585.759 316.819H592.602M564.658 334.936L576.064 316.819L592.602 290.549M592.602 316.819L611.992 302.778L625.679 290.549M592.602 316.819V306.401L625.679 290.549M625.679 290.549L639.365 287.379M639.365 287.379L661.036 298.249L682.707 295.078L699.816 290.549L755.704 295.078L759.695 290.549L804.748 273.338H695.824L639.365 287.379ZM515.614 273.338L494.513 298.249L455.163 328.142M515.614 273.338H395.284M455.163 328.142L472.842 351.727M455.163 328.142V345.353L429.501 379.322L426.649 370.264M472.842 351.727L426.649 406.951L393.573 404.082M426.649 370.264L451.172 319.536H440.906L430.641 298.702L420.946 328.142L403.268 330.859M426.649 370.264L419.236 372.981M419.236 372.981L393.573 404.082M419.236 372.981L413.533 370.264L403.268 330.859M393.573 404.082L386.729 394.269M386.729 394.269L399.276 386.569L403.268 330.859M157.475 273.338L180.286 313.195M180.286 313.195L196.254 295.078L198.535 306.401L219.636 337.653M219.636 337.653L249.861 302.778L231.042 273.338M395.284 273.338L410.681 313.195L379.886 294.625L352.512 353.053L367.34 298.249L386.729 273.338H395.284Z" stroke="#02365E" stroke-width="5" stroke-linecap="round" stroke-linejoin="round"/>
<path d="M330.841 342.182L349.09 394.269L343.183 401.516L377.034 412.386L386.729 394.269L399.275 386.569L403.267 330.859L413.532 370.264L419.235 372.981L426.648 370.264L429.5 379.322L455.163 345.353V328.142L472.842 351.727L480.825 342.182L494.512 316.819L515.613 309.572L529.3 273.338H515.613H395.283H386.729H231.041L249.86 302.778L219.635 337.653L198.535 306.401L196.253 295.078L180.285 313.195L157.474 273.338H231.041H386.729H395.283H515.613H529.3H596.5H695.823L639.365 287.379L625.678 290.549L592.601 306.401V316.819H585.758L573.782 334.936H564.657L576.063 316.819L592.601 290.549L596.5 273.338H529.3L515.613 309.572L494.512 316.819L480.825 342.182L472.842 351.727L426.648 406.951L393.572 404.082L386.729 394.269L377.034 412.386L343.183 401.516L263.547 410.574L299.475 394.269L319 372.981L299.475 353.053L330.841 342.182Z" fill="#BE8973"/>
<path d="M168.63 349.429L146.068 342.182L167.739 365.735H183.137L219.635 337.653M263.547 410.574L231.041 379.322L249.86 365.735L249.86 331.765M263.547 410.574L343.183 401.516M263.547 410.574L299.475 394.269L319 372.981L299.475 353.053M343.183 401.516L349.09 394.269L330.841 342.182L299.475 353.053M343.183 401.516L377.034 412.386L386.729 394.269M560.787 344.9L564.657 334.936M571.501 291.908L574.352 295.078L570.36 316.819L564.657 334.936M564.657 334.936H573.782L585.758 316.819H592.601V306.401L625.678 290.549L639.365 287.379L695.823 273.338M564.657 334.936L576.063 316.819L592.601 290.549L596.5 273.338M682.706 295.078L699.815 290.549L755.703 295.078L759.695 290.549L804.747 273.338H695.823M695.823 273.338H596.5M529.3 273.338L515.613 309.572L494.512 316.819L480.825 342.182L472.842 351.727M529.3 273.338H515.613M529.3 273.338H596.5M515.613 273.338L494.512 298.249M515.613 273.338H395.283M472.842 351.727L426.648 406.951L393.572 404.082M472.842 351.727L455.163 328.142V345.353L429.5 379.322L426.648 370.264M426.648 370.264L451.171 319.536H440.906M426.648 370.264L419.235 372.981M419.235 372.981L393.572 404.082M419.235 372.981L413.532 370.264L403.267 330.859M393.572 404.082L386.729 394.269M386.729 394.269L399.275 386.569L403.267 330.859M403.267 330.859L420.946 328.142M219.635 337.653L198.535 306.401L196.253 295.078L180.285 313.195L157.474 273.338H231.041M219.635 337.653L249.86 302.778L231.041 273.338M231.041 273.338H386.729M299.475 353.053V331.765M395.283 273.338L410.681 313.195L379.885 294.625L352.511 353.053M395.283 273.338H386.729M367.339 298.249L386.729 273.338" stroke="#02365E" stroke-width="5" stroke-linecap="round" stroke-linejoin="round"/>
<path d="M10.9335 271.846C16.2184 271.176 23.68 270.522 33.1289 269.894C53.6435 268.53 83.33 267.3 119.966 266.267C193.228 264.2 294.184 262.922 404.922 262.922C515.661 262.922 615.906 264.2 688.456 266.267C724.736 267.3 754.066 268.53 774.313 269.894C783.642 270.522 791 271.176 796.208 271.846C791 272.516 783.642 273.17 774.313 273.799C754.066 275.162 724.736 276.392 688.456 277.425C615.906 279.492 515.661 280.77 404.922 280.77C294.184 280.77 193.228 279.492 119.966 277.425C83.33 276.392 53.6435 275.162 33.1289 273.799C23.68 273.17 16.2184 272.517 10.9335 271.846Z" fill="#54CD63" stroke="#02365E" stroke-width="5"/>
<path fill-rule="evenodd" clip-rule="evenodd" d="M152.093 212.58C151.726 212.966 151.726 213.572 152.093 213.958L159.308 221.549C159.702 221.963 160.363 221.963 160.758 221.549L168.096 213.828C168.701 213.191 168.25 212.139 167.371 212.139H152.941C152.667 212.139 152.405 212.252 152.216 212.45L152.093 212.58ZM155.244 227.349C155.611 226.963 155.611 226.357 155.244 225.971L151.868 222.419C151.23 221.749 150.114 222.229 150.183 223.152C150.345 225.332 150.584 227.489 150.895 229.621C151.014 230.437 152.016 230.745 152.584 230.148L155.244 227.349ZM159.308 231.772C159.702 231.357 160.363 231.357 160.758 231.772L165.306 236.557C165.911 237.194 165.46 238.246 164.581 238.246H155.484C154.605 238.246 154.154 237.194 154.759 236.557L159.308 231.772ZM174.895 236.423C174.501 236.837 173.84 236.837 173.445 236.423L164.821 227.349C164.454 226.963 164.454 226.357 164.821 225.971L173.17 217.187C173.565 216.772 174.226 216.772 174.62 217.187L183.244 226.261C183.611 226.647 183.611 227.252 183.244 227.638L174.895 236.423ZM174.895 246.645C174.501 246.231 173.84 246.231 173.445 246.645L165.414 255.096C165.047 255.482 165.047 256.087 165.414 256.474L174.081 265.592C174.475 266.007 175.136 266.007 175.531 265.592L183.563 257.142C183.93 256.756 183.93 256.15 183.563 255.764L174.895 246.645ZM161.672 272.219C156.509 264.988 152.323 256.947 149.316 248.312C149.288 248.232 149.243 248.159 149.185 248.098L148.934 247.834C148.857 247.753 148.857 247.626 148.934 247.545C148.988 247.489 149.006 247.407 148.981 247.334C145.706 237.594 143.925 227.116 143.925 216.207C143.925 215.576 143.931 214.946 143.943 214.318C143.946 214.17 143.89 214.026 143.788 213.918L143.659 213.783C143.525 213.642 143.525 213.42 143.659 213.278L143.774 213.158C143.844 213.084 143.844 212.968 143.774 212.894C143.704 212.821 143.704 212.705 143.774 212.631L143.899 212.5C143.963 212.433 144 212.344 144.003 212.251C145.975 162.609 184.885 122.76 232.895 122.76C255.845 122.76 276.715 131.865 292.465 146.794C292.534 146.858 292.624 146.895 292.718 146.895H292.74C292.931 146.895 293.085 147.049 293.085 147.24C293.085 147.334 293.124 147.424 293.191 147.489C294.228 148.494 295.242 149.524 296.233 150.58C296.406 150.764 296.502 151.007 296.502 151.26V157.19C296.502 158.137 295.296 158.563 294.683 157.843C293.574 156.541 292.43 155.274 291.25 154.045C290.859 153.637 290.206 153.643 289.817 154.053L279.152 165.273C278.785 165.659 278.785 166.265 279.152 166.651L287.666 175.602C288.06 176.016 288.721 176.016 289.115 175.602L294.777 169.645C295.399 168.99 296.502 169.431 296.502 170.334V176.129C296.502 176.385 296.403 176.632 296.227 176.818L295.505 177.577C295.155 177.945 295.416 178.553 295.924 178.553C296.243 178.553 296.502 178.811 296.502 179.13V184.456C296.502 184.509 296.458 184.553 296.405 184.553C296.32 184.553 296.276 184.655 296.334 184.716L296.454 184.842C296.485 184.874 296.502 184.917 296.502 184.961V191.085C296.502 191.988 295.399 192.428 294.777 191.774L289.117 185.822C288.722 185.408 288.061 185.408 287.667 185.823L280.46 193.405C280.093 193.791 280.093 194.397 280.46 194.783L288.325 203.058C288.72 203.473 289.381 203.473 289.775 203.058L294.777 197.796C295.399 197.141 296.502 197.581 296.502 198.485V204.384C296.502 204.573 296.429 204.755 296.299 204.893L295.783 205.435C295.53 205.701 295.719 206.139 296.085 206.139C296.315 206.139 296.502 206.326 296.502 206.556V217.854C296.502 218.758 295.399 219.198 294.777 218.543L289.775 213.281C289.381 212.866 288.72 212.866 288.325 213.281L276.124 226.118C275.757 226.504 275.757 227.11 276.124 227.496L285.119 236.96C285.513 237.374 286.174 237.374 286.569 236.96L294.777 228.324C295.399 227.669 296.502 228.11 296.502 229.013V234.808C296.502 235.064 296.403 235.311 296.227 235.497L295.006 236.781C294.481 237.333 294.872 238.246 295.634 238.246C296.113 238.246 296.502 238.634 296.502 239.113V243.246C296.502 243.798 296.054 244.246 295.502 244.246H294.375C293.496 244.246 293.045 245.298 293.65 245.935L296.227 248.646C296.403 248.832 296.502 249.078 296.502 249.335V263.016C296.502 263.272 296.403 263.519 296.227 263.705L294.248 265.787C293.642 266.423 294.094 267.475 294.972 267.475H295.502C296.054 267.475 296.502 267.923 296.502 268.475V270.378C296.502 270.93 296.949 271.378 297.502 271.378H303.683C304.117 271.378 304.371 271.865 304.119 272.219L303.52 273.057C303.333 273.319 303.03 273.475 302.707 273.475H301.677H257.812C257.678 273.475 257.549 273.531 257.457 273.628C257.263 273.832 256.939 273.832 256.745 273.628C256.653 273.531 256.524 273.475 256.389 273.475H229.417C229.273 273.475 229.136 273.534 229.037 273.639C228.831 273.856 228.484 273.856 228.277 273.639C228.178 273.534 228.041 273.475 227.897 273.475H200.9C200.844 273.475 200.791 273.498 200.752 273.539C200.672 273.623 200.538 273.623 200.457 273.539C200.419 273.498 200.366 273.475 200.31 273.475H164.113H163.084C162.761 273.475 162.458 273.319 162.27 273.057L161.672 272.219ZM154.992 244.246C154.641 244.246 154.391 244.588 154.501 244.921C154.525 244.994 154.565 245.06 154.618 245.115L159.9 250.673C160.294 251.088 160.956 251.088 161.35 250.673L165.854 245.935C166.459 245.298 166.007 244.246 165.129 244.246H154.992ZM166.029 267.475C165.807 267.475 165.599 267.366 165.473 267.182C165.423 267.109 165.373 267.035 165.323 266.962C164.808 266.2 165.723 265.497 166.356 266.163L166.519 266.334C166.928 266.765 166.623 267.475 166.029 267.475ZM189.076 251.342C188.682 251.757 188.021 251.757 187.626 251.342L182.487 245.935C181.882 245.298 182.333 244.246 183.212 244.246H193.49C194.369 244.246 194.821 245.298 194.215 245.935L189.076 251.342ZM189.076 261.565C188.682 261.15 188.021 261.15 187.626 261.565L183.613 265.787C183.008 266.423 183.46 267.475 184.338 267.475H192.364C193.243 267.475 193.694 266.423 193.089 265.787L189.076 261.565ZM203.1 266.096C202.706 266.511 202.044 266.511 201.65 266.096L193.14 257.142C192.773 256.756 192.773 256.15 193.14 255.764L201.489 246.98C201.883 246.565 202.544 246.565 202.939 246.98L211.449 255.934C211.816 256.32 211.816 256.926 211.449 257.312L203.1 266.096ZM188.758 221.838C188.364 222.253 187.702 222.253 187.308 221.838L179.695 213.828C179.089 213.191 179.541 212.139 180.419 212.139H195.646C196.525 212.139 196.977 213.191 196.371 213.828L188.758 221.838ZM192.306 238.246C193.185 238.246 193.637 237.194 193.031 236.557L188.758 232.061C188.364 231.646 187.702 231.646 187.308 232.061L183.035 236.557C182.429 237.194 182.881 238.246 183.759 238.246H192.306ZM192.821 226.261C192.454 226.647 192.454 227.252 192.821 227.638L201.489 236.757C201.883 237.172 202.544 237.172 202.939 236.757L211.664 227.577C212.031 227.191 212.031 226.586 211.664 226.2L202.997 217.081C202.602 216.666 201.941 216.666 201.547 217.081L192.821 226.261ZM210.937 244.246C210.058 244.246 209.607 245.298 210.212 245.935L215.513 251.511C215.907 251.926 216.568 251.926 216.962 251.511L222.263 245.935C222.868 245.298 222.417 244.246 221.538 244.246H210.937ZM212.386 267.475C211.507 267.475 211.056 266.423 211.661 265.787L215.513 261.734C215.907 261.32 216.568 261.32 216.962 261.734L220.814 265.787C221.419 266.423 220.968 267.475 220.089 267.475H212.386ZM221.026 255.934C220.659 256.32 220.659 256.926 221.026 257.312L228.891 265.587C229.286 266.002 229.947 266.002 230.341 265.587L239.067 256.407C239.434 256.021 239.434 255.415 239.067 255.029L231.201 246.754C230.807 246.339 230.146 246.339 229.752 246.754L221.026 255.934ZM231.201 236.531C230.807 236.946 230.146 236.946 229.752 236.531L221.241 227.577C220.874 227.191 220.874 226.586 221.241 226.2L230.821 216.121C231.215 215.706 231.876 215.706 232.27 216.121L240.781 225.075C241.148 225.461 241.148 226.067 240.781 226.453L231.201 236.531ZM220.784 238.246C221.663 238.246 222.114 237.194 221.509 236.557L217.177 232C216.783 231.585 216.122 231.585 215.728 232L211.396 236.557C210.791 237.194 211.242 238.246 212.121 238.246H220.784ZM215.728 221.777C216.122 222.192 216.783 222.192 217.177 221.777L224.733 213.828C225.338 213.191 224.887 212.139 224.008 212.139H208.897C208.018 212.139 207.567 213.191 208.172 213.828L215.728 221.777ZM200.568 205.828C200.757 206.027 201.019 206.139 201.293 206.139H203.25C203.524 206.139 203.786 206.027 203.975 205.828L212.576 196.779C212.943 196.393 212.943 195.787 212.576 195.401L203.952 186.328C203.558 185.913 202.897 185.913 202.502 186.328L192.923 196.406C192.556 196.792 192.556 197.398 192.923 197.784L200.568 205.828ZM187.409 202.207C187.804 201.792 188.465 201.792 188.859 202.207L190.991 204.45C191.597 205.087 191.145 206.139 190.266 206.139H186.002C185.123 206.139 184.672 205.087 185.277 204.45L187.409 202.207ZM187.409 191.984C187.804 192.399 188.465 192.399 188.859 191.984L194.317 186.242C194.923 185.605 194.471 184.553 193.592 184.553H182.676C181.797 184.553 181.346 185.605 181.951 186.242L187.409 191.984ZM174.688 188.823C175.082 188.408 175.743 188.408 176.138 188.823L183.346 196.406C183.713 196.792 183.713 197.398 183.346 197.784L175.7 205.828C175.511 206.027 175.249 206.139 174.975 206.139H172.815C172.541 206.139 172.279 206.027 172.091 205.828L165.96 199.378C165.593 198.992 165.593 198.386 165.96 198L174.688 188.823ZM160.445 203.798C160.839 203.384 161.5 203.384 161.894 203.799L162.514 204.45C163.119 205.087 162.668 206.139 161.789 206.139H160.55C159.671 206.139 159.219 205.087 159.825 204.45L160.445 203.798ZM150.929 202.555C150.788 203.505 151.937 204.049 152.598 203.353L156.381 199.376C156.748 198.99 156.748 198.384 156.381 197.998L153.869 195.356C153.325 194.783 152.366 195.038 152.192 195.808C151.689 198.025 151.267 200.276 150.929 202.555ZM154.73 186.795C154.612 187.145 154.699 187.531 154.953 187.798L160.446 193.577C160.84 193.992 161.501 193.992 161.896 193.578L168.873 186.242C169.479 185.605 169.027 184.553 168.148 184.553H156.22C155.802 184.553 155.426 184.814 155.285 185.208C155.095 185.735 154.91 186.264 154.73 186.795ZM174.347 178.242C174.536 178.44 174.798 178.553 175.072 178.553H175.757C176.031 178.553 176.293 178.44 176.482 178.242L185.722 168.527C186.089 168.141 186.089 167.535 185.722 167.149L174.633 155.483C174.237 155.066 173.572 155.068 173.184 155.491C169.994 158.974 167.075 162.735 164.464 166.738C164.213 167.124 164.262 167.631 164.579 167.964L174.347 178.242ZM160.222 173.971C160.537 173.37 161.348 173.264 161.816 173.755L164.77 176.864C165.375 177.501 164.924 178.553 164.045 178.553H159.536C158.809 178.553 158.326 177.802 158.637 177.145C159.146 176.075 159.674 175.016 160.222 173.971ZM244.58 250.607C244.186 251.021 243.525 251.021 243.13 250.607L238.69 245.935C238.085 245.298 238.536 244.246 239.415 244.246H248.296C249.174 244.246 249.626 245.298 249.02 245.935L244.58 250.607ZM244.58 260.829C244.186 260.415 243.525 260.415 243.13 260.829L238.419 265.787C237.813 266.423 238.265 267.475 239.143 267.475H248.567C249.446 267.475 249.897 266.423 249.292 265.787L244.58 260.829ZM259.089 265.871C258.694 266.285 258.033 266.285 257.639 265.871L248.644 256.407C248.277 256.021 248.277 255.415 248.644 255.029L258.855 244.286C258.879 244.26 258.913 244.246 258.948 244.246C258.983 244.246 259.017 244.26 259.041 244.286L268.668 254.414C269.035 254.8 269.035 255.406 268.668 255.792L259.089 265.871ZM216.64 201.202C217.034 200.787 217.695 200.787 218.09 201.202L221.177 204.45C221.783 205.087 221.331 206.139 220.453 206.139H214.277C213.398 206.139 212.947 205.087 213.552 204.45L216.64 201.202ZM239.083 212.139C238.204 212.139 237.753 213.191 238.358 213.828L244.845 220.652C245.239 221.067 245.9 221.067 246.294 220.652L253.435 213.14C253.652 212.911 253.652 212.552 253.435 212.323C253.323 212.206 253.168 212.139 253.005 212.139H239.083ZM250.358 226.453C249.991 226.067 249.991 225.461 250.358 225.075L257.232 217.843C257.626 217.428 258.287 217.428 258.681 217.843L266.547 226.118C266.914 226.504 266.914 227.11 266.547 227.496L259.673 234.728C259.279 235.142 258.618 235.142 258.223 234.728L250.358 226.453ZM266.926 238.246C266.047 238.246 265.596 237.194 266.201 236.557L270.61 231.918C271.005 231.504 271.666 231.504 272.06 231.918L276.469 236.557C277.074 237.194 276.623 238.246 275.744 238.246H266.926ZM279.871 178.553C280.75 178.553 281.201 177.5 280.596 176.863L275.088 171.073C274.694 170.658 274.033 170.659 273.639 171.073L268.135 176.864C267.53 177.501 267.981 178.553 268.86 178.553H279.871ZM280.32 152.895C281.199 152.895 281.65 153.947 281.045 154.583L275.087 160.852C274.693 161.267 274.032 161.267 273.637 160.852L267.675 154.584C267.07 153.947 267.521 152.895 268.4 152.895H280.32ZM269.573 166.652C269.94 166.266 269.94 165.66 269.573 165.274L260.903 156.158C260.509 155.744 259.848 155.744 259.454 156.159L252.255 163.732C251.888 164.118 251.888 164.724 252.255 165.11L260.923 174.229C261.317 174.643 261.978 174.643 262.372 174.229L269.573 166.652ZM267.775 136.846C268.376 137.14 268.512 137.931 268.051 138.416L260.902 145.937C260.507 146.352 259.846 146.352 259.452 145.938L250.825 136.867C250.458 136.481 250.458 135.875 250.825 135.489L253.983 132.167C254.239 131.898 254.622 131.792 254.979 131.895C259.402 133.18 263.678 134.842 267.775 136.846ZM249.761 146.895C250.64 146.895 251.091 145.842 250.486 145.205L246.761 141.289C246.367 140.875 245.706 140.875 245.312 141.289L241.589 145.206C240.984 145.843 241.435 146.895 242.314 146.895H249.761ZM246.183 129.877C246.814 129.984 247.062 130.75 246.621 131.214C246.302 131.55 245.766 131.548 245.447 131.213C244.915 130.653 245.38 129.741 246.142 129.87C246.156 129.873 246.169 129.875 246.183 129.877ZM241.246 136.869C241.613 136.483 241.613 135.877 241.246 135.491L235.153 129.084C234.97 128.892 234.718 128.78 234.453 128.775C233.935 128.765 233.416 128.76 232.895 128.76C232.673 128.76 232.45 128.761 232.228 128.763C231.959 128.765 231.702 128.877 231.517 129.072L225.412 135.491C225.045 135.877 225.045 136.483 225.412 136.869L232.604 144.435C232.999 144.85 233.66 144.85 234.054 144.435L241.246 136.869ZM274.947 199.206C275.341 198.791 276.002 198.791 276.396 199.206L281.381 204.45C281.987 205.087 281.535 206.139 280.656 206.139H270.686C269.808 206.139 269.356 205.087 269.961 204.45L274.947 199.206ZM274.947 188.983C275.341 189.397 276.002 189.397 276.396 188.983L279.002 186.242C279.607 185.605 279.156 184.553 278.277 184.553H273.066C272.187 184.553 271.736 185.605 272.341 186.242L274.947 188.983ZM262.039 184.553C262.313 184.553 262.575 184.665 262.764 184.864L270.883 193.405C271.25 193.791 271.25 194.397 270.883 194.783L260.384 205.828C260.196 206.027 259.934 206.139 259.66 206.139H256.253C255.979 206.139 255.717 206.027 255.528 205.828L248.721 198.666C248.354 198.28 248.354 197.675 248.721 197.289L260.531 184.864C260.72 184.665 260.982 184.553 261.256 184.553H262.039ZM246.742 169.532C247.136 169.117 247.797 169.117 248.192 169.532L255.16 176.864C255.765 177.501 255.314 178.553 254.435 178.553H240.498C239.619 178.553 239.168 177.501 239.773 176.864L246.742 169.532ZM246.742 159.309C247.136 159.724 247.797 159.724 248.192 159.309L252.683 154.583C253.289 153.947 252.837 152.895 251.959 152.895H242.975C242.096 152.895 241.645 153.947 242.25 154.583L246.742 159.309ZM232.604 154.658C232.999 154.244 233.66 154.244 234.054 154.658L242.678 163.732C243.045 164.118 243.045 164.724 242.678 165.11L230.003 178.445C229.938 178.514 229.847 178.553 229.752 178.553C229.657 178.553 229.566 178.514 229.5 178.445L220.403 168.873C220.036 168.487 220.036 167.882 220.403 167.495L232.604 154.658ZM225.069 145.206C225.674 145.843 225.223 146.895 224.344 146.895H216.897C216.018 146.895 215.567 145.842 216.173 145.205L219.897 141.289C220.292 140.875 220.953 140.875 221.347 141.289L225.069 145.206ZM219.995 131.17C220.337 131.529 220.912 131.527 221.254 131.168C221.821 130.571 221.333 129.599 220.519 129.728C220.504 129.73 220.488 129.733 220.473 129.735C219.791 129.843 219.519 130.669 219.995 131.17ZM212.49 131.972C212.237 131.705 211.857 131.599 211.503 131.698C205.278 133.445 199.337 135.937 193.774 139.078C193.212 139.395 193.105 140.154 193.549 140.622L199.216 146.583C199.405 146.782 199.667 146.895 199.941 146.895H205.867C206.141 146.895 206.403 146.782 206.592 146.584L215.833 136.867C216.2 136.481 216.2 135.875 215.833 135.489L212.49 131.972ZM278.245 255.792C277.878 255.406 277.878 254.8 278.245 254.414L285.119 247.183C285.513 246.768 286.174 246.768 286.569 247.183L294.461 255.486C294.828 255.872 294.828 256.478 294.461 256.864L287.587 264.096C287.193 264.51 286.532 264.51 286.138 264.096L278.245 255.792ZM262.478 212.323C262.261 212.552 262.261 212.911 262.478 213.14L270.61 221.696C271.005 222.11 271.666 222.11 272.06 221.696L279.538 213.828C280.143 213.191 279.692 212.139 278.813 212.139H262.907C262.745 212.139 262.59 212.206 262.478 212.323ZM250.229 184.553C251.108 184.553 251.559 185.605 250.954 186.242L244.657 192.866C244.263 193.281 243.602 193.281 243.208 192.866L236.911 186.242C236.306 185.605 236.757 184.553 237.636 184.553H250.229ZM239.144 198.666C239.511 198.28 239.511 197.675 239.144 197.289L230.477 188.17C230.082 187.755 229.421 187.755 229.027 188.17L222.153 195.401C221.786 195.787 221.786 196.393 222.153 196.779L230.754 205.828C230.943 206.027 231.205 206.139 231.479 206.139H231.612C231.886 206.139 232.148 206.027 232.337 205.828L239.144 198.666ZM219.005 178.553C219.884 178.553 220.335 177.501 219.73 176.864L216.339 173.296C215.945 172.881 215.284 172.881 214.889 173.296L211.498 176.864C210.893 177.501 211.344 178.553 212.223 178.553H219.005ZM223.683 152.895C224.562 152.895 225.014 153.947 224.408 154.583L216.339 163.073C215.945 163.488 215.284 163.488 214.889 163.073L207.692 155.5C207.325 155.114 207.325 154.508 207.692 154.122L208.564 153.205C208.753 153.007 209.014 152.895 209.288 152.895H223.683ZM210.826 168.873C211.193 168.487 211.193 167.882 210.826 167.495L203.626 159.921C203.232 159.506 202.571 159.506 202.177 159.921L195.301 167.15C194.934 167.536 194.934 168.142 195.301 168.528L202.502 176.105C202.897 176.52 203.558 176.52 203.952 176.105L210.826 168.873ZM198.113 155.499C198.48 155.113 198.48 154.507 198.113 154.121L197.243 153.206C197.054 153.007 196.792 152.895 196.518 152.895H182.771C181.892 152.895 181.441 153.947 182.046 154.583L189.787 162.728C190.181 163.143 190.842 163.143 191.237 162.728L198.113 155.499ZM188.914 146.895C189.793 146.895 190.244 145.843 189.639 145.206L188.117 143.604C187.777 143.247 187.229 143.19 186.827 143.473C186.05 144.02 185.282 144.581 184.525 145.155C183.774 145.724 184.184 146.895 185.125 146.895H188.914ZM245.227 206.139C246.105 206.139 246.557 205.087 245.951 204.45L244.657 203.089C244.263 202.674 243.602 202.674 243.208 203.089L241.914 204.45C241.308 205.087 241.76 206.139 242.639 206.139H245.227ZM246.294 230.875C245.9 230.46 245.239 230.46 244.845 230.875L239.444 236.557C238.838 237.194 239.29 238.246 240.169 238.246H250.97C251.849 238.246 252.3 237.194 251.695 236.557L246.294 230.875ZM274.182 249.992C273.787 250.406 273.126 250.406 272.732 249.992L268.876 245.935C268.271 245.298 268.722 244.246 269.601 244.246H277.313C278.191 244.246 278.643 245.298 278.038 245.935L274.182 249.992ZM274.182 260.215C273.787 259.8 273.126 259.8 272.732 260.215L267.436 265.787C266.83 266.423 267.282 267.475 268.161 267.475H278.753C279.632 267.475 280.083 266.423 279.478 265.787L274.182 260.215ZM216.64 190.979C217.034 191.394 217.695 191.394 218.09 190.979L222.592 186.242C223.198 185.605 222.746 184.553 221.868 184.553H212.862C211.983 184.553 211.532 185.605 212.137 186.242L216.64 190.979ZM189.786 172.949C190.18 172.534 190.841 172.534 191.235 172.949L194.956 176.864C195.562 177.501 195.11 178.553 194.231 178.553H186.787C185.908 178.553 185.457 177.5 186.063 176.863L189.786 172.949ZM281.266 145.155C282.017 145.724 281.607 146.895 280.665 146.895H270.589C269.711 146.895 269.259 145.843 269.864 145.206L273.818 141.046C274.142 140.705 274.661 140.636 275.061 140.885C277.192 142.213 279.262 143.638 281.266 145.155Z" fill="#02365E"/>
<path fill-rule="evenodd" clip-rule="evenodd" d="M671.444 3C671.11 3 670.798 3.16659 670.612 3.44408L640.009 49.2037C639.866 49.4173 639.626 49.5456 639.369 49.5456C638.944 49.5456 638.6 49.8902 638.6 50.3154V271.678C638.6 272.23 639.047 272.678 639.6 272.678H726.853C727.405 272.678 727.853 272.23 727.853 271.678V50.348C727.853 50.3408 727.858 50.3349 727.866 50.3349C727.876 50.3349 727.882 50.3232 727.877 50.3145L727.858 50.2864C727.854 50.2813 727.853 50.2752 727.853 50.2691V49.8651C727.853 49.6886 727.709 49.5456 727.533 49.5456C727.426 49.5456 727.327 49.4924 727.267 49.4037L696.531 3.44408C696.345 3.16659 696.033 3 695.699 3H671.444Z" fill="#A4978A"/>
<path d="M696.531 3.44408L694.452 4.83387L696.531 3.44408ZM727.267 49.4037L725.189 50.7935L727.267 49.4037ZM727.858 50.2864L729.936 48.8967L727.858 50.2864ZM727.877 50.3145L729.955 48.9247L727.877 50.3145ZM640.009 49.2037L642.087 50.5935L640.009 49.2037ZM670.612 3.44408L672.691 4.83387L670.612 3.44408ZM668.534 2.0543L637.931 47.8139L642.087 50.5935L672.691 4.83387L668.534 2.0543ZM636.1 50.3154V271.678H641.1V50.3154H636.1ZM639.6 275.178H726.853V270.178H639.6V275.178ZM730.353 271.678V50.348H725.353V271.678H730.353ZM729.955 48.9247L729.936 48.8967L725.78 51.6761L725.798 51.7042L729.955 48.9247ZM730.353 50.2691V49.8651H725.353V50.2691H730.353ZM729.346 48.0139L698.609 2.0543L694.452 4.83387L725.189 50.7935L729.346 48.0139ZM695.699 0.5H671.444V5.5H695.699V0.5ZM698.609 2.0543C697.959 1.08306 696.868 0.5 695.699 0.5V5.5C695.199 5.5 694.731 5.25012 694.452 4.83387L698.609 2.0543ZM727.533 47.0456C728.261 47.0456 728.941 47.4088 729.346 48.0139L725.189 50.7935C725.713 51.5759 726.592 52.0456 727.533 52.0456V47.0456ZM730.353 49.8651C730.353 48.3079 729.09 47.0456 727.533 47.0456V52.0456C726.329 52.0456 725.353 51.0693 725.353 49.8651H730.353ZM729.936 48.8967C730.208 49.3028 730.353 49.7805 730.353 50.2691H725.353C725.353 50.77 725.501 51.2597 725.78 51.6761L729.936 48.8967ZM727.866 52.8349C729.874 52.8349 731.071 50.5946 729.955 48.9247L725.798 51.7042C724.693 50.0518 725.878 47.8349 727.866 47.8349V52.8349ZM730.353 50.348C730.353 51.7225 729.238 52.8349 727.866 52.8349V47.8349C726.479 47.8349 725.353 48.9591 725.353 50.348H730.353ZM726.853 275.178C728.785 275.178 730.353 273.611 730.353 271.678H725.353C725.353 270.849 726.024 270.178 726.853 270.178V275.178ZM636.1 271.678C636.1 273.611 637.667 275.178 639.6 275.178V270.178C640.428 270.178 641.1 270.849 641.1 271.678H636.1ZM639.369 47.0456C637.564 47.0456 636.1 48.5095 636.1 50.3154H641.1C641.1 51.271 640.325 52.0456 639.369 52.0456V47.0456ZM637.931 47.8139C638.252 47.3338 638.792 47.0456 639.369 47.0456V52.0456C640.461 52.0456 641.481 51.5009 642.087 50.5935L637.931 47.8139ZM672.691 4.83387C672.412 5.25012 671.944 5.5 671.444 5.5V0.5C670.275 0.5 669.184 1.08306 668.534 2.0543L672.691 4.83387Z" fill="#02365E"/>
<path d="M727.872 271.797V49.7617C727.872 49.7617 722.64 242.039 707.598 256.427C692.556 270.816 638.928 271.797 638.928 271.797H727.872Z" fill="#87796D"/>
<path d="M696.531 3.44408L694.452 4.83387L696.531 3.44408ZM727.267 49.4037L725.189 50.7935L727.267 49.4037ZM727.858 50.2864L729.936 48.8967L727.858 50.2864ZM727.877 50.3145L729.955 48.9247L727.877 50.3145ZM640.009 49.2037L642.087 50.5935L640.009 49.2037ZM670.612 3.44408L672.691 4.83387L670.612 3.44408ZM668.534 2.0543L637.931 47.8139L642.087 50.5935L672.691 4.83387L668.534 2.0543ZM636.1 50.3154V271.678H641.1V50.3154H636.1ZM639.6 275.178H726.853V270.178H639.6V275.178ZM730.353 271.678V50.348H725.353V271.678H730.353ZM729.955 48.9247L729.936 48.8967L725.78 51.6761L725.798 51.7042L729.955 48.9247ZM730.353 50.2691V49.8651H725.353V50.2691H730.353ZM729.346 48.0139L698.609 2.0543L694.452 4.83387L725.189 50.7935L729.346 48.0139ZM695.699 0.5H671.444V5.5H695.699V0.5ZM698.609 2.0543C697.959 1.08306 696.868 0.5 695.699 0.5V5.5C695.199 5.5 694.731 5.25012 694.452 4.83387L698.609 2.0543ZM727.533 47.0456C728.261 47.0456 728.941 47.4088 729.346 48.0139L725.189 50.7935C725.713 51.5759 726.592 52.0456 727.533 52.0456V47.0456ZM730.353 49.8651C730.353 48.3079 729.09 47.0456 727.533 47.0456V52.0456C726.329 52.0456 725.353 51.0693 725.353 49.8651H730.353ZM729.936 48.8967C730.208 49.3028 730.353 49.7805 730.353 50.2691H725.353C725.353 50.77 725.501 51.2597 725.78 51.6761L729.936 48.8967ZM727.866 52.8349C729.874 52.8349 731.071 50.5946 729.955 48.9247L725.798 51.7042C724.693 50.0518 725.878 47.8349 727.866 47.8349V52.8349ZM730.353 50.348C730.353 51.7225 729.238 52.8349 727.866 52.8349V47.8349C726.479 47.8349 725.353 48.9591 725.353 50.348H730.353ZM726.853 275.178C728.785 275.178 730.353 273.611 730.353 271.678H725.353C725.353 270.849 726.024 270.178 726.853 270.178V275.178ZM636.1 271.678C636.1 273.611 637.667 275.178 639.6 275.178V270.178C640.428 270.178 641.1 270.849 641.1 271.678H636.1ZM639.369 47.0456C637.564 47.0456 636.1 48.5095 636.1 50.3154H641.1C641.1 51.271 640.325 52.0456 639.369 52.0456V47.0456ZM637.931 47.8139C638.252 47.3338 638.792 47.0456 639.369 47.0456V52.0456C640.461 52.0456 641.481 51.5009 642.087 50.5935L637.931 47.8139ZM672.691 4.83387C672.412 5.25012 671.944 5.5 671.444 5.5V0.5C670.275 0.5 669.184 1.08306 668.534 2.0543L672.691 4.83387Z" fill="#02365E"/>
<path d="M675.551 7.90625H673.262L643.178 52.3786V267.546" stroke="#D8CBBF" stroke-width="4" stroke-linecap="round" stroke-linejoin="round"/>
<rect x="647.133" y="51.125" width="12.406" height="12.6225" rx="1" fill="#A9DEFE" stroke="#02365E" stroke-width="5"/>
<path d="M658.224 62.5168V52.0527C658.224 52.0527 657.497 57.1645 655.416 59.3776C653.182 61.7545 647.76 62.5168 647.76 62.5168H658.224Z" fill="#2B99D6"/>
<path d="M656.261 54.0137H650.375V59.8997" stroke="#E1F3FF" stroke-width="3" stroke-linecap="round" stroke-linejoin="round"/>
<rect x="647.133" y="51.125" width="12.406" height="12.6225" rx="1" stroke="#02365E" stroke-width="5"/>
<rect x="708.385" y="50.3359" width="12.406" height="12.6225" rx="1" fill="#A9DEFE" stroke="#02365E" stroke-width="5"/>
<path d="M719.698 61.8625V51.3984C719.698 51.3984 718.972 56.5102 716.891 58.7233C714.656 61.1002 709.234 61.8625 709.234 61.8625H719.698Z" fill="#2B99D6"/>
<path d="M717.736 53.3594H711.85V59.2454" stroke="#E1F3FF" stroke-width="3" stroke-linecap="round" stroke-linejoin="round"/>
<rect x="708.385" y="50.3359" width="12.406" height="12.6225" rx="1" stroke="#02365E" stroke-width="5"/>
<rect x="692.879" y="66.1133" width="12.406" height="12.6225" rx="1" fill="#A9DEFE" stroke="#02365E" stroke-width="5"/>
<path d="M704.003 77.5578V67.0938C704.003 67.0938 703.276 72.2055 701.196 74.4186C698.961 76.7956 693.539 77.5578 693.539 77.5578H704.003Z" fill="#2B99D6"/>
<path d="M702.042 69.0547H696.156V74.9407" stroke="#E1F3FF" stroke-width="3" stroke-linecap="round" stroke-linejoin="round"/>
<rect x="692.879" y="66.1133" width="12.406" height="12.6225" rx="1" stroke="#02365E" stroke-width="5"/>
<rect x="677.373" y="81.8926" width="12.406" height="12.6225" rx="1" fill="#A9DEFE" stroke="#02365E" stroke-width="5"/>
<path d="M688.31 93.9094V83.4453C688.31 83.4453 687.583 88.5571 685.502 90.7702C683.268 93.1471 677.846 93.9094 677.846 93.9094H688.31Z" fill="#2B99D6"/>
<path d="M686.345 85.4062H680.459V91.2923" stroke="#E1F3FF" stroke-width="3" stroke-linecap="round" stroke-linejoin="round"/>
<rect x="677.373" y="81.8926" width="12.406" height="12.6225" rx="1" stroke="#02365E" stroke-width="5"/>
<rect x="661.863" y="66.1152" width="12.406" height="12.6225" rx="1" fill="#A9DEFE" stroke="#02365E" stroke-width="5"/>
<path d="M672.613 77.5578V67.0938C672.613 67.0938 671.886 72.2055 669.805 74.4186C667.57 76.7956 662.148 77.5578 662.148 77.5578H672.613Z" fill="#2B99D6"/>
<path d="M670.648 69.0566H664.762V74.9427" stroke="#E1F3FF" stroke-width="3" stroke-linecap="round" stroke-linejoin="round"/>
<rect x="661.863" y="66.1152" width="12.406" height="12.6225" rx="1" stroke="#02365E" stroke-width="5"/>
<path d="M650.234 82.6777V87.989C650.234 88.5413 650.682 88.989 651.234 88.989H656.437" stroke="#02365E" stroke-width="5" stroke-linecap="round"/>
<path d="M650.234 95.2988V100.61C650.234 101.162 650.682 101.61 651.234 101.61H656.437" stroke="#02365E" stroke-width="5" stroke-linecap="round"/>
<path d="M650.234 70.0547V75.3659C650.234 75.9182 650.682 76.3659 651.234 76.3659H656.437" stroke="#02365E" stroke-width="5" stroke-linecap="round"/>
<path d="M650.234 107.922V113.233C650.234 113.785 650.682 114.233 651.234 114.233H656.437" stroke="#02365E" stroke-width="5" stroke-linecap="round"/>
<path d="M650.234 133.168V138.479C650.234 139.031 650.682 139.479 651.234 139.479H656.437" stroke="#02365E" stroke-width="5" stroke-linecap="round"/>
<path d="M650.234 145.791V151.102C650.234 151.655 650.682 152.102 651.234 152.102H656.437" stroke="#02365E" stroke-width="5" stroke-linecap="round"/>
<path d="M650.234 120.545V125.856C650.234 126.408 650.682 126.856 651.234 126.856H656.437" stroke="#02365E" stroke-width="5" stroke-linecap="round"/>
<path d="M650.234 158.412V163.723C650.234 164.276 650.682 164.723 651.234 164.723H656.437" stroke="#02365E" stroke-width="5" stroke-linecap="round"/>
<path d="M650.234 183.658V188.969C650.234 189.522 650.682 189.969 651.234 189.969H656.437" stroke="#02365E" stroke-width="5" stroke-linecap="round"/>
<path d="M650.234 196.279V201.591C650.234 202.143 650.682 202.591 651.234 202.591H656.437" stroke="#02365E" stroke-width="5" stroke-linecap="round"/>
<path d="M650.234 171.035V176.346C650.234 176.899 650.682 177.346 651.234 177.346H656.437" stroke="#02365E" stroke-width="5" stroke-linecap="round"/>
<path d="M650.234 208.902V214.214C650.234 214.766 650.682 215.214 651.234 215.214H656.437" stroke="#02365E" stroke-width="5" stroke-linecap="round"/>
<path d="M714.59 82.6777V87.989C714.59 88.5413 715.038 88.989 715.59 88.989H720.793" stroke="#02365E" stroke-width="5" stroke-linecap="round"/>
<path d="M714.59 95.2988V100.61C714.59 101.162 715.038 101.61 715.59 101.61H720.793" stroke="#02365E" stroke-width="5" stroke-linecap="round"/>
<path d="M714.59 70.0547V75.3659C714.59 75.9182 715.038 76.3659 715.59 76.3659H720.793" stroke="#02365E" stroke-width="5" stroke-linecap="round"/>
<path d="M714.59 107.922V113.233C714.59 113.785 715.038 114.233 715.59 114.233H720.793" stroke="#02365E" stroke-width="5" stroke-linecap="round"/>
<path d="M714.59 133.168V138.479C714.59 139.031 715.038 139.479 715.59 139.479H720.793" stroke="#02365E" stroke-width="5" stroke-linecap="round"/>
<path d="M714.59 145.791V151.102C714.59 151.655 715.038 152.102 715.59 152.102H720.793" stroke="#02365E" stroke-width="5" stroke-linecap="round"/>
<path d="M714.59 120.545V125.856C714.59 126.408 715.038 126.856 715.59 126.856H720.793" stroke="#02365E" stroke-width="5" stroke-linecap="round"/>
<path d="M714.59 158.412V163.723C714.59 164.276 715.038 164.723 715.59 164.723H720.793" stroke="#02365E" stroke-width="5" stroke-linecap="round"/>
<path d="M714.59 183.658V188.969C714.59 189.522 715.038 189.969 715.59 189.969H720.793" stroke="#02365E" stroke-width="5" stroke-linecap="round"/>
<path d="M714.59 196.279V201.591C714.59 202.143 715.038 202.591 715.59 202.591H720.793" stroke="#02365E" stroke-width="5" stroke-linecap="round"/>
<path d="M714.59 171.035V176.346C714.59 176.899 715.038 177.346 715.59 177.346H720.793" stroke="#02365E" stroke-width="5" stroke-linecap="round"/>
<path d="M714.59 208.902V214.214C714.59 214.766 715.038 215.214 715.59 215.214H720.793" stroke="#02365E" stroke-width="5" stroke-linecap="round"/>
<path d="M664.967 96.0898V101.401C664.967 101.953 665.415 102.401 665.967 102.401H671.17" stroke="#02365E" stroke-width="5" stroke-linecap="round"/>
<path d="M664.967 108.711V114.022C664.967 114.574 665.415 115.022 665.967 115.022H671.17" stroke="#02365E" stroke-width="5" stroke-linecap="round"/>
<path d="M664.967 83.4668V88.778C664.967 89.3303 665.415 89.778 665.967 89.778H671.17" stroke="#02365E" stroke-width="5" stroke-linecap="round"/>
<path d="M664.967 121.334V126.645C664.967 127.198 665.415 127.645 665.967 127.645H671.17" stroke="#02365E" stroke-width="5" stroke-linecap="round"/>
<path d="M664.967 146.578V151.889C664.967 152.442 665.415 152.889 665.967 152.889H671.17" stroke="#02365E" stroke-width="5" stroke-linecap="round"/>
<path d="M664.967 159.201V164.512C664.967 165.065 665.415 165.512 665.967 165.512H671.17" stroke="#02365E" stroke-width="5" stroke-linecap="round"/>
<path d="M664.967 133.957V139.268C664.967 139.821 665.415 140.268 665.967 140.268H671.17" stroke="#02365E" stroke-width="5" stroke-linecap="round"/>
<path d="M664.967 171.824V177.135C664.967 177.688 665.415 178.135 665.967 178.135H671.17" stroke="#02365E" stroke-width="5" stroke-linecap="round"/>
<path d="M664.967 197.068V202.38C664.967 202.932 665.415 203.38 665.967 203.38H671.17" stroke="#02365E" stroke-width="5" stroke-linecap="round"/>
<path d="M664.967 209.691V215.003C664.967 215.555 665.415 216.003 665.967 216.003H671.17" stroke="#02365E" stroke-width="5" stroke-linecap="round"/>
<path d="M664.967 184.445V189.757C664.967 190.309 665.415 190.757 665.967 190.757H671.17" stroke="#02365E" stroke-width="5" stroke-linecap="round"/>
<path d="M697.533 96.0898V101.401C697.533 101.953 697.981 102.401 698.533 102.401H703.736" stroke="#02365E" stroke-width="5" stroke-linecap="round"/>
<path d="M697.533 108.711V114.022C697.533 114.574 697.981 115.022 698.533 115.022H703.736" stroke="#02365E" stroke-width="5" stroke-linecap="round"/>
<path d="M697.533 83.4668V88.778C697.533 89.3303 697.981 89.778 698.533 89.778H703.736" stroke="#02365E" stroke-width="5" stroke-linecap="round"/>
<path d="M697.533 121.334V126.645C697.533 127.198 697.981 127.645 698.533 127.645H703.736" stroke="#02365E" stroke-width="5" stroke-linecap="round"/>
<path d="M697.533 146.578V151.889C697.533 152.442 697.981 152.889 698.533 152.889H703.736" stroke="#02365E" stroke-width="5" stroke-linecap="round"/>
<path d="M697.533 159.201V164.512C697.533 165.065 697.981 165.512 698.533 165.512H703.736" stroke="#02365E" stroke-width="5" stroke-linecap="round"/>
<path d="M697.533 133.957V139.268C697.533 139.821 697.981 140.268 698.533 140.268H703.736" stroke="#02365E" stroke-width="5" stroke-linecap="round"/>
<path d="M697.533 171.824V177.135C697.533 177.688 697.981 178.135 698.533 178.135H703.736" stroke="#02365E" stroke-width="5" stroke-linecap="round"/>
<path d="M697.533 197.068V202.38C697.533 202.932 697.981 203.38 698.533 203.38H703.736" stroke="#02365E" stroke-width="5" stroke-linecap="round"/>
<path d="M697.533 209.691V215.003C697.533 215.555 697.981 216.003 698.533 216.003H703.736" stroke="#02365E" stroke-width="5" stroke-linecap="round"/>
<path d="M650.557 234.896V240.208C650.557 240.76 651.004 241.208 651.557 241.208H656.76" stroke="#02365E" stroke-width="5" stroke-linecap="round"/>
<path d="M650.557 247.646V252.958C650.557 253.51 651.004 253.958 651.557 253.958H656.76" stroke="#02365E" stroke-width="5" stroke-linecap="round"/>
<path d="M650.557 222.146V227.458C650.557 228.01 651.004 228.458 651.557 228.458H656.76" stroke="#02365E" stroke-width="5" stroke-linecap="round"/>
<path d="M714.309 234.896V240.208C714.309 240.76 714.756 241.208 715.309 241.208H720.512" stroke="#02365E" stroke-width="5" stroke-linecap="round"/>
<path d="M714.309 247.646V252.958C714.309 253.51 714.756 253.958 715.309 253.958H720.512" stroke="#02365E" stroke-width="5" stroke-linecap="round"/>
<path d="M714.309 222.146V227.458C714.309 228.01 714.756 228.458 715.309 228.458H720.512" stroke="#02365E" stroke-width="5" stroke-linecap="round"/>
<path d="M665.699 222.146V227.458C665.699 228.01 666.147 228.458 666.699 228.458H671.902" stroke="#02365E" stroke-width="5" stroke-linecap="round"/>
<path d="M665.699 234.896V240.208C665.699 240.76 666.147 241.208 666.699 241.208H671.902" stroke="#02365E" stroke-width="5" stroke-linecap="round"/>
<path d="M665.699 247.646V252.958C665.699 253.51 666.147 253.958 666.699 253.958H671.902" stroke="#02365E" stroke-width="5" stroke-linecap="round"/>
<path d="M697.574 234.896V240.208C697.574 240.76 698.022 241.208 698.574 241.208H703.777" stroke="#02365E" stroke-width="5" stroke-linecap="round"/>
<path d="M697.574 247.646V252.958C697.574 253.51 698.022 253.958 698.574 253.958H703.777" stroke="#02365E" stroke-width="5" stroke-linecap="round"/>
<path d="M697.574 222.146V227.458C697.574 228.01 698.022 228.458 698.574 228.458H703.777" stroke="#02365E" stroke-width="5" stroke-linecap="round"/>
<path d="M697.533 184.445V189.757C697.533 190.309 697.981 190.757 698.533 190.757H703.736" stroke="#02365E" stroke-width="5" stroke-linecap="round"/>
<path d="M680.836 98.627V246.851" stroke="#02365E" stroke-width="5" stroke-linecap="round"/>
<path d="M686.414 98.627V246.851" stroke="#02365E" stroke-width="5" stroke-linecap="round"/>
<path d="M680.473 9.3125V72.4249" stroke="#02365E" stroke-width="5" stroke-linecap="round"/>
<path d="M686.676 9.3125V72.4249" stroke="#02365E" stroke-width="5" stroke-linecap="round"/>
<rect x="677.65" y="253.227" width="12.406" height="18.9337" rx="1" fill="#44413F" stroke="#02365E" stroke-width="5"/>
<path d="M689.943 272.122V253.156C689.943 253.156 688.735 262.959 684.711 267.217C682.302 269.766 677.189 272.122 677.189 272.122H689.943Z" fill="#2D2A28"/>
<path d="M686.998 256.1H680.785V267.872" stroke="#686868" stroke-width="3" stroke-linecap="round" stroke-linejoin="round"/>
<rect x="677.65" y="253.227" width="12.406" height="18.9337" rx="1" stroke="#02365E" stroke-width="5"/>
<rect x="344.826" y="144.742" width="104.291" height="49.8782" fill="#C6C6C6" stroke="#02365E" stroke-width="4"/>
<path d="M449.24 144.828V194.398H428.755C424.407 194.681 420.914 194.398 420.914 194.398H428.755C434.361 194.033 441.388 192.729 444.182 188.665C447.891 183.27 449.24 144.828 449.24 144.828Z" fill="#8B8A8A"/>
<rect x="344.826" y="144.742" width="104.291" height="49.8782" stroke="#02365E" stroke-width="4"/>
<path d="M390.17 185.549H403.773V194.618H390.17V185.549Z" fill="#A9DEFE" stroke="#02365E" stroke-width="4"/>
<path d="M390.17 176.48H403.773V185.549H390.17V176.48Z" fill="#A9DEFE" stroke="#02365E" stroke-width="4"/>
<path d="M404.052 194.059V175.85C404.052 175.85 402.417 187.16 399.668 190.012C396.716 193.076 390.227 194.059 390.227 194.059H404.052Z" fill="#2B99D6"/>
<path d="M390.168 185.549H403.771V194.618H390.168V185.549Z" stroke="#02365E" stroke-width="4"/>
<path d="M390.168 176.48H403.771V185.549H390.168V176.48Z" stroke="#02365E" stroke-width="4"/>
<path d="M387.902 172.53C387.902 172.208 388.163 171.947 388.486 171.947H405.457C405.779 171.947 406.04 172.208 406.04 172.53V175.898C406.04 176.221 405.779 176.482 405.457 176.482H388.486C388.163 176.482 387.902 176.221 387.902 175.898V172.53Z" fill="#C6C6C6" stroke="#02365E" stroke-width="4"/>
<path d="M396.971 176.48V194.618" stroke="#02365E" stroke-width="4"/>
<path d="M421.912 185.549H435.515V194.618H421.912V185.549Z" fill="#A9DEFE" stroke="#02365E" stroke-width="4"/>
<path d="M421.912 176.48H435.515V185.549H421.912V176.48Z" fill="#A9DEFE" stroke="#02365E" stroke-width="4"/>
<path d="M435.751 194.059V175.85C435.751 175.85 434.117 187.16 431.368 190.012C428.415 193.076 421.926 194.059 421.926 194.059H435.751Z" fill="#2B99D6"/>
<path d="M421.912 185.549H435.515V194.618H421.912V185.549Z" stroke="#02365E" stroke-width="4"/>
<path d="M421.912 176.48H435.515V185.549H421.912V176.48Z" stroke="#02365E" stroke-width="4"/>
<path d="M419.645 172.53C419.645 172.208 419.906 171.947 420.228 171.947H437.199C437.521 171.947 437.782 172.208 437.782 172.53V175.898C437.782 176.221 437.521 176.482 437.199 176.482H420.228C419.906 176.482 419.645 176.221 419.645 175.898V172.53Z" fill="#C6C6C6" stroke="#02365E" stroke-width="4"/>
<path d="M428.713 176.48V194.618" stroke="#02365E" stroke-width="4"/>
<path d="M358.428 185.549H372.031V194.618H358.428V185.549Z" fill="#C6C6C6" stroke="#02365E" stroke-width="4"/>
<path d="M358.428 176.48H372.031V185.549H358.428V176.48Z" fill="#A9DEFE" stroke="#02365E" stroke-width="4"/>
<path d="M372.355 194.059V175.85C372.355 175.85 370.72 187.16 367.971 190.012C365.019 193.076 358.529 194.059 358.529 194.059H372.355Z" fill="#2B99D6"/>
<path d="M358.428 185.549H372.031V194.618H358.428V185.549Z" fill="#A9DEFE" stroke="#02365E" stroke-width="4"/>
<path d="M358.428 176.48H372.031V185.549H358.428V176.48Z" stroke="#02365E" stroke-width="4"/>
<path d="M356.16 172.53C356.16 172.208 356.421 171.947 356.743 171.947H373.715C374.037 171.947 374.298 172.208 374.298 172.53V175.898C374.298 176.221 374.037 176.482 373.715 176.482H356.743C356.421 176.482 356.16 176.221 356.16 175.898V172.53Z" fill="#C6C6C6" stroke="#02365E" stroke-width="4"/>
<path d="M365.229 176.48V194.618" stroke="#02365E" stroke-width="4"/>
<rect x="344.826" y="212.756" width="104.291" height="58.947" fill="#C6C6C6"/>
<rect x="345.043" y="212.943" width="103.86" height="37.093" fill="#B5B5B5"/>
<rect x="344.826" y="212.756" width="104.291" height="58.947" stroke="#02365E" stroke-width="4"/>
<path d="M290.67 145.51C290.544 145.132 290.825 144.742 291.223 144.742H344.827V271.705H295.532C295.21 271.705 294.948 271.444 294.948 271.122V158.345L290.67 145.51Z" fill="#D8D7D7" stroke="#02365E" stroke-width="4"/>
<path d="M344.706 271.955V144.49C344.706 144.49 339.648 244.641 331.892 256.444C323.269 269.565 294.799 271.955 294.799 271.955H344.706Z" fill="#8B8A8A"/>
<path d="M290.67 145.51C290.544 145.132 290.825 144.742 291.223 144.742H344.827V271.705H295.532C295.21 271.705 294.948 271.444 294.948 271.122V158.345L290.67 145.51Z" stroke="#02365E" stroke-width="4"/>
<path d="M503.273 145.51C503.399 145.132 503.118 144.742 502.72 144.742H449.117V271.705H498.412C498.734 271.705 498.995 271.444 498.995 271.122V158.345L503.273 145.51Z" fill="#A9A6A6" stroke="#02365E" stroke-width="4"/>
<path d="M499.147 271.617V158.652C499.147 158.652 495.136 251.454 488.019 259.141C479.589 268.245 450.252 271.617 450.252 271.617H499.147Z" fill="#8A8888"/>
<path d="M503.273 145.51C503.399 145.132 503.118 144.742 502.72 144.742H449.117V271.705H498.412C498.734 271.705 498.995 271.444 498.995 271.122V158.345L503.273 145.51Z" stroke="#02365E" stroke-width="4"/>
<rect x="367.5" y="213.324" width="9.06877" height="36.2751" rx="0.5832" fill="#969696"/>
<rect x="367.5" y="213.324" width="9.06877" height="36.2751" rx="0.5832" stroke="#02365E" stroke-width="4"/>
<rect x="417.379" y="213.324" width="9.06877" height="36.2751" rx="0.5832" fill="#969696"/>
<rect x="417.379" y="213.324" width="9.06877" height="36.2751" rx="0.5832" stroke="#02365E" stroke-width="4"/>
<rect x="333.492" y="253.568" width="22.6719" height="18.1375" rx="0.5832" fill="#C6C6C6" stroke="#02365E" stroke-width="4"/>
<path d="M356.171 271.955V254.758C356.171 254.758 353.847 263.584 349.764 267.235C344.856 271.623 333.578 271.955 333.578 271.955H356.171Z" fill="#8B8A8A"/>
<rect x="333.492" y="253.568" width="22.6719" height="18.1375" rx="0.5832" stroke="#02365E" stroke-width="4"/>
<rect x="332.357" y="250.166" width="24.9391" height="4.53439" rx="0.5832" fill="#C6C6C6" stroke="#02365E" stroke-width="4"/>
<rect x="437.781" y="253.568" width="22.6719" height="18.1375" rx="0.5832" fill="#C6C6C6" stroke="#02365E" stroke-width="4"/>
<path d="M460.029 271.282V254.084C460.029 254.084 457.705 262.91 453.622 266.561C448.713 270.95 437.436 271.282 437.436 271.282H460.029Z" fill="#8B8A8A"/>
<rect x="437.781" y="253.568" width="22.6719" height="18.1375" rx="0.5832" stroke="#02365E" stroke-width="4"/>
<rect x="436.646" y="250.166" width="24.9391" height="4.53439" rx="0.5832" fill="#C6C6C6" stroke="#02365E" stroke-width="4"/>
<path d="M357.014 250.166H436.365" stroke="#02365E" stroke-width="4"/>
<path d="M361.549 255.266H431.832" stroke="#02365E" stroke-width="4" stroke-linecap="round"/>
<path d="M361.549 260.934H431.832" stroke="#02365E" stroke-width="4" stroke-linecap="round"/>
<path d="M361.549 266.602H431.832" stroke="#02365E" stroke-width="4" stroke-linecap="round"/>
<rect x="387.904" y="222.959" width="18.1375" height="27.2063" rx="0.5832" fill="#656565" stroke="#02365E" stroke-width="4"/>
<path d="M406.076 250.037V223.061C406.076 223.061 405.574 239.111 398.995 244.979C394.98 248.56 387.867 250.037 387.867 250.037H406.076Z" fill="#4A4949"/>
<rect x="387.904" y="222.959" width="18.1375" height="27.2063" rx="0.5832" stroke="#02365E" stroke-width="4"/>
<circle cx="344.826" cy="222.392" r="5.10118" fill="#FFD028"/>
<path fill-rule="evenodd" clip-rule="evenodd" d="M342.301 225.142C345.119 225.142 347.402 222.858 347.402 220.041C347.402 219.183 347.19 218.374 346.816 217.664C348.648 218.438 349.934 220.251 349.934 222.366C349.934 225.183 347.65 227.467 344.833 227.467C342.874 227.467 341.173 226.362 340.318 224.742C340.928 225 341.598 225.142 342.301 225.142Z" fill="#E8B500"/>
<circle cx="344.826" cy="222.392" r="5.10118" stroke="#02365E" stroke-width="4"/>
<rect x="342.561" y="227.492" width="4.53439" height="18.1375" fill="#8A8888"/>
<rect x="342.561" y="228.059" width="2.26719" height="18.1375" fill="#8A8888"/>
<rect x="342.561" y="227.492" width="4.53439" height="18.1375" stroke="#02365E" stroke-width="4"/>
<path d="M341.426 247.964C341.426 246.675 342.47 245.631 343.759 245.631H345.895C347.183 245.631 348.227 246.675 348.227 247.964V249.582C348.227 249.904 347.966 250.165 347.644 250.165H342.009C341.687 250.165 341.426 249.904 341.426 249.582V247.964Z" fill="#8A8888" stroke="#02365E" stroke-width="4"/>
<circle cx="449.119" cy="222.392" r="5.10118" fill="#FFD028"/>
<path fill-rule="evenodd" clip-rule="evenodd" d="M446.586 225.17C449.404 225.17 451.688 222.886 451.688 220.069C451.688 219.21 451.475 218.401 451.101 217.691C452.934 218.465 454.221 220.279 454.221 222.394C454.221 225.211 451.937 227.495 449.12 227.495C447.161 227.495 445.46 226.391 444.605 224.771C445.214 225.028 445.884 225.17 446.586 225.17Z" fill="#E8B500"/>
<circle cx="449.119" cy="222.392" r="5.10118" stroke="#02365E" stroke-width="4"/>
<rect x="446.852" y="227.492" width="4.53439" height="18.1375" fill="#8A8888"/>
<rect x="446.852" y="228.059" width="2.26719" height="18.1375" fill="#8A8888"/>
<rect x="446.852" y="227.492" width="4.53439" height="18.1375" stroke="#02365E" stroke-width="4"/>
<path d="M445.717 247.964C445.717 246.675 446.761 245.631 448.05 245.631H450.186C451.474 245.631 452.518 246.675 452.518 247.964V249.582C452.518 249.904 452.257 250.165 451.935 250.165H446.3C445.978 250.165 445.717 249.904 445.717 249.582V247.964Z" fill="#8A8888" stroke="#02365E" stroke-width="4"/>
<path d="M311.953 230.895H325.556V239.38C325.556 239.702 325.295 239.963 324.973 239.963H312.536C312.214 239.963 311.953 239.702 311.953 239.38V230.895Z" fill="#A9DEFE" stroke="#02365E" stroke-width="4"/>
<path d="M311.953 221.824H325.556V230.893H311.953V221.824Z" fill="#A9DEFE" stroke="#02365E" stroke-width="4"/>
<path d="M309.686 217.874C309.686 217.552 309.947 217.291 310.269 217.291H327.24C327.562 217.291 327.823 217.552 327.823 217.874V221.242C327.823 221.564 327.562 221.825 327.24 221.825H310.269C309.947 221.825 309.686 221.564 309.686 221.242V217.874Z" fill="#C6C6C6" stroke="#02365E" stroke-width="4"/>
<path d="M325.148 239.918V221.709C325.148 221.709 323.513 233.019 320.764 235.872C317.812 238.936 311.322 239.918 311.322 239.918H325.148Z" fill="#2B99D6"/>
<path d="M311.953 230.895H325.556V239.38C325.556 239.702 325.295 239.963 324.973 239.963H312.536C312.214 239.963 311.953 239.702 311.953 239.38V230.895Z" stroke="#02365E" stroke-width="4"/>
<path d="M311.953 221.824H325.556V230.893H311.953V221.824Z" stroke="#02365E" stroke-width="4"/>
<path d="M309.686 217.874C309.686 217.552 309.947 217.291 310.269 217.291H327.24C327.562 217.291 327.823 217.552 327.823 217.874V221.242C327.823 221.564 327.562 221.825 327.24 221.825H310.269C309.947 221.825 309.686 221.564 309.686 221.242V217.874Z" stroke="#02365E" stroke-width="4"/>
<path d="M466.123 230.895H479.726V239.38C479.726 239.702 479.465 239.963 479.143 239.963H466.706C466.384 239.963 466.123 239.702 466.123 239.38V230.895Z" fill="#A9DEFE" stroke="#02365E" stroke-width="4"/>
<path d="M466.123 221.824H479.726V230.893H466.123V221.824Z" fill="#A9DEFE" stroke="#02365E" stroke-width="4"/>
<path d="M463.855 217.874C463.855 217.552 464.117 217.291 464.439 217.291H481.41C481.732 217.291 481.993 217.552 481.993 217.874V221.242C481.993 221.564 481.732 221.825 481.41 221.825H464.439C464.117 221.825 463.855 221.564 463.855 221.242V217.874Z" fill="#C6C6C6" stroke="#02365E" stroke-width="4"/>
<path d="M479.589 239.918V221.709C479.589 221.709 477.954 233.019 475.206 235.872C472.253 238.936 465.764 239.918 465.764 239.918H479.589Z" fill="#2B99D6"/>
<path d="M466.123 230.895H479.726V239.38C479.726 239.702 479.465 239.963 479.143 239.963H466.706C466.384 239.963 466.123 239.702 466.123 239.38V230.895Z" stroke="#02365E" stroke-width="4"/>
<path d="M466.123 221.824H479.726V230.893H466.123V221.824Z" stroke="#02365E" stroke-width="4"/>
<path d="M463.855 217.874C463.855 217.552 464.117 217.291 464.439 217.291H481.41C481.732 217.291 481.993 217.552 481.993 217.874V221.242C481.993 221.564 481.732 221.825 481.41 221.825H464.439C464.117 221.825 463.855 221.564 463.855 221.242V217.874Z" stroke="#02365E" stroke-width="4"/>
<rect x="390.17" y="149.277" width="13.6032" height="13.6032" rx="0.5832" fill="#A9DEFE" stroke="#02365E" stroke-width="4"/>
<rect x="421.912" y="149.277" width="13.6032" height="13.6032" rx="0.5832" fill="#A9DEFE" stroke="#02365E" stroke-width="4"/>
<rect x="466.121" y="149.277" width="13.6032" height="13.6032" rx="0.5832" fill="#A9DEFE" stroke="#02365E" stroke-width="4"/>
<rect x="358.43" y="149.277" width="13.6032" height="13.6032" rx="0.5832" fill="#A9DEFE" stroke="#02365E" stroke-width="4"/>
<rect x="311.953" y="149.277" width="13.6032" height="13.6032" rx="0.5832" fill="#A9DEFE" stroke="#02365E" stroke-width="4"/>
<path d="M325.484 162.699V149.211C325.484 149.211 324.523 155.8 321.774 158.653C318.822 161.717 311.658 162.699 311.658 162.699H325.484Z" fill="#2B99D6"/>
<path d="M371.683 163.037V149.549C371.683 149.549 370.723 156.138 367.974 158.991C365.021 162.055 357.857 163.037 357.857 163.037H371.683Z" fill="#2B99D6"/>
<path d="M404.054 162.363V148.875C404.054 148.875 403.094 155.464 400.345 158.317C397.392 161.381 390.229 162.363 390.229 162.363H404.054Z" fill="#2B99D6"/>
<path d="M435.078 162.363V148.875C435.078 148.875 434.117 155.464 431.368 158.317C428.416 161.381 421.252 162.363 421.252 162.363H435.078Z" fill="#2B99D6"/>
<path d="M479.589 163.037V149.549C479.589 149.549 478.629 156.138 475.88 158.991C472.927 162.055 465.764 163.037 465.764 163.037H479.589Z" fill="#2B99D6"/>
<rect x="390.17" y="149.277" width="13.6032" height="13.6032" rx="0.5832" stroke="#02365E" stroke-width="4"/>
<rect x="421.912" y="149.277" width="13.6032" height="13.6032" rx="0.5832" stroke="#02365E" stroke-width="4"/>
<rect x="466.121" y="149.277" width="13.6032" height="13.6032" rx="0.5832" stroke="#02365E" stroke-width="4"/>
<rect x="358.43" y="149.277" width="13.6032" height="13.6032" rx="0.5832" stroke="#02365E" stroke-width="4"/>
<rect x="311.953" y="149.277" width="13.6032" height="13.6032" rx="0.5832" stroke="#02365E" stroke-width="4"/>
<path d="M295.516 204.822H498.996" stroke="#02365E" stroke-width="4"/>
<rect x="340.293" y="194.621" width="113.36" height="18.1375" rx="0.5832" fill="#C6C6C6" stroke="#02365E" stroke-width="4"/>
<path d="M453.623 212.946V194.736C453.623 194.736 448.228 204.853 437.437 207.55C423.949 210.922 340.658 212.946 340.658 212.946H453.623Z" fill="#8B8A8A"/>
<rect x="340.293" y="194.621" width="113.36" height="18.1375" rx="0.5832" stroke="#02365E" stroke-width="4"/>
<path d="M466.123 185.549H479.726V194.034C479.726 194.356 479.465 194.618 479.143 194.618H466.706C466.384 194.618 466.123 194.356 466.123 194.034V185.549Z" fill="#A9DEFE" stroke="#02365E" stroke-width="4"/>
<path d="M466.123 176.48H479.726V185.549H466.123V176.48Z" fill="#A9DEFE" stroke="#02365E" stroke-width="4"/>
<path d="M480.263 194.059V175.85C480.263 175.85 478.628 187.16 475.879 190.012C472.927 193.076 466.438 194.059 466.438 194.059H480.263Z" fill="#2B99D6"/>
<path d="M466.123 185.549H479.726V194.034C479.726 194.356 479.465 194.618 479.143 194.618H466.706C466.384 194.618 466.123 194.356 466.123 194.034V185.549Z" stroke="#02365E" stroke-width="4"/>
<path d="M466.123 176.48H479.726V185.549H466.123V176.48Z" stroke="#02365E" stroke-width="4"/>
<path d="M463.855 172.53C463.855 172.208 464.117 171.947 464.439 171.947H481.41C481.732 171.947 481.993 172.208 481.993 172.53V175.898C481.993 176.221 481.732 176.482 481.41 176.482H464.439C464.117 176.482 463.855 176.221 463.855 175.898V172.53Z" fill="#C6C6C6" stroke="#02365E" stroke-width="4"/>
<path d="M472.924 176.48V194.618" stroke="#02365E" stroke-width="4"/>
<path d="M311.953 185.549H325.556V194.034C325.556 194.356 325.295 194.618 324.973 194.618H312.536C312.214 194.618 311.953 194.356 311.953 194.034V185.549Z" fill="#A9DEFE" stroke="#02365E" stroke-width="4"/>
<path d="M311.953 176.48H325.556V185.549H311.953V176.48Z" fill="#A9DEFE" stroke="#02365E" stroke-width="4"/>
<path d="M325.148 194.735V176.525C325.148 176.525 323.513 187.836 320.764 190.688C317.812 193.752 311.322 194.735 311.322 194.735H325.148Z" fill="#2B99D6"/>
<path d="M311.953 185.549H325.556V194.034C325.556 194.356 325.295 194.618 324.973 194.618H312.536C312.214 194.618 311.953 194.356 311.953 194.034V185.549Z" stroke="#02365E" stroke-width="4"/>
<path d="M311.953 176.48H325.556V185.549H311.953V176.48Z" stroke="#02365E" stroke-width="4"/>
<path d="M309.686 172.53C309.686 172.208 309.947 171.947 310.269 171.947H327.24C327.562 171.947 327.823 172.208 327.823 172.53V175.898C327.823 176.221 327.562 176.482 327.24 176.482H310.269C309.947 176.482 309.686 176.221 309.686 175.898V172.53Z" fill="#C6C6C6" stroke="#02365E" stroke-width="4"/>
<path d="M318.754 176.48V194.618" stroke="#02365E" stroke-width="4"/>
<path d="M426.447 203.121H430.982M440.05 203.121H436.083M436.083 203.121V208.222M436.083 203.121H430.982M436.083 208.222H440.05M436.083 208.222H431.548M430.982 203.121V198.02" stroke="#02365E" stroke-width="4" stroke-linecap="round"/>
<path d="M478.025 258.668H482.56M491.629 258.668H487.661M487.661 258.668V263.769M487.661 258.668H482.56M487.661 263.769H491.629M487.661 263.769H483.127M482.56 258.668V253.566" stroke="#02365E" stroke-width="4" stroke-linecap="round"/>
<path d="M326.689 167.98H331.224M340.293 167.98H336.325M336.325 167.98V173.081M336.325 167.98H331.224M336.325 173.081H340.293M336.325 173.081H331.791M331.224 167.98V162.879" stroke="#02365E" stroke-width="4" stroke-linecap="round"/>
<path fill-rule="evenodd" clip-rule="evenodd" d="M416.93 100.32H377.006C381.555 94.2554 388.803 90.332 396.968 90.332C405.132 90.332 412.381 94.2554 416.93 100.32Z" fill="#9BE8A5"/>
<path d="M377.006 100.32L375.406 99.1194C374.951 99.7254 374.878 100.536 375.217 101.214C375.556 101.892 376.248 102.32 377.006 102.32V100.32ZM416.93 100.32V102.32C417.688 102.32 418.38 101.892 418.719 101.214C419.058 100.536 418.985 99.7254 418.53 99.1194L416.93 100.32ZM377.006 102.32H416.93V98.3196H377.006V102.32ZM378.606 101.52C382.794 95.9374 389.459 92.332 396.968 92.332V88.332C388.147 88.332 380.317 92.5734 375.406 99.1194L378.606 101.52ZM396.968 92.332C404.476 92.332 411.142 95.9374 415.33 101.52L418.53 99.1194C413.619 92.5734 405.789 88.332 396.968 88.332V92.332Z" fill="#02365E"/>
<path d="M412.483 95.2614L406.076 92.2266C406.076 92.2266 407.224 96.566 405.401 96.9475C390.901 99.9824 377.75 99.9824 377.75 99.9824H416.192L412.483 95.2614Z" fill="#54CD63"/>
<path d="M377.006 100.32L375.406 99.1194C374.951 99.7254 374.878 100.536 375.217 101.214C375.556 101.892 376.248 102.32 377.006 102.32V100.32ZM416.93 100.32V102.32C417.688 102.32 418.38 101.892 418.719 101.214C419.058 100.536 418.985 99.7254 418.53 99.1194L416.93 100.32ZM377.006 102.32H416.93V98.3196H377.006V102.32ZM378.606 101.52C382.794 95.9374 389.459 92.332 396.968 92.332V88.332C388.147 88.332 380.317 92.5734 375.406 99.1194L378.606 101.52ZM396.968 92.332C404.476 92.332 411.142 95.9374 415.33 101.52L418.53 99.1194C413.619 92.5734 405.789 88.332 396.968 88.332V92.332Z" fill="#02365E"/>
<path d="M416.528 100.994H377.412V127.971H416.528V100.994Z" fill="#C6C6C6" stroke="#02365E" stroke-width="5" stroke-linejoin="round"/>
<path d="M416.193 127.295V100.318C416.193 100.318 415.884 116.142 412.146 118.865C407.404 122.32 396.635 117.516 396.635 117.516L416.193 127.295Z" fill="#8B8A8A"/>
<path d="M416.528 100.994H377.412V127.971H416.528V100.994Z" stroke="#02365E" stroke-width="5" stroke-linejoin="round"/>
<rect x="392.436" y="100.533" width="9.06877" height="13.6032" rx="0.5832" fill="#C6C6C6"/>
<path d="M379.967 101.116C379.967 100.794 380.228 100.533 380.55 100.533H388.452C388.774 100.533 389.036 100.794 389.036 101.116V113.193C389.036 113.626 388.579 113.908 388.192 113.714L380.289 109.763C380.092 109.664 379.967 109.462 379.967 109.242V101.116Z" fill="#C6C6C6"/>
<path d="M413.975 101.116C413.975 100.794 413.714 100.533 413.391 100.533H405.489C405.167 100.533 404.906 100.794 404.906 101.116V113.193C404.906 113.626 405.362 113.908 405.75 113.714L413.652 109.763C413.85 109.664 413.975 109.462 413.975 109.242V101.116Z" fill="#C6C6C6"/>
<path d="M413.833 109.76V101.33C413.833 101.33 412.258 105.188 410.798 107.4C409.051 110.047 405.403 113.47 405.403 113.47L413.833 109.76Z" fill="#8B8A8A"/>
<path d="M401.356 114.144L401.693 101.667C401.693 101.667 400.943 108.032 398.321 110.772C396.526 112.649 392.589 114.144 392.589 114.144H401.356Z" fill="#8B8A8A"/>
<path d="M389.217 113.807V102.004C389.217 102.004 388.958 107.977 386.182 109.423C384.196 110.457 380.449 109.423 380.449 109.423L389.217 113.807Z" fill="#8B8A8A"/>
<rect x="392.436" y="100.533" width="9.06877" height="13.6032" rx="0.5832" stroke="#02365E" stroke-width="4"/>
<path d="M379.967 101.116C379.967 100.794 380.228 100.533 380.55 100.533H388.452C388.774 100.533 389.036 100.794 389.036 101.116V113.193C389.036 113.626 388.579 113.908 388.192 113.714L380.289 109.763C380.092 109.664 379.967 109.462 379.967 109.242V101.116Z" stroke="#02365E" stroke-width="4"/>
<path d="M413.975 101.116C413.975 100.794 413.714 100.533 413.391 100.533H405.489C405.167 100.533 404.906 100.794 404.906 101.116V113.193C404.906 113.626 405.362 113.908 405.75 113.714L413.652 109.763C413.85 109.664 413.975 109.462 413.975 109.242V101.116Z" stroke="#02365E" stroke-width="4"/>
<path d="M396.971 89.1962V48.3867" stroke="#02365E" stroke-width="4"/>
<path d="M396.971 48.9699C396.971 48.6478 396.71 48.3867 396.388 48.3867H379.023C377.979 48.3867 377.133 49.2326 377.133 50.276C377.133 51.3195 376.287 52.1654 375.244 52.1654H365.814C365.492 52.1654 365.23 52.4265 365.23 52.7486V70.4754C365.23 70.7975 365.492 71.0586 365.814 71.0586H383.179C384.223 71.0586 385.068 70.2128 385.068 69.1693C385.068 68.1259 385.914 67.28 386.958 67.28H396.388C396.71 67.28 396.971 67.0189 396.971 66.6968V48.9699Z" fill="#F2463A" stroke="#02365E" stroke-width="4"/>
<path d="M396.971 48.3867V67.2704H385.506V70.6425H366.918C365.904 70.6677 365.273 70.6425 365.273 70.6425H366.918C370.095 70.5636 377.033 69.9898 380.111 66.596C381.264 65.324 382.284 64.6662 383.82 63.8983C387.192 62.2123 390.622 63.7802 392.587 62.8867C396.297 61.2007 396.971 48.3867 396.971 48.3867Z" fill="#B81F15"/>
<path d="M396.971 48.9699C396.971 48.6478 396.71 48.3867 396.388 48.3867H379.023C377.979 48.3867 377.133 49.2326 377.133 50.276V50.276C377.133 51.3195 376.287 52.1654 375.244 52.1654H365.814C365.492 52.1654 365.23 52.4265 365.23 52.7486V70.4754C365.23 70.7975 365.492 71.0586 365.814 71.0586H383.179C384.223 71.0586 385.068 70.2128 385.068 69.1693V69.1693C385.068 68.1259 385.914 67.28 386.958 67.28H396.388C396.71 67.28 396.971 67.0189 396.971 66.6968V48.9699Z" stroke="#02365E" stroke-width="4"/>
<path d="M396.665 117.676C396.834 117.588 397.035 117.588 397.204 117.676L449.08 144.741H344.789L396.665 117.676Z" fill="#C6C6C6" stroke="#02365E" stroke-width="4"/>
<path d="M396.081 124.935C396.253 124.844 396.459 124.844 396.63 124.935L421.508 138.201C422.044 138.487 421.841 139.299 421.234 139.299H371.478C370.871 139.299 370.668 138.487 371.203 138.201L396.081 124.935Z" fill="#DDDDDD" stroke="#02365E" stroke-width="4"/>
<path d="M421.588 138.757L396.297 124.932C396.297 124.932 411.472 134.036 410.123 136.06C408.774 138.083 371.344 138.757 371.344 138.757H421.588Z" fill="#8B8A8A"/>
<path d="M447.554 144.49L422.938 131.002C422.938 131.002 434.403 138.758 433.391 140.781C432.38 142.804 410.461 144.49 410.461 144.49H447.554Z" fill="#8B8A8A"/>
<path d="M396.665 117.676C396.834 117.588 397.035 117.588 397.204 117.676L449.08 144.741H344.789L396.665 117.676Z" stroke="#02365E" stroke-width="4"/>
<path d="M396.081 124.935C396.253 124.844 396.459 124.844 396.63 124.935L421.508 138.201C422.044 138.487 421.841 139.299 421.234 139.299H371.478C370.871 139.299 370.668 138.487 371.203 138.201L396.081 124.935Z" stroke="#02365E" stroke-width="4"/>
<path d="M397.125 94.3887C397.95 94.3043 398.549 93.5679 398.465 92.7438C398.381 91.9196 397.644 91.3199 396.82 91.4043L397.125 94.3887ZM382.61 96.3984C381.937 96.8812 381.783 97.8183 382.265 98.4915C382.748 99.1648 383.685 99.3192 384.358 98.8364L382.61 96.3984ZM388.88 94.5825L388.338 93.1838L388.88 94.5825ZM396.973 92.8965C396.82 91.4043 396.82 91.4043 396.82 91.4043C396.82 91.4043 396.819 91.4043 396.819 91.4044C396.819 91.4044 396.819 91.4044 396.818 91.4045C396.817 91.4046 396.816 91.4047 396.814 91.4049C396.811 91.4052 396.807 91.4056 396.801 91.4062C396.79 91.4074 396.774 91.4091 396.754 91.4113C396.713 91.4157 396.654 91.4221 396.579 91.4308C396.428 91.448 396.21 91.4737 395.941 91.5081C395.403 91.5769 394.654 91.6811 393.807 91.8229C392.143 92.1017 389.993 92.5427 388.338 93.1838L389.421 95.9813C390.777 95.4565 392.674 95.0545 394.303 94.7817C395.103 94.6477 395.813 94.549 396.322 94.4839C396.576 94.4513 396.78 94.4273 396.918 94.4115C396.988 94.4036 397.041 94.3977 397.076 94.394C397.093 94.3921 397.106 94.3907 397.115 94.3898C397.119 94.3894 397.122 94.3891 397.124 94.3889C397.125 94.3888 397.125 94.3887 397.126 94.3887C397.126 94.3887 397.126 94.3887 397.126 94.3887C397.126 94.3887 397.126 94.3887 397.126 94.3887C397.126 94.3887 397.125 94.3887 396.973 92.8965ZM388.338 93.1838C386.947 93.7225 385.507 94.537 384.447 95.1901C383.91 95.5212 383.455 95.8204 383.133 96.0375C382.972 96.1462 382.843 96.2348 382.754 96.2969C382.71 96.328 382.675 96.3525 382.651 96.3697C382.639 96.3783 382.629 96.385 382.622 96.3898C382.619 96.3922 382.616 96.3942 382.614 96.3956C382.613 96.3963 382.612 96.3969 382.612 96.3974C382.611 96.3976 382.611 96.3978 382.611 96.398C382.611 96.3981 382.611 96.3982 382.611 96.3982C382.61 96.3983 382.61 96.3984 383.484 97.6174C384.358 98.8364 384.358 98.8365 384.358 98.8365C384.358 98.8366 384.358 98.8366 384.358 98.8366C384.358 98.8367 384.358 98.8367 384.358 98.8367C384.358 98.8367 384.358 98.8365 384.359 98.8362C384.359 98.8357 384.361 98.8347 384.363 98.8331C384.367 98.8301 384.374 98.8252 384.384 98.8185C384.403 98.8051 384.432 98.7845 384.471 98.7574C384.548 98.7033 384.664 98.6236 384.811 98.5243C385.106 98.3254 385.525 98.0494 386.021 97.7442C387.026 97.1247 388.284 96.4218 389.421 95.9813L388.338 93.1838Z" fill="#D9FFDE"/>
<path d="M376.402 54.793H368.309V67.9441" stroke="#FF958D" stroke-width="3" stroke-linecap="round" stroke-linejoin="round"/>
<circle r="1.34884" transform="matrix(-1 0 0 1 343.692 221.036)" fill="#FFEBA5"/>
<circle r="1.34884" transform="matrix(-1 0 0 1 447.554 221.036)" fill="#FFEBA5"/>
<path d="M322.448 152.244H315.029V160" stroke="#E1F3FF" stroke-width="3" stroke-linecap="round" stroke-linejoin="round"/>
<path d="M322.786 225.082H315.367V227.442" stroke="#E1F3FF" stroke-width="3" stroke-linecap="round" stroke-linejoin="round"/>
<path d="M476.551 225.082H469.133V227.442" stroke="#E1F3FF" stroke-width="3" stroke-linecap="round" stroke-linejoin="round"/>
<path d="M314.691 182.932V179.223H316.04" stroke="#E1F3FF" stroke-width="3" stroke-linecap="round" stroke-linejoin="round"/>
<path d="M361.227 182.932V179.223H362.575" stroke="#E1F3FF" stroke-width="3" stroke-linecap="round" stroke-linejoin="round"/>
<path d="M392.924 182.932V179.223H394.273" stroke="#E1F3FF" stroke-width="3" stroke-linecap="round" stroke-linejoin="round"/>
<path d="M424.623 182.932V179.223H425.972" stroke="#E1F3FF" stroke-width="3" stroke-linecap="round" stroke-linejoin="round"/>
<path d="M469.133 182.932V179.223H470.482" stroke="#E1F3FF" stroke-width="3" stroke-linecap="round" stroke-linejoin="round"/>
<path d="M368.645 152.244H361.227V160" stroke="#E1F3FF" stroke-width="3" stroke-linecap="round" stroke-linejoin="round"/>
<path d="M400.342 152.244H392.924V160" stroke="#E1F3FF" stroke-width="3" stroke-linecap="round" stroke-linejoin="round"/>
<path d="M432.042 152.244H424.623V160" stroke="#E1F3FF" stroke-width="3" stroke-linecap="round" stroke-linejoin="round"/>
<path d="M476.551 152.244H469.133V160" stroke="#E1F3FF" stroke-width="3" stroke-linecap="round" stroke-linejoin="round"/>
<path d="M396.298 121.56L356.507 142.13M354.147 147.863H348.414V191.025M366.961 197.769H343.356V209.572M352.461 257.793H336.949V268.921M384.496 103.014H382.81V105.374M397.647 103.014H394.949V110.432M411.135 103.014H407.426V108.746M360.891 252.735H371.007M371.345 258.13H358.868V263.694M373.705 269.258H358.868V263.694M358.868 263.694H368.984M456.659 257.793H441.147V268.921" stroke="#E4E4E4" stroke-width="3" stroke-linecap="round" stroke-linejoin="round"/>
<path d="M307.947 147.861H294.459L298.505 157.303V201.478M336.273 208.559H298.505L297.831 268.919" stroke="white" stroke-width="3" stroke-linecap="round" stroke-linejoin="round"/>
<path d="M371.681 216.314H370.332V246.326M421.588 216.314H420.239V246.326" stroke="#B8B8B8" stroke-width="3" stroke-linecap="round" stroke-linejoin="round"/>
<path d="M373.705 246.326V233.512M423.612 233.512V246.326" stroke="#747474" stroke-width="3" stroke-linecap="round" stroke-linejoin="round"/>
<path d="M403.041 226.094H391.238V246.326" stroke="#8E8D8D" stroke-width="3" stroke-linecap="round" stroke-linejoin="round"/>
<path d="M462.053 148.199H452.611V190.35M492.402 207.885H456.658" stroke="#CBCBCB" stroke-width="3" stroke-linecap="round" stroke-linejoin="round"/>
<rect x="152.111" y="105.67" width="9.63142" height="167.242" rx="1" fill="#969696" stroke="#02365E" stroke-width="5"/>
<path d="M161.331 272.696V105.67C161.331 105.67 159.443 264.512 157.239 268.604C156.013 270.882 152.031 272.696 152.031 272.696H161.331Z" fill="#5B5B5B"/>
<path d="M157.611 109.389H155.379V219.872" stroke="#D5D5D5" stroke-width="3" stroke-linecap="round" stroke-linejoin="round"/>
<rect x="152.111" y="105.67" width="9.63142" height="167.242" rx="1" stroke="#02365E" stroke-width="5"/>
<path d="M152.113 121.846L111.167 108.513C102.489 106.131 97.1883 107.776 95.2631 109.105C95.0256 109.27 94.9043 109.548 94.9043 109.836V113.73" stroke="#02365E" stroke-width="5"/>
<rect x="85.0703" y="112.756" width="24.4699" height="46.7488" rx="1" fill="#314B5F" stroke="#02365E" stroke-width="5"/>
<circle cx="97.3456" cy="123.154" r="5.57994" fill="#F2463A" stroke="#02365E" stroke-width="5"/>
<circle cx="97.3456" cy="136.15" r="5.57994" fill="#FFD028" stroke="#02365E" stroke-width="5"/>
<circle cx="97.3456" cy="149.144" r="5.57994" fill="#54CD63" stroke="#02365E" stroke-width="5"/>
<path fill-rule="evenodd" clip-rule="evenodd" d="M96.229 125.758C98.2834 125.758 99.9489 124.092 99.9489 122.038C99.9489 121.296 99.732 120.605 99.3583 120.025C100.386 120.687 101.066 121.842 101.066 123.155C101.066 125.209 99.4006 126.875 97.3461 126.875C96.033 126.875 94.8788 126.194 94.2168 125.167C94.7969 125.541 95.4876 125.758 96.229 125.758Z" fill="#B81F15"/>
<path fill-rule="evenodd" clip-rule="evenodd" d="M96.0095 138.933C98.064 138.933 99.7294 137.267 99.7294 135.213C99.7294 134.268 99.3775 133.406 98.7976 132.75C100.13 133.316 101.065 134.637 101.065 136.176C101.065 138.23 99.3993 139.896 97.3448 139.896C96.2347 139.896 95.2382 139.409 94.5566 138.638C95.003 138.828 95.494 138.933 96.0095 138.933Z" fill="#E8B500"/>
<path fill-rule="evenodd" clip-rule="evenodd" d="M96.1932 152.029C98.2477 152.029 99.9131 150.364 99.9131 148.309C99.9131 147.37 99.5651 146.512 98.9909 145.857C100.22 146.465 101.065 147.731 101.065 149.194C101.065 151.249 99.3991 152.914 97.3446 152.914C96.2293 152.914 95.2287 152.423 94.5469 151.646C95.0432 151.891 95.6021 152.029 96.1932 152.029Z" fill="#1D922C"/>
<rect x="106.645" y="237.518" width="19.5759" height="22.8385" fill="white"/>
<path fill-rule="evenodd" clip-rule="evenodd" d="M108.317 216.527C107.265 216.527 106.392 217.343 106.322 218.394L102.967 268.536C102.89 269.691 103.806 270.67 104.963 270.67H127.991C129.148 270.67 130.064 269.691 129.987 268.536L126.632 218.394C126.562 217.343 125.689 216.527 124.637 216.527H108.317ZM114.186 221.604C113.634 221.604 113.186 222.051 113.186 222.604V227.372C113.186 227.924 113.634 228.372 114.186 228.372H119.012C119.565 228.372 120.012 227.924 120.012 227.372V222.604C120.012 222.051 119.565 221.604 119.012 221.604H114.186ZM127.265 241.216C127.265 241.768 126.818 242.216 126.265 242.216H107.36C106.808 242.216 106.36 241.768 106.36 241.216V239.216C106.36 238.663 106.808 238.216 107.36 238.216H126.265C126.818 238.216 127.265 238.663 127.265 239.216V241.216ZM106.36 257.288C106.36 257.84 106.808 258.288 107.36 258.288H126.265C126.818 258.288 127.265 257.84 127.265 257.288V255.288C127.265 254.735 126.818 254.288 126.265 254.288H107.36C106.808 254.288 106.36 254.735 106.36 255.288V257.288Z" fill="#F2463A"/>
<path d="M106.322 218.394L103.827 218.227V218.227L106.322 218.394ZM102.967 268.536L105.462 268.703L102.967 268.536ZM129.987 268.536L132.481 268.369L129.987 268.536ZM126.632 218.394L129.127 218.227V218.227L126.632 218.394ZM108.816 218.561C108.799 218.823 108.581 219.027 108.317 219.027V214.027C105.949 214.027 103.986 215.864 103.827 218.227L108.816 218.561ZM105.462 268.703L108.816 218.561L103.827 218.227L100.473 268.369L105.462 268.703ZM104.963 268.17C105.252 268.17 105.481 268.415 105.462 268.703L100.473 268.369C100.299 270.967 102.359 273.17 104.963 273.17V268.17ZM127.991 268.17H104.963V273.17H127.991V268.17ZM127.492 268.703C127.473 268.415 127.702 268.17 127.991 268.17V273.17C130.595 273.17 132.655 270.967 132.481 268.369L127.492 268.703ZM124.138 218.561L127.492 268.703L132.481 268.369L129.127 218.227L124.138 218.561ZM124.637 219.027C124.373 219.027 124.155 218.823 124.138 218.561L129.127 218.227C128.969 215.864 127.005 214.027 124.637 214.027V219.027ZM108.317 219.027H124.637V214.027H108.317V219.027ZM115.686 222.604C115.686 223.432 115.015 224.104 114.186 224.104V219.104C112.253 219.104 110.686 220.671 110.686 222.604H115.686ZM115.686 227.372V222.604H110.686V227.372H115.686ZM114.186 225.872C115.015 225.872 115.686 226.543 115.686 227.372H110.686C110.686 229.305 112.253 230.872 114.186 230.872V225.872ZM119.012 225.872H114.186V230.872H119.012V225.872ZM117.512 227.372C117.512 226.543 118.184 225.872 119.012 225.872V230.872C120.945 230.872 122.512 229.305 122.512 227.372H117.512ZM117.512 222.604V227.372H122.512V222.604H117.512ZM119.012 224.104C118.184 224.104 117.512 223.432 117.512 222.604H122.512C122.512 220.671 120.945 219.104 119.012 219.104V224.104ZM114.186 224.104H119.012V219.104H114.186V224.104ZM107.36 244.716H126.265V239.716H107.36V244.716ZM103.86 239.216V241.216H108.86V239.216H103.86ZM126.265 235.716H107.36V240.716H126.265V235.716ZM129.765 241.216V239.216H124.765V241.216H129.765ZM126.265 255.788H107.36V260.788H126.265V255.788ZM124.765 255.288V257.288H129.765V255.288H124.765ZM107.36 256.788H126.265V251.788H107.36V256.788ZM108.86 257.288V255.288H103.86V257.288H108.86ZM107.36 251.788C105.427 251.788 103.86 253.355 103.86 255.288H108.86C108.86 256.116 108.189 256.788 107.36 256.788V251.788ZM129.765 255.288C129.765 253.355 128.198 251.788 126.265 251.788V256.788C125.437 256.788 124.765 256.116 124.765 255.288H129.765ZM107.36 255.788C108.189 255.788 108.86 256.459 108.86 257.288H103.86C103.86 259.221 105.427 260.788 107.36 260.788V255.788ZM126.265 260.788C128.198 260.788 129.765 259.221 129.765 257.288H124.765C124.765 256.459 125.437 255.788 126.265 255.788V260.788ZM126.265 240.716C125.437 240.716 124.765 240.044 124.765 239.216H129.765C129.765 237.283 128.198 235.716 126.265 235.716V240.716ZM108.86 239.216C108.86 240.044 108.189 240.716 107.36 240.716V235.716C105.427 235.716 103.86 237.283 103.86 239.216H108.86ZM126.265 244.716C128.198 244.716 129.765 243.149 129.765 241.216H124.765C124.765 240.387 125.437 239.716 126.265 239.716V244.716ZM107.36 239.716C108.189 239.716 108.86 240.387 108.86 241.216H103.86C103.86 243.149 105.427 244.716 107.36 244.716V239.716Z" fill="#02365E"/>
<rect x="550.809" y="186.023" width="93.0351" height="86.9183" rx="1" fill="#BD645E" stroke="#02365E" stroke-width="4"/>
<path d="M643.809 273.443V186.023C643.809 186.023 635.625 248.147 623.349 258.935C611.073 269.723 551.182 273.443 551.182 273.443H643.809Z" fill="#944A45"/>
<path d="M639.344 189.744H554.529V266.375" stroke="#D98B86" stroke-width="4" stroke-linecap="round" stroke-linejoin="round"/>
<rect x="550.809" y="186.023" width="93.0351" height="86.9183" rx="1" stroke="#02365E" stroke-width="4"/>
<rect x="555.705" y="232.039" width="24.4829" height="20.4514" rx="1" fill="#A9DEFE" stroke="#02365E" stroke-width="4"/>
<path d="M580.196 252.238V232.15C580.196 232.15 578.336 244.881 574.616 247.774C570.896 250.668 555.645 252.238 555.645 252.238H580.196Z" fill="#2B99D6"/>
<path d="M577.22 235.127H558.992V249.635" stroke="#E1F3FF" stroke-width="3" stroke-linecap="round" stroke-linejoin="round"/>
<rect x="555.705" y="232.039" width="24.4829" height="20.4514" rx="1" stroke="#02365E" stroke-width="4"/>
<rect x="614.465" y="232.039" width="24.4829" height="20.4514" rx="1" fill="#A9DEFE" stroke="#02365E" stroke-width="4"/>
<path d="M638.601 252.238V232.15C638.601 232.15 636.741 244.881 633.021 247.774C629.301 250.668 614.049 252.238 614.049 252.238H638.601Z" fill="#2B99D6"/>
<path d="M635.624 235.127H617.396V249.635" stroke="#E1F3FF" stroke-width="3" stroke-linecap="round" stroke-linejoin="round"/>
<rect x="614.465" y="232.039" width="24.4829" height="20.4514" rx="1" stroke="#02365E" stroke-width="4"/>
<rect x="587.533" y="232.037" width="19.5863" height="40.9027" rx="1" fill="white" stroke="#02365E" stroke-width="4"/>
<path d="M593.65 233.316V271.982" stroke="#02365E" stroke-width="4" stroke-linecap="round"/>
<path d="M600.383 233.316V271.982" stroke="#02365E" stroke-width="4" stroke-linecap="round"/>
<line x1="588.143" y1="241.543" x2="606.515" y2="241.543" stroke="#02365E" stroke-width="4"/>
<line x1="588.143" y1="251.768" x2="606.515" y2="251.768" stroke="#02365E" stroke-width="4"/>
<line x1="588.143" y1="261.992" x2="606.515" y2="261.992" stroke="#02365E" stroke-width="4"/>
<path d="M587.84 232.357L607.628 235.987C608.563 236.158 609.188 235.05 608.556 234.339L606.508 232.035" stroke="#02365E" stroke-width="4" stroke-linecap="round"/>
<rect x="555.707" y="191.775" width="83.2419" height="20.4514" rx="1" fill="#D9D9D9" stroke="#02365E" stroke-width="4"/>
<path d="M637.857 211.319V192.348C637.857 192.348 633.393 202.02 625.581 205.368C617.769 208.715 556.762 211.319 556.762 211.319H637.857Z" fill="#B8B7B7"/>
<rect x="555.707" y="191.775" width="83.2419" height="20.4514" rx="1" stroke="#02365E" stroke-width="4"/>
<ellipse cx="568.25" cy="240.986" rx="9.79929" ry="5.11284" fill="#FFD028" stroke="#02365E" stroke-width="4"/>
<path d="M577.591 239.961L575.359 237.357C575.359 237.357 574.967 240.885 572.755 242.193C568.952 244.443 559.363 243.681 559.363 243.681L563.455 245.541H572.755L577.219 243.681L577.591 239.961Z" fill="#E8B500"/>
<path d="M569.037 238.849C569.037 238.849 566.711 238.788 565.317 239.221C563.888 239.664 561.968 240.337 561.969 241.081C561.969 241.697 563.085 242.197 563.085 242.197" stroke="#FFEBA5" stroke-width="3" stroke-linecap="round"/>
<ellipse cx="568.25" cy="240.986" rx="9.79929" ry="5.11284" stroke="#02365E" stroke-width="4"/>
<path d="M625.482 225.648H634.486" stroke="#02365E" stroke-width="4" stroke-linecap="round"/>
<path d="M628.107 221.43H637.111" stroke="#02365E" stroke-width="4" stroke-linecap="round"/>
<path d="M631.484 225.265V222.197" stroke="#02365E" stroke-width="4"/>
<path d="M634.109 221.046V217.979" stroke="#02365E" stroke-width="4" stroke-linecap="round"/>
<path d="M555.705 267.189H564.708" stroke="#02365E" stroke-width="4" stroke-linecap="round"/>
<path d="M558.33 262.971H567.333" stroke="#02365E" stroke-width="4" stroke-linecap="round"/>
<path d="M561.707 266.806V263.738" stroke="#02365E" stroke-width="4"/>
<path d="M564.332 262.587V259.52" stroke="#02365E" stroke-width="4" stroke-linecap="round"/>
<path d="M562.439 202.434H630.992" stroke="#02365E" stroke-width="4" stroke-linecap="round"/>
<path d="M632.192 195.529H559.01V208.835" stroke="white" stroke-width="3" stroke-linecap="round" stroke-linejoin="round"/>
<path d="M496.729 258.056C496.653 257.693 496.929 257.352 497.3 257.352H532.887C533.258 257.352 533.535 257.693 533.458 258.056L530.619 271.436C530.562 271.705 530.324 271.898 530.049 271.898H500.138C499.863 271.898 499.625 271.705 499.568 271.436L496.729 258.056Z" fill="#89654B" stroke="#02365E" stroke-width="5"/>
<path d="M529.606 271.211L533.698 257.447C533.698 257.447 526.487 263.731 521.051 266.375C513.54 270.028 500.219 271.211 500.219 271.211H529.606Z" fill="#704C33"/>
<path d="M525.701 260.793H500.963L503.195 269.349" stroke="#B5937A" stroke-width="3" stroke-linecap="round" stroke-linejoin="round"/>
<path d="M496.729 258.056C496.653 257.693 496.929 257.352 497.3 257.352H532.887C533.258 257.352 533.535 257.693 533.458 258.056L530.619 271.436C530.562 271.705 530.324 271.898 530.049 271.898H500.138C499.863 271.898 499.625 271.705 499.568 271.436L496.729 258.056Z" stroke="#02365E" stroke-width="5"/>
<path d="M493.936 257.935C493.936 257.613 494.197 257.352 494.519 257.352H535.669C535.991 257.352 536.252 257.613 536.252 257.935V262.058C536.252 262.38 535.991 262.641 535.669 262.641H494.519C494.197 262.641 493.936 262.38 493.936 262.058V257.935Z" stroke="#02365E" stroke-width="5"/>
<path d="M504.541 211.459L514.625 197.816C514.858 197.501 515.33 197.501 515.563 197.816L525.647 211.459C525.932 211.844 525.657 212.389 525.178 212.389H522.477C522.009 212.389 521.732 212.913 521.995 213.3L531.996 228.008C532.259 228.395 531.982 228.919 531.514 228.919H527.424C526.958 228.919 526.68 229.438 526.939 229.826L534.987 241.897C535.245 242.285 534.967 242.804 534.501 242.804H532.775C532.297 242.804 532.022 243.347 532.304 243.732L538.216 251.794C538.499 252.179 538.224 252.722 537.746 252.722H492.473C491.99 252.722 491.716 252.168 492.01 251.784L498.176 243.742C498.47 243.358 498.196 242.804 497.713 242.804H494.761C494.282 242.804 494.007 242.26 494.291 241.875L503.168 229.849C503.452 229.463 503.177 228.919 502.698 228.919H499.042C498.566 228.919 498.29 228.381 498.568 227.995L509.139 213.313C509.417 212.927 509.141 212.389 508.666 212.389H505.01C504.531 212.389 504.256 211.844 504.541 211.459Z" fill="#1D922C" stroke="#02365E" stroke-width="5"/>
<path d="M526.26 212.433L514.728 197.182L519.161 209.458H514.325L525.144 226.197H520.308L528.864 240.705H525.144L527.748 247.773L493.152 252.237H538.164L532.212 243.309L535.188 241.821L526.26 229.173H532.212L521.796 212.433H526.26Z" fill="#027010"/>
<path d="M515.843 203.133L511.379 209.297H515.843L505.427 225.081L510.263 225.825L500.963 239.588L505.427 240.332L499.104 248.888" stroke="#54CD63" stroke-width="3" stroke-linecap="round" stroke-linejoin="round"/>
<path d="M504.541 211.459L514.625 197.816C514.858 197.501 515.33 197.501 515.563 197.816L525.647 211.459C525.932 211.844 525.657 212.389 525.178 212.389H522.477C522.009 212.389 521.732 212.913 521.995 213.3L531.996 228.008C532.259 228.395 531.982 228.919 531.514 228.919H527.424C526.958 228.919 526.68 229.438 526.939 229.826L534.987 241.897C535.245 242.285 534.967 242.804 534.501 242.804H532.775C532.297 242.804 532.022 243.347 532.304 243.732L538.216 251.794C538.499 252.179 538.224 252.722 537.746 252.722H492.473C491.99 252.722 491.716 252.168 492.01 251.784L498.176 243.742C498.47 243.358 498.196 242.804 497.713 242.804H494.761C494.282 242.804 494.007 242.26 494.291 241.875L503.168 229.849C503.452 229.463 503.177 228.919 502.698 228.919H499.042C498.566 228.919 498.29 228.381 498.568 227.995L509.139 213.313C509.417 212.927 509.141 212.389 508.666 212.389H505.01C504.531 212.389 504.256 211.844 504.541 211.459Z" stroke="#02365E" stroke-width="5"/>
<path d="M509.143 224.953L510.747 227.895C510.977 228.317 511.591 228.295 511.79 227.857L513.11 224.953" stroke="#02365E" stroke-width="5" stroke-linecap="round"/>
<path d="M519.062 235.531L520.667 238.473C520.897 238.895 521.511 238.873 521.71 238.435L523.03 235.531" stroke="#02365E" stroke-width="5" stroke-linecap="round"/>
<path d="M505.176 245.449L506.78 248.391C507.011 248.813 507.624 248.791 507.823 248.353L509.143 245.449" stroke="#02365E" stroke-width="5" stroke-linecap="round"/>
<path d="M515.094 207.762L516.698 210.703C516.929 211.125 517.542 211.103 517.741 210.665L519.061 207.762" stroke="#02365E" stroke-width="5" stroke-linecap="round"/>
<path d="M515.094 252.393V257.682" stroke="#02365E" stroke-width="5"/>
</svg>
