<svg width="243" height="225" viewBox="0 0 243 225" fill="none" xmlns="http://www.w3.org/2000/svg">
<g clip-path="url(#clip0_67_27)">
<mask id="path-1-inside-1_67_27" fill="white">
<path d="M200.391 225.147C194.666 233.09 185.97 238.613 176.218 240.501C166.465 242.389 156.455 240.487 148.388 235.213C140.321 229.939 134.858 221.725 133.202 212.379C131.547 203.033 133.833 193.319 139.558 185.376C145.284 177.432 153.979 171.908 163.731 170.021C173.484 168.133 183.495 170.035 191.562 175.309C199.629 180.583 205.091 188.797 206.747 198.143C208.402 207.489 206.116 217.203 200.391 225.147Z"/>
</mask>
<path d="M200.391 225.147C194.666 233.09 185.97 238.613 176.218 240.501C166.465 242.389 156.455 240.487 148.388 235.213C140.321 229.939 134.858 221.725 133.202 212.379C131.547 203.033 133.833 193.319 139.558 185.376C145.284 177.432 153.979 171.908 163.731 170.021C173.484 168.133 183.495 170.035 191.562 175.309C199.629 180.583 205.091 188.797 206.747 198.143C208.402 207.489 206.116 217.203 200.391 225.147Z" fill="#BE79CE" stroke="#598EFB" stroke-width="4" mask="url(#path-1-inside-1_67_27)"/>
<mask id="path-2-inside-2_67_27" fill="white">
<path d="M184.941 217.208C184.007 218.401 183.294 218.331 182.801 216.996L201.073 146.813L146.352 118.896C146.28 118.7 146.263 118.49 146.301 118.282C146.34 118.074 146.434 117.875 146.574 117.701C146.715 117.527 146.899 117.383 147.112 117.281C147.324 117.178 147.559 117.12 147.798 117.111L263.506 112.724C265.511 112.648 265.921 113.337 264.736 114.792C264.487 115.088 264.202 115.449 263.879 115.872C237.699 149.539 211.386 183.317 184.941 217.208Z"/>
</mask>
<path d="M184.941 217.208C184.007 218.401 183.294 218.331 182.801 216.996L201.073 146.813L146.352 118.896C146.28 118.7 146.263 118.49 146.301 118.282C146.34 118.074 146.434 117.875 146.574 117.701C146.715 117.527 146.899 117.383 147.112 117.281C147.324 117.178 147.559 117.12 147.798 117.111L263.506 112.724C265.511 112.648 265.921 113.337 264.736 114.792C264.487 115.088 264.202 115.449 263.879 115.872C237.699 149.539 211.386 183.317 184.941 217.208Z" fill="#FCB427" stroke="#598EFB" stroke-width="2" mask="url(#path-2-inside-2_67_27)"/>
<mask id="path-3-inside-3_67_27" fill="white">
<path d="M158.801 45.6302C156.268 41.5955 155.946 36.5209 157.906 31.523C159.867 26.5251 163.948 22.0132 169.254 18.9798C174.559 15.9463 180.654 14.6397 186.196 15.3477C191.739 16.0556 196.276 18.7201 198.809 22.7548C201.342 26.7894 201.664 31.8638 199.704 36.8618C197.744 41.8597 193.662 46.3718 188.357 49.4052C183.051 52.4387 176.957 53.7451 171.414 53.0371C165.872 52.3291 191.455 20.4295 158.801 45.6302Z"/>
</mask>
<path d="M158.801 45.6302C156.268 41.5955 155.946 36.5209 157.906 31.523C159.867 26.5251 163.948 22.0132 169.254 18.9798C174.559 15.9463 180.654 14.6397 186.196 15.3477C191.739 16.0556 196.276 18.7201 198.809 22.7548C201.342 26.7894 201.664 31.8638 199.704 36.8618C197.744 41.8597 193.662 46.3718 188.357 49.4052C183.051 52.4387 176.957 53.7451 171.414 53.0371C165.872 52.3291 191.455 20.4295 158.801 45.6302Z" fill="#FD703A" stroke="#598EFB" stroke-width="4" mask="url(#path-3-inside-3_67_27)"/>
<mask id="path-4-inside-4_67_27" fill="white">
<path d="M15.9257 64.3221L-0.808165 45.797C-2.07144 44.401 -1.74394 43.7877 0.174272 43.9569L25.8007 46.1457C26.0187 46.1632 26.2405 46.1284 26.4476 46.0445C26.6547 45.9605 26.8411 45.8298 26.9912 45.6631C27.1414 45.4964 27.251 45.2985 27.3109 45.0861C27.3709 44.8736 27.3794 44.6526 27.3358 44.4415L23.6959 26.7178C23.2851 24.6923 23.9768 24.1778 25.7709 25.1743L45.9898 36.3465C46.1457 36.4343 46.3194 36.4892 46.5007 36.5079C46.682 36.5266 46.8671 36.5087 47.045 36.4553C47.2229 36.4019 47.39 36.3141 47.5363 36.1971C47.6826 36.0801 47.8051 35.9363 47.8966 35.7742L60.8729 12.9838C62.1713 10.6897 63.0249 10.802 63.4337 13.3208L66.933 35.1638C66.9669 35.3736 67.0505 35.5699 67.1772 35.7371C67.3038 35.9043 67.4699 36.0377 67.6621 36.1264C67.8542 36.2151 68.0671 36.2566 68.2835 36.2477C68.4999 36.2388 68.7138 36.1797 68.9079 36.0752L89.6119 24.9578C92.0005 23.6695 92.6163 24.2416 91.4591 26.6741L80.534 49.6704C80.4435 49.8621 80.3964 50.0694 80.3961 50.2767C80.3958 50.484 80.4423 50.686 80.5323 50.8677C80.6223 51.0494 80.7533 51.2062 80.9157 51.3263C81.078 51.4464 81.2676 51.5268 81.4702 51.5615L107.375 56.0896C109.569 56.4705 109.708 57.2978 107.793 58.5715L85.9029 73.0395C85.7284 73.1532 85.5798 73.303 85.4679 73.4779C85.356 73.6529 85.2836 73.8488 85.2558 74.0513C85.228 74.2539 85.2455 74.4582 85.3072 74.6495C85.3688 74.8409 85.473 75.0145 85.6122 75.1579L104.793 94.4759C106.474 96.1607 106.093 96.9448 103.651 96.8284L75.4099 95.4355C75.2117 95.4265 75.0116 95.4603 74.8235 95.5346C74.6353 95.6088 74.4635 95.7217 74.3199 95.8655C74.1762 96.0093 74.064 96.1806 73.9911 96.3677C73.9181 96.5548 73.8861 96.7533 73.8972 96.9495L75.1866 120.89C75.2942 123.052 74.5266 123.458 72.8837 122.111L53.0534 105.87C52.8992 105.745 52.7175 105.656 52.5213 105.61C52.3251 105.564 52.1191 105.561 51.918 105.602C51.7169 105.644 51.5256 105.728 51.3576 105.849C51.1896 105.969 51.049 106.124 50.9458 106.302L37.6402 129.2C36.5265 131.118 35.8436 131.008 35.5915 128.872L32.6417 103.735C32.6146 103.521 32.537 103.319 32.4155 103.145C32.2939 102.971 32.1316 102.83 31.9419 102.734C31.7521 102.637 31.5402 102.587 31.3232 102.589C31.1063 102.591 30.8904 102.643 30.6932 102.743L11.99 112.02C9.75319 113.132 9.14774 112.559 10.1737 110.302L20.7494 86.8948C20.8991 86.5597 20.9151 86.1871 20.794 85.8563C20.6729 85.5254 20.4242 85.2625 20.1008 85.1232L-0.761339 76.1047C-2.63346 75.2982 -2.6018 74.4636 -0.666396 73.601L15.3867 66.5094C15.5911 66.4186 15.7731 66.2819 15.9176 66.1106C16.0622 65.9392 16.1651 65.7382 16.2178 65.5243C16.2705 65.3104 16.2715 65.0897 16.2207 64.8806C16.1699 64.6715 16.0688 64.4801 15.9257 64.3221Z"/>
</mask>
<path d="M15.9257 64.3221L-0.808165 45.797C-2.07144 44.401 -1.74394 43.7877 0.174272 43.9569L25.8007 46.1457C26.0187 46.1632 26.2405 46.1284 26.4476 46.0445C26.6547 45.9605 26.8411 45.8298 26.9912 45.6631C27.1414 45.4964 27.251 45.2985 27.3109 45.0861C27.3709 44.8736 27.3794 44.6526 27.3358 44.4415L23.6959 26.7178C23.2851 24.6923 23.9768 24.1778 25.7709 25.1743L45.9898 36.3465C46.1457 36.4343 46.3194 36.4892 46.5007 36.5079C46.682 36.5266 46.8671 36.5087 47.045 36.4553C47.2229 36.4019 47.39 36.3141 47.5363 36.1971C47.6826 36.0801 47.8051 35.9363 47.8966 35.7742L60.8729 12.9838C62.1713 10.6897 63.0249 10.802 63.4337 13.3208L66.933 35.1638C66.9669 35.3736 67.0505 35.5699 67.1772 35.7371C67.3038 35.9043 67.4699 36.0377 67.6621 36.1264C67.8542 36.2151 68.0671 36.2566 68.2835 36.2477C68.4999 36.2388 68.7138 36.1797 68.9079 36.0752L89.6119 24.9578C92.0005 23.6695 92.6163 24.2416 91.4591 26.6741L80.534 49.6704C80.4435 49.8621 80.3964 50.0694 80.3961 50.2767C80.3958 50.484 80.4423 50.686 80.5323 50.8677C80.6223 51.0494 80.7533 51.2062 80.9157 51.3263C81.078 51.4464 81.2676 51.5268 81.4702 51.5615L107.375 56.0896C109.569 56.4705 109.708 57.2978 107.793 58.5715L85.9029 73.0395C85.7284 73.1532 85.5798 73.303 85.4679 73.4779C85.356 73.6529 85.2836 73.8488 85.2558 74.0513C85.228 74.2539 85.2455 74.4582 85.3072 74.6495C85.3688 74.8409 85.473 75.0145 85.6122 75.1579L104.793 94.4759C106.474 96.1607 106.093 96.9448 103.651 96.8284L75.4099 95.4355C75.2117 95.4265 75.0116 95.4603 74.8235 95.5346C74.6353 95.6088 74.4635 95.7217 74.3199 95.8655C74.1762 96.0093 74.064 96.1806 73.9911 96.3677C73.9181 96.5548 73.8861 96.7533 73.8972 96.9495L75.1866 120.89C75.2942 123.052 74.5266 123.458 72.8837 122.111L53.0534 105.87C52.8992 105.745 52.7175 105.656 52.5213 105.61C52.3251 105.564 52.1191 105.561 51.918 105.602C51.7169 105.644 51.5256 105.728 51.3576 105.849C51.1896 105.969 51.049 106.124 50.9458 106.302L37.6402 129.2C36.5265 131.118 35.8436 131.008 35.5915 128.872L32.6417 103.735C32.6146 103.521 32.537 103.319 32.4155 103.145C32.2939 102.971 32.1316 102.83 31.9419 102.734C31.7521 102.637 31.5402 102.587 31.3232 102.589C31.1063 102.591 30.8904 102.643 30.6932 102.743L11.99 112.02C9.75319 113.132 9.14774 112.559 10.1737 110.302L20.7494 86.8948C20.8991 86.5597 20.9151 86.1871 20.794 85.8563C20.6729 85.5254 20.4242 85.2625 20.1008 85.1232L-0.761339 76.1047C-2.63346 75.2982 -2.6018 74.4636 -0.666396 73.601L15.3867 66.5094C15.5911 66.4186 15.7731 66.2819 15.9176 66.1106C16.0622 65.9392 16.1651 65.7382 16.2178 65.5243C16.2705 65.3104 16.2715 65.0897 16.2207 64.8806C16.1699 64.6715 16.0688 64.4801 15.9257 64.3221Z" fill="#FCB427" stroke="#598EFB" stroke-width="4" mask="url(#path-4-inside-4_67_27)"/>
<mask id="path-5-inside-5_67_27" fill="white">
<path d="M52.7321 200.599C49.1234 205.023 43.8367 207.978 38.0351 208.813C32.2334 209.647 26.392 208.294 21.7959 205.05C17.1998 201.807 14.2254 196.938 13.5272 191.516C12.829 186.094 25.8327 188.831 29.4414 184.407C33.05 179.982 26.968 168.758 32.7696 167.923C38.5713 167.088 44.4127 168.442 49.0088 171.686C53.6049 174.929 56.5793 179.798 57.2775 185.22C57.9758 190.642 23.02 187.107 52.7321 200.599Z"/>
</mask>
<path d="M52.7321 200.599C49.1234 205.023 43.8367 207.978 38.0351 208.813C32.2334 209.647 26.392 208.294 21.7959 205.05C17.1998 201.807 14.2254 196.938 13.5272 191.516C12.829 186.094 25.8327 188.831 29.4414 184.407C33.05 179.982 26.968 168.758 32.7696 167.923C38.5713 167.088 44.4127 168.442 49.0088 171.686C53.6049 174.929 56.5793 179.798 57.2775 185.22C57.9758 190.642 23.02 187.107 52.7321 200.599Z" fill="#598EFB" stroke="#598EFB" stroke-width="4" mask="url(#path-5-inside-5_67_27)"/>
</g>
<defs>
<clipPath id="clip0_67_27">
<rect width="243" height="225" fill="white"/>
</clipPath>
</defs>
</svg>
