<svg width="427" height="480" viewBox="0 0 427 480" fill="none" xmlns="http://www.w3.org/2000/svg">
<path d="M-12.3841 293.509L-58 200.5H27.5299H68.3942H183.205H187.957H254.797H262.4H354.899L368.713 203.661L427 200.5L362.047 214.634L359.829 219.193L328.785 214.634L319.282 219.193L307.244 222.385V293.509L331.333 243.813L312.313 306.731L241.968 339.575L297.562 270.257L290.91 288.494H285.841L283.691 298.524L283.941 303.084L251.313 341.838L246.878 351.446L222.803 379.224L199.141 386.746L179.597 379.224L187.957 401.249L174.856 421.169L141.267 394.269L134.614 331.351L141.267 480L118.776 407.035L91.6568 394.269L85.9548 365.546H77.4018L68.5321 327.704L37.0332 341.838L28.6043 336.646L31.3867 339.575L-12.3841 293.509Z" fill="url(#paint0_linear_191_2710)"/>
<path d="M34.0033 259.315L65.3643 298.524L65.8592 303.084L68.5321 327.704L77.4018 365.546L80.1288 240.622L88.9985 222.385L94.067 259.771L105.788 291.23L85.9548 365.546L91.6568 394.269L118.776 407.035L141.267 480L174.856 421.169L134.614 331.351L141.267 267.521L150.137 285.303V306.731L179.597 341.838V394.269L174.856 421.169L187.957 401.249L199.044 413.874L206.013 386.518L208.231 330.439L206.013 281.655L211.399 252.02L217.101 272.993H222.803L221.219 370.105L222.803 379.224L237.058 345.029V327.704L243.076 225.576L254.797 200.5H187.957L196.51 240.622L183.205 247.917L168 306.731L172.435 225.576L183.205 200.5H187.957H254.797H262.4L254.797 236.974L262.4 293.509L251.313 341.838L283.941 303.084L283.691 298.524L281.723 262.506L285.841 240.622V219.193L287.425 222.385L289.009 270.257L285.841 288.494H290.91L297.562 270.257L241.968 339.575L301.363 259.771L315.935 225.576L323.538 214.634L354.899 200.5L368.713 203.661L427 200.5L401.975 217.825L399.757 222.385L347.5 259.771L359.21 222.385L359.829 262.506L307.244 293.509L331.333 243.813L312.313 306.731L241.968 339.575L297.562 270.257L290.91 288.494H285.841L283.691 298.524L283.941 303.084L251.313 341.838L246.878 351.446L222.803 379.224L199.141 386.746L179.597 379.224L187.957 401.249L174.856 421.169L141.267 394.269L134.614 331.351L141.267 480L118.776 407.035L91.6568 394.269L85.9548 365.546H77.4018L68.5321 327.704L65.8592 303.084L34.0033 259.315Z" fill="url(#paint1_linear_191_2710)"/>
<path d="M34.0033 259.315L65.3643 298.524L65.8592 303.084L68.5321 327.704L77.4018 365.546H85.9548L91.6568 394.269L118.776 407.035L141.267 480L134.614 331.351L141.267 394.269L174.856 421.169L187.957 401.249L199.044 413.874L206.013 386.518L208.231 330.439L206.013 281.655L211.399 252.02L217.101 272.993H222.803L221.219 370.105L222.803 379.224L237.058 345.029V327.704L243.076 225.576L254.797 200.5H187.957L196.51 240.622L183.205 247.917L168 306.731L172.435 225.576L183.205 200.5H187.957H254.797H262.4L254.797 236.974L262.4 293.509L251.313 341.838L283.941 303.084L283.691 298.524L281.723 262.506L285.841 240.622V219.193L287.425 222.385L289.009 270.257L285.841 288.494L252.249 270.257L264.034 200.5H354.899L323.538 214.634L315.935 225.576L301.363 259.771L241.968 339.575L297.562 270.257L290.91 288.494H285.841L283.691 298.524L283.941 303.084L251.313 341.838L246.878 351.446L237.058 327.704V345.029L222.803 379.224L221.219 370.105L143.278 351.446L177.173 372.841L174.005 370.105L208.231 330.439L206.013 386.518L199.044 413.874L187.957 401.249L174.856 421.169L141.267 394.269L134.614 331.351L141.267 480L118.776 407.035L91.6568 394.269L85.9548 365.546H77.4018L68.5321 327.704L65.8592 303.084L34.0033 259.315Z" fill="url(#paint2_linear_191_2710)"/>
<path d="M427 200.5C427 206.851 327.255 212 204.212 212C81.1702 212 -58 206.851 -58 200.5C-58 194.149 81.1702 189 204.212 189C327.255 189 427 194.149 427 200.5Z" fill="url(#paint3_linear_191_2710)"/>
<rect x="221.216" y="164.656" width="56.7839" height="46.4661" rx="1" fill="url(#paint4_linear_191_2710)"/>
<path fill-rule="evenodd" clip-rule="evenodd" d="M273.813 118.19C274.84 118.19 275.2 116.825 274.305 116.319L250.101 102.628C249.795 102.455 249.421 102.455 249.116 102.628L224.912 116.319C224.017 116.825 224.376 118.19 225.404 118.19H273.813ZM278 119.19C278 118.638 277.552 118.19 277 118.19H222.216C221.664 118.19 221.216 118.638 221.216 119.19V163.656C221.216 164.208 221.664 164.656 222.216 164.656H277C277.552 164.656 278 164.208 278 163.656V119.19Z" fill="url(#paint5_linear_191_2710)"/>
<path fill-rule="evenodd" clip-rule="evenodd" d="M261.871 119.063C262.065 119.063 262.227 118.912 262.227 118.718V118.718C262.227 114.052 256.577 110.27 249.608 110.27C242.639 110.27 236.989 114.052 236.989 118.718V118.718C236.989 118.912 237.151 119.063 237.345 119.063H261.871ZM251.446 127.077H247.77C248.37 127.136 248.984 127.166 249.608 127.166C250.232 127.166 250.846 127.136 251.446 127.077Z" fill="url(#paint6_linear_191_2710)"/>
<rect x="237.779" y="139.311" width="25.2373" height="25.3451" rx="1" fill="url(#paint7_linear_191_2710)"/>
<rect x="244.089" y="143.008" width="12.6186" height="4.22419" rx="1" fill="url(#paint8_linear_191_2710)"/>
<path fill-rule="evenodd" clip-rule="evenodd" d="M153.523 118.189C154.574 118.189 154.914 116.775 153.977 116.298L127.031 102.58C126.746 102.434 126.408 102.434 126.123 102.58L99.177 116.298C98.2401 116.775 98.5793 118.189 99.6306 118.189H153.523ZM158.123 119.19C158.123 118.637 157.676 118.19 157.123 118.19H96.0303C95.478 118.19 95.0303 118.637 95.0303 119.19V163.656C95.0303 164.208 95.478 164.656 96.0303 164.656H157.123C157.676 164.656 158.123 164.208 158.123 163.656V119.19Z" fill="url(#paint9_linear_191_2710)"/>
<rect x="113.959" y="135.086" width="25.2373" height="29.5693" rx="1" fill="url(#paint10_linear_191_2710)"/>
<path fill-rule="evenodd" clip-rule="evenodd" d="M126.642 138.783H126.512C126.534 138.783 126.555 138.783 126.577 138.783C126.598 138.783 126.62 138.783 126.642 138.783ZM114.958 130.335C114.406 130.335 113.95 129.884 114.045 129.34C114.781 125.143 120.111 121.887 126.577 121.887C133.043 121.887 138.373 125.143 139.109 129.34C139.204 129.884 138.748 130.335 138.195 130.335H114.958Z" fill="url(#paint11_linear_191_2710)"/>
<rect x="101.34" y="135.613" width="6.30932" height="16.8968" rx="1" fill="url(#paint12_linear_191_2710)"/>
<rect x="145.506" y="135.613" width="6.30932" height="16.8968" rx="1" fill="url(#paint13_linear_191_2710)"/>
<rect x="95.0303" y="164.656" width="63.0932" height="46.4661" rx="1" fill="url(#paint14_linear_191_2710)"/>
<path fill-rule="evenodd" clip-rule="evenodd" d="M218.566 109.741C219.546 109.741 219.941 108.476 219.134 107.918L190.24 87.9565C189.897 87.7202 189.445 87.7202 189.103 87.9565L160.208 107.918C159.401 108.476 159.796 109.741 160.777 109.741H218.566ZM221.217 110.741C221.217 110.189 220.769 109.741 220.217 109.741H159.124C158.572 109.741 158.124 110.189 158.124 110.741V163.655C158.124 164.208 158.572 164.655 159.124 164.655H220.217C220.769 164.655 221.217 164.208 221.217 163.655V110.741Z" fill="url(#paint15_linear_191_2710)"/>
<path d="M189.17 95.2479C189.48 95.068 189.863 95.068 190.173 95.2479L202.847 102.596C203.731 103.109 203.367 104.461 202.345 104.461H176.997C175.975 104.461 175.611 103.109 176.496 102.596L189.17 95.2479Z" fill="url(#paint16_linear_191_2710)"/>
<path fill-rule="evenodd" clip-rule="evenodd" d="M180.207 125.054V145.175C180.207 145.727 179.759 146.175 179.207 146.175H168.588C168.036 146.175 167.588 145.727 167.588 145.175V125.054C167.588 125.054 167.588 125.054 167.588 125.054C167.588 122.721 170.413 120.83 173.897 120.83C177.382 120.83 180.206 122.721 180.207 125.054C180.207 125.054 180.207 125.054 180.207 125.054Z" fill="url(#paint17_linear_191_2710)"/>
<path fill-rule="evenodd" clip-rule="evenodd" d="M202.354 136.143H202.225C202.247 136.143 202.268 136.143 202.29 136.143C202.311 136.143 202.333 136.143 202.354 136.143ZM190.671 127.694C190.119 127.694 189.662 127.243 189.758 126.699C190.494 122.502 195.824 119.246 202.29 119.246C208.756 119.246 214.086 122.502 214.822 126.699C214.917 127.243 214.461 127.694 213.908 127.694H190.671Z" fill="url(#paint18_linear_191_2710)"/>
<rect x="158.124" y="164.654" width="63.0932" height="46.4661" rx="1" fill="url(#paint19_linear_191_2710)"/>
<rect x="199.922" y="181.553" width="12.6186" height="8.44838" rx="1" fill="url(#paint20_linear_191_2710)"/>
<rect x="168.376" y="168.879" width="44.1652" height="8.44838" rx="1" fill="url(#paint21_linear_191_2710)"/>
<rect x="189.67" y="131.918" width="25.2373" height="29.5693" rx="1" fill="url(#paint22_linear_191_2710)"/>
<rect x="195.979" y="136.143" width="12.6186" height="8.44838" rx="1" fill="url(#paint23_linear_191_2710)"/>
<rect x="165.222" y="181.553" width="25.2373" height="29.5693" rx="1" fill="url(#paint24_linear_191_2710)"/>
<path fill-rule="evenodd" clip-rule="evenodd" d="M60.4594 8.01086e-05C60.7609 8.01086e-05 61.0463 0.136131 61.2362 0.37036L89.4352 35.1566C89.493 35.228 89.58 35.2694 89.6718 35.2694V35.2694C89.84 35.2694 89.9764 35.4058 89.9764 35.574V35.8163C89.9764 35.8215 89.9782 35.8265 89.9815 35.8306L89.9965 35.8491C90.0025 35.8565 89.9972 35.8675 89.9877 35.8675V35.8675C89.9815 35.8675 89.9764 35.8725 89.9764 35.8788V203.347C89.9764 203.899 89.5287 204.347 88.9764 204.347H9C8.44772 204.347 8 203.899 8 203.347V36.0043C8 35.5984 8.32902 35.2694 8.73488 35.2694V35.2694C8.95647 35.2694 9.16622 35.1694 9.30576 34.9973L37.3756 0.370361C37.5654 0.136131 37.8509 8.01086e-05 38.1524 8.01086e-05H60.4594Z" fill="url(#paint25_linear_191_2710)"/>
<rect x="15.833" y="36.4648" width="11.3946" height="9.56465" rx="1" fill="url(#paint26_linear_191_2710)"/>
<rect x="72.0938" y="35.8672" width="11.3946" height="9.56465" rx="1" fill="url(#paint27_linear_191_2710)"/>
<rect x="57.8506" y="47.8223" width="11.3946" height="9.56465" rx="1" fill="url(#paint28_linear_191_2710)"/>
<rect x="43.6064" y="59.7793" width="11.3946" height="9.56465" rx="1" fill="url(#paint29_linear_191_2710)"/>
<rect x="29.3633" y="47.8223" width="11.3946" height="9.56465" rx="1" fill="url(#paint30_linear_191_2710)"/>
<rect x="43.8643" y="189.609" width="11.3946" height="14.347" rx="1" fill="url(#paint31_linear_191_2710)"/>
<defs>
<linearGradient id="paint0_linear_191_2710" x1="184.5" y1="189" x2="184.5" y2="480" gradientUnits="userSpaceOnUse">
<stop stop-color="#035798"/>
<stop offset="1" stop-color="#2B99D6" stop-opacity="0"/>
</linearGradient>
<linearGradient id="paint1_linear_191_2710" x1="184.5" y1="189" x2="184.5" y2="480" gradientUnits="userSpaceOnUse">
<stop stop-color="#035798"/>
<stop offset="1" stop-color="#2B99D6" stop-opacity="0"/>
</linearGradient>
<linearGradient id="paint2_linear_191_2710" x1="184.5" y1="189" x2="184.5" y2="480" gradientUnits="userSpaceOnUse">
<stop stop-color="#035798"/>
<stop offset="1" stop-color="#2B99D6" stop-opacity="0"/>
</linearGradient>
<linearGradient id="paint3_linear_191_2710" x1="184.5" y1="189" x2="184.5" y2="480" gradientUnits="userSpaceOnUse">
<stop stop-color="#035798"/>
<stop offset="1" stop-color="#2B99D6" stop-opacity="0"/>
</linearGradient>
<linearGradient id="paint4_linear_191_2710" x1="249.608" y1="164.656" x2="249.608" y2="211.122" gradientUnits="userSpaceOnUse">
<stop stop-color="#035798"/>
<stop offset="1" stop-color="#2B99D6" stop-opacity="0"/>
</linearGradient>
<linearGradient id="paint5_linear_191_2710" x1="249.608" y1="102.498" x2="249.608" y2="164.656" gradientUnits="userSpaceOnUse">
<stop stop-color="#035798"/>
<stop offset="1" stop-color="#2B99D6" stop-opacity="0"/>
</linearGradient>
<linearGradient id="paint6_linear_191_2710" x1="249.608" y1="110.27" x2="249.608" y2="127.166" gradientUnits="userSpaceOnUse">
<stop stop-color="#035798"/>
<stop offset="1" stop-color="#2B99D6" stop-opacity="0"/>
</linearGradient>
<linearGradient id="paint7_linear_191_2710" x1="250.398" y1="139.311" x2="250.398" y2="164.656" gradientUnits="userSpaceOnUse">
<stop stop-color="#035798"/>
<stop offset="1" stop-color="#2B99D6" stop-opacity="0"/>
</linearGradient>
<linearGradient id="paint8_linear_191_2710" x1="250.398" y1="143.008" x2="250.398" y2="147.232" gradientUnits="userSpaceOnUse">
<stop stop-color="#035798"/>
<stop offset="1" stop-color="#2B99D6" stop-opacity="0"/>
</linearGradient>
<linearGradient id="paint9_linear_191_2710" x1="126.577" y1="102.471" x2="126.577" y2="164.656" gradientUnits="userSpaceOnUse">
<stop stop-color="#035798"/>
<stop offset="1" stop-color="#2B99D6" stop-opacity="0"/>
</linearGradient>
<linearGradient id="paint10_linear_191_2710" x1="126.578" y1="135.086" x2="126.578" y2="164.655" gradientUnits="userSpaceOnUse">
<stop stop-color="#035798"/>
<stop offset="1" stop-color="#2B99D6" stop-opacity="0"/>
</linearGradient>
<linearGradient id="paint11_linear_191_2710" x1="126.577" y1="121.887" x2="126.577" y2="138.783" gradientUnits="userSpaceOnUse">
<stop stop-color="#035798"/>
<stop offset="1" stop-color="#2B99D6" stop-opacity="0"/>
</linearGradient>
<linearGradient id="paint12_linear_191_2710" x1="104.495" y1="135.613" x2="104.495" y2="152.51" gradientUnits="userSpaceOnUse">
<stop stop-color="#035798"/>
<stop offset="1" stop-color="#2B99D6" stop-opacity="0"/>
</linearGradient>
<linearGradient id="paint13_linear_191_2710" x1="148.661" y1="135.613" x2="148.661" y2="152.51" gradientUnits="userSpaceOnUse">
<stop stop-color="#035798"/>
<stop offset="1" stop-color="#2B99D6" stop-opacity="0"/>
</linearGradient>
<linearGradient id="paint14_linear_191_2710" x1="126.577" y1="164.656" x2="126.577" y2="211.122" gradientUnits="userSpaceOnUse">
<stop stop-color="#035798"/>
<stop offset="1" stop-color="#2B99D6" stop-opacity="0"/>
</linearGradient>
<linearGradient id="paint15_linear_191_2710" x1="189.671" y1="87.7793" x2="189.671" y2="164.655" gradientUnits="userSpaceOnUse">
<stop stop-color="#035798"/>
<stop offset="1" stop-color="#2B99D6" stop-opacity="0"/>
</linearGradient>
<linearGradient id="paint16_linear_191_2710" x1="189.671" y1="94.957" x2="189.671" y2="107.63" gradientUnits="userSpaceOnUse">
<stop stop-color="#035798"/>
<stop offset="1" stop-color="#2B99D6" stop-opacity="0"/>
</linearGradient>
<linearGradient id="paint17_linear_191_2710" x1="173.897" y1="120.83" x2="173.897" y2="146.175" gradientUnits="userSpaceOnUse">
<stop stop-color="#035798"/>
<stop offset="1" stop-color="#2B99D6" stop-opacity="0"/>
</linearGradient>
<linearGradient id="paint18_linear_191_2710" x1="202.29" y1="119.246" x2="202.29" y2="136.143" gradientUnits="userSpaceOnUse">
<stop stop-color="#035798"/>
<stop offset="1" stop-color="#2B99D6" stop-opacity="0"/>
</linearGradient>
<linearGradient id="paint19_linear_191_2710" x1="189.671" y1="164.654" x2="189.671" y2="211.12" gradientUnits="userSpaceOnUse">
<stop stop-color="#035798"/>
<stop offset="1" stop-color="#2B99D6" stop-opacity="0"/>
</linearGradient>
<linearGradient id="paint20_linear_191_2710" x1="206.231" y1="181.553" x2="206.231" y2="190.001" gradientUnits="userSpaceOnUse">
<stop stop-color="#035798"/>
<stop offset="1" stop-color="#2B99D6" stop-opacity="0"/>
</linearGradient>
<linearGradient id="paint21_linear_191_2710" x1="190.459" y1="168.879" x2="190.459" y2="177.327" gradientUnits="userSpaceOnUse">
<stop stop-color="#035798"/>
<stop offset="1" stop-color="#2B99D6" stop-opacity="0"/>
</linearGradient>
<linearGradient id="paint22_linear_191_2710" x1="202.289" y1="131.918" x2="202.289" y2="161.487" gradientUnits="userSpaceOnUse">
<stop stop-color="#035798"/>
<stop offset="1" stop-color="#2B99D6" stop-opacity="0"/>
</linearGradient>
<linearGradient id="paint23_linear_191_2710" x1="202.289" y1="136.143" x2="202.289" y2="144.591" gradientUnits="userSpaceOnUse">
<stop stop-color="#035798"/>
<stop offset="1" stop-color="#2B99D6" stop-opacity="0"/>
</linearGradient>
<linearGradient id="paint24_linear_191_2710" x1="177.84" y1="181.553" x2="177.84" y2="211.122" gradientUnits="userSpaceOnUse">
<stop stop-color="#035798"/>
<stop offset="1" stop-color="#2B99D6" stop-opacity="0"/>
</linearGradient>
<linearGradient id="paint25_linear_191_2710" x1="48.9995" y1="0" x2="48.9995" y2="204.347" gradientUnits="userSpaceOnUse">
<stop stop-color="#035798"/>
<stop offset="1" stop-color="#2B99D6" stop-opacity="0"/>
</linearGradient>
<linearGradient id="paint26_linear_191_2710" x1="21.5303" y1="36.4648" x2="21.5303" y2="46.0295" gradientUnits="userSpaceOnUse">
<stop stop-color="#035798"/>
<stop offset="1" stop-color="#2B99D6" stop-opacity="0"/>
</linearGradient>
<linearGradient id="paint27_linear_191_2710" x1="77.791" y1="35.8672" x2="77.791" y2="45.4318" gradientUnits="userSpaceOnUse">
<stop stop-color="#035798"/>
<stop offset="1" stop-color="#2B99D6" stop-opacity="0"/>
</linearGradient>
<linearGradient id="paint28_linear_191_2710" x1="63.5479" y1="47.8223" x2="63.5479" y2="57.3869" gradientUnits="userSpaceOnUse">
<stop stop-color="#035798"/>
<stop offset="1" stop-color="#2B99D6" stop-opacity="0"/>
</linearGradient>
<linearGradient id="paint29_linear_191_2710" x1="49.3037" y1="59.7793" x2="49.3037" y2="69.3439" gradientUnits="userSpaceOnUse">
<stop stop-color="#035798"/>
<stop offset="1" stop-color="#2B99D6" stop-opacity="0"/>
</linearGradient>
<linearGradient id="paint30_linear_191_2710" x1="35.0606" y1="47.8223" x2="35.0606" y2="57.3869" gradientUnits="userSpaceOnUse">
<stop stop-color="#035798"/>
<stop offset="1" stop-color="#2B99D6" stop-opacity="0"/>
</linearGradient>
<linearGradient id="paint31_linear_191_2710" x1="49.5616" y1="189.609" x2="49.5616" y2="203.956" gradientUnits="userSpaceOnUse">
<stop stop-color="#035798"/>
<stop offset="1" stop-color="#2B99D6" stop-opacity="0"/>
</linearGradient>
</defs>
</svg>
