<svg width="191" height="192" viewBox="0 0 191 192" fill="none" xmlns="http://www.w3.org/2000/svg">
<path fill-rule="evenodd" clip-rule="evenodd" d="M110.223 173.506L96.4486 106.088L100.223 174.795C100.182 175.187 100.186 175.59 100.239 175.997C100.604 178.835 103.201 180.838 106.038 180.472C108.875 180.106 110.878 177.51 110.513 174.673C110.46 174.265 110.361 173.875 110.223 173.506Z" fill="#FFEBA5"/>
<path fill-rule="evenodd" clip-rule="evenodd" d="M51.2653 166.452L86.5312 107.366L43.0097 160.665C42.7154 160.927 42.4465 161.227 42.2105 161.564C40.5684 163.906 41.1361 167.136 43.4784 168.778C45.8207 170.42 49.0507 169.852 50.6928 167.51C50.9289 167.173 51.1193 166.818 51.2653 166.452Z" fill="#FFEBA5"/>
<path fill-rule="evenodd" clip-rule="evenodd" d="M172.506 81.1164L105.088 94.8903L173.795 91.1158C174.187 91.1566 174.59 91.1529 174.997 91.1004C177.835 90.7346 179.838 88.1382 179.472 85.3011C179.106 82.464 176.51 80.4605 173.673 80.8263C173.265 80.8788 172.874 80.9775 172.506 81.1164Z" fill="#FFEBA5"/>
<path fill-rule="evenodd" clip-rule="evenodd" d="M165.453 140.074L106.367 104.808L159.666 148.329C159.928 148.623 160.228 148.892 160.565 149.128C162.907 150.77 166.137 150.203 167.779 147.86C169.421 145.518 168.853 142.288 166.511 140.646C166.174 140.41 165.819 140.22 165.453 140.074Z" fill="#FFEBA5"/>
<path fill-rule="evenodd" clip-rule="evenodd" d="M16.5449 101.221L85.2518 97.4469L17.834 111.221C17.4651 111.36 17.0745 111.458 16.6666 111.511C13.8295 111.877 11.2331 109.873 10.8673 107.036C10.5016 104.199 12.505 101.603 15.3422 101.237C15.75 101.184 16.1529 101.181 16.5449 101.221Z" fill="#FFEBA5"/>
<path fill-rule="evenodd" clip-rule="evenodd" d="M30.6744 44.0089L83.9732 87.5303L24.8868 52.2644C24.5207 52.1184 24.1657 51.928 23.829 51.692C21.4866 50.0499 20.919 46.8199 22.5611 44.4775C24.2031 42.1352 27.4332 41.5675 29.7755 43.2096C30.1122 43.4457 30.4123 43.7146 30.6744 44.0089Z" fill="#FFEBA5"/>
<path fill-rule="evenodd" clip-rule="evenodd" d="M90.1174 17.5448L93.8919 86.2518L80.1181 18.8341C79.9792 18.4652 79.8805 18.0746 79.8279 17.6667C79.4622 14.8295 81.4656 12.2331 84.3027 11.8674C87.1398 11.5016 89.7363 13.5051 90.102 16.3422C90.1546 16.75 90.1582 17.1528 90.1174 17.5448Z" fill="#FFEBA5"/>
<path fill-rule="evenodd" clip-rule="evenodd" d="M147.331 31.6744L103.809 84.9733L139.075 25.8869C139.221 25.5208 139.412 25.1657 139.648 24.829C141.29 22.4867 144.52 21.919 146.862 23.5611C149.205 25.2032 149.772 28.4332 148.13 30.7755C147.894 31.1123 147.625 31.4123 147.331 31.6744Z" fill="#FFEBA5"/>
<path fill-rule="evenodd" clip-rule="evenodd" d="M82.6236 151.966L92.996 103.035L75.5846 149.926C75.4438 150.175 75.3294 150.445 75.2461 150.732C74.667 152.729 75.8166 154.817 77.8137 155.396C79.8109 155.975 81.8993 154.826 82.4784 152.829C82.5616 152.542 82.6091 152.253 82.6236 151.966Z" fill="#E8B500"/>
<path fill-rule="evenodd" clip-rule="evenodd" d="M45.3713 130.166L86.0143 101.011L41.547 123.914C41.2748 124.003 41.0086 124.125 40.7536 124.281C38.9798 125.366 38.4213 127.684 39.5063 129.458C40.5914 131.232 42.9089 131.79 44.6828 130.705C44.9379 130.549 45.1678 130.368 45.3713 130.166Z" fill="#E8B500"/>
<path fill-rule="evenodd" clip-rule="evenodd" d="M150.933 108.452L102.002 98.0792L148.892 115.49C149.142 115.631 149.411 115.746 149.699 115.829C151.696 116.408 153.784 115.259 154.363 113.261C154.942 111.264 153.793 109.176 151.796 108.597C151.508 108.514 151.22 108.466 150.933 108.452Z" fill="#E8B500"/>
<path fill-rule="evenodd" clip-rule="evenodd" d="M129.133 145.702L99.9774 105.059L122.881 149.526C122.97 149.798 123.092 150.065 123.248 150.32C124.333 152.093 126.651 152.652 128.425 151.567C130.198 150.482 130.757 148.164 129.672 146.39C129.516 146.135 129.334 145.905 129.133 145.702Z" fill="#E8B500"/>
<path fill-rule="evenodd" clip-rule="evenodd" d="M41.148 76.619L88.0388 94.0304L39.107 83.6579C38.8209 83.6435 38.5319 83.596 38.2448 83.5127C36.2477 82.9337 35.0981 80.8452 35.6772 78.8481C36.2563 76.851 38.3447 75.7014 40.3418 76.2805C40.6289 76.3637 40.8985 76.4782 41.148 76.619Z" fill="#E8B500"/>
<path fill-rule="evenodd" clip-rule="evenodd" d="M67.16 42.5801L90.0633 87.0471L60.9079 46.4039C60.7063 46.2004 60.5249 45.9706 60.3689 45.7156C59.2839 43.9418 59.8424 41.6242 61.6162 40.5392C63.3901 39.4542 65.7077 40.0126 66.7927 41.7865C66.9487 42.0415 67.0707 42.3078 67.16 42.5801Z" fill="#E8B500"/>
<path fill-rule="evenodd" clip-rule="evenodd" d="M114.456 42.1811L97.0449 89.0719L107.417 40.1403C107.432 39.8542 107.479 39.5651 107.562 39.278C108.142 37.2809 110.23 36.1313 112.227 36.7104C114.224 37.2895 115.374 39.3779 114.795 41.375C114.712 41.6621 114.597 41.9317 114.456 42.1811Z" fill="#E8B500"/>
<path fill-rule="evenodd" clip-rule="evenodd" d="M148.493 68.1933L104.026 91.0966L144.669 61.9412C144.873 61.7396 145.103 61.5582 145.358 61.4022C147.131 60.3172 149.449 60.8756 150.534 62.6495C151.619 64.4234 151.061 66.741 149.287 67.826C149.032 67.982 148.765 68.104 148.493 68.1933Z" fill="#E8B500"/>
</svg>
