<svg width="277" height="277" viewBox="0 0 277 277" fill="none" xmlns="http://www.w3.org/2000/svg">
<path fill-rule="evenodd" clip-rule="evenodd" d="M139 130C139 134.971 134.971 139 130 139C134.971 139 139 143.029 139 148C139 143.029 143.029 139 148 139C143.029 139 139 134.971 139 130Z" fill="#9BE8A5"/>
<path fill-rule="evenodd" clip-rule="evenodd" d="M143.26 236.844L138.219 168.219L133.178 236.844C133.087 237.228 133.039 237.628 133.039 238.039C133.039 240.9 135.358 243.219 138.219 243.219C141.079 243.219 143.398 240.9 143.398 238.039C143.398 237.628 143.35 237.228 143.26 236.844Z" fill="#9BE8A5"/>
<path fill-rule="evenodd" clip-rule="evenodd" d="M65.6839 222.312L108.215 168.22L58.2359 215.517C57.9105 215.739 57.6055 216.002 57.3284 216.306C55.4003 218.419 55.5503 221.695 57.6635 223.623C59.7766 225.551 63.0527 225.401 64.9808 223.288C65.258 222.984 65.4923 222.656 65.6839 222.312Z" fill="#9BE8A5"/>
<path fill-rule="evenodd" clip-rule="evenodd" d="M236.844 133.178L168.219 138.219L236.844 143.26C237.228 143.351 237.628 143.398 238.039 143.398C240.9 143.398 243.219 141.079 243.219 138.219C243.219 135.358 240.9 133.039 238.039 133.039C237.628 133.039 237.228 133.087 236.844 133.178Z" fill="#9BE8A5"/>
<path fill-rule="evenodd" clip-rule="evenodd" d="M222.312 210.754L168.22 168.223L215.517 218.201C215.739 218.527 216.002 218.832 216.306 219.109C218.419 221.037 221.695 220.887 223.623 218.774C225.551 216.661 225.401 213.385 223.288 211.457C222.984 211.179 222.656 210.945 222.312 210.754Z" fill="#9BE8A5"/>
<path fill-rule="evenodd" clip-rule="evenodd" d="M39.5931 133.178L108.219 138.219L39.5931 143.26C39.2095 143.351 38.8095 143.398 38.3983 143.398C35.5377 143.398 33.2187 141.079 33.2187 138.219C33.2187 135.358 35.5377 133.039 38.3983 133.039C38.8095 133.039 39.2095 133.087 39.5931 133.178Z" fill="#9BE8A5"/>
<path fill-rule="evenodd" clip-rule="evenodd" d="M60.9227 58.2438L108.22 108.223L54.127 65.6916C53.7827 65.4999 53.4549 65.2657 53.1511 64.9886C51.038 63.0605 50.8879 59.7844 52.816 57.6712C54.7441 55.5581 58.0202 55.408 60.1334 57.3361C60.4372 57.6133 60.7004 57.9184 60.9227 58.2438Z" fill="#9BE8A5"/>
<path fill-rule="evenodd" clip-rule="evenodd" d="M143.26 39.593L138.219 108.219L133.178 39.5932C133.087 39.2096 133.039 38.8096 133.039 38.3983C133.039 35.5377 135.358 33.2188 138.219 33.2188C141.079 33.2188 143.398 35.5377 143.398 38.3983C143.398 38.8095 143.35 39.2095 143.26 39.593Z" fill="#9BE8A5"/>
<path fill-rule="evenodd" clip-rule="evenodd" d="M218.194 60.9227L168.215 108.22L210.746 54.1271C210.937 53.7827 211.172 53.4549 211.449 53.1512C213.377 51.038 216.653 50.888 218.766 52.8161C220.879 54.7442 221.029 58.0202 219.101 60.1334C218.824 60.4372 218.519 60.7004 218.194 60.9227Z" fill="#9BE8A5"/>
<path fill-rule="evenodd" clip-rule="evenodd" d="M103.416 230.636L126.227 165.717L94.1742 226.606C93.9378 226.921 93.734 227.269 93.5696 227.646C92.4261 230.268 93.6248 233.321 96.2469 234.464C98.869 235.608 101.922 234.409 103.065 231.787C103.229 231.41 103.345 231.024 103.416 230.636Z" fill="#9BE8A5"/>
<path fill-rule="evenodd" clip-rule="evenodd" d="M38.116 186.307L98.7239 153.726L34.0054 177.101C33.6183 177.175 33.2335 177.294 32.858 177.462C30.246 178.628 29.0739 181.691 30.2402 184.303C31.4064 186.915 34.4693 188.087 37.0814 186.921C37.4569 186.753 37.8027 186.546 38.116 186.307Z" fill="#9BE8A5"/>
<path fill-rule="evenodd" clip-rule="evenodd" d="M230.637 173.023L165.718 150.211L226.607 182.264C226.922 182.501 227.27 182.705 227.647 182.869C230.269 184.012 233.322 182.814 234.465 180.192C235.609 177.57 234.41 174.517 231.788 173.373C231.411 173.209 231.025 173.093 230.637 173.023Z" fill="#9BE8A5"/>
<path fill-rule="evenodd" clip-rule="evenodd" d="M186.306 238.322L153.725 177.714L177.1 242.433C177.174 242.82 177.293 243.205 177.461 243.58C178.627 246.192 181.69 247.365 184.302 246.198C186.914 245.032 188.086 241.969 186.92 239.357C186.752 238.982 186.545 238.636 186.306 238.322Z" fill="#9BE8A5"/>
<path fill-rule="evenodd" clip-rule="evenodd" d="M49.8307 94.1738L110.72 126.227L45.8005 103.415C45.4127 103.345 45.0269 103.229 44.6499 103.065C42.0278 101.921 40.8292 98.8686 41.9727 96.2465C43.1161 93.6244 46.1688 92.4257 48.7909 93.5692C49.1678 93.7336 49.5153 93.9374 49.8307 94.1738Z" fill="#9BE8A5"/>
<path fill-rule="evenodd" clip-rule="evenodd" d="M99.3366 34.0137L122.712 98.7321L90.1304 38.124C89.8914 37.8107 89.6845 37.465 89.5169 37.0895C88.3506 34.4774 89.5227 31.4145 92.1347 30.2482C94.7468 29.082 97.8097 30.2541 98.976 32.8661C99.1436 33.2416 99.263 33.6265 99.3366 34.0137Z" fill="#9BE8A5"/>
<path fill-rule="evenodd" clip-rule="evenodd" d="M182.264 49.8297L150.211 110.719L173.022 45.7997C173.092 45.4118 173.208 45.026 173.373 44.649C174.516 42.0269 177.569 40.8282 180.191 41.9717C182.813 43.1152 184.012 46.1678 182.868 48.7899C182.704 49.1668 182.5 49.5143 182.264 49.8297Z" fill="#9BE8A5"/>
<path fill-rule="evenodd" clip-rule="evenodd" d="M242.425 99.3366L177.706 122.712L238.314 90.1304C238.628 89.8914 238.973 89.6845 239.349 89.5169C241.961 88.3506 245.024 89.5227 246.19 92.1347C247.356 94.7468 246.184 97.8097 243.572 98.976C243.197 99.1436 242.812 99.263 242.425 99.3366Z" fill="#9BE8A5"/>
</svg>
