<svg width="139" height="136" viewBox="0 0 139 136" fill="none" xmlns="http://www.w3.org/2000/svg">
<path d="M21.7045 29.649C20.5603 29.6399 20.3258 28.0274 21.42 27.6928L40.7243 21.7898L41.8905 29.81L21.7045 29.649Z" fill="#02365E"/>
<path d="M95.2963 79.9174L94.1477 79.0262L92.9456 79.8438C86.0318 84.5459 78.9191 86.3081 71.9026 85.222C64.8583 84.1315 57.6726 80.1319 50.728 72.8683C43.9195 65.747 41.3147 58.012 40.2136 51.4087C39.6605 48.0919 39.4881 45.0703 39.3535 42.5111C39.3487 42.4197 39.3439 42.3286 39.3392 42.2379C39.2784 41.0767 39.2211 39.9835 39.1325 39.035C39.0389 38.0335 38.8986 37.0386 38.6179 36.2054C37.889 34.042 37.1571 29.8632 37.4185 25.6785C37.6846 21.4193 38.9345 17.7529 41.5495 15.8663C47.372 11.6656 55.4974 12.9804 59.6981 18.803L114.587 94.8847L95.2963 79.9174Z" fill="#F2463A" stroke="#02365E" stroke-width="4"/>
<circle r="2.5" transform="matrix(0.987159 0.159739 -0.159726 0.987161 48.8655 23.6133)" fill="#02365E"/>
<path d="M95.6269 68.3843L78.2921 47.344C75.8446 44.3734 71.2984 43.8339 68.9689 46.898C61.1431 57.1918 70.2758 65.2164 77.3679 70.7536C78.0115 71.256 78.8946 71.3097 79.5989 70.8966L80.3738 70.4422C81.068 70.0351 81.9385 70.0838 82.5831 70.5656L87.1814 74.0034C88.1699 74.7425 89.5711 73.9878 89.4979 72.7556C89.4431 71.8344 90.2513 71.0969 91.1637 71.2355L93.7829 71.6334C95.5969 71.909 96.7936 69.8005 95.6269 68.3843Z" fill="#FFB264" stroke="#02365E" stroke-width="4" stroke-linecap="round" stroke-linejoin="round"/>
<path d="M65.1823 32.3344L69.051 35.3472" stroke="#FFB264" stroke-width="3" stroke-linecap="round"/>
<path d="M60.8039 35.0969L64.4773 39.8152" stroke="#FFB264" stroke-width="3" stroke-linecap="round"/>
<line x1="1.5" y1="-1.5" x2="4.82456" y2="-1.5" transform="matrix(0.382493 0.923958 -0.923982 0.382435 53.125 37.9785)" stroke="#FFB264" stroke-width="3" stroke-linecap="round"/>
</svg>
