<svg width="775" height="120" viewBox="0 0 775 120" fill="none" xmlns="http://www.w3.org/2000/svg">
<rect x="1" y="5.4436" width="15.7143" height="109.11" fill="#9A1D49" stroke="black" stroke-width="2"/>
<rect x="14.286" y="14.3335" width="15.7143" height="15.7776" fill="#9A1D49" stroke="black" stroke-width="2"/>
<rect x="58.5718" y="14.3335" width="15.7143" height="15.7776" fill="#9A1D49" stroke="black" stroke-width="2"/>
<rect x="23.1431" y="23.2234" width="15.7143" height="15.7776" fill="#9A1D49" stroke="black" stroke-width="2"/>
<rect x="36.4287" y="32.1094" width="15.7143" height="15.7776" fill="#9A1D49" stroke="black" stroke-width="2"/>
<rect x="49.7142" y="23.2234" width="15.7143" height="15.7776" fill="#9A1D49" stroke="black" stroke-width="2"/>
<rect x="71.8574" y="5.4436" width="15.7143" height="109.11" fill="#9A1D49" stroke="black" stroke-width="2"/>
<rect x="160.429" y="89.887" width="15.7143" height="15.7776" fill="#9A1D49" stroke="black" stroke-width="2"/>
<rect x="160.429" y="41.0005" width="15.7143" height="15.7776" fill="#9A1D49" stroke="black" stroke-width="2"/>
<rect x="111.714" y="41.0005" width="15.7143" height="64.666" fill="#9A1D49" stroke="black" stroke-width="2"/>
<rect x="125" y="98.7759" width="46.7143" height="15.7776" fill="#9A1D49" stroke="black" stroke-width="2"/>
<rect x="120.572" y="32.1094" width="46.7143" height="15.7776" fill="#9A1D49" stroke="black" stroke-width="2"/>
<rect x="399.571" y="89.887" width="15.7143" height="15.7776" fill="#9A1D49" stroke="black" stroke-width="2"/>
<rect x="399.571" y="41.0005" width="15.7143" height="15.7776" fill="#9A1D49" stroke="black" stroke-width="2"/>
<rect x="350.857" y="41.0005" width="15.7143" height="64.666" fill="#9A1D49" stroke="black" stroke-width="2"/>
<rect x="364.143" y="98.7759" width="46.7143" height="15.7776" fill="#9A1D49" stroke="black" stroke-width="2"/>
<rect x="359.714" y="32.1094" width="46.7143" height="15.7776" fill="#9A1D49" stroke="black" stroke-width="2"/>
<rect x="243.39" y="16.0278" width="16.8952" height="98.5281" fill="#9A1D49" stroke="black" stroke-width="2"/>
<rect x="191.429" y="16.0288" width="16.8952" height="98.5281" fill="#9A1D49" stroke="black" stroke-width="2"/>
<rect x="210.323" y="53.0623" width="31.0667" height="19.1638" fill="#9A1D49" stroke="black" stroke-width="2"/>
<rect x="191.429" y="10.7336" width="16.8952" height="3.29095" fill="#9A1D49" stroke="black" stroke-width="2"/>
<rect x="196.151" y="5.4436" width="7.44762" height="3.29095" fill="#9A1D49" stroke="black" stroke-width="2"/>
<rect x="435" y="1" width="7.44762" height="3.29095" fill="#9A1D49" stroke="black" stroke-width="2"/>
<rect x="243.39" y="10.7336" width="16.8952" height="3.29095" fill="#9A1D49" stroke="black" stroke-width="2"/>
<rect x="248.113" y="5.4436" width="7.44762" height="3.29095" fill="#9A1D49" stroke="black" stroke-width="2"/>
<rect x="288.857" y="32.1094" width="33.4286" height="15.7776" fill="#9A1D49" stroke="black" stroke-width="2"/>
<rect x="319.858" y="41.0005" width="15.7143" height="64.666" fill="#9A1D49" stroke="black" stroke-width="2"/>
<rect x="288.857" y="98.7759" width="37.8571" height="15.7776" fill="#9A1D49" stroke="black" stroke-width="2"/>
<rect x="280" y="76.5554" width="15.7143" height="24.6664" fill="#9A1D49" stroke="black" stroke-width="2"/>
<rect x="288.857" y="67.6655" width="29" height="15.7776" fill="#9A1D49" stroke="black" stroke-width="2"/>
<rect x="430.571" y="5.4436" width="15.7143" height="109.11" fill="#9A1D49" stroke="black" stroke-width="2"/>
<rect x="448.286" y="58.7764" width="15.7143" height="15.7776" fill="#9A1D49" stroke="black" stroke-width="2"/>
<rect x="457.142" y="49.8884" width="15.7143" height="15.7776" fill="#9A1D49" stroke="black" stroke-width="2"/>
<rect x="466" y="41.0005" width="15.7143" height="15.7776" fill="#9A1D49" stroke="black" stroke-width="2"/>
<rect x="474.857" y="32.1094" width="15.7143" height="15.7776" fill="#9A1D49" stroke="black" stroke-width="2"/>
<rect x="457.142" y="76.5554" width="15.7143" height="15.7776" fill="#9A1D49" stroke="black" stroke-width="2"/>
<rect x="466" y="85.4424" width="15.7143" height="15.7776" fill="#9A1D49" stroke="black" stroke-width="2"/>
<rect x="474.857" y="94.3313" width="15.7143" height="15.7776" fill="#9A1D49" stroke="black" stroke-width="2"/>
<rect x="483.714" y="98.7759" width="15.7143" height="15.7776" fill="#9A1D49" stroke="black" stroke-width="2"/>
<rect x="532.429" y="27.665" width="33.4286" height="15.7776" fill="#9A1D49" stroke="black" stroke-width="2"/>
<rect x="514.714" y="36.5559" width="15.7143" height="20.222" fill="#9A1D49" stroke="black" stroke-width="2"/>
<rect x="519.142" y="58.7764" width="15.7143" height="15.7776" fill="#9A1D49" stroke="black" stroke-width="2"/>
<rect x="536.857" y="63.22" width="15.7143" height="15.7776" fill="#9A1D49" stroke="black" stroke-width="2"/>
<rect x="550.143" y="67.6655" width="15.7143" height="15.7776" fill="#9A1D49" stroke="black" stroke-width="2"/>
<rect x="559" y="94.3313" width="15.7143" height="15.7776" fill="#9A1D49" stroke="black" stroke-width="2"/>
<rect x="550.143" y="98.7759" width="15.7143" height="15.7776" fill="#9A1D49" stroke="black" stroke-width="2"/>
<rect x="536.857" y="103.222" width="15.7143" height="15.7776" fill="#9A1D49" stroke="black" stroke-width="2"/>
<rect x="528" y="103.222" width="15.7143" height="15.7776" fill="#9A1D49" stroke="black" stroke-width="2"/>
<rect x="519.142" y="103.222" width="15.7143" height="15.7776" fill="#9A1D49" stroke="black" stroke-width="2"/>
<rect x="559" y="72.1108" width="15.7143" height="24.6664" fill="#9A1D49" stroke="black" stroke-width="2"/>
<rect x="621" y="27.665" width="15.7143" height="15.7776" fill="#9A1D49" stroke="black" stroke-width="2"/>
<rect x="629.856" y="18.7771" width="15.7143" height="15.7776" fill="#9A1D49" stroke="black" stroke-width="2"/>
<rect x="638.714" y="9.88892" width="15.7143" height="15.7776" fill="#9A1D49" stroke="black" stroke-width="2"/>
<rect x="647.571" y="1" width="15.7143" height="117.999" fill="#9A1D49" stroke="black" stroke-width="2"/>
<rect x="625.428" y="103.222" width="55.5714" height="15.7776" fill="#9A1D49" stroke="black" stroke-width="2"/>
<rect x="696.287" y="27.665" width="15.7143" height="15.7776" fill="#9A1D49" stroke="black" stroke-width="2"/>
<rect x="705.143" y="14.3335" width="15.7143" height="15.7776" fill="#9A1D49" stroke="black" stroke-width="2"/>
<rect x="745.001" y="14.3335" width="15.7143" height="15.7776" fill="#9A1D49" stroke="black" stroke-width="2"/>
<rect x="753.858" y="27.665" width="15.7143" height="15.7776" fill="#9A1D49" stroke="black" stroke-width="2"/>
<rect x="749.429" y="45.4429" width="15.7143" height="15.7776" fill="#9A1D49" stroke="black" stroke-width="2"/>
<rect x="740.572" y="58.7764" width="15.7143" height="15.7776" fill="#9A1D49" stroke="black" stroke-width="2"/>
<rect x="731.715" y="72.1108" width="15.7143" height="15.7776" fill="#9A1D49" stroke="black" stroke-width="2"/>
<rect x="722.858" y="80.9988" width="15.7143" height="15.7776" fill="#9A1D49" stroke="black" stroke-width="2"/>
<rect x="714.001" y="94.3313" width="15.7143" height="15.7776" fill="#9A1D49" stroke="black" stroke-width="2"/>
<rect x="705.143" y="103.222" width="68.8571" height="15.7776" fill="#9A1D49" stroke="black" stroke-width="2"/>
<rect x="714.001" y="1" width="33.4286" height="15.7776" fill="#9A1D49" stroke="black" stroke-width="2"/>
</svg>
