<svg width="90" height="50" viewBox="0 0 90 50" fill="none" xmlns="http://www.w3.org/2000/svg">
<g filter="url(#filter0_d_43_83)">
<rect x="33.4525" y="8.5" width="9.70948" height="11" fill="#49C6FB"/>
<rect x="43.162" y="8.5" width="9.70948" height="11" fill="#49C6FB"/>
<rect x="14.0335" y="19.5" width="9.70948" height="11" fill="#49C6FB"/>
<rect x="23.743" y="19.5" width="9.70948" height="11" fill="#3B4D67"/>
<rect x="33.4525" y="19.5" width="9.70948" height="11" fill="#3B4D67"/>
<rect x="52.8715" y="19.5" width="9.70948" height="11" fill="#49C6FB"/>
<rect x="62.5809" y="19.5" width="9.70948" height="11" fill="#49C6FB"/>
<rect x="4.32402" y="30.5" width="9.70948" height="11" fill="#49C6FB"/>
<rect x="14.0335" y="30.5" width="9.70948" height="11" fill="#49C6FB"/>
<rect x="23.743" y="30.5" width="9.70948" height="11" fill="#49C6FB"/>
<rect x="33.4525" y="30.5" width="9.70948" height="11" fill="#49C6FB"/>
<rect x="43.162" y="30.5" width="9.70948" height="11" fill="#49C6FB"/>
<rect x="52.8715" y="30.5" width="9.70948" height="11" fill="#49C6FB"/>
<rect x="62.5809" y="30.5" width="9.70948" height="11" fill="#49C6FB"/>
<rect x="72.2904" y="30.5" width="9.70948" height="11" fill="#49C6FB"/>
<rect x="43.162" y="19.5" width="9.70948" height="11" fill="#3B4D67"/>
</g>
<line x1="33.4525" y1="4.5" x2="52.8715" y2="4.5" stroke="#364966" stroke-width="8"/>
<line x1="36.1284" y1="7" x2="36.1284" y2="19.5" stroke="#364966" stroke-width="8"/>
<line x1="56.8715" y1="7" x2="56.8715" y2="19.5" stroke="#364966" stroke-width="8"/>
<line x1="14.0335" y1="15.5" x2="32.1285" y2="15.5" stroke="#364966" stroke-width="8"/>
<line x1="52.8715" y1="15.5" x2="73.6144" y2="15.5" stroke="#364966" stroke-width="8"/>
<line x1="16.7095" y1="18" x2="16.7095" y2="30.5" stroke="#364966" stroke-width="8"/>
<line x1="76.2904" y1="19.5" x2="76.2904" y2="30.5" stroke="#364966" stroke-width="8"/>
<line x1="7" y1="29" x2="7" y2="41.5" stroke="#364966" stroke-width="8"/>
<line x1="85.9999" y1="29" x2="85.9999" y2="43" stroke="#364966" stroke-width="8"/>
<line y1="-4" x2="9.70966" y2="-4" transform="matrix(-0.999892 -0.0146713 0.0114313 -0.999935 14.0328 29.1423)" stroke="#364966" stroke-width="8"/>
<line x1="82" y1="33" x2="72.2904" y2="33" stroke="#364966" stroke-width="8"/>
<line x1="81.9999" y1="45.5" x2="2.99999" y2="45.5" stroke="#364966" stroke-width="8"/>
<defs>
<filter id="filter0_d_43_83" x="0.32402" y="8.5" width="85.6759" height="41" filterUnits="userSpaceOnUse" color-interpolation-filters="sRGB">
<feFlood flood-opacity="0" result="BackgroundImageFix"/>
<feColorMatrix in="SourceAlpha" type="matrix" values="0 0 0 0 0 0 0 0 0 0 0 0 0 0 0 0 0 0 127 0" result="hardAlpha"/>
<feOffset dy="4"/>
<feGaussianBlur stdDeviation="2"/>
<feComposite in2="hardAlpha" operator="out"/>
<feColorMatrix type="matrix" values="0 0 0 0 0 0 0 0 0 0 0 0 0 0 0 0 0 0 0.25 0"/>
<feBlend mode="normal" in2="BackgroundImageFix" result="effect1_dropShadow_43_83"/>
<feBlend mode="normal" in="SourceGraphic" in2="effect1_dropShadow_43_83" result="shape"/>
</filter>
</defs>
</svg>
