<svg width="97" height="53" viewBox="0 0 97 53" fill="none" xmlns="http://www.w3.org/2000/svg">
<g filter="url(#filter0_d_58_1154)">
<rect x="36.1508" y="8.625" width="10.5698" height="11.9167" fill="#3BA4DF"/>
<rect x="46.7206" y="8.625" width="10.5698" height="11.9167" fill="#3BA4DF"/>
<rect x="15.0112" y="20.5415" width="10.5698" height="11.9167" fill="#3BA4DF"/>
<rect x="25.581" y="20.5415" width="10.5698" height="11.9167" fill="#3B4D67"/>
<rect x="36.1508" y="20.5415" width="10.5698" height="11.9167" fill="#3B4D67"/>
<rect x="57.2905" y="20.5415" width="10.5698" height="11.9167" fill="#3BA4DF"/>
<rect x="67.8602" y="20.5415" width="10.5698" height="11.9167" fill="#3BA4DF"/>
<rect x="4.44135" y="32.4585" width="10.5698" height="11.9167" fill="#3BA4DF"/>
<rect x="15.0112" y="32.4585" width="10.5698" height="11.9167" fill="#3BA4DF"/>
<rect x="25.581" y="32.4585" width="10.5698" height="11.9167" fill="#3BA4DF"/>
<rect x="36.1508" y="32.4585" width="10.5698" height="11.9167" fill="#3BA4DF"/>
<rect x="46.7206" y="32.4585" width="10.5698" height="11.9167" fill="#3BA4DF"/>
<rect x="57.2905" y="32.4585" width="10.5698" height="11.9167" fill="#3BA4DF"/>
<rect x="67.8602" y="32.4585" width="10.5698" height="11.9167" fill="#3BA4DF"/>
<rect x="78.4301" y="32.4585" width="10.5698" height="11.9167" fill="#3BA4DF"/>
<rect x="46.7206" y="20.5415" width="10.5698" height="11.9167" fill="#3B4D67"/>
</g>
<line x1="36.1508" y1="4.625" x2="57.2905" y2="4.625" stroke="#364966" stroke-width="8"/>
<line x1="38.7095" y1="7" x2="38.7095" y2="20.5417" stroke="#364966" stroke-width="8"/>
<line x1="61.2904" y1="7" x2="61.2904" y2="20.5417" stroke="#364966" stroke-width="8"/>
<line x1="15.0112" y1="16.5415" x2="34.7095" y2="16.5415" stroke="#364966" stroke-width="8"/>
<line x1="57.2904" y1="16.5415" x2="79.8714" y2="16.5415" stroke="#364966" stroke-width="8"/>
<line x1="17.5698" y1="18.9165" x2="17.5698" y2="32.4582" stroke="#364966" stroke-width="8"/>
<line x1="82.4301" y1="20.5415" x2="82.4301" y2="32.4582" stroke="#364966" stroke-width="8"/>
<line x1="7" y1="30.8335" x2="7" y2="44.3752" stroke="#364966" stroke-width="8"/>
<line x1="92.9999" y1="30.8335" x2="92.9999" y2="46.0002" stroke="#364966" stroke-width="8"/>
<line y1="-4" x2="10.57" y2="-4" transform="matrix(-0.999893 -0.0146003 0.0114869 -0.999934 15.0104 30.9875)" stroke="#364966" stroke-width="8"/>
<line x1="89" y1="34.8335" x2="78.4301" y2="34.8335" stroke="#364966" stroke-width="8"/>
<line x1="88.9999" y1="48.375" x2="3" y2="48.375" stroke="#364966" stroke-width="8"/>
<defs>
<filter id="filter0_d_58_1154" x="0.441345" y="8.625" width="92.5585" height="43.7502" filterUnits="userSpaceOnUse" color-interpolation-filters="sRGB">
<feFlood flood-opacity="0" result="BackgroundImageFix"/>
<feColorMatrix in="SourceAlpha" type="matrix" values="0 0 0 0 0 0 0 0 0 0 0 0 0 0 0 0 0 0 127 0" result="hardAlpha"/>
<feOffset dy="4"/>
<feGaussianBlur stdDeviation="2"/>
<feComposite in2="hardAlpha" operator="out"/>
<feColorMatrix type="matrix" values="0 0 0 0 0 0 0 0 0 0 0 0 0 0 0 0 0 0 0.25 0"/>
<feBlend mode="normal" in2="BackgroundImageFix" result="effect1_dropShadow_58_1154"/>
<feBlend mode="normal" in="SourceGraphic" in2="effect1_dropShadow_58_1154" result="shape"/>
</filter>
</defs>
</svg>
