<svg width="1279" height="1558" viewBox="0 0 1279 1558" fill="none" xmlns="http://www.w3.org/2000/svg">
<g filter="url(#filter0_d_636_360)">
<mask id="path-1-inside-1_636_360" fill="white">
<path d="M4 121H555.5H1275V1540C1275 1545.52 1270.52 1550 1265 1550H14C8.47714 1550 4 1545.52 4 1540V121Z"/>
</mask>
<path d="M4 121H555.5H1275V1540C1275 1545.52 1270.52 1550 1265 1550H14C8.47714 1550 4 1545.52 4 1540V121Z" fill="#C4C4C4"/>
<path d="M4 119C2.89543 119 2 119.895 2 121C2 122.105 2.89543 123 4 123V119ZM1275 123C1276.1 123 1277 122.105 1277 121C1277 119.895 1276.1 119 1275 119V123ZM1197.63 123H1275V119H1197.63V123ZM4 123H208.943V119H4V123ZM208.943 123H1197.63V119H208.943V123ZM33.4902 156.296H1214.21V152.296H33.4902V156.296ZM1222.21 164.296V1502.32H1226.21V164.296H1222.21ZM1214.21 1510.32H33.4902V1514.32H1214.21V1510.32ZM25.4902 1502.32V164.296H21.4902V1502.32H25.4902ZM1246.02 1514.32H1250.23V1510.32H1246.02V1514.32ZM1250.23 152.296H1246.02V156.296H1250.23V152.296ZM1262.23 540.71V256.814H1258.23V540.71H1262.23ZM1234.02 256.814V540.71H1238.02V256.814H1234.02ZM1234.02 164.296V194.603H1238.02V164.296H1234.02ZM1234.02 194.603V256.814H1238.02V194.603H1234.02ZM1262.23 256.814V194.603H1258.23V256.814H1262.23ZM1262.23 194.603V164.296H1258.23V194.603H1262.23ZM1236.02 196.603H1260.23V192.603H1236.02V196.603ZM1234.02 540.71V1470.26H1238.02V540.71H1234.02ZM1234.02 1470.26V1502.32H1238.02V1470.26H1234.02ZM1262.23 1502.32V1470.26H1258.23V1502.32H1262.23ZM1262.23 1470.26V540.71H1258.23V1470.26H1262.23ZM1236.02 1472.26H1260.23V1468.26H1236.02V1472.26ZM1246.13 256.814V540.71H1250.13V256.814H1246.13ZM1256.18 540.71V256.814H1252.18V540.71H1256.18ZM1240.07 256.814V540.71H1244.07V256.814H1240.07ZM1236.02 542.71H1239.05V538.71H1236.02V542.71ZM1239.05 542.71H1242.07V538.71H1239.05V542.71ZM1242.07 254.814H1239.05V258.814H1242.07V254.814ZM1239.05 254.814H1236.02V258.814H1239.05V254.814ZM1241.05 540.71V256.814H1237.05V540.71H1241.05ZM1248.13 254.814H1245.1V258.814H1248.13V254.814ZM1245.1 254.814H1242.07V258.814H1245.1V254.814ZM1242.07 542.71H1245.1V538.71H1242.07V542.71ZM1245.1 542.71H1248.13V538.71H1245.1V542.71ZM1243.1 256.814V540.71H1247.1V256.814H1243.1ZM1248.13 542.71H1251.15V538.71H1248.13V542.71ZM1251.15 542.71H1254.18V538.71H1251.15V542.71ZM1254.18 254.814H1251.15V258.814H1254.18V254.814ZM1251.15 254.814H1248.13V258.814H1251.15V254.814ZM1253.15 540.71V256.814H1249.15V540.71H1253.15ZM1260.23 254.814H1257.21V258.814H1260.23V254.814ZM1257.21 254.814H1254.18V258.814H1257.21V254.814ZM1254.18 542.71H1257.21V538.71H1254.18V542.71ZM1257.21 542.71H1260.23V538.71H1257.21V542.71ZM1255.21 256.814V540.71H1259.21V256.814H1255.21ZM1250.23 1514.32C1256.86 1514.32 1262.23 1508.95 1262.23 1502.32H1258.23C1258.23 1506.74 1254.65 1510.32 1250.23 1510.32V1514.32ZM1246.02 1510.32C1241.6 1510.32 1238.02 1506.74 1238.02 1502.32H1234.02C1234.02 1508.95 1239.39 1514.32 1246.02 1514.32V1510.32ZM1246.02 152.296C1239.39 152.296 1234.02 157.669 1234.02 164.296H1238.02C1238.02 159.878 1241.6 156.296 1246.02 156.296V152.296ZM33.4902 1510.32C29.0719 1510.32 25.4902 1506.74 25.4902 1502.32H21.4902C21.4902 1508.95 26.8628 1514.32 33.4902 1514.32V1510.32ZM33.4902 152.296C26.8628 152.296 21.4902 157.669 21.4902 164.296H25.4902C25.4902 159.878 29.072 156.296 33.4902 156.296V152.296ZM1222.21 1502.32C1222.21 1506.74 1218.63 1510.32 1214.21 1510.32V1514.32C1220.83 1514.32 1226.21 1508.95 1226.21 1502.32H1222.21ZM1214.21 156.296C1218.63 156.296 1222.21 159.878 1222.21 164.296H1226.21C1226.21 157.669 1220.83 152.296 1214.21 152.296V156.296ZM1250.23 156.296C1254.65 156.296 1258.23 159.878 1258.23 164.296H1262.23C1262.23 157.669 1256.86 152.296 1250.23 152.296V156.296ZM4 121V117C1.79086 117 0 118.791 0 121H4ZM1275 121H1279C1279 118.791 1277.21 117 1275 117V121ZM1265 1546H14V1554H1265V1546ZM8 1540V121H0V1540H8ZM1271 121V1540H1279V121H1271ZM4 125H555.5V117H4V125ZM555.5 125H1275V117H555.5V125ZM14 1546C10.6863 1546 8 1543.31 8 1540H0C0 1547.73 6.268 1554 14 1554V1546ZM1265 1554C1272.73 1554 1279 1547.73 1279 1540H1271C1271 1543.31 1268.31 1546 1265 1546V1554Z" fill="#1C1C1C" mask="url(#path-1-inside-1_636_360)"/>
<path d="M1246.55 170.153C1247.3 168.731 1249.34 168.731 1250.09 170.153L1255.99 181.332C1256.69 182.664 1255.72 184.266 1254.22 184.266H1242.42C1240.91 184.266 1239.95 182.664 1240.65 181.332L1246.55 170.153Z" fill="#1C1C1C"/>
<path d="M1246.53 1498.54C1247.27 1500.01 1249.37 1500.01 1250.11 1498.54L1256.09 1486.58C1256.75 1485.25 1255.79 1483.68 1254.3 1483.68H1242.34C1240.85 1483.68 1239.88 1485.25 1240.55 1486.58L1246.53 1498.54Z" fill="#1C1C1C"/>
<mask id="path-5-outside-2_636_360" maskUnits="userSpaceOnUse" x="19" y="141" width="1210" height="1377" fill="black">
<rect fill="white" x="19" y="141" width="1210" height="1377"/>
<path d="M1215 145H33.0005C27.4776 145 23.0005 149.477 23.0005 155L23 1504C23 1509.52 27.4771 1514 33 1514H624H1215C1220.52 1514 1225 1509.52 1225 1504L1225 155C1225 149.477 1220.52 145 1215 145Z"/>
</mask>
<path d="M1215 145H33.0005C27.4776 145 23.0005 149.477 23.0005 155L23 1504C23 1509.52 27.4771 1514 33 1514H624H1215C1220.52 1514 1225 1509.52 1225 1504L1225 155C1225 149.477 1220.52 145 1215 145Z" fill="#E9F0F4"/>
<path d="M1215 145H33.0005C27.4776 145 23.0005 149.477 23.0005 155L23 1504C23 1509.52 27.4771 1514 33 1514H624H1215C1220.52 1514 1225 1509.52 1225 1504L1225 155C1225 149.477 1220.52 145 1215 145Z" stroke="#1C1C1C" stroke-width="8" mask="url(#path-5-outside-2_636_360)"/>
<mask id="path-6-inside-3_636_360" fill="white">
<path d="M4 59.4854V9.99999C4 4.47715 8.47715 0 14 0H1119.08H1171.05H1224.21H1265C1270.52 0 1275 4.47715 1275 10V59.4854V129.316H1197.63H208.943H4V59.4854Z"/>
</mask>
<path d="M4 59.4854V9.99999C4 4.47715 8.47715 0 14 0H1119.08H1171.05H1224.21H1265C1270.52 0 1275 4.47715 1275 10V59.4854V129.316H1197.63H208.943H4V59.4854Z" fill="#C4C4C4"/>
<path d="M4 57.4854C2.89543 57.4854 2 58.3809 2 59.4854C2 60.59 2.89543 61.4854 4 61.4854V57.4854ZM1275 61.4854C1276.1 61.4854 1277 60.59 1277 59.4854C1277 58.3809 1276.1 57.4854 1275 57.4854V61.4854ZM1226.21 0C1226.21 -1.10457 1225.31 -2 1224.21 -2C1223.1 -2 1222.21 -1.10457 1222.21 0H1226.21ZM1173.05 0C1173.05 -1.10457 1172.16 -2 1171.05 -2C1169.95 -2 1169.05 -1.10457 1169.05 0H1173.05ZM1121.08 0C1121.08 -1.10457 1120.18 -2 1119.08 -2C1117.97 -2 1117.08 -1.10457 1117.08 0H1121.08ZM1195.63 129.316C1195.63 130.421 1196.53 131.316 1197.63 131.316C1198.73 131.316 1199.63 130.421 1199.63 129.316H1195.63ZM206.943 129.316C206.943 130.421 207.838 131.316 208.943 131.316C210.047 131.316 210.943 130.421 210.943 129.316H206.943ZM1127.94 44.5538C1126.83 44.5538 1125.94 45.4492 1125.94 46.5538C1125.94 47.6584 1126.83 48.5538 1127.94 48.5538V44.5538ZM1161.01 48.5538C1162.12 48.5538 1163.01 47.6584 1163.01 46.5538C1163.01 45.4492 1162.12 44.5538 1161.01 44.5538V48.5538ZM1239.84 17.3825C1239.08 16.5769 1237.82 16.5365 1237.01 17.2922C1236.21 18.048 1236.17 19.3136 1236.92 20.1192L1239.84 17.3825ZM1258.74 44.0029C1259.47 44.8286 1260.74 44.903 1261.56 44.1692C1262.39 43.4355 1262.46 42.1713 1261.73 41.3457L1258.74 44.0029ZM1261.73 20.0794C1262.46 19.2538 1262.39 17.9897 1261.56 17.2559C1260.74 16.5221 1259.47 16.5966 1258.74 17.4222L1261.73 20.0794ZM1236.92 41.306C1236.17 42.1115 1236.21 43.3772 1237.01 44.1329C1237.82 44.8887 1239.08 44.8483 1239.84 44.0427L1236.92 41.306ZM1224.21 61.4854H1275V57.4854H1224.21V61.4854ZM1226.21 59.4854V0H1222.21V59.4854H1226.21ZM1169.05 0V59.4854H1173.05V0H1169.05ZM1119.08 61.4854H1171.05V57.4854H1119.08V61.4854ZM1121.08 59.4854V0H1117.08V59.4854H1121.08ZM280.179 85.0034V105.738H284.179V85.0034H280.179ZM292.179 117.738H1174.64V113.738H292.179V117.738ZM1186.64 105.738V85.0033H1182.64V105.738H1186.64ZM1174.64 73.0034H292.179V77.0034H1174.64V73.0034ZM1171.05 61.4854H1197.63V57.4854H1171.05V61.4854ZM1197.63 61.4854H1224.21V57.4854H1197.63V61.4854ZM1195.63 59.4854V129.316H1199.63V59.4854H1195.63ZM4 61.4854H208.943V57.4854H4V61.4854ZM208.943 61.4854H1119.08V57.4854H208.943V61.4854ZM206.943 59.4854V129.316H210.943V59.4854H206.943ZM1127.94 48.5538H1161.01V44.5538H1127.94V48.5538ZM1236.92 20.1192L1248.15 32.081L1251.06 29.3442L1239.84 17.3825L1236.92 20.1192ZM1248.11 32.0412L1258.74 44.0029L1261.73 41.3457L1251.1 29.384L1248.11 32.0412ZM1251.1 32.0412L1261.73 20.0794L1258.74 17.4222L1248.11 29.384L1251.1 32.0412ZM1190.5 48.5538H1202.99V44.5538H1190.5V48.5538ZM1208.46 12.8714H1185.03V16.8714H1208.46V12.8714ZM1178.5 23.9235V36.5538H1182.5V23.9235H1178.5ZM1214.99 36.5538V23.9235H1210.99V36.5538H1214.99ZM1180.5 25.9235H1212.99V21.9235H1180.5V25.9235ZM1214.99 23.9235V19.3974H1210.99V23.9235H1214.99ZM1178.5 19.3974V23.9235H1182.5V19.3974H1178.5ZM1212.99 17.3974H1180.5V21.3974H1212.99V17.3974ZM1248.15 29.3442L1236.92 41.306L1239.84 44.0427L1251.06 32.081L1248.15 29.3442ZM1208.46 16.8714C1209.85 16.8714 1210.99 18.0023 1210.99 19.3974H1214.99C1214.99 15.7932 1212.06 12.8714 1208.46 12.8714V16.8714ZM1202.99 48.5538C1209.61 48.5538 1214.99 43.1812 1214.99 36.5538H1210.99C1210.99 40.9721 1207.4 44.5538 1202.99 44.5538V48.5538ZM1190.5 44.5538C1186.08 44.5538 1182.5 40.9721 1182.5 36.5538H1178.5C1178.5 43.1812 1183.87 48.5538 1190.5 48.5538V44.5538ZM1185.03 12.8714C1181.42 12.8714 1178.5 15.7932 1178.5 19.3974H1182.5C1182.5 18.0023 1183.63 16.8714 1185.03 16.8714V12.8714ZM1186.64 85.0033C1186.64 78.3759 1181.26 73.0034 1174.64 73.0034V77.0034C1179.05 77.0034 1182.64 80.5851 1182.64 85.0033H1186.64ZM1174.64 117.738C1181.26 117.738 1186.64 112.365 1186.64 105.738H1182.64C1182.64 110.156 1179.05 113.738 1174.64 113.738V117.738ZM280.179 105.738C280.179 112.365 285.551 117.738 292.179 117.738V113.738C287.761 113.738 284.179 110.156 284.179 105.738H280.179ZM284.179 85.0034C284.179 80.5851 287.761 77.0034 292.179 77.0034V73.0034C285.551 73.0034 280.179 78.3759 280.179 85.0034H284.179ZM4 129.316H0C0 131.525 1.79086 133.316 4 133.316L4 129.316ZM1275 129.316V133.316C1277.21 133.316 1279 131.525 1279 129.316H1275ZM8 59.4854V9.99999H0V59.4854H8ZM1271 10V59.4854H1279V10H1271ZM1224.21 4H1265V-4H1224.21V4ZM1171.05 4H1224.21V-4H1171.05V4ZM14 4H1119.08V-4H14V4ZM1119.08 4H1171.05V-4H1119.08V4ZM8 129.316V59.4854H0V129.316H8ZM1271 59.4854V129.316H1279V59.4854H1271ZM1197.63 133.316H1275V125.316H1197.63V133.316ZM4 133.316H208.943V125.316H4V133.316ZM208.943 133.316H1197.63V125.316H208.943V133.316ZM1279 10C1279 2.26801 1272.73 -4 1265 -4V4C1268.31 4 1271 6.6863 1271 10H1279ZM8 9.99999C8 6.68629 10.6863 4 14 4V-4C6.26802 -4 0 2.268 0 9.99999H8Z" fill="#1C1C1C" mask="url(#path-6-inside-3_636_360)"/>
<mask id="path-8-inside-4_636_360" fill="white">
<path d="M4 10V59.4644H208.943H1119.08V0H14C8.47715 0 4 4.47716 4 10Z"/>
</mask>
<path d="M4 10V59.4644H208.943H1119.08V0H14C8.47715 0 4 4.47716 4 10Z" fill="#1A7076"/>
<path d="M1273 10V59.4644H1277V10H1273ZM1224.21 2H1265V-2H1224.21V2ZM1171.05 2H1224.21V-2H1171.05V2ZM1119.08 61.4644H1171.05V57.4644H1119.08V61.4644ZM1119.08 2H1171.05V-2H1119.08V2ZM6 129.27V59.4644H2V129.27H6ZM1273 59.4644V129.27H1277V59.4644H1273ZM1171.05 61.4644H1197.63V57.4644H1171.05V61.4644ZM1197.63 61.4644H1224.21V57.4644H1197.63V61.4644ZM1127.94 48.5373H1161.01V44.5373H1127.94V48.5373ZM1234.5 16.1683L1248.09 32.0039L1251.12 29.3995L1237.54 13.5639L1234.5 16.1683ZM1248.09 32.0039L1261.67 47.8395L1264.71 45.2352L1251.12 29.3995L1248.09 32.0039ZM1251.12 32.0039L1264.71 16.1683L1261.67 13.5639L1248.09 29.3995L1251.12 32.0039ZM1248.09 29.3995L1234.5 45.2352L1237.54 47.8395L1251.12 32.0039L1248.09 29.3995ZM1277 10C1277 3.37258 1271.63 -2 1265 -2V2C1269.42 2 1273 5.58173 1273 10H1277ZM4 59.4644H0V63.4644H4V59.4644ZM1119.08 59.4644V63.4644H1123.08V59.4644H1119.08ZM1119.08 0H1123.08V-4H1119.08V0ZM8 59.4644V10H0V59.4644H8ZM14 4H1119.08V-4H14V4ZM1123.08 59.4644V0H1115.08V59.4644H1123.08ZM4 63.4644H208.943V55.4644H4V63.4644ZM208.943 63.4644H1119.08V55.4644H208.943V63.4644ZM8 10C8 6.68629 10.6863 4 14 4V-4C6.26801 -4 0 2.26802 0 10H8Z" fill="#1C1C1C" mask="url(#path-8-inside-4_636_360)"/>
<path d="M239.449 77.4846C245.115 79.2941 249.259 85.0762 249.259 91.9295C249.259 99.5671 244.112 105.874 237.447 106.835M239.449 77.4846L241.713 83.5781M239.449 77.4846L244.731 75.2268M231.903 106.374C226.236 104.565 222.092 98.7827 222.092 91.9295C222.092 84.2918 227.239 77.9846 233.904 77.0238M231.903 106.374L230.393 100.698M231.903 106.374L226.62 108.215" stroke="#1C1C1C" stroke-width="4" stroke-linecap="round" stroke-linejoin="round"/>
<path fill-rule="evenodd" clip-rule="evenodd" d="M97.3045 110.649L120.346 91.6172L97.3045 72.5854V82.5683H75.4443V99.3734H97.3045V110.649Z" fill="#1C1C1C"/>
<path fill-rule="evenodd" clip-rule="evenodd" d="M37.0416 110.649L14 91.6172L37.0416 72.5854V82.5683H58.9017V99.3734H37.0416V110.649Z" fill="#1C1C1C"/>
<path fill-rule="evenodd" clip-rule="evenodd" d="M167.02 70L185.335 87.81H185.335V87.8104L185.335 87.8106H185.335V113.969H173.634V95.0461H165.494V113.969H148.705V87.81H148.706L167.02 70Z" fill="#1C1C1C"/>
<mask id="path-14-outside-5_636_360" maskUnits="userSpaceOnUse" x="262" y="70" width="926" height="49" fill="black">
<rect fill="white" x="262" y="70" width="926" height="49"/>
<path d="M266 104.733V84C266 78.4772 270.477 74 276 74H1173.55C1179.07 74 1183.55 78.4772 1183.55 84V104.733C1183.55 110.255 1179.07 114.733 1173.55 114.733H276C270.477 114.733 266 110.255 266 104.733Z"/>
</mask>
<path d="M266 104.733V84C266 78.4772 270.477 74 276 74H1173.55C1179.07 74 1183.55 78.4772 1183.55 84V104.733C1183.55 110.255 1179.07 114.733 1173.55 114.733H276C270.477 114.733 266 110.255 266 104.733Z" fill="#E9F0F4"/>
<path d="M266 104.733V84C266 78.4772 270.477 74 276 74H1173.55C1179.07 74 1183.55 78.4772 1183.55 84V104.733C1183.55 110.255 1179.07 114.733 1173.55 114.733H276C270.477 114.733 266 110.255 266 104.733Z" stroke="#1C1C1C" stroke-width="8" mask="url(#path-14-outside-5_636_360)"/>
<rect x="1210" y="80.7319" width="50.4519" height="33.958" rx="1" fill="#1C1C1C"/>
<path d="M1212.12 72.6227C1212.27 72.2462 1212.64 72 1213.04 72H1228.3C1228.71 72 1229.07 72.2462 1229.23 72.6227L1230.78 76.4441C1231.05 77.1018 1230.57 77.8214 1229.86 77.8214H1211.49C1210.78 77.8214 1210.29 77.1018 1210.56 76.4441L1212.12 72.6227Z" fill="#1C1C1C"/>
<rect x="1182" y="16" width="29" height="7" fill="#1C1C1C"/>
<rect x="4" y="56" width="1117" height="5" fill="#1C1C1C"/>
<rect x="1115" width="6" height="57" fill="#1C1C1C"/>
</g>
<defs>
<filter id="filter0_d_636_360" x="0" y="0" width="1279" height="1558" filterUnits="userSpaceOnUse" color-interpolation-filters="sRGB">
<feFlood flood-opacity="0" result="BackgroundImageFix"/>
<feColorMatrix in="SourceAlpha" type="matrix" values="0 0 0 0 0 0 0 0 0 0 0 0 0 0 0 0 0 0 127 0" result="hardAlpha"/>
<feOffset dy="4"/>
<feGaussianBlur stdDeviation="2"/>
<feComposite in2="hardAlpha" operator="out"/>
<feColorMatrix type="matrix" values="0 0 0 0 0 0 0 0 0 0 0 0 0 0 0 0 0 0 0.25 0"/>
<feBlend mode="normal" in2="BackgroundImageFix" result="effect1_dropShadow_636_360"/>
<feBlend mode="normal" in="SourceGraphic" in2="effect1_dropShadow_636_360" result="shape"/>
</filter>
</defs>
</svg>
