<svg width="68" height="92" viewBox="0 0 68 92" fill="none" xmlns="http://www.w3.org/2000/svg">
<path d="M64.8665 68.986C64.8665 79.8716 50.8936 88.6961 33.6571 88.6961C16.4206 88.6961 2.44766 79.8716 2.44766 68.986C2.44766 58.1004 16.4206 49.2759 33.6571 49.2759C50.8936 49.2759 64.8665 58.1004 64.8665 68.986Z" fill="#1E1F23"/>
<rect x="18.9705" y="46.3774" width="11.0151" height="5.21738" fill="#479DCD"/>
<rect x="35.493" y="46.3774" width="12.239" height="5.21738" fill="#479DCD"/>
<rect x="47.7165" y="50.5103" width="10.225" height="5.78636" fill="#479DCD"/>
<rect x="57.9413" y="56.2969" width="5.11249" height="4.95973" fill="#479DCD"/>
<rect x="62.2016" y="60.4292" width="5.11249" height="15.7058" fill="#479DCD"/>
<rect x="57.9413" y="76.1357" width="5.11249" height="4.95973" fill="#479DCD"/>
<rect x="4.26035" y="76.1357" width="5.11249" height="4.95973" fill="#479DCD"/>
<rect x="3.40836" y="56.2969" width="5.96457" height="4.95973" fill="#479DCD"/>
<rect x="8.52081" y="50.5103" width="11.0771" height="5.78636" fill="#479DCD"/>
<rect x="-3.05176e-05" y="61.2566" width="5.11249" height="14.8792" fill="#479DCD"/>
<rect x="18.7458" y="86.0549" width="29.8229" height="4.95973" fill="#479DCD"/>
<rect x="47.7165" y="81.0952" width="11.0771" height="5.78636" fill="#479DCD"/>
<rect x="9.37305" y="81.0952" width="11.0771" height="5.78636" fill="#479DCD"/>
<line x1="35.2137" y1="37.7827" x2="35.2137" y2="45.654" stroke="#9E8BC5" stroke-width="11"/>
<line x1="35.2137" y1="60.6094" x2="35.2137" y2="75.5648" stroke="#9790BC" stroke-width="11"/>
<line x1="35.2137" y1="75.5649" x2="35.2137" y2="81.0748" stroke="#645D90" stroke-width="11"/>
<line x1="35.2137" y1="81.0745" x2="35.2137" y2="85.7972" stroke="#534B7A" stroke-width="11"/>
<rect x="21.9621" y="4.72314" width="5.16757" height="4.72277" fill="#D9D9D9"/>
<rect x="42.6324" y="9.44556" width="5.16757" height="4.72277" fill="#C71F1F"/>
<rect x="47.8001" y="9.44556" width="5.16757" height="4.72277" fill="#C71F1F"/>
<rect x="52.9676" y="9.44556" width="5.16757" height="4.72277" fill="#A21616"/>
<rect x="52.9676" y="14.1685" width="5.16757" height="4.72277" fill="#A21616"/>
<rect x="52.9676" y="18.8909" width="5.16757" height="4.72277" fill="#A21616"/>
<rect x="47.8001" y="23.6143" width="5.16757" height="4.72277" fill="#A21616"/>
<rect x="42.6324" y="28.3369" width="5.16757" height="4.72277" fill="#A21616"/>
<rect x="37.4648" y="33.0601" width="5.16757" height="4.72277" fill="#A21616"/>
<rect x="32.2975" y="33.0601" width="5.16757" height="4.72277" fill="#A21616"/>
<rect x="27.13" y="33.0601" width="5.16757" height="4.72277" fill="#A21616"/>
<rect x="21.9621" y="33.0601" width="5.16757" height="4.72277" fill="#A21616"/>
<rect x="16.7946" y="28.3369" width="5.16757" height="4.72277" fill="#A21616"/>
<rect x="11.627" y="23.6143" width="5.16757" height="4.72277" fill="#A21616"/>
<rect x="11.627" y="18.8909" width="5.16757" height="4.72277" fill="#A21616"/>
<rect x="11.627" y="14.1685" width="5.16757" height="4.72277" fill="#A21616"/>
<rect x="16.7946" y="14.1685" width="5.16757" height="4.72277" fill="#C71F1F"/>
<rect x="21.9621" y="14.1685" width="5.16757" height="4.72277" fill="#C71F1F"/>
<rect x="27.13" y="14.1685" width="5.16757" height="4.72277" fill="#C71F1F"/>
<rect x="32.2975" y="14.1685" width="5.16757" height="4.72277" fill="#C71F1F"/>
<rect x="37.4648" y="14.1685" width="5.16757" height="4.72277" fill="#C71F1F"/>
<rect x="37.4648" y="18.8909" width="5.16757" height="4.72277" fill="#C71F1F"/>
<rect x="37.4648" y="23.6143" width="5.16757" height="4.72277" fill="#A21616"/>
<rect x="37.4648" y="28.3369" width="5.16757" height="4.72277" fill="#A21616"/>
<rect x="32.2975" y="28.3369" width="5.16757" height="4.72277" fill="#A21616"/>
<rect x="27.13" y="28.3369" width="5.16757" height="4.72277" fill="#A21616"/>
<rect x="21.9621" y="28.3369" width="5.16757" height="4.72277" fill="#A21616"/>
<rect x="16.7946" y="23.6143" width="5.16757" height="4.72277" fill="#A21616"/>
<rect x="16.7946" y="18.8909" width="5.16757" height="4.72277" fill="#A21616"/>
<rect x="21.9621" y="18.8909" width="5.16757" height="4.72277" fill="#C71F1F"/>
<rect x="21.9621" y="23.6143" width="5.16757" height="4.72277" fill="#A21616"/>
<rect x="27.13" y="23.6143" width="5.16757" height="4.72277" fill="#A21616"/>
<rect x="27.13" y="18.8909" width="5.16757" height="4.72277" fill="#C71F1F"/>
<rect x="32.2975" y="18.8909" width="5.16757" height="4.72277" fill="#C71F1F"/>
<rect x="32.2975" y="23.6143" width="5.16757" height="4.72277" fill="#A21616"/>
<rect x="11.627" y="9.44556" width="5.16757" height="4.72277" fill="#A21616"/>
<rect x="47.8001" y="14.1685" width="5.16757" height="4.72277" fill="#C71F1F"/>
<rect x="47.8001" y="18.8909" width="5.16757" height="4.72277" fill="#A21616"/>
<rect x="42.6324" y="23.6143" width="5.16757" height="4.72277" fill="#A21616"/>
<rect x="42.6324" y="18.8909" width="5.16757" height="4.72277" fill="#C71F1F"/>
<rect x="42.6324" y="14.1685" width="5.16757" height="4.72277" fill="#C71F1F"/>
<rect x="37.4648" y="9.44556" width="5.16757" height="4.72277" fill="#C71F1F"/>
<rect x="32.2975" y="9.44556" width="5.16757" height="4.72277" fill="#C71F1F"/>
<rect x="47.8001" y="4.72314" width="5.16757" height="4.72277" fill="#C71F1F"/>
<rect x="42.6324" y="4.72314" width="5.16757" height="4.72277" fill="#C71F1F"/>
<rect x="37.4648" y="4.72314" width="5.16757" height="4.72277" fill="#C71F1F"/>
<rect x="32.2975" y="4.72314" width="5.16757" height="4.72277" fill="#C71F1F"/>
<rect x="42.6324" width="5.16757" height="4.72277" fill="#C71F1F"/>
<rect x="37.4648" width="5.16757" height="4.72277" fill="#C71F1F"/>
<rect x="32.2975" width="5.16757" height="4.72277" fill="#C71F1F"/>
<rect x="27.13" width="5.16757" height="4.72277" fill="#C71F1F"/>
<rect x="21.9621" width="5.16757" height="4.72277" fill="#C71F1F"/>
<rect x="16.7946" y="9.44556" width="5.16757" height="4.72277" fill="#C71F1F"/>
<rect x="16.7946" y="4.72314" width="5.16757" height="4.72277" fill="#C71F1F"/>
<rect x="21.9621" y="9.44556" width="5.16757" height="4.72277" fill="#D9D9D9"/>
<rect x="27.13" y="9.44556" width="5.16757" height="4.72277" fill="#D9D9D9"/>
<rect x="27.13" y="4.72314" width="5.16757" height="4.72277" fill="#D9D9D9"/>
<line x1="35.2137" y1="45.6538" x2="35.2137" y2="60.6092" stroke="#828388" stroke-width="11"/>
</svg>
