<svg width="897" height="123" viewBox="0 0 897 123" fill="none" xmlns="http://www.w3.org/2000/svg">
<path d="M59.6 72.9776L102.95 1.74755H119.1V120.748H96.15V54.4476L67.59 101.198H51.61L23.05 54.4476V120.748H0.100001V1.74755H16.25L59.6 72.9776ZM220.31 103.918C215.436 110.378 209.94 115.081 203.82 118.028C197.7 120.974 190.73 122.448 182.91 122.448C176.563 122.448 170.67 121.371 165.23 119.218C159.79 116.951 155.086 113.891 151.12 110.038C147.266 106.071 144.206 101.538 141.94 96.4376C139.786 91.2242 138.71 85.6142 138.71 79.6076C138.71 73.6009 139.843 67.9909 142.11 62.7776C144.376 57.5642 147.493 53.0309 151.46 49.1776C155.426 45.2109 160.073 42.1509 165.4 39.9976C170.84 37.7309 176.733 36.5976 183.08 36.5976C190.22 36.5976 196.793 38.1276 202.8 41.1876C208.92 44.1342 213.906 48.1009 217.76 53.0876L202.12 66.8576C199.853 63.9109 197.076 61.5309 193.79 59.7176C190.616 57.9042 187.046 56.9976 183.08 56.9976C179.906 56.9976 176.96 57.6209 174.24 58.8676C171.52 60.0009 169.14 61.5876 167.1 63.6276C165.173 65.6676 163.643 68.0476 162.51 70.7676C161.376 73.4876 160.81 76.4342 160.81 79.6076C160.81 82.8942 161.376 85.8976 162.51 88.6176C163.643 91.3376 165.173 93.7176 167.1 95.7576C169.14 97.6842 171.52 99.2142 174.24 100.348C177.073 101.481 180.19 102.048 183.59 102.048C188.123 102.048 192.09 100.914 195.49 98.6476C198.89 96.3809 201.496 93.8876 203.31 91.1676L220.31 103.918ZM320.616 67.1976H261.116V120.748H238.166V1.74755H261.116V46.7976H320.616V1.74755H343.566V120.748H320.616V67.1976ZM426.913 67.1976C424.646 64.1376 421.756 61.7009 418.243 59.8876C414.73 57.9609 410.82 56.9976 406.513 56.9976C403.226 56.9976 400.28 57.6209 397.673 58.8676C395.066 60.1142 392.856 61.8142 391.043 63.9676C389.23 66.0076 387.813 68.3876 386.793 71.1076C385.773 73.8276 385.263 76.6609 385.263 79.6076C385.263 82.8942 385.773 85.8976 386.793 88.6176C387.926 91.3376 389.456 93.7176 391.383 95.7576C393.423 97.6842 395.746 99.2142 398.353 100.348C401.073 101.481 403.963 102.048 407.023 102.048C411.216 102.048 415.013 101.141 418.413 99.3276C421.926 97.4009 424.76 94.9076 426.913 91.8476V67.1976ZM449.013 120.748H427.763V114.118C424.363 117.064 420.736 119.218 416.883 120.578C413.03 121.824 409.006 122.448 404.813 122.448C398.693 122.448 392.856 121.201 387.303 118.708C381.863 116.214 377.33 112.814 373.703 108.508C370.416 104.768 367.81 100.461 365.883 95.5876C364.07 90.6009 363.163 85.2742 363.163 79.6076C363.163 73.4876 364.183 67.8209 366.223 62.6076C368.376 57.3942 371.266 52.8609 374.893 49.0076C378.633 45.1542 382.94 42.1509 387.813 39.9976C392.686 37.7309 397.956 36.5976 403.623 36.5976C408.383 36.5976 412.746 37.3342 416.713 38.8076C420.793 40.2809 424.476 42.3209 427.763 44.9276V38.2976H449.013V120.748ZM549.353 103.918C544.479 110.378 538.983 115.081 532.863 118.028C526.743 120.974 519.773 122.448 511.953 122.448C505.606 122.448 499.713 121.371 494.273 119.218C488.833 116.951 484.129 113.891 480.163 110.038C476.309 106.071 473.249 101.538 470.983 96.4376C468.829 91.2242 467.753 85.6142 467.753 79.6076C467.753 73.6009 468.886 67.9909 471.153 62.7776C473.419 57.5642 476.536 53.0309 480.503 49.1776C484.469 45.2109 489.116 42.1509 494.443 39.9976C499.883 37.7309 505.776 36.5976 512.123 36.5976C519.263 36.5976 525.836 38.1276 531.843 41.1876C537.963 44.1342 542.949 48.1009 546.803 53.0876L531.163 66.8576C528.896 63.9109 526.119 61.5309 522.833 59.7176C519.659 57.9042 516.089 56.9976 512.123 56.9976C508.949 56.9976 506.003 57.6209 503.283 58.8676C500.563 60.0009 498.183 61.5876 496.143 63.6276C494.216 65.6676 492.686 68.0476 491.553 70.7676C490.419 73.4876 489.853 76.4342 489.853 79.6076C489.853 82.8942 490.419 85.8976 491.553 88.6176C492.686 91.3376 494.216 93.7176 496.143 95.7576C498.183 97.6842 500.563 99.2142 503.283 100.348C506.116 101.481 509.233 102.048 512.633 102.048C517.166 102.048 521.133 100.914 524.533 98.6476C527.933 96.3809 530.539 93.8876 532.353 91.1676L549.353 103.918ZM607.669 75.3576L653.059 120.748H623.309L588.459 85.0476V120.748H566.359V0.0475521H588.459V64.9876L616.849 38.2976H647.959L607.669 75.3576ZM669.183 95.5876C672.016 98.1942 675.416 100.234 679.383 101.708C683.463 103.068 687.599 103.748 691.793 103.748C694.739 103.748 697.233 103.124 699.273 101.878C701.313 100.518 702.333 98.8176 702.333 96.7776C702.333 94.7376 701.313 93.0942 699.273 91.8476C697.346 90.4876 694.909 89.2976 691.963 88.2776C689.016 87.1442 685.786 86.0109 682.273 84.8776C678.873 83.6309 675.699 82.1009 672.753 80.2876C669.806 78.3609 667.313 75.9809 665.273 73.1476C663.346 70.3142 662.383 66.6876 662.383 62.2676C662.383 58.3009 663.233 54.7309 664.933 51.5576C666.746 48.3842 669.126 45.7209 672.073 43.5676C675.019 41.3009 678.363 39.6009 682.103 38.4676C685.956 37.2209 689.923 36.5976 694.003 36.5976C696.723 36.5976 699.443 36.8242 702.163 37.2776C704.883 37.7309 707.433 38.3542 709.813 39.1476C712.306 39.9409 714.573 40.8476 716.613 41.8676C718.766 42.8876 720.523 43.9076 721.883 44.9276L711.513 60.9076C709.359 59.3209 706.923 58.0176 704.203 56.9976C701.483 55.8642 698.649 55.2976 695.703 55.2976C692.643 55.2976 689.979 55.8642 687.713 56.9976C685.559 58.1309 684.483 59.7742 684.483 61.9276C684.483 63.7409 685.446 65.2142 687.373 66.3476C689.413 67.3676 691.906 68.3876 694.853 69.4076C697.799 70.4276 700.973 71.5609 704.373 72.8076C707.886 73.9409 711.116 75.5276 714.063 77.5676C717.009 79.6076 719.446 82.1576 721.373 85.2176C723.413 88.2776 724.433 92.1876 724.433 96.9476C724.433 100.914 723.526 104.484 721.713 107.658C719.899 110.718 717.463 113.381 714.403 115.648C711.456 117.801 707.999 119.501 704.033 120.748C700.066 121.881 695.929 122.448 691.623 122.448C685.843 122.448 680.063 121.541 674.283 119.728C668.616 117.801 663.346 115.024 658.473 111.398L669.183 95.5876ZM778.78 18.7476L807.68 1.74755H823.83V120.748H800.88V28.2676L778.78 40.5076V18.7476ZM851.827 18.7476L880.727 1.74755H896.877V120.748H873.927V28.2676L851.827 40.5076V18.7476Z" fill="#1C1C1C"/>
</svg>
