<svg width="1437" height="133" viewBox="0 0 1437 133" fill="none" xmlns="http://www.w3.org/2000/svg">
<rect y="67" width="22" height="22" fill="#56AEE0"/>
<rect x="418" y="44" width="22" height="22" fill="#56AEE0"/>
<rect x="462" y="44" width="22" height="22" fill="#56AEE0"/>
<rect x="484" y="44" width="22" height="22" fill="#56AEE0"/>
<rect x="551" y="44" width="22" height="22" fill="#56AEE0"/>
<rect x="617" y="44" width="22" height="22" fill="#56AEE0"/>
<rect x="374" y="64" width="22" height="22" fill="#56AEE0"/>
<rect x="617" y="88" width="22" height="22" fill="#3CA5E0" fill-opacity="0.36"/>
<rect x="440" y="66" width="22" height="22" fill="#56AEE0"/>
<rect x="506" y="66" width="22" height="22" fill="#56AEE0"/>
<rect x="573" y="66" width="22" height="22" fill="#56AEE0"/>
<rect x="639" y="66" width="22" height="22" fill="#56AEE0"/>
<rect x="661" y="66" width="22" height="22" fill="#56AEE0"/>
<rect x="883" y="44" width="22" height="22" fill="#56AEE0"/>
<rect x="817" y="44" width="22" height="22" fill="#3CA5E0" fill-opacity="0.36"/>
<rect x="795" width="22" height="22" fill="#56AEE0"/>
<rect x="839" y="66" width="22" height="22" fill="#56AEE0"/>
<rect x="795" y="44" width="22" height="22" fill="#56AEE0"/>
<rect x="905" y="22" width="22" height="22" fill="#56AEE0"/>
<rect x="949" y="44" width="22" height="22" fill="#56AEE0"/>
<rect x="971" y="66" width="22" height="22" fill="#56AEE0"/>
<rect x="773" y="66" width="22" height="22" fill="#56AEE0"/>
<rect x="751" y="44" width="22" height="22" fill="#56AEE0"/>
<rect x="773" y="22" width="22" height="22" fill="#56AEE0"/>
<rect x="905" y="66" width="22" height="22" fill="#56AEE0"/>
<rect x="971" y="22" width="22" height="22" fill="#56AEE0"/>
<rect x="949" y="22" width="22" height="22" fill="#56AEE0"/>
<rect x="971" y="88" width="22" height="22" fill="#3CA5E0" fill-opacity="0.36"/>
<rect x="993" y="111" width="22" height="22" fill="#3CA5E0" fill-opacity="0.36"/>
<rect x="1301" y="87" width="22" height="22" fill="#3CA5E0" fill-opacity="0.36"/>
<rect x="1323" y="109" width="22" height="22" fill="#3CA5E0" fill-opacity="0.36"/>
<rect x="707" y="66" width="22" height="22" fill="#56AEE0"/>
<rect x="1103" y="22" width="22" height="22" fill="#56AEE0"/>
<rect x="1235" y="22" width="22" height="22" fill="#56AEE0"/>
<rect x="1279" y="22" width="22" height="22" fill="#56AEE0"/>
<rect x="1301" y="22" width="22" height="22" fill="#56AEE0"/>
<rect x="1081" y="44" width="22" height="22" fill="#56AEE0"/>
<rect x="1125" y="44" width="22" height="22" fill="#56AEE0"/>
<rect x="1147" y="44" width="22" height="22" fill="#56AEE0"/>
<rect x="1213" y="44" width="22" height="22" fill="#56AEE0"/>
<rect x="1279" y="44" width="22" height="22" fill="#56AEE0"/>
<rect x="1037" y="66" width="22" height="22" fill="#56AEE0"/>
<rect x="1103" y="66" width="22" height="22" fill="#56AEE0"/>
<rect x="1169" y="66" width="22" height="22" fill="#3CA5E0" fill-opacity="0.36"/>
<rect x="1235" y="66" width="22" height="22" fill="#56AEE0"/>
<rect x="1301" y="66" width="22" height="22" fill="#56AEE0"/>
<rect x="1433" y="22" width="22" height="22" fill="#56AEE0"/>
<rect x="1411" y="44" width="22" height="22" fill="#56AEE0"/>
<rect x="1367" y="66" width="22" height="22" fill="#3CA5E0" fill-opacity="0.36"/>
<rect x="1433" y="66" width="22" height="22" fill="#56AEE0"/>
<rect x="804" y="88" width="22" height="22" fill="#3CA5E0" fill-opacity="0.36"/>
<rect x="1390" y="22" width="22" height="22" fill="#56AEE0"/>
<rect x="220" y="44" width="22" height="22" fill="#56AEE0"/>
<rect x="154" y="44" width="22" height="22" fill="#56AEE0"/>
<rect x="417" y="86" width="22" height="22" fill="#3CA5E0" fill-opacity="0.36"/>
<rect x="132" y="44" width="22" height="22" fill="#56AEE0"/>
<rect x="22" y="88" width="22" height="22" fill="#3CA5E0" fill-opacity="0.36"/>
<rect x="264" y="88" width="22" height="22" fill="#56AEE0"/>
<rect x="242" y="108" width="22" height="22" fill="#3CA5E0" fill-opacity="0.36"/>
<rect x="286" y="44" width="22" height="22" fill="#56AEE0"/>
<rect x="308" y="66" width="22" height="22" fill="#56AEE0"/>
<rect x="110" y="66" width="22" height="22" fill="#56AEE0"/>
<rect x="88" y="44" width="22" height="22" fill="#56AEE0"/>
<rect x="22" y="22" width="22" height="22" fill="#56AEE0"/>
<rect x="44" y="110" width="22" height="22" fill="#3CA5E0" fill-opacity="0.36"/>
<rect x="88" y="88" width="22" height="22" fill="#56AEE0"/>
<rect x="242" y="66" width="22" height="22" fill="#56AEE0"/>
<rect x="220" y="88" width="22" height="22" fill="#56AEE0"/>
<rect x="44" y="66" width="22" height="22" fill="#56AEE0"/>
<rect x="500" y="22" width="22" height="22" fill="#56AEE0"/>
<rect x="308" y="22" width="22" height="22" fill="#56AEE0"/>
<rect x="374" y="22" width="22" height="22" fill="#56AEE0"/>
<rect x="573" y="22" width="22" height="22" fill="#3CA5E0"/>
<rect x="729" y="44" width="22" height="22" fill="#3CA5E0"/>
<rect y="22" width="22" height="22" fill="#56AEE0"/>
<rect x="595" y="22" width="22" height="22" fill="#56AEE0"/>
<rect x="663" y="22" width="22" height="22" fill="#56AEE0"/>
<rect x="729" y="44" width="22" height="22" fill="#56AEE0"/>
<rect x="707" y="22" width="22" height="22" fill="#56AEE0"/>
<rect x="839" y="22" width="22" height="22" fill="#56AEE0"/>
<rect x="197" y="22" width="22" height="22" fill="#56AEE0"/>
</svg>
