<svg width="110" height="52" viewBox="0 0 110 52" fill="none" xmlns="http://www.w3.org/2000/svg">
<g filter="url(#filter0_d_43_50)">
<rect x="41.0177" y="8.5835" width="12.1216" height="11.6111" fill="#0190E2"/>
<rect x="53.1393" y="8.5835" width="12.1216" height="11.6111" fill="#0190E2"/>
<rect x="16.7745" y="20.1946" width="12.1216" height="11.6111" fill="#0190E2"/>
<rect x="28.8961" y="20.1946" width="12.1216" height="11.6111" fill="#3B4D67"/>
<rect x="41.0177" y="20.1946" width="12.1216" height="11.6111" fill="#3B4D67"/>
<rect x="65.2609" y="20.1946" width="12.1216" height="11.6111" fill="#0190E2"/>
<rect x="77.3825" y="20.1946" width="12.1216" height="11.6111" fill="#0190E2"/>
<rect x="4.65292" y="31.8054" width="12.1216" height="11.6111" fill="#0190E2"/>
<rect x="16.7745" y="31.8054" width="12.1216" height="11.6111" fill="#0190E2"/>
<rect x="28.8961" y="31.8054" width="12.1216" height="11.6111" fill="#0190E2"/>
<rect x="41.0177" y="31.8054" width="12.1216" height="11.6111" fill="#0190E2"/>
<rect x="53.1393" y="31.8054" width="12.1216" height="11.6111" fill="#0190E2"/>
<rect x="65.2609" y="31.8054" width="12.1216" height="11.6111" fill="#0190E2"/>
<rect x="77.3825" y="31.8054" width="12.1216" height="11.6111" fill="#0190E2"/>
<rect x="89.5041" y="31.8054" width="12.1216" height="11.6111" fill="#0190E2"/>
<rect x="53.1393" y="20.1946" width="12.1216" height="11.6111" fill="#3B4D67"/>
</g>
<line x1="41.0177" y1="4.5835" x2="65.2609" y2="4.5835" stroke="#364966" stroke-width="8"/>
<line x1="43.3648" y1="7" x2="43.3648" y2="20.1944" stroke="#364966" stroke-width="8"/>
<line x1="69.2609" y1="7" x2="69.2609" y2="20.1944" stroke="#364966" stroke-width="8"/>
<line x1="16.7745" y1="16.1946" x2="39.3647" y2="16.1946" stroke="#364966" stroke-width="8"/>
<line x1="65.2609" y1="16.1946" x2="91.157" y2="16.1946" stroke="#364966" stroke-width="8"/>
<line x1="19.1216" y1="18.6111" x2="19.1216" y2="31.8055" stroke="#364966" stroke-width="8"/>
<line x1="93.5041" y1="20.1946" x2="93.5041" y2="31.8057" stroke="#364966" stroke-width="8"/>
<line x1="7" y1="30.2222" x2="7" y2="43.4166" stroke="#364966" stroke-width="8"/>
<line x1="105.626" y1="30.2222" x2="105.626" y2="44.9999" stroke="#364966" stroke-width="8"/>
<line y1="-4" x2="12.1216" y2="-4" transform="matrix(-0.999923 -0.0124051 0.0135197 -0.999909 16.7737 30.3726)" stroke="#364966" stroke-width="8"/>
<line x1="101.626" y1="34.2222" x2="89.5041" y2="34.2222" stroke="#364966" stroke-width="8"/>
<line x1="101.626" y1="47.4165" x2="3.00001" y2="47.4165" stroke="#364966" stroke-width="8"/>
<defs>
<filter id="filter0_d_43_50" x="0.652924" y="8.5835" width="104.973" height="42.833" filterUnits="userSpaceOnUse" color-interpolation-filters="sRGB">
<feFlood flood-opacity="0" result="BackgroundImageFix"/>
<feColorMatrix in="SourceAlpha" type="matrix" values="0 0 0 0 0 0 0 0 0 0 0 0 0 0 0 0 0 0 127 0" result="hardAlpha"/>
<feOffset dy="4"/>
<feGaussianBlur stdDeviation="2"/>
<feComposite in2="hardAlpha" operator="out"/>
<feColorMatrix type="matrix" values="0 0 0 0 0 0 0 0 0 0 0 0 0 0 0 0 0 0 0.25 0"/>
<feBlend mode="normal" in2="BackgroundImageFix" result="effect1_dropShadow_43_50"/>
<feBlend mode="normal" in="SourceGraphic" in2="effect1_dropShadow_43_50" result="shape"/>
</filter>
</defs>
</svg>
