<svg width="916" height="122" viewBox="0 0 916 122" fill="none" xmlns="http://www.w3.org/2000/svg">
<path d="M16.4 2.39999L59.24 72.792L102.08 2.39999H118.04V120H95.36V54.48L67.136 100.68H51.344L23.12 54.48V120H0.440001V2.39999H16.4ZM201.259 90.768L218.059 103.368C208.483 116.136 196.387 121.68 181.099 121.68C155.899 121.68 137.419 102.864 137.419 79.344C137.419 55.656 156.403 36.84 181.267 36.84C195.379 36.84 207.979 43.392 215.539 53.136L200.083 66.744C195.715 61.032 189.163 57 181.267 57C168.667 57 159.259 66.912 159.259 79.344C159.259 92.112 168.499 101.52 181.771 101.52C190.675 101.52 197.731 96.144 201.259 90.768ZM317.186 120V67.08H258.386V120H235.706V2.39999H258.386V46.92H317.186V2.39999H339.866V120H317.186ZM422.232 91.44V67.08C417.696 61.032 410.472 57 402.072 57C389.304 57 381.072 67.584 381.072 79.344C381.072 92.112 390.312 101.52 402.576 101.52C410.808 101.52 418.032 97.488 422.232 91.44ZM444.072 38.52V120H423.072V113.448C416.352 119.16 408.624 121.68 400.392 121.68C388.296 121.68 376.872 116.304 369.648 107.904C363.264 100.512 359.232 90.432 359.232 79.344C359.232 55.32 377.04 36.84 399.216 36.84C408.456 36.84 416.688 39.864 423.072 45.072V38.52H444.072ZM526.431 90.768L543.231 103.368C533.655 116.136 521.559 121.68 506.271 121.68C481.071 121.68 462.591 102.864 462.591 79.344C462.591 55.656 481.575 36.84 506.439 36.84C520.551 36.84 533.151 43.392 540.711 53.136L525.255 66.744C520.887 61.032 514.335 57 506.439 57C493.839 57 484.431 66.912 484.431 79.344C484.431 92.112 493.671 101.52 506.943 101.52C515.847 101.52 522.903 96.144 526.431 90.768ZM640.678 38.52L600.862 75.144L645.718 120H616.318L581.878 84.72V120H560.038V0.719994H581.878V64.896L609.934 38.52H640.678ZM651.067 110.76L661.651 95.136C667.195 100.176 675.763 103.2 683.995 103.2C689.875 103.2 694.411 100.344 694.411 96.312C694.411 84.048 654.931 88.416 654.931 62.208C654.931 46.584 670.051 36.84 686.179 36.84C696.763 36.84 708.355 40.872 713.731 45.072L703.483 60.864C699.283 57.84 693.739 55.32 687.859 55.32C681.811 55.32 676.771 57.672 676.771 61.872C676.771 72.456 716.251 68.256 716.251 96.48C716.251 112.104 700.963 121.68 683.827 121.68C672.571 121.68 660.643 117.816 651.067 110.76ZM769.959 40.704V19.2L798.519 2.39999H814.479V120H791.799V28.608L769.959 40.704ZM860.478 34.152L839.646 27.936C844.686 11.808 859.47 0.719994 876.774 0.719994C896.934 0.719994 914.406 15.84 914.406 37.008C914.406 51.288 907.182 61.704 899.286 70.776L874.254 99.84H915.246V120H838.806V106.56L880.134 59.688C889.206 49.44 891.726 42.72 891.726 36.672C891.726 28.44 885.342 20.88 876.438 20.88C868.542 20.88 862.83 26.256 860.478 34.152Z" fill="#1C1C1C"/>
</svg>
