<svg width="312" height="52" viewBox="0 0 312 52" fill="none" xmlns="http://www.w3.org/2000/svg">
<rect x="8.39751" y="4.12891" width="13.2422" height="26.3607" fill="#F13431"/>
<rect x="3.87577" y="8.25732" width="4.52174" height="18.1031" fill="#F13431"/>
<rect x="46.5093" y="8.25732" width="4.52174" height="18.1031" fill="#F13431"/>
<rect x="33.913" y="30.4893" width="4.52174" height="8.25756" fill="#F13431"/>
<rect x="17.441" y="30.4893" width="4.52174" height="8.25756" fill="#F13431"/>
<rect x="37.7888" y="30.4893" width="4.52174" height="3.49358" fill="#F13431"/>
<rect x="12.9193" y="30.4893" width="4.52174" height="4.12878" fill="#F13431"/>
<rect x="25.1925" y="42.876" width="4.52174" height="4.12878" fill="#F13431"/>
<rect x="34.559" y="4.12891" width="12.9193" height="26.3607" fill="#F13431"/>
<rect x="21.6397" y="8.25732" width="12.9193" height="34.6182" fill="#F13431"/>
<rect x="34.559" width="11.9503" height="4.12878" fill="black"/>
<rect x="8.39751" width="13.5652" height="4.12878" fill="black"/>
<rect x="21.9627" y="4.12891" width="4.19876" height="4.12878" fill="black"/>
<rect x="7.75155" y="11.751" width="8.39752" height="4.12878" fill="black"/>
<rect x="4.19876" y="4.12891" width="4.19876" height="4.12878" fill="black"/>
<rect x="4.19876" y="26.3604" width="4.19876" height="4.12878" fill="black"/>
<rect x="8.39751" y="30.4893" width="4.19876" height="4.12878" fill="black"/>
<rect x="12.9193" y="34.6182" width="4.19876" height="4.12878" fill="black"/>
<rect x="17.118" y="38.7471" width="4.19876" height="4.12878" fill="black"/>
<rect x="21.3168" y="42.876" width="4.19876" height="4.12878" fill="black"/>
<rect x="25.5155" y="47.0044" width="4.19876" height="4.12878" fill="black"/>
<rect x="29.7143" y="42.876" width="4.19876" height="4.12878" fill="black"/>
<rect x="33.913" y="38.7471" width="4.19876" height="4.12878" fill="black"/>
<rect x="38.1118" y="34.6182" width="4.19876" height="4.12878" fill="black"/>
<rect x="42.3106" y="30.4893" width="4.19876" height="4.12878" fill="black"/>
<rect x="46.5093" y="26.3604" width="4.19876" height="4.12878" fill="black"/>
<rect x="50.7081" y="8.25732" width="4.19876" height="18.1031" fill="black"/>
<rect x="26.1615" y="8.25732" width="4.19876" height="4.12878" fill="black"/>
<rect x="11.9503" y="7.62207" width="4.19876" height="4.12878" fill="black"/>
<rect y="8.25732" width="4.19876" height="18.1031" fill="black"/>
<rect x="30.3602" y="4.12891" width="4.19876" height="4.12878" fill="black"/>
<rect x="46.5093" y="4.12891" width="4.19876" height="4.12878" fill="black"/>
<rect x="72.6708" y="4.12891" width="13.2422" height="26.3607" fill="#F13431"/>
<rect x="68.1491" y="8.25732" width="4.52174" height="18.1031" fill="#F13431"/>
<rect x="110.783" y="8.25732" width="4.52174" height="18.1031" fill="#F13431"/>
<rect x="98.1863" y="30.4893" width="4.52174" height="8.25756" fill="#F13431"/>
<rect x="81.7143" y="30.4893" width="4.52174" height="8.25756" fill="#F13431"/>
<rect x="102.062" y="30.4893" width="4.52174" height="3.49358" fill="#F13431"/>
<rect x="77.1926" y="30.4893" width="4.52174" height="4.12878" fill="#F13431"/>
<rect x="89.4658" y="42.876" width="4.52174" height="4.12878" fill="#F13431"/>
<rect x="98.8323" y="4.12891" width="12.9193" height="26.3607" fill="#F13431"/>
<rect x="85.913" y="8.25732" width="12.9193" height="34.6182" fill="#F13431"/>
<rect x="98.8323" width="11.9503" height="4.12878" fill="black"/>
<rect x="72.6708" width="13.5652" height="4.12878" fill="black"/>
<rect x="86.236" y="4.12891" width="4.19876" height="4.12878" fill="black"/>
<rect x="72.0249" y="11.751" width="8.39752" height="4.12878" fill="black"/>
<rect x="68.4721" y="4.12891" width="4.19876" height="4.12878" fill="black"/>
<rect x="68.4721" y="26.3604" width="4.19876" height="4.12878" fill="black"/>
<rect x="72.6708" y="30.4893" width="4.19876" height="4.12878" fill="black"/>
<rect x="77.1926" y="34.6182" width="4.19876" height="4.12878" fill="black"/>
<rect x="81.3913" y="38.7471" width="4.19876" height="4.12878" fill="black"/>
<rect x="85.5901" y="42.876" width="4.19876" height="4.12878" fill="black"/>
<rect x="89.7888" y="47.0044" width="4.19876" height="4.12878" fill="black"/>
<rect x="93.9876" y="42.876" width="4.19876" height="4.12878" fill="black"/>
<rect x="98.1863" y="38.7471" width="4.19876" height="4.12878" fill="black"/>
<rect x="102.385" y="34.6182" width="4.19876" height="4.12878" fill="black"/>
<rect x="106.584" y="30.4893" width="4.19876" height="4.12878" fill="black"/>
<rect x="110.783" y="26.3604" width="4.19876" height="4.12878" fill="black"/>
<rect x="114.981" y="8.25732" width="4.19876" height="18.1031" fill="black"/>
<rect x="90.4348" y="8.25732" width="4.19876" height="4.12878" fill="black"/>
<rect x="76.2236" y="7.62207" width="4.19876" height="4.12878" fill="black"/>
<rect x="64.2733" y="8.25732" width="4.19876" height="18.1031" fill="black"/>
<rect x="94.6335" y="4.12891" width="4.19876" height="4.12878" fill="black"/>
<rect x="110.783" y="4.12891" width="4.19876" height="4.12878" fill="black"/>
<rect x="136.944" y="4.12891" width="13.2422" height="26.3607" fill="#F13431"/>
<rect x="132.422" y="8.25732" width="4.52174" height="18.1031" fill="#F13431"/>
<rect x="175.056" y="8.25732" width="4.52174" height="18.1031" fill="#F13431"/>
<rect x="162.46" y="30.4893" width="4.52174" height="8.25756" fill="#F13431"/>
<rect x="145.988" y="30.4893" width="4.52174" height="8.25756" fill="#F13431"/>
<rect x="166.335" y="30.4893" width="4.52174" height="3.49358" fill="#F13431"/>
<rect x="141.466" y="30.4893" width="4.52174" height="4.12878" fill="#F13431"/>
<rect x="153.739" y="42.876" width="4.52174" height="4.12878" fill="#F13431"/>
<rect x="163.106" y="4.12891" width="12.9193" height="26.3607" fill="#F13431"/>
<rect x="150.186" y="8.25732" width="12.9193" height="34.6182" fill="#F13431"/>
<rect x="163.106" width="11.9503" height="4.12878" fill="black"/>
<rect x="136.944" width="13.5652" height="4.12878" fill="black"/>
<rect x="150.509" y="4.12891" width="4.19876" height="4.12878" fill="black"/>
<rect x="136.298" y="11.751" width="8.39752" height="4.12878" fill="black"/>
<rect x="132.745" y="4.12891" width="4.19876" height="4.12878" fill="black"/>
<rect x="132.745" y="26.3604" width="4.19876" height="4.12878" fill="black"/>
<rect x="136.944" y="30.4893" width="4.19876" height="4.12878" fill="black"/>
<rect x="141.466" y="34.6182" width="4.19876" height="4.12878" fill="black"/>
<rect x="145.665" y="38.7471" width="4.19876" height="4.12878" fill="black"/>
<rect x="149.863" y="42.876" width="4.19876" height="4.12878" fill="black"/>
<rect x="154.062" y="47.0044" width="4.19876" height="4.12878" fill="black"/>
<rect x="158.261" y="42.876" width="4.19876" height="4.12878" fill="black"/>
<rect x="162.46" y="38.7471" width="4.19876" height="4.12878" fill="black"/>
<rect x="166.658" y="34.6182" width="4.19876" height="4.12878" fill="black"/>
<rect x="170.857" y="30.4893" width="4.19876" height="4.12878" fill="black"/>
<rect x="175.056" y="26.3604" width="4.19876" height="4.12878" fill="black"/>
<rect x="179.255" y="8.25732" width="4.19876" height="18.1031" fill="black"/>
<rect x="154.708" y="8.25732" width="4.19876" height="4.12878" fill="black"/>
<rect x="140.497" y="7.62207" width="4.19876" height="4.12878" fill="black"/>
<rect x="128.547" y="8.25732" width="4.19876" height="18.1031" fill="black"/>
<rect x="158.907" y="4.12891" width="4.19876" height="4.12878" fill="black"/>
<rect x="175.056" y="4.12891" width="4.19876" height="4.12878" fill="black"/>
<rect x="201.217" y="4.12891" width="13.2422" height="26.3607" fill="#F13431"/>
<rect x="196.696" y="8.25732" width="4.52174" height="18.1031" fill="#F13431"/>
<rect x="239.329" y="8.25732" width="4.52174" height="18.1031" fill="#F13431"/>
<rect x="226.733" y="30.4893" width="4.52174" height="8.25756" fill="#F13431"/>
<rect x="210.261" y="30.4893" width="4.52174" height="8.25756" fill="#F13431"/>
<rect x="230.609" y="30.4893" width="4.52174" height="3.49358" fill="#F13431"/>
<rect x="205.739" y="30.4893" width="4.52174" height="4.12878" fill="#F13431"/>
<rect x="218.012" y="42.876" width="4.52174" height="4.12878" fill="#F13431"/>
<rect x="227.379" y="4.12891" width="12.9193" height="26.3607" fill="#F13431"/>
<rect x="214.46" y="8.25732" width="12.9193" height="34.6182" fill="#F13431"/>
<rect x="227.379" width="11.9503" height="4.12878" fill="black"/>
<rect x="201.217" width="13.5652" height="4.12878" fill="black"/>
<rect x="214.783" y="4.12891" width="4.19876" height="4.12878" fill="black"/>
<rect x="200.571" y="11.751" width="8.39752" height="4.12878" fill="black"/>
<rect x="197.019" y="4.12891" width="4.19876" height="4.12878" fill="black"/>
<rect x="197.019" y="26.3604" width="4.19876" height="4.12878" fill="black"/>
<rect x="201.217" y="30.4893" width="4.19876" height="4.12878" fill="black"/>
<rect x="205.739" y="34.6182" width="4.19876" height="4.12878" fill="black"/>
<rect x="209.938" y="38.7471" width="4.19876" height="4.12878" fill="black"/>
<rect x="214.137" y="42.876" width="4.19876" height="4.12878" fill="black"/>
<rect x="218.335" y="47.0044" width="4.19876" height="4.12878" fill="black"/>
<rect x="222.534" y="42.876" width="4.19876" height="4.12878" fill="black"/>
<rect x="226.733" y="38.7471" width="4.19876" height="4.12878" fill="black"/>
<rect x="230.932" y="34.6182" width="4.19876" height="4.12878" fill="black"/>
<rect x="235.13" y="30.4893" width="4.19876" height="4.12878" fill="black"/>
<rect x="239.329" y="26.3604" width="4.19876" height="4.12878" fill="black"/>
<rect x="243.528" y="8.25732" width="4.19876" height="18.1031" fill="black"/>
<rect x="218.981" y="8.25732" width="4.19876" height="4.12878" fill="black"/>
<rect x="204.77" y="7.62207" width="4.19876" height="4.12878" fill="black"/>
<rect x="192.82" y="8.25732" width="4.19876" height="18.1031" fill="black"/>
<rect x="223.18" y="4.12891" width="4.19876" height="4.12878" fill="black"/>
<rect x="239.329" y="4.12891" width="4.19876" height="4.12878" fill="black"/>
<rect x="291.652" width="11.9503" height="4.12878" fill="black"/>
<rect x="265.491" width="13.5652" height="4.12878" fill="black"/>
<rect x="279.056" y="4.12891" width="4.19876" height="4.12878" fill="black"/>
<rect x="264.845" y="11.751" width="8.39752" height="4.12878" fill="black"/>
<rect x="261.292" y="4.12891" width="4.19876" height="4.12878" fill="black"/>
<rect x="261.292" y="26.3604" width="4.19876" height="4.12878" fill="black"/>
<rect x="265.491" y="30.4893" width="4.19876" height="4.12878" fill="black"/>
<rect x="270.012" y="34.6182" width="4.19876" height="4.12878" fill="black"/>
<rect x="274.211" y="38.7471" width="4.19876" height="4.12878" fill="black"/>
<rect x="278.41" y="42.876" width="4.19876" height="4.12878" fill="black"/>
<rect x="282.609" y="47.0044" width="4.19876" height="4.12878" fill="black"/>
<rect x="286.807" y="42.876" width="4.19876" height="4.12878" fill="black"/>
<rect x="291.006" y="38.7471" width="4.19876" height="4.12878" fill="black"/>
<rect x="295.205" y="34.6182" width="4.19876" height="4.12878" fill="black"/>
<rect x="299.404" y="30.4893" width="4.19876" height="4.12878" fill="black"/>
<rect x="303.602" y="26.3604" width="4.19876" height="4.12878" fill="black"/>
<rect x="307.801" y="8.25732" width="4.19876" height="18.1031" fill="black"/>
<rect x="283.255" y="8.25732" width="4.19876" height="4.12878" fill="black"/>
<rect x="269.043" y="7.62207" width="4.19876" height="4.12878" fill="black"/>
<rect x="257.093" y="8.25732" width="4.19876" height="18.1031" fill="black"/>
<rect x="287.453" y="4.12891" width="4.19876" height="4.12878" fill="black"/>
<rect x="303.602" y="4.12891" width="4.19876" height="4.12878" fill="black"/>
</svg>
