<svg width="108" height="50" viewBox="0 0 108 50" fill="none" xmlns="http://www.w3.org/2000/svg">
<g filter="url(#filter0_d_58_1186)">
<rect x="40.391" y="8.5" width="11.9218" height="11" fill="#3BA4DF"/>
<rect x="52.3128" y="8.5" width="11.9218" height="11" fill="#3BA4DF"/>
<rect x="16.5475" y="19.5" width="11.9218" height="11" fill="#3BA4DF"/>
<rect x="28.4692" y="19.5" width="11.9218" height="11" fill="#3B4D67"/>
<rect x="40.391" y="19.5" width="11.9218" height="11" fill="#3B4D67"/>
<rect x="64.2346" y="19.5" width="11.9218" height="11" fill="#3BA4DF"/>
<rect x="76.1564" y="19.5" width="11.9218" height="11" fill="#3BA4DF"/>
<rect x="4.62573" y="30.5" width="11.9218" height="11" fill="#3BA4DF"/>
<rect x="16.5475" y="30.5" width="11.9218" height="11" fill="#3BA4DF"/>
<rect x="28.4692" y="30.5" width="11.9218" height="11" fill="#3BA4DF"/>
<rect x="40.391" y="30.5" width="11.9218" height="11" fill="#3BA4DF"/>
<rect x="52.3128" y="30.5" width="11.9218" height="11" fill="#3BA4DF"/>
<rect x="64.2346" y="30.5" width="11.9218" height="11" fill="#3BA4DF"/>
<rect x="76.1564" y="30.5" width="11.9218" height="11" fill="#3BA4DF"/>
<rect x="88.0781" y="30.5" width="11.9218" height="11" fill="#3BA4DF"/>
<rect x="52.3128" y="19.5" width="11.9218" height="11" fill="#3B4D67"/>
</g>
<line x1="40.391" y1="4.5" x2="64.2345" y2="4.5" stroke="#364966" stroke-width="8"/>
<line x1="42.7653" y1="7" x2="42.7653" y2="19.5" stroke="#364966" stroke-width="8"/>
<line x1="68.2346" y1="7" x2="68.2346" y2="19.5" stroke="#364966" stroke-width="8"/>
<line x1="16.5475" y1="15.5" x2="38.7653" y2="15.5" stroke="#364966" stroke-width="8"/>
<line x1="64.2346" y1="15.5" x2="89.7038" y2="15.5" stroke="#364966" stroke-width="8"/>
<line x1="18.9218" y1="18" x2="18.9218" y2="30.5" stroke="#364966" stroke-width="8"/>
<line x1="92.0781" y1="19.5" x2="92.0781" y2="30.5" stroke="#364966" stroke-width="8"/>
<line x1="7" y1="29" x2="7" y2="41.5" stroke="#364966" stroke-width="8"/>
<line x1="104" y1="29" x2="104" y2="43" stroke="#364966" stroke-width="8"/>
<line y1="-4" x2="11.9214" y2="-4" transform="matrix(-0.999929 -0.0119492 0.0140354 -0.999902 16.5466 29.1423)" stroke="#364966" stroke-width="8"/>
<line x1="100" y1="33" x2="88.0781" y2="33" stroke="#364966" stroke-width="8"/>
<line x1="99.9999" y1="45.5" x2="3.00002" y2="45.5" stroke="#364966" stroke-width="8"/>
<defs>
<filter id="filter0_d_58_1186" x="0.625732" y="8.5" width="103.374" height="41" filterUnits="userSpaceOnUse" color-interpolation-filters="sRGB">
<feFlood flood-opacity="0" result="BackgroundImageFix"/>
<feColorMatrix in="SourceAlpha" type="matrix" values="0 0 0 0 0 0 0 0 0 0 0 0 0 0 0 0 0 0 127 0" result="hardAlpha"/>
<feOffset dy="4"/>
<feGaussianBlur stdDeviation="2"/>
<feComposite in2="hardAlpha" operator="out"/>
<feColorMatrix type="matrix" values="0 0 0 0 0 0 0 0 0 0 0 0 0 0 0 0 0 0 0.25 0"/>
<feBlend mode="normal" in2="BackgroundImageFix" result="effect1_dropShadow_58_1186"/>
<feBlend mode="normal" in="SourceGraphic" in2="effect1_dropShadow_58_1186" result="shape"/>
</filter>
</defs>
</svg>
