<svg width="474" height="66" viewBox="0 0 474 66" fill="none" xmlns="http://www.w3.org/2000/svg">
<path d="M0.472 65V3.17599H13.528L31.672 40.328L49.816 3.17599H62.776V65H49.816V24.776L35.416 54.344H27.928L13.432 24.776V65H0.472ZM96.9228 65.96C88.7948 65.96 82.5548 63.944 78.2028 59.912C73.9148 55.88 71.7708 49.992 71.7708 42.248C71.7708 34.248 74.0748 28.296 78.6828 24.392C83.3548 20.488 89.5628 18.536 97.3068 18.536C100.507 18.536 103.259 18.76 105.563 19.208C107.867 19.656 110.107 20.392 112.283 21.416V30.728C110.683 29.96 108.827 29.352 106.715 28.904C104.603 28.456 102.331 28.232 99.8988 28.232C95.0348 28.232 91.3228 29.256 88.7628 31.304C86.2028 33.288 84.9228 36.936 84.9228 42.248C84.9228 47.112 86.0748 50.664 88.3788 52.904C90.7468 55.144 94.5548 56.264 99.8028 56.264C102.043 56.264 104.219 56.04 106.331 55.592C108.507 55.144 110.523 54.472 112.379 53.576V63.176C108.091 65.032 102.939 65.96 96.9228 65.96ZM120.566 65V3.17599H133.526V29.096H160.502V3.17599H173.462V65H160.502V39.08H133.526V65H120.566ZM198.714 65.96C195.834 65.96 193.146 65.448 190.65 64.424C188.218 63.336 186.234 61.768 184.698 59.72C183.226 57.608 182.49 54.984 182.49 51.848C182.49 47.368 184.058 43.784 187.194 41.096C190.394 38.408 195.098 37.064 201.306 37.064H214.746V35.816C214.746 33 213.946 31.016 212.346 29.864C210.81 28.712 207.674 28.136 202.938 28.136C197.754 28.136 192.762 28.936 187.962 30.536V21.416C190.074 20.584 192.634 19.912 195.642 19.4C198.714 18.824 202.042 18.536 205.626 18.536C212.474 18.536 217.754 19.944 221.466 22.76C225.242 25.512 227.13 29.96 227.13 36.104V65H215.898L215.226 60.872C213.434 62.472 211.226 63.72 208.602 64.616C205.978 65.512 202.682 65.96 198.714 65.96ZM202.266 57.416C205.146 57.416 207.642 56.936 209.754 55.976C211.866 55.016 213.53 53.8 214.746 52.328V45.128H201.594C196.538 45.128 194.01 47.208 194.01 51.368C194.01 55.4 196.762 57.416 202.266 57.416ZM260.798 65.96C252.67 65.96 246.43 63.944 242.078 59.912C237.79 55.88 235.646 49.992 235.646 42.248C235.646 34.248 237.95 28.296 242.558 24.392C247.23 20.488 253.438 18.536 261.182 18.536C264.382 18.536 267.134 18.76 269.438 19.208C271.742 19.656 273.982 20.392 276.158 21.416V30.728C274.558 29.96 272.702 29.352 270.59 28.904C268.478 28.456 266.206 28.232 263.774 28.232C258.91 28.232 255.198 29.256 252.638 31.304C250.078 33.288 248.798 36.936 248.798 42.248C248.798 47.112 249.95 50.664 252.254 52.904C254.622 55.144 258.43 56.264 263.678 56.264C265.918 56.264 268.094 56.04 270.206 55.592C272.382 55.144 274.398 54.472 276.254 53.576V63.176C271.966 65.032 266.814 65.96 260.798 65.96ZM284.441 65V0.295998H297.401V35.912L314.393 19.496H329.177L310.841 38.12L330.233 65H316.505L302.681 44.936L297.401 50.024V65H284.441ZM351.285 65.96C347.893 65.96 344.661 65.704 341.589 65.192C338.517 64.744 336.053 64.168 334.197 63.464V52.712C336.437 53.608 338.965 54.312 341.781 54.824C344.597 55.272 347.189 55.496 349.557 55.496C352.757 55.496 354.997 55.304 356.277 54.92C357.621 54.536 358.293 53.672 358.293 52.328C358.293 50.792 357.269 49.672 355.221 48.968C353.237 48.264 350.261 47.272 346.293 45.992C342.133 44.584 338.933 42.888 336.693 40.904C334.453 38.92 333.333 35.976 333.333 32.072C333.333 27.72 334.901 24.392 338.037 22.088C341.237 19.72 346.357 18.536 353.397 18.536C356.213 18.536 358.869 18.76 361.365 19.208C363.861 19.592 365.973 20.072 367.701 20.648V31.304C365.973 30.472 363.989 29.864 361.749 29.48C359.509 29.032 357.429 28.808 355.509 28.808C352.757 28.808 350.549 29 348.885 29.384C347.285 29.768 346.485 30.6 346.485 31.88C346.485 33.288 347.349 34.28 349.077 34.856C350.869 35.432 353.621 36.296 357.333 37.448C360.981 38.536 363.829 39.72 365.877 41C367.925 42.28 369.365 43.816 370.197 45.608C371.029 47.336 371.445 49.512 371.445 52.136C371.445 61.352 364.725 65.96 351.285 65.96ZM409.695 65V14.888L399.615 16.52V5.672L422.655 2.216V65H409.695ZM431.677 65V58.76C433.405 55.048 435.677 51.72 438.493 48.776C441.309 45.768 444.381 42.792 447.709 39.848C450.205 37.608 452.253 35.752 453.853 34.28C455.453 32.808 456.701 31.496 457.597 30.344C458.493 29.192 459.133 28.008 459.517 26.792C459.901 25.576 460.093 24.072 460.093 22.28C460.093 16.328 456.317 13.352 448.765 13.352C446.205 13.352 443.645 13.64 441.085 14.216C438.589 14.728 436.189 15.432 433.885 16.328V4.904C436.317 4.07199 439.133 3.432 442.333 2.984C445.597 2.472 448.701 2.216 451.645 2.216C458.813 2.216 464.189 4.008 467.773 7.592C471.421 11.112 473.245 15.912 473.245 21.992C473.245 26.216 472.189 29.832 470.077 32.84C468.029 35.784 465.341 38.696 462.013 41.576C459.389 43.88 456.893 46.12 454.525 48.296C452.157 50.408 450.173 52.648 448.573 55.016H473.821V65H431.677Z" fill="#2A2A2A"/>
</svg>
