<svg width="83" height="78" viewBox="0 0 83 78" fill="none" xmlns="http://www.w3.org/2000/svg">
<rect x="65.9422" y="9.64575" width="3.32831" height="3.21528" fill="#D9D9D9"/>
<rect x="48.4685" y="9.64575" width="3.32831" height="3.21528" fill="#D9D9D9"/>
<rect x="45.1402" y="12.8611" width="6.65662" height="6.43056" fill="#9ACDE2"/>
<rect x="34.5312" y="9.64575" width="13.9373" height="3.21528" fill="#9ACDE2"/>
<rect x="69.2704" y="12.8611" width="3.32831" height="3.21528" fill="#D9D9D9"/>
<rect x="14.9774" y="51.4448" width="3.32831" height="3.21528" fill="#9ACDE2"/>
<rect x="14.9774" y="54.6594" width="3.32831" height="3.21528" fill="#D9D9D9"/>
<rect x="54.7091" y="25.7219" width="3.32831" height="3.21528" fill="#9A1D49"/>
<rect x="51.3808" y="22.5073" width="3.32831" height="3.21528" fill="#9A1D49"/>
<rect x="51.3808" y="16.0764" width="3.32831" height="6.43056" fill="#9ACDE2"/>
<rect x="51.7968" y="12.8611" width="9.5689" height="3.21528" fill="#D9D9D9"/>
<rect x="18.3057" y="54.6594" width="3.32831" height="3.21528" fill="#9ACDE2"/>
<rect x="18.3057" y="57.875" width="3.32831" height="3.21528" fill="#9ACDE2"/>
<rect x="21.634" y="57.875" width="3.32831" height="3.21528" fill="#D9D9D9"/>
<rect x="61.3658" y="54.6594" width="3.32831" height="3.21528" fill="#9ACDE2"/>
<rect x="68.0224" y="35.3677" width="3.32831" height="6.43056" fill="#9ACDE2"/>
<rect x="68.0224" y="28.9375" width="3.32831" height="6.43056" fill="#D9D9D9"/>
<rect x="61.3658" y="16.0764" width="3.32831" height="6.43056" fill="#D9D9D9"/>
<rect x="58.0374" y="16.0764" width="3.32831" height="12.8611" fill="#9ACDE2"/>
<rect x="54.7091" y="16.0764" width="3.32831" height="9.64584" fill="#9ACDE2"/>
<rect x="61.3658" y="22.5073" width="3.32831" height="16.0764" fill="#9ACDE2"/>
<rect x="64.694" y="19.2917" width="3.32831" height="12.4592" fill="#D9D9D9"/>
<rect x="64.694" y="31.7505" width="3.32831" height="13.263" fill="#9ACDE2"/>
<rect x="58.0374" y="57.875" width="6.65662" height="3.21528" fill="#9ACDE2"/>
<rect x="38.4836" y="12.8611" width="6.65662" height="3.21528" fill="#D75583"/>
<rect x="18.3057" y="51.4448" width="3.32831" height="3.21528" fill="#D75583"/>
<rect x="14.9774" y="22.5073" width="3.32831" height="3.21528" fill="#D75583"/>
<rect x="45.1402" y="19.2917" width="6.65662" height="3.21528" fill="#D75583"/>
<rect x="21.634" y="54.6594" width="3.32831" height="3.21528" fill="#D75583"/>
<rect x="24.9623" y="57.875" width="3.32831" height="3.21528" fill="#D75583"/>
<rect x="64.694" y="45.0137" width="3.32831" height="6.43056" fill="#D75583"/>
<rect x="61.3658" y="38.5835" width="3.32831" height="6.43056" fill="#D75583"/>
<rect x="58.0374" y="28.9375" width="3.32831" height="6.43056" fill="#D75583"/>
<rect x="58.0374" y="61.0903" width="3.32831" height="3.21528" fill="#D75583"/>
<rect x="28.2906" y="61.0903" width="6.65662" height="3.21528" fill="#D75583"/>
<rect x="14.9774" y="45.0137" width="3.32831" height="6.43056" fill="#D75583"/>
<rect x="29.9548" y="70.7366" width="3.32831" height="3.21528" fill="#D75583"/>
<rect x="3.32831" y="48.2292" width="3.32831" height="6.43056" fill="#D9D9D9"/>
<rect x="6.65665" y="54.6594" width="3.32831" height="6.43056" fill="#D9D9D9"/>
<rect y="35.3677" width="3.32831" height="12.8611" fill="#D9D9D9"/>
<rect y="35.3677" width="3.32831" height="12.8611" fill="#D9D9D9"/>
<rect x="50.9648" y="3.21558" width="7.4887" height="3.21528" fill="#D9D9D9"/>
<rect x="58.4535" y="6.43018" width="7.4887" height="3.21528" fill="#D9D9D9"/>
<rect x="31.6189" width="3.32831" height="3.21528" fill="#463886"/>
<rect x="13.3132" y="9.64575" width="3.32831" height="3.21528" fill="#463886"/>
<rect x="69.2704" y="61.0903" width="3.32831" height="3.21528" fill="#463886"/>
<rect x="65.9422" y="64.3057" width="3.32831" height="3.21528" fill="#463886"/>
<rect x="58.4535" y="67.521" width="6.65662" height="3.21528" fill="#463886"/>
<rect x="51.7968" y="70.7366" width="6.65662" height="3.21528" fill="#463886"/>
<rect x="45.1402" y="73.9512" width="6.65662" height="3.21528" fill="#463886"/>
<rect x="72.5988" y="19.2917" width="3.32831" height="3.21528" fill="#463886"/>
<rect x="75.9271" y="25.7219" width="3.32831" height="3.21528" fill="#463886"/>
<rect x="75.9271" y="48.2292" width="3.32831" height="6.43056" fill="#463886"/>
<rect x="72.5988" y="54.6594" width="3.32831" height="6.43056" fill="#463886"/>
<rect x="79.2555" y="35.3677" width="3.32831" height="12.8611" fill="#463886"/>
<rect x="9.98495" y="12.8611" width="3.32831" height="3.21528" fill="#463886"/>
<rect x="9.98495" y="61.0903" width="3.32831" height="3.21528" fill="#463886"/>
<rect x="19.9699" y="67.521" width="3.32831" height="3.21528" fill="#463886"/>
<rect x="26.6265" y="70.7366" width="3.32831" height="3.21528" fill="#463886"/>
<rect x="6.65665" y="16.0764" width="3.32831" height="6.43056" fill="#463886"/>
<rect x="3.32831" y="22.5073" width="3.32831" height="6.43056" fill="#463886"/>
<rect y="28.9375" width="3.32831" height="6.43056" fill="#463886"/>
<rect x="24.1303" y="3.21558" width="7.4887" height="3.21528" fill="#463886"/>
<rect x="16.6415" y="6.43018" width="7.4887" height="3.21528" fill="#463886"/>
<rect x="47.6365" width="3.32831" height="3.21528" fill="#463886"/>
<rect x="34.9473" width="12.6892" height="3.21528" fill="#D9D9D9"/>
<rect x="33.2831" y="73.9512" width="11.8571" height="3.21528" fill="#D9D9D9"/>
<rect x="72.5988" y="16.0764" width="3.32831" height="3.21528" fill="#D9D9D9"/>
<rect x="75.9271" y="22.5073" width="3.32831" height="3.21528" fill="#D9D9D9"/>
<rect x="79.2555" y="28.9375" width="3.32831" height="6.43056" fill="#D9D9D9"/>
<rect x="21.634" y="61.0903" width="3.32831" height="3.21528" fill="#D9D9D9"/>
<rect x="24.9623" y="61.0903" width="3.32831" height="3.21528" fill="#9ACDE2"/>
<rect x="54.7091" y="61.0903" width="3.32831" height="3.21528" fill="#9ACDE2"/>
<rect x="13.3132" y="64.3057" width="3.32831" height="3.21528" fill="#D9D9D9"/>
<rect x="16.6415" y="67.521" width="3.32831" height="3.21528" fill="#D9D9D9"/>
<rect x="23.2982" y="70.7366" width="3.32831" height="3.21528" fill="#D9D9D9"/>
</svg>
