<svg width="659" height="396" viewBox="0 0 659 396" fill="none" xmlns="http://www.w3.org/2000/svg">
<rect x="485.155" y="87.6458" width="2.38007" height="2.54861" fill="#D9D9D9"/>
<rect x="472.66" y="87.6458" width="2.38007" height="2.54861" fill="#D9D9D9"/>
<rect x="470.28" y="90.1946" width="4.76013" height="5.09723" fill="#9ACDE2"/>
<rect x="462.693" y="87.6458" width="9.96653" height="2.54861" fill="#9ACDE2"/>
<rect x="487.535" y="90.1946" width="2.38007" height="2.54861" fill="#D9D9D9"/>
<rect x="448.71" y="120.778" width="2.38007" height="2.54861" fill="#9ACDE2"/>
<rect x="448.71" y="123.326" width="2.38007" height="2.54861" fill="#D9D9D9"/>
<rect x="477.122" y="100.389" width="2.38007" height="2.54861" fill="#9A1D49"/>
<rect x="474.742" y="97.8406" width="2.38007" height="2.54861" fill="#9A1D49"/>
<rect x="474.742" y="92.7429" width="2.38007" height="5.09723" fill="#9ACDE2"/>
<rect x="475.04" y="90.1946" width="6.84269" height="2.54861" fill="#D9D9D9"/>
<rect x="451.09" y="123.326" width="2.38007" height="2.54861" fill="#9ACDE2"/>
<rect x="451.09" y="125.875" width="2.38007" height="2.54861" fill="#9ACDE2"/>
<rect x="453.47" y="125.875" width="2.38007" height="2.54861" fill="#D9D9D9"/>
<rect x="481.882" y="123.326" width="2.38007" height="2.54861" fill="#9ACDE2"/>
<rect x="486.643" y="108.034" width="2.38007" height="5.09723" fill="#9ACDE2"/>
<rect x="486.643" y="102.938" width="2.38007" height="5.09723" fill="#D9D9D9"/>
<rect x="481.882" y="92.7429" width="2.38007" height="5.09723" fill="#D9D9D9"/>
<rect x="479.502" y="92.7429" width="2.38007" height="10.1945" fill="#9ACDE2"/>
<rect x="477.122" y="92.7429" width="2.38007" height="7.64584" fill="#9ACDE2"/>
<rect x="481.882" y="97.8406" width="2.38007" height="12.7431" fill="#9ACDE2"/>
<rect x="484.263" y="95.2917" width="2.38007" height="9.87588" fill="#D9D9D9"/>
<rect x="484.263" y="105.167" width="2.38007" height="10.513" fill="#9ACDE2"/>
<rect x="479.502" y="125.875" width="4.76013" height="2.54861" fill="#9ACDE2"/>
<rect x="465.52" y="90.1946" width="4.76013" height="2.54861" fill="#D75583"/>
<rect x="451.09" y="120.778" width="2.38007" height="2.54861" fill="#D75583"/>
<rect x="448.71" y="97.8406" width="2.38007" height="2.54861" fill="#D75583"/>
<rect x="470.28" y="95.2917" width="4.76013" height="2.54861" fill="#D75583"/>
<rect x="453.47" y="123.326" width="2.38007" height="2.54861" fill="#D75583"/>
<rect x="455.85" y="125.875" width="2.38007" height="2.54861" fill="#D75583"/>
<rect x="484.263" y="115.68" width="2.38007" height="5.09723" fill="#D75583"/>
<rect x="481.882" y="110.583" width="2.38007" height="5.09723" fill="#D75583"/>
<rect x="479.502" y="102.938" width="2.38007" height="5.09723" fill="#D75583"/>
<rect x="479.502" y="128.424" width="2.38007" height="2.54861" fill="#D75583"/>
<rect x="458.231" y="128.424" width="4.76013" height="2.54861" fill="#D75583"/>
<rect x="448.71" y="115.68" width="2.38007" height="5.09723" fill="#D75583"/>
<rect x="459.421" y="136.07" width="2.38007" height="2.54861" fill="#D75583"/>
<rect x="440.38" y="118.229" width="2.38007" height="5.09723" fill="#D9D9D9"/>
<rect x="442.76" y="123.326" width="2.38007" height="5.09723" fill="#D9D9D9"/>
<rect x="438" y="108.034" width="2.38007" height="10.1945" fill="#D9D9D9"/>
<rect x="438" y="108.034" width="2.38007" height="10.1945" fill="#D9D9D9"/>
<rect x="474.445" y="82.5488" width="5.35515" height="2.54861" fill="#D9D9D9"/>
<rect x="479.8" y="85.0969" width="5.35515" height="2.54861" fill="#D9D9D9"/>
<rect x="460.611" y="80" width="2.38007" height="2.54861" fill="#463886"/>
<rect x="447.52" y="87.6458" width="2.38007" height="2.54861" fill="#463886"/>
<rect x="487.535" y="128.424" width="2.38007" height="2.54861" fill="#463886"/>
<rect x="485.155" y="130.972" width="2.38007" height="2.54861" fill="#463886"/>
<rect x="479.8" y="133.521" width="4.76013" height="2.54861" fill="#463886"/>
<rect x="475.04" y="136.07" width="4.76013" height="2.54861" fill="#463886"/>
<rect x="470.28" y="138.618" width="4.76013" height="2.54861" fill="#463886"/>
<rect x="489.915" y="95.2917" width="2.38007" height="2.54861" fill="#463886"/>
<rect x="492.295" y="100.389" width="2.38007" height="2.54861" fill="#463886"/>
<rect x="492.295" y="118.229" width="2.38007" height="5.09723" fill="#463886"/>
<rect x="489.915" y="123.326" width="2.38007" height="5.09723" fill="#463886"/>
<rect x="494.675" y="108.034" width="2.38007" height="10.1945" fill="#463886"/>
<rect x="445.14" y="90.1946" width="2.38007" height="2.54861" fill="#463886"/>
<rect x="445.14" y="128.424" width="2.38007" height="2.54861" fill="#463886"/>
<rect x="452.28" y="133.521" width="2.38007" height="2.54861" fill="#463886"/>
<rect x="457.041" y="136.07" width="2.38007" height="2.54861" fill="#463886"/>
<rect x="442.76" y="92.7429" width="2.38007" height="5.09723" fill="#463886"/>
<rect x="440.38" y="97.8406" width="2.38007" height="5.09723" fill="#463886"/>
<rect x="438" y="102.938" width="2.38007" height="5.09723" fill="#463886"/>
<rect x="455.255" y="82.5488" width="5.35515" height="2.54861" fill="#463886"/>
<rect x="449.9" y="85.0969" width="5.35515" height="2.54861" fill="#463886"/>
<rect x="472.065" y="80" width="2.38007" height="2.54861" fill="#463886"/>
<rect x="462.991" y="80" width="9.074" height="2.54861" fill="#D9D9D9"/>
<rect x="461.801" y="138.618" width="8.47899" height="2.54861" fill="#D9D9D9"/>
<rect x="489.915" y="92.7429" width="2.38007" height="2.54861" fill="#D9D9D9"/>
<rect x="492.295" y="97.8406" width="2.38007" height="2.54861" fill="#D9D9D9"/>
<rect x="494.675" y="102.938" width="2.38007" height="5.09723" fill="#D9D9D9"/>
<rect x="453.47" y="128.424" width="2.38007" height="2.54861" fill="#D9D9D9"/>
<rect x="455.85" y="128.424" width="2.38007" height="2.54861" fill="#9ACDE2"/>
<rect x="477.122" y="128.424" width="2.38007" height="2.54861" fill="#9ACDE2"/>
<rect x="447.52" y="130.972" width="2.38007" height="2.54861" fill="#D9D9D9"/>
<rect x="449.9" y="133.521" width="2.38007" height="2.54861" fill="#D9D9D9"/>
<rect x="454.66" y="136.07" width="2.38007" height="2.54861" fill="#D9D9D9"/>
<rect x="572.969" y="6.39575" width="2.01735" height="2.13195" fill="#D9D9D9"/>
<rect x="562.378" y="6.39575" width="2.01735" height="2.13195" fill="#D9D9D9"/>
<rect x="560.36" y="8.52783" width="4.03469" height="4.2639" fill="#9ACDE2"/>
<rect x="553.93" y="6.39575" width="8.44764" height="2.13195" fill="#9ACDE2"/>
<rect x="574.986" y="8.52783" width="2.01735" height="2.13195" fill="#D9D9D9"/>
<rect x="542.078" y="34.1113" width="2.01735" height="2.13195" fill="#9ACDE2"/>
<rect x="542.078" y="36.2429" width="2.01735" height="2.13195" fill="#D9D9D9"/>
<rect x="566.16" y="17.0554" width="2.01735" height="2.13195" fill="#9A1D49"/>
<rect x="564.143" y="14.9238" width="2.01735" height="2.13195" fill="#9A1D49"/>
<rect x="564.143" y="10.6597" width="2.01735" height="4.2639" fill="#9ACDE2"/>
<rect x="564.395" y="8.52783" width="5.79987" height="2.13195" fill="#D9D9D9"/>
<rect x="544.095" y="36.2429" width="2.01735" height="2.13195" fill="#9ACDE2"/>
<rect x="544.095" y="38.375" width="2.01735" height="2.13195" fill="#9ACDE2"/>
<rect x="546.113" y="38.375" width="2.01735" height="2.13195" fill="#D9D9D9"/>
<rect x="570.195" y="36.2429" width="2.01735" height="2.13195" fill="#9ACDE2"/>
<rect x="574.23" y="23.4512" width="2.01735" height="4.2639" fill="#9ACDE2"/>
<rect x="574.23" y="19.1875" width="2.01735" height="4.2639" fill="#D9D9D9"/>
<rect x="570.195" y="10.6597" width="2.01735" height="4.2639" fill="#D9D9D9"/>
<rect x="568.177" y="10.6597" width="2.01735" height="8.52779" fill="#9ACDE2"/>
<rect x="566.16" y="10.6597" width="2.01735" height="6.39584" fill="#9ACDE2"/>
<rect x="570.195" y="14.9238" width="2.01735" height="10.6597" fill="#9ACDE2"/>
<rect x="572.212" y="12.7917" width="2.01735" height="8.2613" fill="#D9D9D9"/>
<rect x="572.212" y="21.0527" width="2.01735" height="8.79428" fill="#9ACDE2"/>
<rect x="568.177" y="38.375" width="4.03469" height="2.13195" fill="#9ACDE2"/>
<rect x="556.326" y="8.52783" width="4.03469" height="2.13195" fill="#D75583"/>
<rect x="544.095" y="34.1113" width="2.01735" height="2.13195" fill="#D75583"/>
<rect x="542.078" y="14.9238" width="2.01735" height="2.13195" fill="#D75583"/>
<rect x="560.36" y="12.7917" width="4.03469" height="2.13195" fill="#D75583"/>
<rect x="546.113" y="36.2429" width="2.01735" height="2.13195" fill="#D75583"/>
<rect x="548.13" y="38.375" width="2.01735" height="2.13195" fill="#D75583"/>
<rect x="572.212" y="29.8472" width="2.01735" height="4.2639" fill="#D75583"/>
<rect x="570.195" y="25.5835" width="2.01735" height="4.2639" fill="#D75583"/>
<rect x="568.177" y="19.1875" width="2.01735" height="4.2639" fill="#D75583"/>
<rect x="568.177" y="40.5071" width="2.01735" height="2.13195" fill="#D75583"/>
<rect x="550.147" y="40.5071" width="4.03469" height="2.13195" fill="#D75583"/>
<rect x="542.078" y="29.8472" width="2.01735" height="4.2639" fill="#D75583"/>
<rect x="551.156" y="46.9031" width="2.01735" height="2.13195" fill="#D75583"/>
<rect x="535.017" y="31.9792" width="2.01735" height="4.2639" fill="#D9D9D9"/>
<rect x="537.035" y="36.2429" width="2.01735" height="4.2639" fill="#D9D9D9"/>
<rect x="533" y="23.4512" width="2.01735" height="8.52779" fill="#D9D9D9"/>
<rect x="533" y="23.4512" width="2.01735" height="8.52779" fill="#D9D9D9"/>
<rect x="563.891" y="2.13208" width="4.53903" height="2.13195" fill="#D9D9D9"/>
<rect x="568.43" y="4.26367" width="4.53903" height="2.13195" fill="#D9D9D9"/>
<rect x="552.165" width="2.01735" height="2.13195" fill="#463886"/>
<rect x="541.069" y="6.39575" width="2.01735" height="2.13195" fill="#463886"/>
<rect x="574.986" y="40.5071" width="2.01735" height="2.13195" fill="#463886"/>
<rect x="572.969" y="42.6389" width="2.01735" height="2.13195" fill="#463886"/>
<rect x="568.43" y="44.771" width="4.03469" height="2.13195" fill="#463886"/>
<rect x="564.395" y="46.9031" width="4.03469" height="2.13195" fill="#463886"/>
<rect x="560.36" y="49.0347" width="4.03469" height="2.13195" fill="#463886"/>
<rect x="577.003" y="12.7917" width="2.01735" height="2.13195" fill="#463886"/>
<rect x="579.021" y="17.0554" width="2.01735" height="2.13195" fill="#463886"/>
<rect x="579.021" y="31.9792" width="2.01735" height="4.2639" fill="#463886"/>
<rect x="577.003" y="36.2429" width="2.01735" height="4.2639" fill="#463886"/>
<rect x="581.038" y="23.4512" width="2.01735" height="8.52779" fill="#463886"/>
<rect x="539.052" y="8.52783" width="2.01735" height="2.13195" fill="#463886"/>
<rect x="539.052" y="40.5071" width="2.01735" height="2.13195" fill="#463886"/>
<rect x="545.104" y="44.771" width="2.01735" height="2.13195" fill="#463886"/>
<rect x="549.139" y="46.9031" width="2.01735" height="2.13195" fill="#463886"/>
<rect x="537.035" y="10.6597" width="2.01735" height="4.2639" fill="#463886"/>
<rect x="535.017" y="14.9238" width="2.01735" height="4.2639" fill="#463886"/>
<rect x="533" y="19.1875" width="2.01735" height="4.2639" fill="#463886"/>
<rect x="547.626" y="2.13208" width="4.53903" height="2.13195" fill="#463886"/>
<rect x="543.087" y="4.26367" width="4.53903" height="2.13195" fill="#463886"/>
<rect x="561.873" width="2.01735" height="2.13195" fill="#463886"/>
<rect x="554.182" width="7.69113" height="2.13195" fill="#D9D9D9"/>
<rect x="553.173" y="49.0347" width="7.1868" height="2.13195" fill="#D9D9D9"/>
<rect x="577.003" y="10.6597" width="2.01735" height="2.13195" fill="#D9D9D9"/>
<rect x="579.021" y="14.9238" width="2.01735" height="2.13195" fill="#D9D9D9"/>
<rect x="581.038" y="19.1875" width="2.01735" height="4.2639" fill="#D9D9D9"/>
<rect x="546.113" y="40.5071" width="2.01735" height="2.13195" fill="#D9D9D9"/>
<rect x="548.13" y="40.5071" width="2.01735" height="2.13195" fill="#9ACDE2"/>
<rect x="566.16" y="40.5071" width="2.01735" height="2.13195" fill="#9ACDE2"/>
<rect x="541.069" y="42.6389" width="2.01735" height="2.13195" fill="#D9D9D9"/>
<rect x="543.087" y="44.771" width="2.01735" height="2.13195" fill="#D9D9D9"/>
<rect x="547.121" y="46.9031" width="2.01735" height="2.13195" fill="#D9D9D9"/>
<rect x="544.054" y="69.375" width="0.810295" height="0.791667" fill="#D9D9D9"/>
<rect x="539.8" y="69.375" width="0.810295" height="0.791667" fill="#D9D9D9"/>
<rect x="538.99" y="70.1667" width="1.62059" height="1.58333" fill="#9ACDE2"/>
<rect x="536.407" y="69.375" width="3.39311" height="0.791667" fill="#9ACDE2"/>
<rect x="544.864" y="70.1667" width="0.810295" height="0.791667" fill="#D9D9D9"/>
<rect x="531.646" y="79.6667" width="0.810295" height="0.791667" fill="#9ACDE2"/>
<rect x="531.646" y="80.4583" width="0.810295" height="0.791667" fill="#D9D9D9"/>
<rect x="541.319" y="73.3333" width="0.810295" height="0.791667" fill="#9A1D49"/>
<rect x="540.509" y="72.5417" width="0.810295" height="0.791667" fill="#9A1D49"/>
<rect x="540.509" y="70.9583" width="0.810295" height="1.58333" fill="#9ACDE2"/>
<rect x="540.61" y="70.1667" width="2.3296" height="0.791667" fill="#D9D9D9"/>
<rect x="532.457" y="80.4583" width="0.810295" height="0.791667" fill="#9ACDE2"/>
<rect x="532.457" y="81.25" width="0.810295" height="0.791667" fill="#9ACDE2"/>
<rect x="533.267" y="81.25" width="0.810295" height="0.791667" fill="#D9D9D9"/>
<rect x="542.94" y="80.4583" width="0.810295" height="0.791667" fill="#9ACDE2"/>
<rect x="544.56" y="75.7085" width="0.810295" height="1.58333" fill="#9ACDE2"/>
<rect x="544.56" y="74.125" width="0.810295" height="1.58333" fill="#D9D9D9"/>
<rect x="542.94" y="70.9583" width="0.810295" height="1.58333" fill="#D9D9D9"/>
<rect x="542.13" y="70.9583" width="0.810295" height="3.16667" fill="#9ACDE2"/>
<rect x="541.319" y="70.9583" width="0.810295" height="2.375" fill="#9ACDE2"/>
<rect x="542.94" y="72.5417" width="0.810295" height="3.95833" fill="#9ACDE2"/>
<rect x="543.75" y="71.75" width="0.810295" height="3.06771" fill="#D9D9D9"/>
<rect x="543.75" y="74.8179" width="0.810295" height="3.26562" fill="#9ACDE2"/>
<rect x="542.13" y="81.25" width="1.62059" height="0.791667" fill="#9ACDE2"/>
<rect x="537.369" y="70.1667" width="1.62059" height="0.791667" fill="#D75583"/>
<rect x="532.457" y="79.6667" width="0.810295" height="0.791667" fill="#D75583"/>
<rect x="531.646" y="72.5417" width="0.810295" height="0.791667" fill="#D75583"/>
<rect x="538.99" y="71.75" width="1.62059" height="0.791667" fill="#D75583"/>
<rect x="533.267" y="80.4583" width="0.810295" height="0.791667" fill="#D75583"/>
<rect x="534.077" y="81.25" width="0.810295" height="0.791667" fill="#D75583"/>
<rect x="543.75" y="78.0833" width="0.810295" height="1.58333" fill="#D75583"/>
<rect x="542.94" y="76.5" width="0.810295" height="1.58333" fill="#D75583"/>
<rect x="542.13" y="74.125" width="0.810295" height="1.58333" fill="#D75583"/>
<rect x="542.13" y="82.0417" width="0.810295" height="0.791667" fill="#D75583"/>
<rect x="534.888" y="82.0417" width="1.62059" height="0.791667" fill="#D75583"/>
<rect x="531.646" y="78.0833" width="0.810295" height="1.58333" fill="#D75583"/>
<rect x="535.293" y="84.4167" width="0.810295" height="0.791667" fill="#D75583"/>
<rect x="528.81" y="78.875" width="0.810295" height="1.58333" fill="#D9D9D9"/>
<rect x="529.621" y="80.4583" width="0.810295" height="1.58333" fill="#D9D9D9"/>
<rect x="528" y="75.7085" width="0.810295" height="3.16667" fill="#D9D9D9"/>
<rect x="528" y="75.7085" width="0.810295" height="3.16667" fill="#D9D9D9"/>
<rect x="540.408" y="67.7917" width="1.82316" height="0.791667" fill="#D9D9D9"/>
<rect x="542.231" y="68.5833" width="1.82316" height="0.791667" fill="#D9D9D9"/>
<rect x="535.698" y="67" width="0.810295" height="0.791667" fill="#463886"/>
<rect x="531.241" y="69.375" width="0.810295" height="0.791667" fill="#463886"/>
<rect x="544.864" y="82.0417" width="0.810295" height="0.791667" fill="#463886"/>
<rect x="544.054" y="82.8333" width="0.810295" height="0.791667" fill="#463886"/>
<rect x="542.231" y="83.625" width="1.62059" height="0.791667" fill="#463886"/>
<rect x="540.61" y="84.4167" width="1.62059" height="0.791667" fill="#463886"/>
<rect x="538.99" y="85.2083" width="1.62059" height="0.791667" fill="#463886"/>
<rect x="545.675" y="71.75" width="0.810295" height="0.791667" fill="#463886"/>
<rect x="546.485" y="73.3333" width="0.810295" height="0.791667" fill="#463886"/>
<rect x="546.485" y="78.875" width="0.810295" height="1.58333" fill="#463886"/>
<rect x="545.675" y="80.4583" width="0.810295" height="1.58333" fill="#463886"/>
<rect x="547.295" y="75.7085" width="0.810295" height="3.16667" fill="#463886"/>
<rect x="530.431" y="70.1667" width="0.810295" height="0.791667" fill="#463886"/>
<rect x="530.431" y="82.0417" width="0.810295" height="0.791667" fill="#463886"/>
<rect x="532.862" y="83.625" width="0.810295" height="0.791667" fill="#463886"/>
<rect x="534.482" y="84.4167" width="0.810295" height="0.791667" fill="#463886"/>
<rect x="529.621" y="70.9583" width="0.810295" height="1.58333" fill="#463886"/>
<rect x="528.81" y="72.5417" width="0.810295" height="1.58333" fill="#463886"/>
<rect x="528" y="74.125" width="0.810295" height="1.58333" fill="#463886"/>
<rect x="533.875" y="67.7917" width="1.82316" height="0.791667" fill="#463886"/>
<rect x="532.051" y="68.5833" width="1.82316" height="0.791667" fill="#463886"/>
<rect x="539.597" y="67" width="0.810295" height="0.791667" fill="#463886"/>
<rect x="536.508" y="67" width="3.08925" height="0.791667" fill="#D9D9D9"/>
<rect x="536.103" y="85.2083" width="2.88668" height="0.791667" fill="#D9D9D9"/>
<rect x="545.675" y="70.9583" width="0.810295" height="0.791667" fill="#D9D9D9"/>
<rect x="546.485" y="72.5417" width="0.810295" height="0.791667" fill="#D9D9D9"/>
<rect x="547.295" y="74.125" width="0.810295" height="1.58333" fill="#D9D9D9"/>
<rect x="533.267" y="82.0417" width="0.810295" height="0.791667" fill="#D9D9D9"/>
<rect x="534.077" y="82.0417" width="0.810295" height="0.791667" fill="#9ACDE2"/>
<rect x="541.319" y="82.0417" width="0.810295" height="0.791667" fill="#9ACDE2"/>
<rect x="531.241" y="82.8333" width="0.810295" height="0.791667" fill="#D9D9D9"/>
<rect x="532.051" y="83.625" width="0.810295" height="0.791667" fill="#D9D9D9"/>
<rect x="533.672" y="84.4167" width="0.810295" height="0.791667" fill="#D9D9D9"/>
<rect x="607.651" y="261.646" width="0.8909" height="0.881948" fill="#D9D9D9"/>
<rect x="602.974" y="261.646" width="0.8909" height="0.881948" fill="#D9D9D9"/>
<rect x="602.083" y="262.528" width="1.7818" height="1.7639" fill="#9ACDE2"/>
<rect x="599.243" y="261.646" width="3.73064" height="0.881948" fill="#9ACDE2"/>
<rect x="608.542" y="262.528" width="0.8909" height="0.881948" fill="#D9D9D9"/>
<rect x="594.009" y="273.111" width="0.8909" height="0.881948" fill="#9ACDE2"/>
<rect x="594.009" y="273.993" width="0.8909" height="0.881948" fill="#D9D9D9"/>
<rect x="604.644" y="266.055" width="0.8909" height="0.881948" fill="#9A1D49"/>
<rect x="603.753" y="265.174" width="0.8909" height="0.881948" fill="#9A1D49"/>
<rect x="603.753" y="263.41" width="0.8909" height="1.7639" fill="#9ACDE2"/>
<rect x="603.865" y="262.528" width="2.56134" height="0.881948" fill="#D9D9D9"/>
<rect x="594.9" y="273.993" width="0.8909" height="0.881948" fill="#9ACDE2"/>
<rect x="594.9" y="274.875" width="0.8909" height="0.881948" fill="#9ACDE2"/>
<rect x="595.791" y="274.875" width="0.8909" height="0.881948" fill="#D9D9D9"/>
<rect x="606.426" y="273.993" width="0.8909" height="0.881948" fill="#9ACDE2"/>
<rect x="608.208" y="268.701" width="0.8909" height="1.7639" fill="#9ACDE2"/>
<rect x="608.208" y="266.938" width="0.8909" height="1.7639" fill="#D9D9D9"/>
<rect x="606.426" y="263.41" width="0.8909" height="1.7639" fill="#D9D9D9"/>
<rect x="605.535" y="263.41" width="0.8909" height="3.52779" fill="#9ACDE2"/>
<rect x="604.644" y="263.41" width="0.8909" height="2.64584" fill="#9ACDE2"/>
<rect x="606.426" y="265.174" width="0.8909" height="4.40974" fill="#9ACDE2"/>
<rect x="607.317" y="264.292" width="0.8909" height="3.41755" fill="#D9D9D9"/>
<rect x="607.317" y="267.709" width="0.8909" height="3.63803" fill="#9ACDE2"/>
<rect x="605.535" y="274.875" width="1.7818" height="0.881948" fill="#9ACDE2"/>
<rect x="600.301" y="262.528" width="1.7818" height="0.881948" fill="#D75583"/>
<rect x="594.9" y="273.111" width="0.8909" height="0.881948" fill="#D75583"/>
<rect x="594.009" y="265.174" width="0.8909" height="0.881948" fill="#D75583"/>
<rect x="602.083" y="264.292" width="1.7818" height="0.881948" fill="#D75583"/>
<rect x="595.791" y="273.993" width="0.8909" height="0.881948" fill="#D75583"/>
<rect x="596.682" y="274.875" width="0.8909" height="0.881948" fill="#D75583"/>
<rect x="607.317" y="271.347" width="0.8909" height="1.7639" fill="#D75583"/>
<rect x="606.426" y="269.583" width="0.8909" height="1.7639" fill="#D75583"/>
<rect x="605.535" y="266.938" width="0.8909" height="1.7639" fill="#D75583"/>
<rect x="605.535" y="275.757" width="0.8909" height="0.881948" fill="#D75583"/>
<rect x="597.573" y="275.757" width="1.7818" height="0.881948" fill="#D75583"/>
<rect x="594.009" y="271.347" width="0.8909" height="1.7639" fill="#D75583"/>
<rect x="598.018" y="278.403" width="0.8909" height="0.881948" fill="#D75583"/>
<rect x="590.891" y="272.229" width="0.8909" height="1.7639" fill="#D9D9D9"/>
<rect x="591.782" y="273.993" width="0.8909" height="1.7639" fill="#D9D9D9"/>
<rect x="590" y="268.701" width="0.8909" height="3.52779" fill="#D9D9D9"/>
<rect x="590" y="268.701" width="0.8909" height="3.52779" fill="#D9D9D9"/>
<rect x="603.642" y="259.882" width="2.00452" height="0.881948" fill="#D9D9D9"/>
<rect x="605.646" y="260.764" width="2.00452" height="0.881948" fill="#D9D9D9"/>
<rect x="598.464" y="259" width="0.8909" height="0.881948" fill="#463886"/>
<rect x="593.564" y="261.646" width="0.8909" height="0.881948" fill="#463886"/>
<rect x="608.542" y="275.757" width="0.8909" height="0.881948" fill="#463886"/>
<rect x="607.651" y="276.639" width="0.8909" height="0.881948" fill="#463886"/>
<rect x="605.646" y="277.521" width="1.7818" height="0.881948" fill="#463886"/>
<rect x="603.865" y="278.403" width="1.7818" height="0.881948" fill="#463886"/>
<rect x="602.083" y="279.285" width="1.7818" height="0.881948" fill="#463886"/>
<rect x="609.433" y="264.292" width="0.8909" height="0.881948" fill="#463886"/>
<rect x="610.324" y="266.055" width="0.8909" height="0.881948" fill="#463886"/>
<rect x="610.324" y="272.229" width="0.8909" height="1.7639" fill="#463886"/>
<rect x="609.433" y="273.993" width="0.8909" height="1.7639" fill="#463886"/>
<rect x="611.215" y="268.701" width="0.8909" height="3.52779" fill="#463886"/>
<rect x="592.673" y="262.528" width="0.8909" height="0.881948" fill="#463886"/>
<rect x="592.673" y="275.757" width="0.8909" height="0.881948" fill="#463886"/>
<rect x="595.345" y="277.521" width="0.8909" height="0.881948" fill="#463886"/>
<rect x="597.127" y="278.403" width="0.8909" height="0.881948" fill="#463886"/>
<rect x="591.782" y="263.41" width="0.8909" height="1.7639" fill="#463886"/>
<rect x="590.891" y="265.174" width="0.8909" height="1.7639" fill="#463886"/>
<rect x="590" y="266.938" width="0.8909" height="1.7639" fill="#463886"/>
<rect x="596.459" y="259.882" width="2.00452" height="0.881948" fill="#463886"/>
<rect x="594.454" y="260.764" width="2.00452" height="0.881948" fill="#463886"/>
<rect x="602.751" y="259" width="0.8909" height="0.881948" fill="#463886"/>
<rect x="599.354" y="259" width="3.39656" height="0.881948" fill="#D9D9D9"/>
<rect x="598.909" y="279.285" width="3.17383" height="0.881948" fill="#D9D9D9"/>
<rect x="609.433" y="263.41" width="0.8909" height="0.881948" fill="#D9D9D9"/>
<rect x="610.324" y="265.174" width="0.8909" height="0.881948" fill="#D9D9D9"/>
<rect x="611.215" y="266.938" width="0.8909" height="1.7639" fill="#D9D9D9"/>
<rect x="595.791" y="275.757" width="0.8909" height="0.881948" fill="#D9D9D9"/>
<rect x="596.682" y="275.757" width="0.8909" height="0.881948" fill="#9ACDE2"/>
<rect x="604.644" y="275.757" width="0.8909" height="0.881948" fill="#9ACDE2"/>
<rect x="593.564" y="276.639" width="0.8909" height="0.881948" fill="#D9D9D9"/>
<rect x="594.454" y="277.521" width="0.8909" height="0.881948" fill="#D9D9D9"/>
<rect x="596.236" y="278.403" width="0.8909" height="0.881948" fill="#D9D9D9"/>
<rect x="579.35" y="230.021" width="1.32997" height="1.34028" fill="#D9D9D9"/>
<rect x="572.368" y="230.021" width="1.32997" height="1.34028" fill="#D9D9D9"/>
<rect x="571.038" y="231.361" width="2.65995" height="2.68056" fill="#9ACDE2"/>
<rect x="566.798" y="230.021" width="5.56927" height="1.34028" fill="#9ACDE2"/>
<rect x="580.68" y="231.361" width="1.32997" height="1.34028" fill="#D9D9D9"/>
<rect x="558.985" y="247.445" width="1.32997" height="1.34028" fill="#9ACDE2"/>
<rect x="558.985" y="248.785" width="1.32997" height="1.34028" fill="#D9D9D9"/>
<rect x="574.861" y="236.722" width="1.32997" height="1.34028" fill="#9A1D49"/>
<rect x="573.531" y="235.382" width="1.32997" height="1.34028" fill="#9A1D49"/>
<rect x="573.531" y="232.701" width="1.32997" height="2.68056" fill="#9ACDE2"/>
<rect x="573.698" y="231.361" width="3.82368" height="1.34028" fill="#D9D9D9"/>
<rect x="560.315" y="248.785" width="1.32997" height="1.34028" fill="#9ACDE2"/>
<rect x="560.315" y="250.125" width="1.32997" height="1.34028" fill="#9ACDE2"/>
<rect x="561.645" y="250.125" width="1.32997" height="1.34028" fill="#D9D9D9"/>
<rect x="577.521" y="248.785" width="1.32997" height="1.34028" fill="#9ACDE2"/>
<rect x="580.181" y="240.743" width="1.32997" height="2.68056" fill="#9ACDE2"/>
<rect x="580.181" y="238.062" width="1.32997" height="2.68056" fill="#D9D9D9"/>
<rect x="577.521" y="232.701" width="1.32997" height="2.68056" fill="#D9D9D9"/>
<rect x="576.191" y="232.701" width="1.32997" height="5.36112" fill="#9ACDE2"/>
<rect x="574.861" y="232.701" width="1.32997" height="4.02084" fill="#9ACDE2"/>
<rect x="577.521" y="235.382" width="1.32997" height="6.70141" fill="#9ACDE2"/>
<rect x="578.851" y="234.042" width="1.32997" height="5.19359" fill="#D9D9D9"/>
<rect x="578.851" y="239.235" width="1.32997" height="5.52866" fill="#9ACDE2"/>
<rect x="576.191" y="250.125" width="2.65995" height="1.34028" fill="#9ACDE2"/>
<rect x="568.378" y="231.361" width="2.65995" height="1.34028" fill="#D75583"/>
<rect x="560.315" y="247.445" width="1.32997" height="1.34028" fill="#D75583"/>
<rect x="558.985" y="235.382" width="1.32997" height="1.34028" fill="#D75583"/>
<rect x="571.038" y="234.042" width="2.65995" height="1.34028" fill="#D75583"/>
<rect x="561.645" y="248.785" width="1.32997" height="1.34028" fill="#D75583"/>
<rect x="562.975" y="250.125" width="1.32997" height="1.34028" fill="#D75583"/>
<rect x="578.851" y="244.764" width="1.32997" height="2.68056" fill="#D75583"/>
<rect x="577.521" y="242.083" width="1.32997" height="2.68056" fill="#D75583"/>
<rect x="576.191" y="238.062" width="1.32997" height="2.68056" fill="#D75583"/>
<rect x="576.191" y="251.465" width="1.32997" height="1.34028" fill="#D75583"/>
<rect x="564.305" y="251.465" width="2.65995" height="1.34028" fill="#D75583"/>
<rect x="558.985" y="244.764" width="1.32997" height="2.68056" fill="#D75583"/>
<rect x="564.97" y="255.486" width="1.32997" height="1.34028" fill="#D75583"/>
<rect x="554.33" y="246.104" width="1.32997" height="2.68056" fill="#D9D9D9"/>
<rect x="555.66" y="248.785" width="1.32997" height="2.68056" fill="#D9D9D9"/>
<rect x="553" y="240.743" width="1.32997" height="5.36112" fill="#D9D9D9"/>
<rect x="553" y="240.743" width="1.32997" height="5.36112" fill="#D9D9D9"/>
<rect x="573.365" y="227.34" width="2.99244" height="1.34028" fill="#D9D9D9"/>
<rect x="576.358" y="228.68" width="2.99244" height="1.34028" fill="#D9D9D9"/>
<rect x="565.635" y="226" width="1.32997" height="1.34028" fill="#463886"/>
<rect x="558.32" y="230.021" width="1.32997" height="1.34028" fill="#463886"/>
<rect x="580.68" y="251.465" width="1.32997" height="1.34028" fill="#463886"/>
<rect x="579.35" y="252.806" width="1.32997" height="1.34028" fill="#463886"/>
<rect x="576.358" y="254.146" width="2.65995" height="1.34028" fill="#463886"/>
<rect x="573.698" y="255.486" width="2.65995" height="1.34028" fill="#463886"/>
<rect x="571.038" y="256.826" width="2.65995" height="1.34028" fill="#463886"/>
<rect x="582.01" y="234.042" width="1.32997" height="1.34028" fill="#463886"/>
<rect x="583.34" y="236.722" width="1.32997" height="1.34028" fill="#463886"/>
<rect x="583.34" y="246.104" width="1.32997" height="2.68056" fill="#463886"/>
<rect x="582.01" y="248.785" width="1.32997" height="2.68056" fill="#463886"/>
<rect x="584.67" y="240.743" width="1.32997" height="5.36112" fill="#463886"/>
<rect x="556.99" y="231.361" width="1.32997" height="1.34028" fill="#463886"/>
<rect x="556.99" y="251.465" width="1.32997" height="1.34028" fill="#463886"/>
<rect x="560.98" y="254.146" width="1.32997" height="1.34028" fill="#463886"/>
<rect x="563.64" y="255.486" width="1.32997" height="1.34028" fill="#463886"/>
<rect x="555.66" y="232.701" width="1.32997" height="2.68056" fill="#463886"/>
<rect x="554.33" y="235.382" width="1.32997" height="2.68056" fill="#463886"/>
<rect x="553" y="238.062" width="1.32997" height="2.68056" fill="#463886"/>
<rect x="562.642" y="227.34" width="2.99244" height="1.34028" fill="#463886"/>
<rect x="559.65" y="228.68" width="2.99244" height="1.34028" fill="#463886"/>
<rect x="572.035" y="226" width="1.32997" height="1.34028" fill="#463886"/>
<rect x="566.965" y="226" width="5.07053" height="1.34028" fill="#D9D9D9"/>
<rect x="566.3" y="256.826" width="4.73803" height="1.34028" fill="#D9D9D9"/>
<rect x="582.01" y="232.701" width="1.32997" height="1.34028" fill="#D9D9D9"/>
<rect x="583.34" y="235.382" width="1.32997" height="1.34028" fill="#D9D9D9"/>
<rect x="584.67" y="238.062" width="1.32997" height="2.68056" fill="#D9D9D9"/>
<rect x="561.645" y="251.465" width="1.32997" height="1.34028" fill="#D9D9D9"/>
<rect x="562.975" y="251.465" width="1.32997" height="1.34028" fill="#9ACDE2"/>
<rect x="574.861" y="251.465" width="1.32997" height="1.34028" fill="#9ACDE2"/>
<rect x="558.32" y="252.806" width="1.32997" height="1.34028" fill="#D9D9D9"/>
<rect x="559.65" y="254.146" width="1.32997" height="1.34028" fill="#D9D9D9"/>
<rect x="562.31" y="255.486" width="1.32997" height="1.34028" fill="#D9D9D9"/>
<rect x="611.643" y="192.396" width="1.09241" height="1.13195" fill="#D9D9D9"/>
<rect x="605.908" y="192.396" width="1.09241" height="1.13195" fill="#D9D9D9"/>
<rect x="604.816" y="193.528" width="2.18482" height="2.2639" fill="#9ACDE2"/>
<rect x="601.334" y="192.396" width="4.57447" height="1.13195" fill="#9ACDE2"/>
<rect x="612.736" y="193.528" width="1.09241" height="1.13195" fill="#D9D9D9"/>
<rect x="594.916" y="207.111" width="1.09241" height="1.13195" fill="#9ACDE2"/>
<rect x="594.916" y="208.243" width="1.09241" height="1.13195" fill="#D9D9D9"/>
<rect x="607.957" y="198.055" width="1.09241" height="1.13195" fill="#9A1D49"/>
<rect x="606.864" y="196.924" width="1.09241" height="1.13195" fill="#9A1D49"/>
<rect x="606.864" y="194.66" width="1.09241" height="2.2639" fill="#9ACDE2"/>
<rect x="607.001" y="193.528" width="3.14068" height="1.13195" fill="#D9D9D9"/>
<rect x="596.008" y="208.243" width="1.09241" height="1.13195" fill="#9ACDE2"/>
<rect x="596.008" y="209.375" width="1.09241" height="1.13195" fill="#9ACDE2"/>
<rect x="597.101" y="209.375" width="1.09241" height="1.13195" fill="#D9D9D9"/>
<rect x="610.141" y="208.243" width="1.09241" height="1.13195" fill="#9ACDE2"/>
<rect x="612.326" y="201.451" width="1.09241" height="2.2639" fill="#9ACDE2"/>
<rect x="612.326" y="199.188" width="1.09241" height="2.2639" fill="#D9D9D9"/>
<rect x="610.141" y="194.66" width="1.09241" height="2.2639" fill="#D9D9D9"/>
<rect x="609.049" y="194.66" width="1.09241" height="4.52779" fill="#9ACDE2"/>
<rect x="607.957" y="194.66" width="1.09241" height="3.39584" fill="#9ACDE2"/>
<rect x="610.141" y="196.924" width="1.09241" height="5.65974" fill="#9ACDE2"/>
<rect x="611.234" y="195.792" width="1.09241" height="4.3863" fill="#D9D9D9"/>
<rect x="611.234" y="200.178" width="1.09241" height="4.66928" fill="#9ACDE2"/>
<rect x="609.049" y="209.375" width="2.18482" height="1.13195" fill="#9ACDE2"/>
<rect x="602.631" y="193.528" width="2.18482" height="1.13195" fill="#D75583"/>
<rect x="596.008" y="207.111" width="1.09241" height="1.13195" fill="#D75583"/>
<rect x="594.916" y="196.924" width="1.09241" height="1.13195" fill="#D75583"/>
<rect x="604.816" y="195.792" width="2.18482" height="1.13195" fill="#D75583"/>
<rect x="597.101" y="208.243" width="1.09241" height="1.13195" fill="#D75583"/>
<rect x="598.193" y="209.375" width="1.09241" height="1.13195" fill="#D75583"/>
<rect x="611.234" y="204.847" width="1.09241" height="2.2639" fill="#D75583"/>
<rect x="610.141" y="202.583" width="1.09241" height="2.2639" fill="#D75583"/>
<rect x="609.049" y="199.188" width="1.09241" height="2.2639" fill="#D75583"/>
<rect x="609.049" y="210.507" width="1.09241" height="1.13195" fill="#D75583"/>
<rect x="599.285" y="210.507" width="2.18482" height="1.13195" fill="#D75583"/>
<rect x="594.916" y="204.847" width="1.09241" height="2.2639" fill="#D75583"/>
<rect x="599.832" y="213.903" width="1.09241" height="1.13195" fill="#D75583"/>
<rect x="591.092" y="205.979" width="1.09241" height="2.2639" fill="#D9D9D9"/>
<rect x="592.185" y="208.243" width="1.09241" height="2.2639" fill="#D9D9D9"/>
<rect x="590" y="201.451" width="1.09241" height="4.52779" fill="#D9D9D9"/>
<rect x="590" y="201.451" width="1.09241" height="4.52779" fill="#D9D9D9"/>
<rect x="606.728" y="190.132" width="2.45793" height="1.13195" fill="#D9D9D9"/>
<rect x="609.185" y="191.264" width="2.45793" height="1.13195" fill="#D9D9D9"/>
<rect x="600.378" y="189" width="1.09241" height="1.13195" fill="#463886"/>
<rect x="594.37" y="192.396" width="1.09241" height="1.13195" fill="#463886"/>
<rect x="612.736" y="210.507" width="1.09241" height="1.13195" fill="#463886"/>
<rect x="611.643" y="211.639" width="1.09241" height="1.13195" fill="#463886"/>
<rect x="609.185" y="212.771" width="2.18482" height="1.13195" fill="#463886"/>
<rect x="607.001" y="213.903" width="2.18482" height="1.13195" fill="#463886"/>
<rect x="604.816" y="215.035" width="2.18482" height="1.13195" fill="#463886"/>
<rect x="613.828" y="195.792" width="1.09241" height="1.13195" fill="#463886"/>
<rect x="614.921" y="198.055" width="1.09241" height="1.13195" fill="#463886"/>
<rect x="614.921" y="205.979" width="1.09241" height="2.2639" fill="#463886"/>
<rect x="613.828" y="208.243" width="1.09241" height="2.2639" fill="#463886"/>
<rect x="616.013" y="201.451" width="1.09241" height="4.52779" fill="#463886"/>
<rect x="593.277" y="193.528" width="1.09241" height="1.13195" fill="#463886"/>
<rect x="593.277" y="210.507" width="1.09241" height="1.13195" fill="#463886"/>
<rect x="596.554" y="212.771" width="1.09241" height="1.13195" fill="#463886"/>
<rect x="598.739" y="213.903" width="1.09241" height="1.13195" fill="#463886"/>
<rect x="592.185" y="194.66" width="1.09241" height="2.2639" fill="#463886"/>
<rect x="591.092" y="196.924" width="1.09241" height="2.2639" fill="#463886"/>
<rect x="590" y="199.188" width="1.09241" height="2.2639" fill="#463886"/>
<rect x="597.92" y="190.132" width="2.45793" height="1.13195" fill="#463886"/>
<rect x="595.462" y="191.264" width="2.45793" height="1.13195" fill="#463886"/>
<rect x="605.635" y="189" width="1.09241" height="1.13195" fill="#463886"/>
<rect x="601.47" y="189" width="4.16482" height="1.13195" fill="#D9D9D9"/>
<rect x="600.924" y="215.035" width="3.89172" height="1.13195" fill="#D9D9D9"/>
<rect x="613.828" y="194.66" width="1.09241" height="1.13195" fill="#D9D9D9"/>
<rect x="614.921" y="196.924" width="1.09241" height="1.13195" fill="#D9D9D9"/>
<rect x="616.013" y="199.188" width="1.09241" height="2.2639" fill="#D9D9D9"/>
<rect x="597.101" y="210.507" width="1.09241" height="1.13195" fill="#D9D9D9"/>
<rect x="598.193" y="210.507" width="1.09241" height="1.13195" fill="#9ACDE2"/>
<rect x="607.957" y="210.507" width="1.09241" height="1.13195" fill="#9ACDE2"/>
<rect x="594.37" y="211.639" width="1.09241" height="1.13195" fill="#D9D9D9"/>
<rect x="595.462" y="212.771" width="1.09241" height="1.13195" fill="#D9D9D9"/>
<rect x="597.647" y="213.903" width="1.09241" height="1.13195" fill="#D9D9D9"/>
<rect x="527.643" y="124.396" width="1.09241" height="1.13195" fill="#D9D9D9"/>
<rect x="521.908" y="124.396" width="1.09241" height="1.13195" fill="#D9D9D9"/>
<rect x="520.816" y="125.528" width="2.18482" height="2.2639" fill="#9ACDE2"/>
<rect x="517.334" y="124.396" width="4.57447" height="1.13195" fill="#9ACDE2"/>
<rect x="528.736" y="125.528" width="1.09241" height="1.13195" fill="#D9D9D9"/>
<rect x="510.916" y="139.111" width="1.09241" height="1.13195" fill="#9ACDE2"/>
<rect x="510.916" y="140.243" width="1.09241" height="1.13195" fill="#D9D9D9"/>
<rect x="523.957" y="130.055" width="1.09241" height="1.13195" fill="#9A1D49"/>
<rect x="522.864" y="128.924" width="1.09241" height="1.13195" fill="#9A1D49"/>
<rect x="522.864" y="126.66" width="1.09241" height="2.2639" fill="#9ACDE2"/>
<rect x="523.001" y="125.528" width="3.14068" height="1.13195" fill="#D9D9D9"/>
<rect x="512.008" y="140.243" width="1.09241" height="1.13195" fill="#9ACDE2"/>
<rect x="512.008" y="141.375" width="1.09241" height="1.13195" fill="#9ACDE2"/>
<rect x="513.101" y="141.375" width="1.09241" height="1.13195" fill="#D9D9D9"/>
<rect x="526.141" y="140.243" width="1.09241" height="1.13195" fill="#9ACDE2"/>
<rect x="528.326" y="133.451" width="1.09241" height="2.2639" fill="#9ACDE2"/>
<rect x="528.326" y="131.188" width="1.09241" height="2.2639" fill="#D9D9D9"/>
<rect x="526.141" y="126.66" width="1.09241" height="2.2639" fill="#D9D9D9"/>
<rect x="525.049" y="126.66" width="1.09241" height="4.52779" fill="#9ACDE2"/>
<rect x="523.957" y="126.66" width="1.09241" height="3.39584" fill="#9ACDE2"/>
<rect x="526.141" y="128.924" width="1.09241" height="5.65974" fill="#9ACDE2"/>
<rect x="527.234" y="127.792" width="1.09241" height="4.3863" fill="#D9D9D9"/>
<rect x="527.234" y="132.178" width="1.09241" height="4.66928" fill="#9ACDE2"/>
<rect x="525.049" y="141.375" width="2.18482" height="1.13195" fill="#9ACDE2"/>
<rect x="518.631" y="125.528" width="2.18482" height="1.13195" fill="#D75583"/>
<rect x="512.008" y="139.111" width="1.09241" height="1.13195" fill="#D75583"/>
<rect x="510.916" y="128.924" width="1.09241" height="1.13195" fill="#D75583"/>
<rect x="520.816" y="127.792" width="2.18482" height="1.13195" fill="#D75583"/>
<rect x="513.101" y="140.243" width="1.09241" height="1.13195" fill="#D75583"/>
<rect x="514.193" y="141.375" width="1.09241" height="1.13195" fill="#D75583"/>
<rect x="527.234" y="136.847" width="1.09241" height="2.2639" fill="#D75583"/>
<rect x="526.141" y="134.583" width="1.09241" height="2.2639" fill="#D75583"/>
<rect x="525.049" y="131.188" width="1.09241" height="2.2639" fill="#D75583"/>
<rect x="525.049" y="142.507" width="1.09241" height="1.13195" fill="#D75583"/>
<rect x="515.285" y="142.507" width="2.18482" height="1.13195" fill="#D75583"/>
<rect x="510.916" y="136.847" width="1.09241" height="2.2639" fill="#D75583"/>
<rect x="515.832" y="145.903" width="1.09241" height="1.13195" fill="#D75583"/>
<rect x="507.092" y="137.979" width="1.09241" height="2.2639" fill="#D9D9D9"/>
<rect x="508.185" y="140.243" width="1.09241" height="2.2639" fill="#D9D9D9"/>
<rect x="506" y="133.451" width="1.09241" height="4.52779" fill="#D9D9D9"/>
<rect x="506" y="133.451" width="1.09241" height="4.52779" fill="#D9D9D9"/>
<rect x="522.728" y="122.132" width="2.45793" height="1.13195" fill="#D9D9D9"/>
<rect x="525.185" y="123.264" width="2.45793" height="1.13195" fill="#D9D9D9"/>
<rect x="516.378" y="121" width="1.09241" height="1.13195" fill="#463886"/>
<rect x="510.37" y="124.396" width="1.09241" height="1.13195" fill="#463886"/>
<rect x="528.736" y="142.507" width="1.09241" height="1.13195" fill="#463886"/>
<rect x="527.643" y="143.639" width="1.09241" height="1.13195" fill="#463886"/>
<rect x="525.185" y="144.771" width="2.18482" height="1.13195" fill="#463886"/>
<rect x="523.001" y="145.903" width="2.18482" height="1.13195" fill="#463886"/>
<rect x="520.816" y="147.035" width="2.18482" height="1.13195" fill="#463886"/>
<rect x="529.828" y="127.792" width="1.09241" height="1.13195" fill="#463886"/>
<rect x="530.921" y="130.055" width="1.09241" height="1.13195" fill="#463886"/>
<rect x="530.921" y="137.979" width="1.09241" height="2.2639" fill="#463886"/>
<rect x="529.828" y="140.243" width="1.09241" height="2.2639" fill="#463886"/>
<rect x="532.013" y="133.451" width="1.09241" height="4.52779" fill="#463886"/>
<rect x="509.277" y="125.528" width="1.09241" height="1.13195" fill="#463886"/>
<rect x="509.277" y="142.507" width="1.09241" height="1.13195" fill="#463886"/>
<rect x="512.554" y="144.771" width="1.09241" height="1.13195" fill="#463886"/>
<rect x="514.739" y="145.903" width="1.09241" height="1.13195" fill="#463886"/>
<rect x="508.185" y="126.66" width="1.09241" height="2.2639" fill="#463886"/>
<rect x="507.092" y="128.924" width="1.09241" height="2.2639" fill="#463886"/>
<rect x="506" y="131.188" width="1.09241" height="2.2639" fill="#463886"/>
<rect x="513.92" y="122.132" width="2.45793" height="1.13195" fill="#463886"/>
<rect x="511.462" y="123.264" width="2.45793" height="1.13195" fill="#463886"/>
<rect x="521.635" y="121" width="1.09241" height="1.13195" fill="#463886"/>
<rect x="517.47" y="121" width="4.16482" height="1.13195" fill="#D9D9D9"/>
<rect x="516.924" y="147.035" width="3.89172" height="1.13195" fill="#D9D9D9"/>
<rect x="529.828" y="126.66" width="1.09241" height="1.13195" fill="#D9D9D9"/>
<rect x="530.921" y="128.924" width="1.09241" height="1.13195" fill="#D9D9D9"/>
<rect x="532.013" y="131.188" width="1.09241" height="2.2639" fill="#D9D9D9"/>
<rect x="513.101" y="142.507" width="1.09241" height="1.13195" fill="#D9D9D9"/>
<rect x="514.193" y="142.507" width="1.09241" height="1.13195" fill="#9ACDE2"/>
<rect x="523.957" y="142.507" width="1.09241" height="1.13195" fill="#9ACDE2"/>
<rect x="510.37" y="143.639" width="1.09241" height="1.13195" fill="#D9D9D9"/>
<rect x="511.462" y="144.771" width="1.09241" height="1.13195" fill="#D9D9D9"/>
<rect x="513.647" y="145.903" width="1.09241" height="1.13195" fill="#D9D9D9"/>
<rect x="424.643" y="105.396" width="1.09241" height="1.13195" fill="#D9D9D9"/>
<rect x="418.908" y="105.396" width="1.09241" height="1.13195" fill="#D9D9D9"/>
<rect x="417.816" y="106.528" width="2.18482" height="2.2639" fill="#9ACDE2"/>
<rect x="414.334" y="105.396" width="4.57447" height="1.13195" fill="#9ACDE2"/>
<rect x="425.736" y="106.528" width="1.09241" height="1.13195" fill="#D9D9D9"/>
<rect x="407.916" y="120.111" width="1.09241" height="1.13195" fill="#9ACDE2"/>
<rect x="407.916" y="121.243" width="1.09241" height="1.13195" fill="#D9D9D9"/>
<rect x="420.957" y="111.055" width="1.09241" height="1.13195" fill="#9A1D49"/>
<rect x="419.864" y="109.924" width="1.09241" height="1.13195" fill="#9A1D49"/>
<rect x="419.864" y="107.66" width="1.09241" height="2.2639" fill="#9ACDE2"/>
<rect x="420.001" y="106.528" width="3.14068" height="1.13195" fill="#D9D9D9"/>
<rect x="409.008" y="121.243" width="1.09241" height="1.13195" fill="#9ACDE2"/>
<rect x="409.008" y="122.375" width="1.09241" height="1.13195" fill="#9ACDE2"/>
<rect x="410.101" y="122.375" width="1.09241" height="1.13195" fill="#D9D9D9"/>
<rect x="423.141" y="121.243" width="1.09241" height="1.13195" fill="#9ACDE2"/>
<rect x="425.326" y="114.451" width="1.09241" height="2.2639" fill="#9ACDE2"/>
<rect x="425.326" y="112.188" width="1.09241" height="2.2639" fill="#D9D9D9"/>
<rect x="423.141" y="107.66" width="1.09241" height="2.2639" fill="#D9D9D9"/>
<rect x="422.049" y="107.66" width="1.09241" height="4.52779" fill="#9ACDE2"/>
<rect x="420.957" y="107.66" width="1.09241" height="3.39584" fill="#9ACDE2"/>
<rect x="423.141" y="109.924" width="1.09241" height="5.65974" fill="#9ACDE2"/>
<rect x="424.234" y="108.792" width="1.09241" height="4.3863" fill="#D9D9D9"/>
<rect x="424.234" y="113.178" width="1.09241" height="4.66928" fill="#9ACDE2"/>
<rect x="422.049" y="122.375" width="2.18482" height="1.13195" fill="#9ACDE2"/>
<rect x="415.631" y="106.528" width="2.18482" height="1.13195" fill="#D75583"/>
<rect x="409.008" y="120.111" width="1.09241" height="1.13195" fill="#D75583"/>
<rect x="407.916" y="109.924" width="1.09241" height="1.13195" fill="#D75583"/>
<rect x="417.816" y="108.792" width="2.18482" height="1.13195" fill="#D75583"/>
<rect x="410.101" y="121.243" width="1.09241" height="1.13195" fill="#D75583"/>
<rect x="411.193" y="122.375" width="1.09241" height="1.13195" fill="#D75583"/>
<rect x="424.234" y="117.847" width="1.09241" height="2.2639" fill="#D75583"/>
<rect x="423.141" y="115.583" width="1.09241" height="2.2639" fill="#D75583"/>
<rect x="422.049" y="112.188" width="1.09241" height="2.2639" fill="#D75583"/>
<rect x="422.049" y="123.507" width="1.09241" height="1.13195" fill="#D75583"/>
<rect x="412.285" y="123.507" width="2.18482" height="1.13195" fill="#D75583"/>
<rect x="407.916" y="117.847" width="1.09241" height="2.2639" fill="#D75583"/>
<rect x="412.832" y="126.903" width="1.09241" height="1.13195" fill="#D75583"/>
<rect x="404.092" y="118.979" width="1.09241" height="2.2639" fill="#D9D9D9"/>
<rect x="405.185" y="121.243" width="1.09241" height="2.2639" fill="#D9D9D9"/>
<rect x="403" y="114.451" width="1.09241" height="4.52779" fill="#D9D9D9"/>
<rect x="403" y="114.451" width="1.09241" height="4.52779" fill="#D9D9D9"/>
<rect x="419.728" y="103.132" width="2.45793" height="1.13195" fill="#D9D9D9"/>
<rect x="422.185" y="104.264" width="2.45793" height="1.13195" fill="#D9D9D9"/>
<rect x="413.378" y="102" width="1.09241" height="1.13195" fill="#463886"/>
<rect x="407.37" y="105.396" width="1.09241" height="1.13195" fill="#463886"/>
<rect x="425.736" y="123.507" width="1.09241" height="1.13195" fill="#463886"/>
<rect x="424.643" y="124.639" width="1.09241" height="1.13195" fill="#463886"/>
<rect x="422.185" y="125.771" width="2.18482" height="1.13195" fill="#463886"/>
<rect x="420.001" y="126.903" width="2.18482" height="1.13195" fill="#463886"/>
<rect x="417.816" y="128.035" width="2.18482" height="1.13195" fill="#463886"/>
<rect x="426.828" y="108.792" width="1.09241" height="1.13195" fill="#463886"/>
<rect x="427.921" y="111.055" width="1.09241" height="1.13195" fill="#463886"/>
<rect x="427.921" y="118.979" width="1.09241" height="2.2639" fill="#463886"/>
<rect x="426.828" y="121.243" width="1.09241" height="2.2639" fill="#463886"/>
<rect x="429.013" y="114.451" width="1.09241" height="4.52779" fill="#463886"/>
<rect x="406.277" y="106.528" width="1.09241" height="1.13195" fill="#463886"/>
<rect x="406.277" y="123.507" width="1.09241" height="1.13195" fill="#463886"/>
<rect x="409.554" y="125.771" width="1.09241" height="1.13195" fill="#463886"/>
<rect x="411.739" y="126.903" width="1.09241" height="1.13195" fill="#463886"/>
<rect x="405.185" y="107.66" width="1.09241" height="2.2639" fill="#463886"/>
<rect x="404.092" y="109.924" width="1.09241" height="2.2639" fill="#463886"/>
<rect x="403" y="112.188" width="1.09241" height="2.2639" fill="#463886"/>
<rect x="410.92" y="103.132" width="2.45793" height="1.13195" fill="#463886"/>
<rect x="408.462" y="104.264" width="2.45793" height="1.13195" fill="#463886"/>
<rect x="418.635" y="102" width="1.09241" height="1.13195" fill="#463886"/>
<rect x="414.47" y="102" width="4.16482" height="1.13195" fill="#D9D9D9"/>
<rect x="413.924" y="128.035" width="3.89172" height="1.13195" fill="#D9D9D9"/>
<rect x="426.828" y="107.66" width="1.09241" height="1.13195" fill="#D9D9D9"/>
<rect x="427.921" y="109.924" width="1.09241" height="1.13195" fill="#D9D9D9"/>
<rect x="429.013" y="112.188" width="1.09241" height="2.2639" fill="#D9D9D9"/>
<rect x="410.101" y="123.507" width="1.09241" height="1.13195" fill="#D9D9D9"/>
<rect x="411.193" y="123.507" width="1.09241" height="1.13195" fill="#9ACDE2"/>
<rect x="420.957" y="123.507" width="1.09241" height="1.13195" fill="#9ACDE2"/>
<rect x="407.37" y="124.639" width="1.09241" height="1.13195" fill="#D9D9D9"/>
<rect x="408.462" y="125.771" width="1.09241" height="1.13195" fill="#D9D9D9"/>
<rect x="410.647" y="126.903" width="1.09241" height="1.13195" fill="#D9D9D9"/>
<rect x="104.818" y="370.419" width="20.7903" height="24.5811" fill="#225E1E"/>
<rect x="94.4225" y="345.838" width="20.7903" height="24.5811" fill="#225E1E"/>
<rect x="74.4985" y="329.685" width="30.3191" height="16.1533" fill="#225E1E"/>
<rect x="64.9696" y="320.554" width="30.3191" height="9.13013" fill="#225E1E"/>
<rect x="74.4985" y="312.829" width="11.2614" height="9.13013" fill="#225E1E"/>
<rect x="33.7842" y="270.69" width="31.1854" height="9.13013" fill="#225E1E"/>
<rect x="33.7842" y="261.56" width="31.1854" height="9.13013" fill="#225E1E"/>
<rect x="44.1793" y="231.36" width="20.7903" height="30.1996" fill="#11A803"/>
<rect x="33.7842" y="222.23" width="10.3951" height="16.1533" fill="#11A803"/>
<rect x="64.9696" y="246.811" width="10.3951" height="33.0089" fill="#11A803"/>
<rect x="33.7842" y="304.401" width="11.2614" height="9.13013" fill="#225E1E"/>
<rect x="53.7082" y="320.554" width="11.2614" height="9.13013" fill="#225E1E"/>
<rect x="63.2371" y="329.685" width="11.2614" height="9.13013" fill="#225E1E"/>
<rect x="44.1793" y="222.23" width="11.2614" height="9.13013" fill="#11A803"/>
<rect x="56.307" y="163.235" width="11.2614" height="18.2603" fill="#11A803"/>
<rect x="22.5228" y="197.649" width="11.2614" height="33.7112" fill="#11A803"/>
<rect x="45.0456" y="172.365" width="11.2614" height="33.7112" fill="#11A803"/>
<rect x="22.5228" y="148.487" width="11.2614" height="49.1622" fill="#225E1E"/>
<rect x="33.7842" y="132.333" width="11.2614" height="49.1622" fill="#225E1E"/>
<rect x="45.0456" y="57.8879" width="11.2614" height="83.5758" fill="#11A803"/>
<rect x="33.7842" y="66.3154" width="11.2614" height="66.0178" fill="#11A803"/>
<rect x="22.5228" y="114.775" width="11.2614" height="33.7112" fill="#11A803"/>
<rect y="141.463" width="11.2614" height="23.8788" fill="#11A803"/>
<rect x="75.3647" y="230.658" width="11.2614" height="33.7112" fill="#225E1E"/>
<rect x="64.9696" y="197.649" width="11.2614" height="49.1622" fill="#225E1E"/>
<rect x="55.4407" y="181.496" width="9.52888" height="49.8645" fill="#225E1E"/>
<rect x="11.2614" y="132.333" width="11.2614" height="23.8788" fill="#11A803"/>
<rect x="56.307" y="82.4688" width="11.2614" height="49.8645" fill="#11A803"/>
<rect x="11.2614" y="156.212" width="11.2614" height="33.0089" fill="#225E1E"/>
<rect y="164.64" width="11.2614" height="16.8556" fill="#225E1E"/>
<rect x="45.0456" y="155.51" width="11.2614" height="16.8556" fill="#225E1E"/>
<rect x="45.0456" y="206.077" width="11.2614" height="16.8556" fill="#225E1E"/>
<rect x="33.7842" y="181.496" width="11.2614" height="40.7344" fill="#11A803"/>
<rect x="273.739" y="154.105" width="11.2614" height="18.2603" fill="#11A803"/>
<rect x="262.477" y="163.235" width="11.2614" height="33.7112" fill="#11A803"/>
<rect x="239.954" y="139.356" width="11.2614" height="49.1622" fill="#225E1E"/>
<rect x="251.216" y="123.203" width="11.2614" height="49.1622" fill="#225E1E"/>
<rect x="262.477" y="48.7576" width="11.2614" height="83.5758" fill="#11A803"/>
<rect x="251.216" y="57.1855" width="11.2614" height="66.0178" fill="#11A803"/>
<rect x="239.954" y="105.645" width="11.2614" height="33.7112" fill="#11A803"/>
<rect x="217.432" y="132.333" width="11.2614" height="23.8788" fill="#11A803"/>
<rect x="272.872" y="172.365" width="9.52888" height="49.8645" fill="#225E1E"/>
<rect x="228.693" y="123.203" width="11.2614" height="23.8788" fill="#11A803"/>
<rect x="273.739" y="73.3389" width="11.2614" height="49.8645" fill="#11A803"/>
<rect x="228.693" y="147.082" width="11.2614" height="33.0089" fill="#225E1E"/>
<rect x="217.432" y="155.51" width="11.2614" height="16.8556" fill="#225E1E"/>
<rect x="262.477" y="146.38" width="11.2614" height="16.8556" fill="#225E1E"/>
<rect x="251.216" y="172.365" width="11.2614" height="40.7344" fill="#11A803"/>
<rect x="94.4225" y="370.419" width="11.2614" height="9.13013" fill="#225E1E"/>
<rect x="84.0274" y="345.838" width="11.2614" height="18.2603" fill="#225E1E"/>
<rect x="44.1793" y="304.401" width="30.3191" height="16.1533" fill="#225E1E"/>
<rect x="33.7842" y="279.82" width="40.7143" height="24.5811" fill="#225E1E"/>
<rect x="123.875" y="213.802" width="31.1854" height="9.13013" fill="#225E1E"/>
<rect x="110.015" y="247.513" width="71.8997" height="18.2603" fill="#225E1E"/>
<rect x="98.7538" y="256.644" width="31.1854" height="9.13013" fill="#225E1E"/>
<rect x="118.678" y="265.774" width="31.1854" height="9.13013" fill="#225E1E"/>
<rect x="142.067" y="265.774" width="31.1854" height="18.2603" fill="#225E1E"/>
<rect x="123.875" y="204.672" width="31.1854" height="9.13013" fill="#225E1E"/>
<rect x="134.271" y="174.472" width="20.7903" height="33.7112" fill="#11A803"/>
<rect x="123.875" y="165.342" width="10.3951" height="16.1533" fill="#11A803"/>
<rect x="155.061" y="189.923" width="10.3951" height="33.0089" fill="#11A803"/>
<rect x="134.271" y="165.342" width="11.2614" height="9.13013" fill="#11A803"/>
<rect x="146.398" y="106.347" width="11.2614" height="18.2603" fill="#11A803"/>
<rect x="164.59" y="140.761" width="12.1277" height="33.0089" fill="#11A803"/>
<rect x="176.717" y="147.784" width="11.2614" height="35.8182" fill="#11A803"/>
<rect x="187.979" y="156.914" width="11.2614" height="16.8556" fill="#11A803"/>
<rect x="112.614" y="140.761" width="11.2614" height="33.7112" fill="#11A803"/>
<rect x="102.219" y="140.761" width="11.2614" height="33.7112" fill="#11A803"/>
<rect x="91.8237" y="146.38" width="11.2614" height="33.7112" fill="#11A803"/>
<rect x="103.085" y="174.472" width="11.2614" height="33.7112" fill="#11A803"/>
<rect x="112.614" y="174.472" width="22.5228" height="33.7112" fill="#11A803"/>
<rect x="135.137" y="115.478" width="11.2614" height="33.7112" fill="#11A803"/>
<rect x="112.614" y="91.5989" width="11.2614" height="49.1622" fill="#225E1E"/>
<rect x="123.875" y="75.4456" width="11.2614" height="49.1622" fill="#225E1E"/>
<rect x="135.137" y="1" width="11.2614" height="83.5758" fill="#11A803"/>
<rect x="123.875" y="9.42773" width="11.2614" height="66.0178" fill="#11A803"/>
<rect x="112.614" y="57.8879" width="11.2614" height="33.7112" fill="#11A803"/>
<rect x="90.0912" y="84.5759" width="11.2614" height="23.8788" fill="#11A803"/>
<rect x="165.456" y="173.77" width="11.2614" height="33.7112" fill="#225E1E"/>
<rect x="155.061" y="140.761" width="11.2614" height="49.1622" fill="#225E1E"/>
<rect x="145.532" y="124.608" width="9.52888" height="49.8645" fill="#225E1E"/>
<rect x="101.353" y="75.4456" width="11.2614" height="23.8788" fill="#11A803"/>
<rect x="146.398" y="25.5811" width="11.2614" height="49.8645" fill="#11A803"/>
<rect x="101.353" y="99.3245" width="11.2614" height="33.0089" fill="#225E1E"/>
<rect x="90.0912" y="107.752" width="11.2614" height="16.8556" fill="#225E1E"/>
<rect x="135.137" y="98.6221" width="11.2614" height="16.8556" fill="#225E1E"/>
<rect x="135.137" y="149.189" width="11.2614" height="16.8556" fill="#225E1E"/>
<rect x="138.602" y="317.043" width="16.459" height="37.2228" fill="#11A803"/>
<rect x="150.729" y="258.048" width="11.2614" height="18.2603" fill="#11A803"/>
<rect x="168.921" y="292.462" width="12.1277" height="33.0089" fill="#11A803"/>
<rect x="181.049" y="299.485" width="11.2614" height="35.8182" fill="#11A803"/>
<rect x="139.468" y="267.178" width="11.2614" height="33.7112" fill="#11A803"/>
<rect x="155.061" y="292.462" width="15.5927" height="102.538" fill="#225E1E"/>
<rect x="149.863" y="276.308" width="9.52888" height="49.8645" fill="#225E1E"/>
<rect x="139.468" y="250.323" width="11.2614" height="16.8556" fill="#225E1E"/>
<rect x="139.468" y="300.89" width="11.2614" height="16.8556" fill="#225E1E"/>
<rect x="128.207" y="329.685" width="11.2614" height="25.2834" fill="#225E1E"/>
<rect x="115.213" y="345.838" width="11.2614" height="25.2834" fill="#225E1E"/>
<rect x="123.875" y="124.608" width="11.2614" height="40.7344" fill="#11A803"/>
<rect x="151.596" y="231.36" width="11.2614" height="18.2603" fill="#11A803"/>
<rect x="117.812" y="265.774" width="11.2614" height="33.7112" fill="#11A803"/>
<rect x="107.416" y="265.774" width="11.2614" height="33.7112" fill="#11A803"/>
<rect x="97.0213" y="271.392" width="11.2614" height="33.7112" fill="#11A803"/>
<rect x="140.334" y="240.49" width="11.2614" height="33.7112" fill="#11A803"/>
<rect x="129.073" y="249.62" width="11.2614" height="40.7344" fill="#11A803"/>
<rect x="123.875" y="222.932" width="40.7143" height="26.6881" fill="#225E1E"/>
<rect x="125.608" y="354.266" width="30.3191" height="40.7344" fill="#225E1E"/>
<rect x="524.307" y="268.348" width="11.2614" height="18.2603" fill="#11A803"/>
<rect x="513.046" y="277.478" width="11.2614" height="33.7112" fill="#11A803"/>
<rect x="490.523" y="253.599" width="11.2614" height="49.1622" fill="#225E1E"/>
<rect x="501.784" y="237.446" width="11.2614" height="49.1622" fill="#225E1E"/>
<rect x="513.046" y="163" width="11.2614" height="83.5758" fill="#11A803"/>
<rect x="501.784" y="171.428" width="11.2614" height="66.0178" fill="#11A803"/>
<rect x="490.523" y="219.888" width="11.2614" height="33.7112" fill="#11A803"/>
<rect x="523.441" y="286.608" width="9.52888" height="49.8645" fill="#225E1E"/>
<rect x="479.261" y="237.446" width="11.2614" height="23.8788" fill="#11A803"/>
<rect x="524.307" y="187.581" width="11.2614" height="49.8645" fill="#11A803"/>
<rect x="479.261" y="261.324" width="11.2614" height="33.0089" fill="#225E1E"/>
<rect x="513.046" y="260.622" width="11.2614" height="16.8556" fill="#225E1E"/>
<rect x="501.784" y="286.608" width="11.2614" height="40.7344" fill="#11A803"/>
<rect x="408.169" y="351.613" width="11.0824" height="20.0772" transform="rotate(5.82466 408.169 351.613)" fill="#F13431"/>
<rect x="603.365" y="371.02" width="11.0824" height="20.0772" transform="rotate(5.82466 603.365 371.02)" fill="#F13431"/>
<rect x="420.213" y="342.75" width="11.0824" height="10.0386" transform="rotate(5.82466 420.213 342.75)" fill="#F13431"/>
<rect x="404.225" y="281.08" width="11.0824" height="10.0386" transform="rotate(5.82466 404.225 281.08)" fill="#F13431"/>
<rect x="631.426" y="314.348" width="11.0824" height="10.0386" transform="rotate(5.82466 631.426 314.348)" fill="#F13431"/>
<rect x="429.331" y="253.369" width="11.0824" height="10.0386" transform="rotate(5.82466 429.331 253.369)" fill="#F13431"/>
<rect x="612.432" y="282.138" width="11.0824" height="10.0386" transform="rotate(5.82466 612.432 282.138)" fill="#F13431"/>
<rect x="397.275" y="240.008" width="11.0824" height="20.0772" transform="rotate(5.82466 397.275 240.008)" fill="#F13431"/>
<rect x="646.526" y="275.525" width="11.0824" height="20.0772" transform="rotate(5.82466 646.526 275.525)" fill="#F13431"/>
<rect x="453.289" y="346.125" width="119.689" height="10.0386" transform="rotate(5.82466 453.289 346.125)" fill="#F13431"/>
<rect x="463.346" y="356.737" width="119.689" height="10.0386" transform="rotate(5.82466 463.346 356.737)" fill="#F13431"/>
<rect x="432.257" y="333.888" width="162.911" height="10.0386" transform="rotate(5.82466 432.257 333.888)" fill="#F13431"/>
<rect x="445.269" y="315.539" width="173.993" height="10.0386" transform="rotate(5.82466 445.269 315.539)" fill="#F13431"/>
<rect x="424.237" y="303.303" width="164.019" height="10.0386" transform="rotate(5.82466 424.237 303.303)" fill="#F13431"/>
<rect x="469.357" y="297.815" width="108.607" height="10.0386" transform="rotate(5.82466 469.357 297.815)" fill="#F13431"/>
<rect x="429.252" y="363.35" width="11.0824" height="10.0386" transform="rotate(5.82466 429.252 363.35)" fill="#F13431"/>
<rect x="441.245" y="354.987" width="11.0824" height="10.0386" transform="rotate(5.82466 441.245 354.987)" fill="#F13431"/>
<rect x="462.327" y="366.724" width="11.0824" height="10.0386" transform="rotate(5.82466 462.327 366.724)" fill="#F13431"/>
<rect x="593.308" y="360.408" width="11.0824" height="10.0386" transform="rotate(5.82466 593.308 360.408)" fill="#F13431"/>
<rect x="549.426" y="375.609" width="11.0824" height="10.0386" transform="rotate(5.82466 549.426 375.609)" fill="#F13431"/>
<rect x="541.874" y="334.98" width="43.7753" height="10.0386" transform="rotate(5.82466 541.874 334.98)" fill="#F13431"/>
<rect x="444.25" y="325.526" width="64.8318" height="10.0386" transform="rotate(5.82466 444.25 325.526)" fill="#F13431"/>
<rect x="403.206" y="291.067" width="33.2471" height="10.0386" transform="rotate(5.82466 403.206 291.067)" fill="#F13431"/>
<rect x="608.357" y="322.085" width="33.2471" height="10.0386" transform="rotate(5.82466 608.357 322.085)" fill="#F13431"/>
<rect x="394.218" y="269.969" width="44.3294" height="10.0386" transform="rotate(5.82466 394.218 269.969)" fill="#F13431"/>
<rect x="610.395" y="302.112" width="44.3294" height="10.0386" transform="rotate(5.82466 610.395 302.112)" fill="#F13431"/>
<rect x="611.414" y="292.125" width="44.3294" height="10.0386" transform="rotate(5.82466 611.414 292.125)" fill="#F13431"/>
<rect x="395.237" y="259.982" width="44.3294" height="10.0386" transform="rotate(5.82466 395.237 259.982)" fill="#F13431"/>
<rect x="581.399" y="378.87" width="11.0824" height="10.0386" transform="rotate(5.82466 581.399 378.87)" fill="#F13431"/>
<rect x="477.875" y="268.916" width="32.1388" height="29.112" transform="rotate(5.82466 477.875 268.916)" fill="black"/>
<rect x="542.372" y="275.496" width="33.2471" height="29.112" transform="rotate(5.82466 542.372 275.496)" fill="black"/>
<rect x="489.367" y="259.998" width="11.0824" height="10.0386" transform="rotate(5.82466 489.367 259.998)" fill="black"/>
<rect x="554.416" y="266.634" width="11.0824" height="10.0386" transform="rotate(5.82466 554.416 266.634)" fill="black"/>
<rect x="509.349" y="331.662" width="32.693" height="10.0386" transform="rotate(5.82466 509.349 331.662)" fill="black"/>
<rect x="488.349" y="269.985" width="11.0824" height="10.0386" transform="rotate(5.82466 488.349 269.985)" fill="#D9D9D9"/>
<rect x="486.413" y="288.959" width="11.0824" height="10.0386" transform="rotate(5.82466 486.413 288.959)" fill="#D9D9D9"/>
<rect x="553.397" y="276.62" width="11.0824" height="10.0386" transform="rotate(5.82466 553.397 276.62)" fill="#D9D9D9"/>
<rect x="551.461" y="295.595" width="11.0824" height="10.0386" transform="rotate(5.82466 551.461 295.595)" fill="#D9D9D9"/>
<rect x="449.885" y="364.408" width="10.0934" height="10.1974" fill="#F58C15"/>
<rect x="245.264" y="364.408" width="10.0934" height="10.1974" fill="#F58C15"/>
<rect x="255.357" y="308.785" width="20.1868" height="25.03" fill="#391506"/>
<rect x="354.456" y="308.785" width="20.1868" height="25.03" fill="#391506"/>
<rect x="384.736" y="364.408" width="10.0934" height="10.1974" fill="#F58C15"/>
<rect x="180.115" y="364.408" width="10.0934" height="10.1974" fill="#F58C15"/>
<rect x="190.209" y="354.21" width="44.9615" height="20.3948" fill="#66270C"/>
<rect x="179.198" y="199.395" width="271.604" height="22.2489" fill="#66270C"/>
<rect x="190.209" y="313.421" width="44.9615" height="20.3948" fill="#391506"/>
<rect x="168.187" y="256.871" width="66.9835" height="20.3948" fill="#391506"/>
<rect x="255.357" y="256.871" width="122.038" height="20.3948" fill="#391506"/>
<rect x="393.912" y="256.871" width="67.9011" height="20.3948" fill="#391506"/>
<rect x="255.357" y="354.21" width="119.286" height="20.3948" fill="#66270C"/>
<rect x="394.83" y="354.21" width="44.9615" height="20.3948" fill="#66270C"/>
<rect x="394.83" y="313.421" width="44.9615" height="20.3948" fill="#391506"/>
<rect x="170.022" y="364.408" width="10.0934" height="30.5923" fill="#C05F02"/>
<rect x="235.17" y="364.408" width="10.0934" height="10.1974" fill="#C05F02"/>
<rect x="374.643" y="364.408" width="10.0934" height="10.1974" fill="#C05F02"/>
<rect x="439.791" y="364.408" width="10.0934" height="10.1974" fill="#C05F02"/>
<rect x="180.115" y="374.605" width="279.863" height="20.3948" fill="#C05F02"/>
<rect x="170.022" y="298.588" width="20.1868" height="10.1974" fill="#C05F02"/>
<rect x="235.17" y="298.588" width="20.1868" height="10.1974" fill="#C05F02"/>
<rect x="255.357" y="298.588" width="30.2802" height="10.1974" fill="#66270C"/>
<rect x="344.363" y="298.588" width="30.2802" height="10.1974" fill="#66270C"/>
<rect x="374.643" y="298.588" width="20.1868" height="10.1974" fill="#C05F02"/>
<rect x="439.791" y="298.588" width="20.1868" height="10.1974" fill="#C05F02"/>
<rect x="275.544" y="277.266" width="10.0934" height="21.3219" fill="#C05F02"/>
<rect x="275.544" y="308.785" width="10.0934" height="25.03" fill="#66270C"/>
<rect x="344.363" y="308.785" width="10.0934" height="25.03" fill="#66270C"/>
<rect x="344.363" y="277.266" width="10.0934" height="21.3219" fill="#C05F02"/>
<rect x="235.17" y="308.785" width="20.1868" height="55.6223" fill="#F58C15"/>
<rect x="170.022" y="308.785" width="20.1868" height="55.6223" fill="#F58C15"/>
<rect x="148" y="221.644" width="20.1868" height="55.6223" fill="#FFB930"/>
<rect x="235.17" y="221.644" width="20.1868" height="55.6223" fill="#FFB930"/>
<rect x="374.643" y="221.644" width="20.1868" height="55.6223" fill="#FFB930"/>
<rect x="461.813" y="221.644" width="20.1868" height="55.6223" fill="#FFB930"/>
<rect x="374.643" y="308.785" width="20.1868" height="55.6223" fill="#F58C15"/>
<rect x="439.791" y="308.785" width="20.1868" height="55.6223" fill="#F58C15"/>
<rect x="190.209" y="344.013" width="44.9615" height="10.1974" fill="#391506"/>
<rect x="168.187" y="231.841" width="66.9835" height="10.1974" fill="#391506"/>
<rect x="255.357" y="231.841" width="119.286" height="10.1974" fill="#391506"/>
<rect x="394.83" y="231.841" width="66.9835" height="10.1974" fill="#391506"/>
<rect x="190.209" y="333.815" width="44.9615" height="10.1974" fill="#66270C"/>
<rect x="168.187" y="221.644" width="66.9835" height="10.1974" fill="#66270C"/>
<rect x="394.83" y="221.644" width="66.9835" height="10.1974" fill="#66270C"/>
<rect x="255.357" y="221.644" width="119.286" height="10.1974" fill="#66270C"/>
<rect x="190.209" y="298.588" width="44.9615" height="14.8326" fill="#66270C"/>
<rect x="168.187" y="242.039" width="66.9835" height="14.8326" fill="#66270C"/>
<rect x="394.83" y="242.039" width="66.9835" height="14.8326" fill="#66270C"/>
<rect x="255.357" y="242.039" width="119.286" height="14.8326" fill="#66270C"/>
<rect x="394.83" y="298.588" width="44.9615" height="14.8326" fill="#66270C"/>
<rect x="394.83" y="344.013" width="44.9615" height="10.1974" fill="#391506"/>
<rect x="394.83" y="333.815" width="44.9615" height="10.1974" fill="#66270C"/>
<rect x="255.357" y="344.013" width="119.286" height="10.1974" fill="#D9D9D9"/>
<rect x="255.357" y="344.013" width="119.286" height="10.1974" fill="#391506"/>
<rect x="192.044" y="188.271" width="247.747" height="11.1245" fill="#391506"/>
<rect x="255.357" y="333.815" width="119.286" height="10.1974" fill="#66270C"/>
<rect x="207.643" y="179" width="227.56" height="10.1974" fill="#66270C"/>
<rect x="285.637" y="262.434" width="58.7253" height="71.382" fill="#FFB930"/>
<rect x="148" y="277.266" width="127.544" height="21.3219" fill="#FFB930"/>
<rect x="354.456" y="277.266" width="127.544" height="21.3219" fill="#FFB930"/>
<rect x="309.495" y="288.391" width="10.0934" height="10.1974" fill="#34435A"/>
<rect x="309.495" y="298.588" width="10.0934" height="10.1974" fill="#030405"/>
<rect x="297.566" y="262.434" width="46.7967" height="10.1974" fill="#FACD77"/>
<rect x="157.176" y="199.395" width="22.022" height="22.2489" fill="#FACD77"/>
<rect x="235.17" y="210.519" width="20.1868" height="11.1245" fill="#FACD77"/>
<rect x="374.643" y="210.519" width="20.1868" height="11.1245" fill="#FACD77"/>
<rect x="243.429" y="199.395" width="22.022" height="11.1245" fill="#FACD77"/>
<rect x="368.22" y="199.395" width="22.022" height="11.1245" fill="#FACD77"/>
<rect x="243.429" y="188.271" width="22.022" height="11.1245" fill="#FFB930"/>
<rect x="368.22" y="188.271" width="22.022" height="11.1245" fill="#FFB930"/>
<rect x="253.522" y="179" width="22.022" height="9.27039" fill="#FACD77"/>
<rect x="359.962" y="179" width="22.022" height="9.27039" fill="#FACD77"/>
<rect x="170.022" y="189.198" width="22.022" height="10.1974" fill="#FFB930"/>
<rect x="439.791" y="189.198" width="22.022" height="10.1974" fill="#FFB930"/>
<rect x="185.621" y="179" width="22.022" height="10.1974" fill="#FACD77"/>
<rect x="428.78" y="179" width="22.022" height="10.1974" fill="#FACD77"/>
<rect x="450.802" y="199.395" width="22.022" height="22.2489" fill="#FACD77"/>
</svg>