<svg width="1440" height="1421" viewBox="0 0 1440 1421" fill="none" xmlns="http://www.w3.org/2000/svg">
<path d="M-454 2H-379.906M1917 2H1842.91M-454 1019.4H-305.813M1917 1019.4H1768.81M731.5 2H805.594M731.5 2H657.406M731.5 2L583.312 1019.4M1324.25 2H1398.34M1324.25 2H1250.16M1324.25 2L1917 162.642H-454L138.75 2M138.75 2H212.844M138.75 2H64.6562M1027.87 2H1101.97M1027.87 2H953.781M1027.87 2L1768.81 1019.4M435.125 2H509.219M435.125 2H361.031M435.125 2L-305.813 1019.4M-305.813 2H-83.5313M-305.813 2H-231.719M-305.813 2H-379.906M-9.43751 2H212.844M-9.43751 2H64.6562M-9.43751 2H-83.5313M-9.43751 2L-454 44.5228H1917L1546.53 2M286.937 2H509.219M286.937 2H361.031M286.937 2H212.844M286.937 2L-454 524.872H1917L1176.06 2M583.312 2H805.594M583.312 2H657.406M583.312 2H509.219M879.687 2H1101.97M879.687 2H953.781M879.687 2H805.594M879.687 2L1176.06 1019.4M1176.06 2H1250.16M1176.06 2H1101.97M1842.91 2H1768.81H1694.72M1842.91 2H1694.72M1694.72 2H1620.62H1546.53M1694.72 2H1546.53M1546.53 2H1472.44H1398.34M1546.53 2H1398.34M1398.34 2L1917 74.4462H-454L64.6562 2M1250.16 2L1917 310.684H-454L212.844 2M1101.97 2L1917 800.483H-454L361.031 2M953.781 2L1472.44 1019.4M805.594 2L879.687 1019.4M657.406 2L286.937 1019.4M509.219 2L-9.43751 1019.4M-83.5313 2H-157.625H-231.719M-231.719 2H-379.906M583.312 1019.4H435.125H286.937M583.312 1019.4H731.5H879.687M583.312 1019.4H879.687M583.312 1019.4H-9.43751M583.312 1019.4V1421M879.687 1019.4H1027.87H1176.06M879.687 1019.4H1176.06M879.687 1019.4V1421M1176.06 1019.4H1324.25H1472.44M1176.06 1019.4H1472.44M1176.06 1019.4V1421M1472.44 1019.4H1620.62H1768.81M1472.44 1019.4H1768.81M1472.44 1019.4V1421M1768.81 1019.4V1421M286.937 1019.4H138.75H-9.43751M286.937 1019.4H-9.43751M286.937 1019.4V1421M-9.43751 1019.4H-157.625H-305.813M-9.43751 1019.4H-305.813M-9.43751 1019.4V1421M-305.813 1019.4V1421M1917 17.7492H-454M-454 116.969H1917M-454 227.213H1917M-454 408.328H1917M-454 654.015H1917" stroke="url(#paint0_linear_107_2)" stroke-width="4"/>
<path d="M-454 2H-379.906M1917 2H1842.91M-454 1019.4H-305.813M1917 1019.4H1768.81M731.5 2H805.594M731.5 2H657.406M731.5 2L583.312 1019.4M1324.25 2H1398.34M1324.25 2H1250.16M1324.25 2L1917 162.642H-454L138.75 2M138.75 2H212.844M138.75 2H64.6562M1027.87 2H1101.97M1027.87 2H953.781M1027.87 2L1768.81 1019.4M435.125 2H509.219M435.125 2H361.031M435.125 2L-305.813 1019.4M-305.813 2H-83.5313M-305.813 2H-231.719M-305.813 2H-379.906M-9.43751 2H212.844M-9.43751 2H64.6562M-9.43751 2H-83.5313M-9.43751 2L-454 44.5228H1917L1546.53 2M286.937 2H509.219M286.937 2H361.031M286.937 2H212.844M286.937 2L-454 524.872H1917L1176.06 2M583.312 2H805.594M583.312 2H657.406M583.312 2H509.219M879.687 2H1101.97M879.687 2H953.781M879.687 2H805.594M879.687 2L1176.06 1019.4M1176.06 2H1250.16M1176.06 2H1101.97M1842.91 2H1768.81H1694.72M1842.91 2H1694.72M1694.72 2H1620.62H1546.53M1694.72 2H1546.53M1546.53 2H1472.44H1398.34M1546.53 2H1398.34M1398.34 2L1917 74.4462H-454L64.6562 2M1250.16 2L1917 310.684H-454L212.844 2M1101.97 2L1917 800.483H-454L361.031 2M953.781 2L1472.44 1019.4M805.594 2L879.687 1019.4M657.406 2L286.937 1019.4M509.219 2L-9.43751 1019.4M-83.5313 2H-157.625H-231.719M-231.719 2H-379.906M583.312 1019.4H435.125H286.937M583.312 1019.4H731.5H879.687M583.312 1019.4H879.687M583.312 1019.4H-9.43751M583.312 1019.4V1421M879.687 1019.4H1027.87H1176.06M879.687 1019.4H1176.06M879.687 1019.4V1421M1176.06 1019.4H1324.25H1472.44M1176.06 1019.4H1472.44M1176.06 1019.4V1421M1472.44 1019.4H1620.62H1768.81M1472.44 1019.4H1768.81M1472.44 1019.4V1421M1768.81 1019.4V1421M286.937 1019.4H138.75H-9.43751M286.937 1019.4H-9.43751M286.937 1019.4V1421M-9.43751 1019.4H-157.625H-305.813M-9.43751 1019.4H-305.813M-9.43751 1019.4V1421M-305.813 1019.4V1421M1917 17.7492H-454M-454 116.969H1917M-454 227.213H1917M-454 408.328H1917M-454 654.015H1917" stroke="url(#paint1_diamond_107_2)" stroke-opacity="0.2" stroke-width="4"/>
<defs>
<linearGradient id="paint0_linear_107_2" x1="731.499" y1="-555.521" x2="731.5" y2="1978.52" gradientUnits="userSpaceOnUse">
<stop offset="0.225" stop-color="#1A7076"/>
<stop offset="0.575" stop-color="#E9F0F4" stop-opacity="0.3"/>
<stop offset="0.8" stop-color="#FFFFFF" stop-opacity="1"/>
</linearGradient>
<radialGradient id="paint1_diamond_107_2" cx="0" cy="0" r="1" gradientUnits="userSpaceOnUse" gradientTransform="translate(731.5 634.09) rotate(90) scale(786.91 1314.84)">
<stop offset="0.52" stop-color="#23435B"/>
<stop offset="0.9999" stop-color="#1A7076" stop-opacity="0.2"/>
</radialGradient>
</defs>
</svg>
