<svg width="512" height="161" viewBox="0 0 512 161" fill="none" xmlns="http://www.w3.org/2000/svg">
<path d="M99.5939 43.4818L61.9452 95.0585L24.2964 43.4818H14.9386V132H38.2242V97.2347L61.8908 130.531H62.054L85.6661 97.2347V132H108.952V43.4818H99.5939ZM156.231 133.376C165.597 133.376 173.435 129.668 179.322 124.316L169.994 111.89C166.018 115.446 161.392 117.893 156.231 117.893C147.438 117.893 139.18 110.858 139.18 101.3C139.18 91.8574 147.094 84.6317 156.575 84.6317C161.124 84.6317 166.133 86.8873 169.917 90.3281L179.322 78.2471C173.014 72.5124 164.489 69.0334 156.537 68.9187C137.345 68.9187 122.587 82.9495 122.587 101.186C122.587 120.531 138.836 133.376 156.231 133.376ZM240.24 44.2979V77.2134H214.179V44.2979H190.894V132H214.179V98.9757H240.24V132H263.471V44.2979H240.24ZM322.372 132H340.303L311.629 69.6069H303.868L275.233 132H293.126L296.26 124.813H319.276L322.372 132ZM301.422 112.846L307.768 98.242L314.076 112.846H301.422ZM374.039 133.376C383.406 133.376 391.243 129.668 397.131 124.316L387.802 111.89C383.826 115.446 379.201 117.893 374.039 117.893C365.246 117.893 356.988 110.858 356.988 101.3C356.988 91.8574 364.902 84.6317 374.383 84.6317C378.933 84.6317 383.941 86.8873 387.726 90.3281L397.131 78.2471C390.823 72.5124 382.297 69.0334 374.345 68.9187C355.153 68.9187 340.396 82.9495 340.396 101.186C340.396 120.531 356.644 133.376 374.039 133.376ZM458.203 132L436.984 100.421L455.871 70.3715H437.061L422.763 93.3484V70.3715H406.438V132H422.763V108.564L438.361 132H458.203ZM485.669 132.841C498.018 132.841 508.952 125.539 508.952 113.802C508.952 104.703 502.568 98.8154 492.933 94.7629C486.281 91.9721 481.923 91.0545 481.923 88.2254C481.923 86.1227 484.331 84.4023 487.696 84.4023C490.64 84.4023 495.38 85.8169 497.215 89.0665L506.658 79.9675C504.25 73.8888 496.909 69.454 487.505 69.454C475.806 69.454 465.675 77.0619 465.675 87.7284C465.675 97.0186 472.365 102.142 480.164 105.506C486.205 108.182 492.513 110.973 492.513 114.146C492.513 116.669 489.11 117.931 485.631 117.931C480.47 117.931 475.691 115.637 473.13 111.852L463.228 121.563C466.325 128.368 475.538 132.841 485.669 132.841Z" fill="#F2463A"/>
<path d="M92.5939 33.4818L54.9452 85.0585L17.2964 33.4818H7.93858V122H31.2242V87.2347L54.8908 120.531H55.054L78.6661 87.2347V122H101.952V33.4818H92.5939ZM149.231 123.376C158.597 123.376 166.435 119.668 172.322 114.316L162.994 101.89C159.018 105.446 154.392 107.893 149.231 107.893C140.438 107.893 132.18 100.858 132.18 91.3004C132.18 81.8574 140.094 74.6317 149.575 74.6317C154.124 74.6317 159.133 76.8873 162.917 80.3281L172.322 68.2471C166.014 62.5124 157.489 59.0334 149.537 58.9187C130.345 58.9187 115.587 72.9495 115.587 91.1858C115.587 110.531 131.836 123.376 149.231 123.376ZM233.24 34.2979V67.2134H207.179V34.2979H183.894V122H207.179V88.9757H233.24V122H256.471V34.2979H233.24ZM315.372 122H333.303L304.629 59.6069H296.868L268.233 122H286.126L289.26 114.813H312.276L315.372 122ZM294.422 102.846L300.768 88.242L307.076 102.846H294.422ZM367.039 123.376C376.406 123.376 384.243 119.668 390.131 114.316L380.802 101.89C376.826 105.446 372.201 107.893 367.039 107.893C358.246 107.893 349.988 100.858 349.988 91.3004C349.988 81.8574 357.902 74.6317 367.383 74.6317C371.933 74.6317 376.941 76.8873 380.726 80.3281L390.131 68.2471C383.823 62.5124 375.297 59.0334 367.345 58.9187C348.153 58.9187 333.396 72.9495 333.396 91.1858C333.396 110.531 349.644 123.376 367.039 123.376ZM451.203 122L429.984 90.4211L448.871 60.3715H430.061L415.763 83.3484V60.3715H399.438V122H415.763V98.5644L431.361 122H451.203ZM478.669 122.841C491.018 122.841 501.952 115.539 501.952 103.802C501.952 94.703 495.568 88.8154 485.933 84.7629C479.281 81.9721 474.923 81.0545 474.923 78.2254C474.923 76.1227 477.331 74.4023 480.696 74.4023C483.64 74.4023 488.38 75.8169 490.215 79.0665L499.658 69.9675C497.25 63.8888 489.909 59.454 480.505 59.454C468.806 59.454 458.675 67.0619 458.675 77.7284C458.675 87.0186 465.365 92.1415 473.164 95.5059C479.205 98.182 485.513 100.973 485.513 104.146C485.513 106.669 482.11 107.931 478.631 107.931C473.47 107.931 468.691 105.637 466.13 101.852L456.228 111.563C459.325 118.368 468.538 122.841 478.669 122.841Z" fill="white"/>
</svg>
