<svg width="1271" height="1315" viewBox="0 0 1271 1315" fill="none" xmlns="http://www.w3.org/2000/svg">
<mask id="path-1-inside-1_636_359" fill="white">
<path d="M0 121H551.5H1271V1305C1271 1310.52 1266.52 1315 1261 1315H9.99999C4.47714 1315 0 1310.52 0 1305V121Z"/>
</mask>
<path d="M0 121H551.5H1271V1305C1271 1310.52 1266.52 1315 1261 1315H9.99999C4.47714 1315 0 1310.52 0 1305V121Z" fill="#C4C4C4"/>
<path d="M0 119C-1.10457 119 -2 119.895 -2 121C-2 122.105 -1.10457 123 0 123V119ZM1271 123C1272.1 123 1273 122.105 1273 121C1273 119.895 1272.1 119 1271 119V123ZM1193.63 123H1271V119H1193.63V123ZM0 123H204.943V119H0V123ZM204.943 123H1193.63V119H204.943V123ZM29.4902 150.821H1210.21V146.821H29.4902V150.821ZM1218.21 158.821V1273.52H1222.21V158.821H1218.21ZM1210.21 1281.52H29.4902V1285.52H1210.21V1281.52ZM21.4902 1273.52V158.821H17.4902V1273.52H21.4902ZM1242.02 1285.52H1246.23V1281.52H1242.02V1285.52ZM1246.23 146.821H1242.02V150.821H1246.23V146.821ZM1258.23 471.688V234.48H1254.23V471.688H1258.23ZM1230.02 234.48V471.688H1234.02V234.48H1230.02ZM1230.02 158.821V182.499H1234.02V158.821H1230.02ZM1230.02 182.499V234.48H1234.02V182.499H1230.02ZM1258.23 234.48V182.499H1254.23V234.48H1258.23ZM1258.23 182.499V158.821H1254.23V182.499H1258.23ZM1232.02 184.499H1256.23V180.499H1232.02V184.499ZM1230.02 471.688V1248.38H1234.02V471.688H1230.02ZM1230.02 1248.38V1273.52H1234.02V1248.38H1230.02ZM1258.23 1273.52V1248.38H1254.23V1273.52H1258.23ZM1258.23 1248.38V471.688H1254.23V1248.38H1258.23ZM1232.02 1250.38H1256.23V1246.38H1232.02V1250.38ZM1242.13 234.48V471.688H1246.13V234.48H1242.13ZM1252.18 471.688V234.48H1248.18V471.688H1252.18ZM1236.07 234.48V471.688H1240.07V234.48H1236.07ZM1232.02 473.688H1235.05V469.688H1232.02V473.688ZM1235.05 473.688H1238.07V469.688H1235.05V473.688ZM1238.07 232.48H1235.05V236.48H1238.07V232.48ZM1235.05 232.48H1232.02V236.48H1235.05V232.48ZM1237.05 471.688V234.48H1233.05V471.688H1237.05ZM1244.13 232.48H1241.1V236.48H1244.13V232.48ZM1241.1 232.48H1238.07V236.48H1241.1V232.48ZM1238.07 473.688H1241.1V469.688H1238.07V473.688ZM1241.1 473.688H1244.13V469.688H1241.1V473.688ZM1239.1 234.48V471.688H1243.1V234.48H1239.1ZM1244.13 473.688H1247.15V469.688H1244.13V473.688ZM1247.15 473.688H1250.18V469.688H1247.15V473.688ZM1250.18 232.48H1247.15V236.48H1250.18V232.48ZM1247.15 232.48H1244.13V236.48H1247.15V232.48ZM1249.15 471.688V234.48H1245.15V471.688H1249.15ZM1256.23 232.48H1253.21V236.48H1256.23V232.48ZM1253.21 232.48H1250.18V236.48H1253.21V232.48ZM1250.18 473.688H1253.21V469.688H1250.18V473.688ZM1253.21 473.688H1256.23V469.688H1253.21V473.688ZM1251.21 234.48V471.688H1255.21V234.48H1251.21ZM1246.23 1285.52C1252.86 1285.52 1258.23 1280.15 1258.23 1273.52H1254.23C1254.23 1277.94 1250.65 1281.52 1246.23 1281.52V1285.52ZM1242.02 1281.52C1237.6 1281.52 1234.02 1277.94 1234.02 1273.52H1230.02C1230.02 1280.15 1235.39 1285.52 1242.02 1285.52V1281.52ZM1242.02 146.821C1235.39 146.821 1230.02 152.193 1230.02 158.821H1234.02C1234.02 154.403 1237.6 150.821 1242.02 150.821V146.821ZM29.4902 1281.52C25.0719 1281.52 21.4902 1277.94 21.4902 1273.52H17.4902C17.4902 1280.15 22.8628 1285.52 29.4902 1285.52V1281.52ZM29.4902 146.821C22.8628 146.821 17.4902 152.193 17.4902 158.821H21.4902C21.4902 154.403 25.072 150.821 29.4902 150.821V146.821ZM1218.21 1273.52C1218.21 1277.94 1214.63 1281.52 1210.21 1281.52V1285.52C1216.83 1285.52 1222.21 1280.15 1222.21 1273.52H1218.21ZM1210.21 150.821C1214.63 150.821 1218.21 154.403 1218.21 158.821H1222.21C1222.21 152.193 1216.83 146.821 1210.21 146.821V150.821ZM1246.23 150.821C1250.65 150.821 1254.23 154.403 1254.23 158.821H1258.23C1258.23 152.193 1252.86 146.821 1246.23 146.821V150.821ZM0 121V117C-2.20914 117 -4 118.791 -4 121H0ZM1271 121H1275C1275 118.791 1273.21 117 1271 117V121ZM1261 1311H9.99999V1319H1261V1311ZM4 1305V121H-4V1305H4ZM1267 121V1305H1275V121H1267ZM0 125H551.5V117H0V125ZM551.5 125H1271V117H551.5V125ZM9.99999 1311C6.68629 1311 4 1308.31 4 1305H-4C-4 1312.73 2.268 1319 9.99999 1319V1311ZM1261 1319C1268.73 1319 1275 1312.73 1275 1305H1267C1267 1308.31 1264.31 1311 1261 1311V1319Z" fill="#1C1C1C" mask="url(#path-1-inside-1_636_359)"/>
<path d="M1242.55 159.153C1243.3 157.731 1245.34 157.731 1246.09 159.153L1251.99 170.332C1252.69 171.664 1251.72 173.266 1250.22 173.266H1238.42C1236.91 173.266 1235.95 171.664 1236.65 170.332L1242.55 159.153Z" fill="#1C1C1C"/>
<path d="M1242.53 1272.54C1243.27 1274.01 1245.37 1274.01 1246.11 1272.54L1252.09 1260.58C1252.75 1259.25 1251.79 1257.68 1250.3 1257.68H1238.34C1236.85 1257.68 1235.88 1259.25 1236.55 1260.58L1242.53 1272.54Z" fill="#1C1C1C"/>
<mask id="path-5-outside-2_636_359" maskUnits="userSpaceOnUse" x="15" y="141" width="1210" height="1145" fill="black">
<rect fill="white" x="15" y="141" width="1210" height="1145"/>
<path d="M1211 145H29.0005C23.4776 145 19.0005 149.477 19.0005 155L19 1272C19 1277.52 23.4771 1282 29 1282H620H1211C1216.52 1282 1221 1277.52 1221 1272L1221 155C1221 149.477 1216.52 145 1211 145Z"/>
</mask>
<path d="M1211 145H29.0005C23.4776 145 19.0005 149.477 19.0005 155L19 1272C19 1277.52 23.4771 1282 29 1282H620H1211C1216.52 1282 1221 1277.52 1221 1272L1221 155C1221 149.477 1216.52 145 1211 145Z" fill="#E9F0F4"/>
<path d="M1211 145H29.0005C23.4776 145 19.0005 149.477 19.0005 155L19 1272C19 1277.52 23.4771 1282 29 1282H620H1211C1216.52 1282 1221 1277.52 1221 1272L1221 155C1221 149.477 1216.52 145 1211 145Z" stroke="#1C1C1C" stroke-width="8" mask="url(#path-5-outside-2_636_359)"/>
<mask id="path-6-inside-3_636_359" fill="white">
<path d="M0 59.4854V9.99999C0 4.47715 4.47715 0 10 0H1115.08H1167.05H1220.21H1261C1266.52 0 1271 4.47715 1271 10V59.4854V129.316H1193.63H204.943H0V59.4854Z"/>
</mask>
<path d="M0 59.4854V9.99999C0 4.47715 4.47715 0 10 0H1115.08H1167.05H1220.21H1261C1266.52 0 1271 4.47715 1271 10V59.4854V129.316H1193.63H204.943H0V59.4854Z" fill="#C4C4C4"/>
<path d="M0 57.4854C-1.10457 57.4854 -2 58.3809 -2 59.4854C-2 60.59 -1.10457 61.4854 0 61.4854V57.4854ZM1271 61.4854C1272.1 61.4854 1273 60.59 1273 59.4854C1273 58.3809 1272.1 57.4854 1271 57.4854V61.4854ZM1222.21 0C1222.21 -1.10457 1221.31 -2 1220.21 -2C1219.1 -2 1218.21 -1.10457 1218.21 0H1222.21ZM1169.05 0C1169.05 -1.10457 1168.16 -2 1167.05 -2C1165.95 -2 1165.05 -1.10457 1165.05 0H1169.05ZM1117.08 0C1117.08 -1.10457 1116.18 -2 1115.08 -2C1113.97 -2 1113.08 -1.10457 1113.08 0H1117.08ZM1191.63 129.316C1191.63 130.421 1192.53 131.316 1193.63 131.316C1194.73 131.316 1195.63 130.421 1195.63 129.316H1191.63ZM202.943 129.316C202.943 130.421 203.838 131.316 204.943 131.316C206.047 131.316 206.943 130.421 206.943 129.316H202.943ZM1123.94 44.5538C1122.83 44.5538 1121.94 45.4492 1121.94 46.5538C1121.94 47.6584 1122.83 48.5538 1123.94 48.5538V44.5538ZM1157.01 48.5538C1158.12 48.5538 1159.01 47.6584 1159.01 46.5538C1159.01 45.4492 1158.12 44.5538 1157.01 44.5538V48.5538ZM1235.84 17.3825C1235.08 16.5769 1233.82 16.5365 1233.01 17.2922C1232.21 18.048 1232.17 19.3136 1232.92 20.1192L1235.84 17.3825ZM1254.74 44.0029C1255.47 44.8286 1256.74 44.903 1257.56 44.1692C1258.39 43.4355 1258.46 42.1713 1257.73 41.3457L1254.74 44.0029ZM1257.73 20.0794C1258.46 19.2538 1258.39 17.9897 1257.56 17.2559C1256.74 16.5221 1255.47 16.5966 1254.74 17.4222L1257.73 20.0794ZM1232.92 41.306C1232.17 42.1115 1232.21 43.3772 1233.01 44.1329C1233.82 44.8887 1235.08 44.8483 1235.84 44.0427L1232.92 41.306ZM1220.21 61.4854H1271V57.4854H1220.21V61.4854ZM1222.21 59.4854V0H1218.21V59.4854H1222.21ZM1165.05 0V59.4854H1169.05V0H1165.05ZM1115.08 61.4854H1167.05V57.4854H1115.08V61.4854ZM1117.08 59.4854V0H1113.08V59.4854H1117.08ZM276.179 85.0034V105.738H280.179V85.0034H276.179ZM288.179 117.738H1170.64V113.738H288.179V117.738ZM1182.64 105.738V85.0033H1178.64V105.738H1182.64ZM1170.64 73.0034H288.179V77.0034H1170.64V73.0034ZM1167.05 61.4854H1193.63V57.4854H1167.05V61.4854ZM1193.63 61.4854H1220.21V57.4854H1193.63V61.4854ZM1191.63 59.4854V129.316H1195.63V59.4854H1191.63ZM0 61.4854H204.943V57.4854H0V61.4854ZM204.943 61.4854H1115.08V57.4854H204.943V61.4854ZM202.943 59.4854V129.316H206.943V59.4854H202.943ZM1123.94 48.5538H1157.01V44.5538H1123.94V48.5538ZM1232.92 20.1192L1244.15 32.081L1247.06 29.3442L1235.84 17.3825L1232.92 20.1192ZM1244.11 32.0412L1254.74 44.0029L1257.73 41.3457L1247.1 29.384L1244.11 32.0412ZM1247.1 32.0412L1257.73 20.0794L1254.74 17.4222L1244.11 29.384L1247.1 32.0412ZM1186.5 48.5538H1198.99V44.5538H1186.5V48.5538ZM1204.46 12.8714H1181.03V16.8714H1204.46V12.8714ZM1174.5 23.9235V36.5538H1178.5V23.9235H1174.5ZM1210.99 36.5538V23.9235H1206.99V36.5538H1210.99ZM1176.5 25.9235H1208.99V21.9235H1176.5V25.9235ZM1210.99 23.9235V19.3974H1206.99V23.9235H1210.99ZM1174.5 19.3974V23.9235H1178.5V19.3974H1174.5ZM1208.99 17.3974H1176.5V21.3974H1208.99V17.3974ZM1244.15 29.3442L1232.92 41.306L1235.84 44.0427L1247.06 32.081L1244.15 29.3442ZM1204.46 16.8714C1205.85 16.8714 1206.99 18.0023 1206.99 19.3974H1210.99C1210.99 15.7932 1208.06 12.8714 1204.46 12.8714V16.8714ZM1198.99 48.5538C1205.61 48.5538 1210.99 43.1812 1210.99 36.5538H1206.99C1206.99 40.9721 1203.4 44.5538 1198.99 44.5538V48.5538ZM1186.5 44.5538C1182.08 44.5538 1178.5 40.9721 1178.5 36.5538H1174.5C1174.5 43.1812 1179.87 48.5538 1186.5 48.5538V44.5538ZM1181.03 12.8714C1177.42 12.8714 1174.5 15.7932 1174.5 19.3974H1178.5C1178.5 18.0023 1179.63 16.8714 1181.03 16.8714V12.8714ZM1182.64 85.0033C1182.64 78.3759 1177.26 73.0034 1170.64 73.0034V77.0034C1175.05 77.0034 1178.64 80.5851 1178.64 85.0033H1182.64ZM1170.64 117.738C1177.26 117.738 1182.64 112.365 1182.64 105.738H1178.64C1178.64 110.156 1175.05 113.738 1170.64 113.738V117.738ZM276.179 105.738C276.179 112.365 281.551 117.738 288.179 117.738V113.738C283.761 113.738 280.179 110.156 280.179 105.738H276.179ZM280.179 85.0034C280.179 80.5851 283.761 77.0034 288.179 77.0034V73.0034C281.551 73.0034 276.179 78.3759 276.179 85.0034H280.179ZM0 129.316H-4C-4 131.525 -2.20914 133.316 0 133.316L0 129.316ZM1271 129.316V133.316C1273.21 133.316 1275 131.525 1275 129.316H1271ZM4 59.4854V9.99999H-4V59.4854H4ZM1267 10V59.4854H1275V10H1267ZM1220.21 4H1261V-4H1220.21V4ZM1167.05 4H1220.21V-4H1167.05V4ZM10 4H1115.08V-4H10V4ZM1115.08 4H1167.05V-4H1115.08V4ZM4 129.316V59.4854H-4V129.316H4ZM1267 59.4854V129.316H1275V59.4854H1267ZM1193.63 133.316H1271V125.316H1193.63V133.316ZM0 133.316H204.943V125.316H0V133.316ZM204.943 133.316H1193.63V125.316H204.943V133.316ZM1275 10C1275 2.26801 1268.73 -4 1261 -4V4C1264.31 4 1267 6.6863 1267 10H1275ZM4 9.99999C4 6.68629 6.68629 4 10 4V-4C2.26802 -4 -4 2.268 -4 9.99999H4Z" fill="#1C1C1C" mask="url(#path-6-inside-3_636_359)"/>
<mask id="path-8-inside-4_636_359" fill="white">
<path d="M0 10V59.4644H204.943H1115.08V0H10C4.47715 0 0 4.47716 0 10Z"/>
</mask>
<path d="M0 10V59.4644H204.943H1115.08V0H10C4.47715 0 0 4.47716 0 10Z" fill="#1A7076"/>
<path d="M1269 10V59.4644H1273V10H1269ZM1220.21 2H1261V-2H1220.21V2ZM1167.05 2H1220.21V-2H1167.05V2ZM1115.08 61.4644H1167.05V57.4644H1115.08V61.4644ZM1115.08 2H1167.05V-2H1115.08V2ZM2 129.27V59.4644H-2V129.27H2ZM1269 59.4644V129.27H1273V59.4644H1269ZM1167.05 61.4644H1193.63V57.4644H1167.05V61.4644ZM1193.63 61.4644H1220.21V57.4644H1193.63V61.4644ZM1123.94 48.5373H1157.01V44.5373H1123.94V48.5373ZM1230.5 16.1683L1244.09 32.0039L1247.12 29.3995L1233.54 13.5639L1230.5 16.1683ZM1244.09 32.0039L1257.67 47.8395L1260.71 45.2352L1247.12 29.3995L1244.09 32.0039ZM1247.12 32.0039L1260.71 16.1683L1257.67 13.5639L1244.09 29.3995L1247.12 32.0039ZM1244.09 29.3995L1230.5 45.2352L1233.54 47.8395L1247.12 32.0039L1244.09 29.3995ZM1273 10C1273 3.37258 1267.63 -2 1261 -2V2C1265.42 2 1269 5.58173 1269 10H1273ZM0 59.4644H-4V63.4644H0V59.4644ZM1115.08 59.4644V63.4644H1119.08V59.4644H1115.08ZM1115.08 0H1119.08V-4H1115.08V0ZM4 59.4644V10H-4V59.4644H4ZM10 4H1115.08V-4H10V4ZM1119.08 59.4644V0H1111.08V59.4644H1119.08ZM0 63.4644H204.943V55.4644H0V63.4644ZM204.943 63.4644H1115.08V55.4644H204.943V63.4644ZM4 10C4 6.68629 6.68629 4 10 4V-4C2.26801 -4 -4 2.26802 -4 10H4Z" fill="#1C1C1C" mask="url(#path-8-inside-4_636_359)"/>
<path d="M235.449 77.4846C241.115 79.2941 245.259 85.0762 245.259 91.9295C245.259 99.5671 240.112 105.874 233.447 106.835M235.449 77.4846L237.713 83.5781M235.449 77.4846L240.731 75.2268M227.903 106.374C222.236 104.565 218.092 98.7827 218.092 91.9295C218.092 84.2918 223.239 77.9846 229.904 77.0238M227.903 106.374L226.393 100.698M227.903 106.374L222.62 108.215" stroke="#1C1C1C" stroke-width="4" stroke-linecap="round" stroke-linejoin="round"/>
<path fill-rule="evenodd" clip-rule="evenodd" d="M93.3045 110.649L116.346 91.6172L93.3045 72.5854V82.5683H71.4443V99.3734H93.3045V110.649Z" fill="#1C1C1C"/>
<path fill-rule="evenodd" clip-rule="evenodd" d="M33.0416 110.649L9.99998 91.6172L33.0416 72.5854V82.5683H54.9017V99.3734H33.0416V110.649Z" fill="#1C1C1C"/>
<path fill-rule="evenodd" clip-rule="evenodd" d="M163.02 70L181.335 87.81H181.335V87.8104L181.335 87.8106H181.335V113.969H169.634V95.0461H161.494V113.969H144.705V87.81H144.706L163.02 70Z" fill="#1C1C1C"/>
<mask id="path-14-outside-5_636_359" maskUnits="userSpaceOnUse" x="258" y="70" width="926" height="49" fill="black">
<rect fill="white" x="258" y="70" width="926" height="49"/>
<path d="M262 104.733V84C262 78.4772 266.477 74 272 74H1169.55C1175.07 74 1179.55 78.4772 1179.55 84V104.733C1179.55 110.255 1175.07 114.733 1169.55 114.733H272C266.477 114.733 262 110.255 262 104.733Z"/>
</mask>
<path d="M262 104.733V84C262 78.4772 266.477 74 272 74H1169.55C1175.07 74 1179.55 78.4772 1179.55 84V104.733C1179.55 110.255 1175.07 114.733 1169.55 114.733H272C266.477 114.733 262 110.255 262 104.733Z" fill="#E9F0F4"/>
<path d="M262 104.733V84C262 78.4772 266.477 74 272 74H1169.55C1175.07 74 1179.55 78.4772 1179.55 84V104.733C1179.55 110.255 1175.07 114.733 1169.55 114.733H272C266.477 114.733 262 110.255 262 104.733Z" stroke="#1C1C1C" stroke-width="8" mask="url(#path-14-outside-5_636_359)"/>
<rect x="1206" y="80.7319" width="50.4519" height="33.958" rx="1" fill="#1C1C1C"/>
<path d="M1208.12 72.6227C1208.27 72.2462 1208.64 72 1209.04 72H1224.3C1224.71 72 1225.07 72.2462 1225.23 72.6227L1226.78 76.4441C1227.05 77.1018 1226.57 77.8214 1225.86 77.8214H1207.49C1206.78 77.8214 1206.29 77.1018 1206.56 76.4441L1208.12 72.6227Z" fill="#1C1C1C"/>
<rect x="1178" y="16" width="29" height="7" fill="#1C1C1C"/>
<rect y="56" width="1117" height="5" fill="#1C1C1C"/>
<rect x="1111" width="6" height="57" fill="#1C1C1C"/>
</svg>
