<svg width="659" height="395" viewBox="0 0 659 395" fill="none" xmlns="http://www.w3.org/2000/svg">
<rect x="104.818" y="369.419" width="20.7903" height="24.5811" fill="#225E1E"/>
<rect x="94.4225" y="344.838" width="20.7903" height="24.5811" fill="#225E1E"/>
<rect x="74.4985" y="328.685" width="30.3191" height="16.1533" fill="#225E1E"/>
<rect x="64.9696" y="319.554" width="30.3191" height="9.13013" fill="#225E1E"/>
<rect x="74.4985" y="311.829" width="11.2614" height="9.13013" fill="#225E1E"/>
<rect x="33.7842" y="269.69" width="31.1854" height="9.13013" fill="#225E1E"/>
<rect x="33.7842" y="260.56" width="31.1854" height="9.13013" fill="#225E1E"/>
<rect x="44.1793" y="230.36" width="20.7903" height="30.1996" fill="#11A803"/>
<rect x="33.7842" y="221.23" width="10.3951" height="16.1533" fill="#11A803"/>
<rect x="64.9696" y="245.811" width="10.3951" height="33.0089" fill="#11A803"/>
<rect x="33.7842" y="303.401" width="11.2614" height="9.13013" fill="#225E1E"/>
<rect x="53.7082" y="319.554" width="11.2614" height="9.13013" fill="#225E1E"/>
<rect x="63.2371" y="328.685" width="11.2614" height="9.13013" fill="#225E1E"/>
<rect x="44.1793" y="221.23" width="11.2614" height="9.13013" fill="#11A803"/>
<rect x="56.307" y="162.235" width="11.2614" height="18.2603" fill="#11A803"/>
<rect x="22.5228" y="196.649" width="11.2614" height="33.7112" fill="#11A803"/>
<rect x="45.0456" y="171.365" width="11.2614" height="33.7112" fill="#11A803"/>
<rect x="22.5228" y="147.487" width="11.2614" height="49.1622" fill="#225E1E"/>
<rect x="33.7842" y="131.333" width="11.2614" height="49.1622" fill="#225E1E"/>
<rect x="45.0456" y="56.8879" width="11.2614" height="83.5758" fill="#11A803"/>
<rect x="33.7842" y="65.3154" width="11.2614" height="66.0178" fill="#11A803"/>
<rect x="22.5228" y="113.775" width="11.2614" height="33.7112" fill="#11A803"/>
<rect y="140.463" width="11.2614" height="23.8788" fill="#11A803"/>
<rect x="75.3647" y="229.658" width="11.2614" height="33.7112" fill="#225E1E"/>
<rect x="64.9696" y="196.649" width="11.2614" height="49.1622" fill="#225E1E"/>
<rect x="55.4407" y="180.496" width="9.52888" height="49.8645" fill="#225E1E"/>
<rect x="11.2614" y="131.333" width="11.2614" height="23.8788" fill="#11A803"/>
<rect x="56.307" y="81.4688" width="11.2614" height="49.8645" fill="#11A803"/>
<rect x="11.2614" y="155.212" width="11.2614" height="33.0089" fill="#225E1E"/>
<rect y="163.64" width="11.2614" height="16.8556" fill="#225E1E"/>
<rect x="45.0456" y="154.51" width="11.2614" height="16.8556" fill="#225E1E"/>
<rect x="45.0456" y="205.077" width="11.2614" height="16.8556" fill="#225E1E"/>
<rect x="33.7842" y="180.496" width="11.2614" height="40.7344" fill="#11A803"/>
<rect x="273.739" y="153.105" width="11.2614" height="18.2603" fill="#11A803"/>
<rect x="262.477" y="162.235" width="11.2614" height="33.7112" fill="#11A803"/>
<rect x="239.954" y="138.356" width="11.2614" height="49.1622" fill="#225E1E"/>
<rect x="251.216" y="122.203" width="11.2614" height="49.1622" fill="#225E1E"/>
<rect x="262.477" y="47.7576" width="11.2614" height="83.5758" fill="#11A803"/>
<rect x="251.216" y="56.1855" width="11.2614" height="66.0178" fill="#11A803"/>
<rect x="239.954" y="104.645" width="11.2614" height="33.7112" fill="#11A803"/>
<rect x="217.432" y="131.333" width="11.2614" height="23.8788" fill="#11A803"/>
<rect x="272.872" y="171.365" width="9.52888" height="49.8645" fill="#225E1E"/>
<rect x="228.693" y="122.203" width="11.2614" height="23.8788" fill="#11A803"/>
<rect x="273.739" y="72.3389" width="11.2614" height="49.8645" fill="#11A803"/>
<rect x="228.693" y="146.082" width="11.2614" height="33.0089" fill="#225E1E"/>
<rect x="217.432" y="154.51" width="11.2614" height="16.8556" fill="#225E1E"/>
<rect x="262.477" y="145.38" width="11.2614" height="16.8556" fill="#225E1E"/>
<rect x="251.216" y="171.365" width="11.2614" height="40.7344" fill="#11A803"/>
<rect x="94.4225" y="369.419" width="11.2614" height="9.13013" fill="#225E1E"/>
<rect x="84.0274" y="344.838" width="11.2614" height="18.2603" fill="#225E1E"/>
<rect x="44.1793" y="303.401" width="30.3191" height="16.1533" fill="#225E1E"/>
<rect x="33.7842" y="278.82" width="40.7143" height="24.5811" fill="#225E1E"/>
<rect x="123.875" y="212.802" width="31.1854" height="9.13013" fill="#225E1E"/>
<rect x="110.015" y="246.513" width="71.8997" height="18.2603" fill="#225E1E"/>
<rect x="98.7538" y="255.644" width="31.1854" height="9.13013" fill="#225E1E"/>
<rect x="118.678" y="264.774" width="31.1854" height="9.13013" fill="#225E1E"/>
<rect x="142.067" y="264.774" width="31.1854" height="18.2603" fill="#225E1E"/>
<rect x="123.875" y="203.672" width="31.1854" height="9.13013" fill="#225E1E"/>
<rect x="134.271" y="173.472" width="20.7903" height="33.7112" fill="#11A803"/>
<rect x="123.875" y="164.342" width="10.3951" height="16.1533" fill="#11A803"/>
<rect x="155.061" y="188.923" width="10.3951" height="33.0089" fill="#11A803"/>
<rect x="134.271" y="164.342" width="11.2614" height="9.13013" fill="#11A803"/>
<rect x="146.398" y="105.347" width="11.2614" height="18.2603" fill="#11A803"/>
<rect x="164.59" y="139.761" width="12.1277" height="33.0089" fill="#11A803"/>
<rect x="176.717" y="146.784" width="11.2614" height="35.8182" fill="#11A803"/>
<rect x="187.979" y="155.914" width="11.2614" height="16.8556" fill="#11A803"/>
<rect x="112.614" y="139.761" width="11.2614" height="33.7112" fill="#11A803"/>
<rect x="102.219" y="139.761" width="11.2614" height="33.7112" fill="#11A803"/>
<rect x="91.8237" y="145.38" width="11.2614" height="33.7112" fill="#11A803"/>
<rect x="103.085" y="173.472" width="11.2614" height="33.7112" fill="#11A803"/>
<rect x="112.614" y="173.472" width="22.5228" height="33.7112" fill="#11A803"/>
<rect x="135.137" y="114.478" width="11.2614" height="33.7112" fill="#11A803"/>
<rect x="112.614" y="90.5989" width="11.2614" height="49.1622" fill="#225E1E"/>
<rect x="123.875" y="74.4456" width="11.2614" height="49.1622" fill="#225E1E"/>
<rect x="135.137" width="11.2614" height="83.5758" fill="#11A803"/>
<rect x="123.875" y="8.42773" width="11.2614" height="66.0178" fill="#11A803"/>
<rect x="112.614" y="56.8879" width="11.2614" height="33.7112" fill="#11A803"/>
<rect x="90.0912" y="83.5759" width="11.2614" height="23.8788" fill="#11A803"/>
<rect x="165.456" y="172.77" width="11.2614" height="33.7112" fill="#225E1E"/>
<rect x="155.061" y="139.761" width="11.2614" height="49.1622" fill="#225E1E"/>
<rect x="145.532" y="123.608" width="9.52888" height="49.8645" fill="#225E1E"/>
<rect x="101.353" y="74.4456" width="11.2614" height="23.8788" fill="#11A803"/>
<rect x="146.398" y="24.5811" width="11.2614" height="49.8645" fill="#11A803"/>
<rect x="101.353" y="98.3245" width="11.2614" height="33.0089" fill="#225E1E"/>
<rect x="90.0912" y="106.752" width="11.2614" height="16.8556" fill="#225E1E"/>
<rect x="135.137" y="97.6221" width="11.2614" height="16.8556" fill="#225E1E"/>
<rect x="135.137" y="148.189" width="11.2614" height="16.8556" fill="#225E1E"/>
<rect x="138.602" y="316.043" width="16.459" height="37.2228" fill="#11A803"/>
<rect x="150.729" y="257.048" width="11.2614" height="18.2603" fill="#11A803"/>
<rect x="168.921" y="291.462" width="12.1277" height="33.0089" fill="#11A803"/>
<rect x="181.049" y="298.485" width="11.2614" height="35.8182" fill="#11A803"/>
<rect x="139.468" y="266.178" width="11.2614" height="33.7112" fill="#11A803"/>
<rect x="155.061" y="291.462" width="15.5927" height="102.538" fill="#225E1E"/>
<rect x="149.863" y="275.308" width="9.52888" height="49.8645" fill="#225E1E"/>
<rect x="139.468" y="249.323" width="11.2614" height="16.8556" fill="#225E1E"/>
<rect x="139.468" y="299.89" width="11.2614" height="16.8556" fill="#225E1E"/>
<rect x="128.207" y="328.685" width="11.2614" height="25.2834" fill="#225E1E"/>
<rect x="115.213" y="344.838" width="11.2614" height="25.2834" fill="#225E1E"/>
<rect x="123.875" y="123.608" width="11.2614" height="40.7344" fill="#11A803"/>
<rect x="151.596" y="230.36" width="11.2614" height="18.2603" fill="#11A803"/>
<rect x="117.812" y="264.774" width="11.2614" height="33.7112" fill="#11A803"/>
<rect x="107.416" y="264.774" width="11.2614" height="33.7112" fill="#11A803"/>
<rect x="97.0213" y="270.392" width="11.2614" height="33.7112" fill="#11A803"/>
<rect x="140.334" y="239.49" width="11.2614" height="33.7112" fill="#11A803"/>
<rect x="129.073" y="248.62" width="11.2614" height="40.7344" fill="#11A803"/>
<rect x="123.875" y="221.932" width="40.7143" height="26.6881" fill="#225E1E"/>
<rect x="125.608" y="353.266" width="30.3191" height="40.7344" fill="#225E1E"/>
<rect x="524.307" y="267.348" width="11.2614" height="18.2603" fill="#11A803"/>
<rect x="513.046" y="276.478" width="11.2614" height="33.7112" fill="#11A803"/>
<rect x="490.523" y="252.599" width="11.2614" height="49.1622" fill="#225E1E"/>
<rect x="501.784" y="236.446" width="11.2614" height="49.1622" fill="#225E1E"/>
<rect x="513.046" y="162" width="11.2614" height="83.5758" fill="#11A803"/>
<rect x="501.784" y="170.428" width="11.2614" height="66.0178" fill="#11A803"/>
<rect x="490.523" y="218.888" width="11.2614" height="33.7112" fill="#11A803"/>
<rect x="523.441" y="285.608" width="9.52888" height="49.8645" fill="#225E1E"/>
<rect x="479.261" y="236.446" width="11.2614" height="23.8788" fill="#11A803"/>
<rect x="524.307" y="186.581" width="11.2614" height="49.8645" fill="#11A803"/>
<rect x="479.261" y="260.324" width="11.2614" height="33.0089" fill="#225E1E"/>
<rect x="513.046" y="259.622" width="11.2614" height="16.8556" fill="#225E1E"/>
<rect x="501.784" y="285.608" width="11.2614" height="40.7344" fill="#11A803"/>
<rect x="408.169" y="350.613" width="11.0824" height="20.0772" transform="rotate(5.82466 408.169 350.613)" fill="#F13431"/>
<rect x="603.365" y="370.02" width="11.0824" height="20.0772" transform="rotate(5.82466 603.365 370.02)" fill="#F13431"/>
<rect x="420.213" y="341.75" width="11.0824" height="10.0386" transform="rotate(5.82466 420.213 341.75)" fill="#F13431"/>
<rect x="404.225" y="280.08" width="11.0824" height="10.0386" transform="rotate(5.82466 404.225 280.08)" fill="#F13431"/>
<rect x="631.426" y="313.348" width="11.0824" height="10.0386" transform="rotate(5.82466 631.426 313.348)" fill="#F13431"/>
<rect x="429.331" y="252.369" width="11.0824" height="10.0386" transform="rotate(5.82466 429.331 252.369)" fill="#F13431"/>
<rect x="612.432" y="281.138" width="11.0824" height="10.0386" transform="rotate(5.82466 612.432 281.138)" fill="#F13431"/>
<rect x="397.275" y="239.008" width="11.0824" height="20.0772" transform="rotate(5.82466 397.275 239.008)" fill="#F13431"/>
<rect x="646.526" y="274.525" width="11.0824" height="20.0772" transform="rotate(5.82466 646.526 274.525)" fill="#F13431"/>
<rect x="453.289" y="345.125" width="119.689" height="10.0386" transform="rotate(5.82466 453.289 345.125)" fill="#F13431"/>
<rect x="463.346" y="355.737" width="119.689" height="10.0386" transform="rotate(5.82466 463.346 355.737)" fill="#F13431"/>
<rect x="432.257" y="332.888" width="162.911" height="10.0386" transform="rotate(5.82466 432.257 332.888)" fill="#F13431"/>
<rect x="445.269" y="314.539" width="173.993" height="10.0386" transform="rotate(5.82466 445.269 314.539)" fill="#F13431"/>
<rect x="424.237" y="302.303" width="164.019" height="10.0386" transform="rotate(5.82466 424.237 302.303)" fill="#F13431"/>
<rect x="469.357" y="296.815" width="108.607" height="10.0386" transform="rotate(5.82466 469.357 296.815)" fill="#F13431"/>
<rect x="429.252" y="362.35" width="11.0824" height="10.0386" transform="rotate(5.82466 429.252 362.35)" fill="#F13431"/>
<rect x="441.245" y="353.987" width="11.0824" height="10.0386" transform="rotate(5.82466 441.245 353.987)" fill="#F13431"/>
<rect x="462.327" y="365.724" width="11.0824" height="10.0386" transform="rotate(5.82466 462.327 365.724)" fill="#F13431"/>
<rect x="593.308" y="359.408" width="11.0824" height="10.0386" transform="rotate(5.82466 593.308 359.408)" fill="#F13431"/>
<rect x="549.426" y="374.609" width="11.0824" height="10.0386" transform="rotate(5.82466 549.426 374.609)" fill="#F13431"/>
<rect x="541.874" y="333.98" width="43.7753" height="10.0386" transform="rotate(5.82466 541.874 333.98)" fill="#F13431"/>
<rect x="444.25" y="324.526" width="64.8318" height="10.0386" transform="rotate(5.82466 444.25 324.526)" fill="#F13431"/>
<rect x="403.206" y="290.067" width="33.2471" height="10.0386" transform="rotate(5.82466 403.206 290.067)" fill="#F13431"/>
<rect x="608.357" y="321.085" width="33.2471" height="10.0386" transform="rotate(5.82466 608.357 321.085)" fill="#F13431"/>
<rect x="394.218" y="268.969" width="44.3294" height="10.0386" transform="rotate(5.82466 394.218 268.969)" fill="#F13431"/>
<rect x="610.395" y="301.112" width="44.3294" height="10.0386" transform="rotate(5.82466 610.395 301.112)" fill="#F13431"/>
<rect x="611.414" y="291.125" width="44.3294" height="10.0386" transform="rotate(5.82466 611.414 291.125)" fill="#F13431"/>
<rect x="395.237" y="258.982" width="44.3294" height="10.0386" transform="rotate(5.82466 395.237 258.982)" fill="#F13431"/>
<rect x="581.399" y="377.87" width="11.0824" height="10.0386" transform="rotate(5.82466 581.399 377.87)" fill="#F13431"/>
<rect x="477.875" y="267.916" width="32.1388" height="29.112" transform="rotate(5.82466 477.875 267.916)" fill="black"/>
<rect x="542.372" y="274.496" width="33.2471" height="29.112" transform="rotate(5.82466 542.372 274.496)" fill="black"/>
<rect x="489.367" y="258.998" width="11.0824" height="10.0386" transform="rotate(5.82466 489.367 258.998)" fill="black"/>
<rect x="554.416" y="265.634" width="11.0824" height="10.0386" transform="rotate(5.82466 554.416 265.634)" fill="black"/>
<rect x="509.349" y="330.662" width="32.693" height="10.0386" transform="rotate(5.82466 509.349 330.662)" fill="black"/>
<rect x="488.349" y="268.985" width="11.0824" height="10.0386" transform="rotate(5.82466 488.349 268.985)" fill="#D9D9D9"/>
<rect x="486.413" y="287.959" width="11.0824" height="10.0386" transform="rotate(5.82466 486.413 287.959)" fill="#D9D9D9"/>
<rect x="553.397" y="275.62" width="11.0824" height="10.0386" transform="rotate(5.82466 553.397 275.62)" fill="#D9D9D9"/>
<rect x="551.461" y="294.595" width="11.0824" height="10.0386" transform="rotate(5.82466 551.461 294.595)" fill="#D9D9D9"/>
<rect x="449.885" y="363.408" width="10.0934" height="10.1974" fill="#F58C15"/>
<rect x="245.264" y="363.408" width="10.0934" height="10.1974" fill="#F58C15"/>
<rect x="255.357" y="307.785" width="20.1868" height="25.03" fill="#391506"/>
<rect x="354.456" y="307.785" width="20.1868" height="25.03" fill="#391506"/>
<rect x="384.736" y="363.408" width="10.0934" height="10.1974" fill="#F58C15"/>
<rect x="180.115" y="363.408" width="10.0934" height="10.1974" fill="#F58C15"/>
<rect x="190.209" y="353.21" width="44.9615" height="20.3948" fill="#66270C"/>
<rect x="179.198" y="198.395" width="271.604" height="22.2489" fill="#66270C"/>
<rect x="190.209" y="312.421" width="44.9615" height="20.3948" fill="#391506"/>
<rect x="168.187" y="255.871" width="66.9835" height="20.3948" fill="#391506"/>
<rect x="255.357" y="255.871" width="122.038" height="20.3948" fill="#391506"/>
<rect x="393.912" y="255.871" width="67.9011" height="20.3948" fill="#391506"/>
<rect x="255.357" y="353.21" width="119.286" height="20.3948" fill="#66270C"/>
<rect x="394.83" y="353.21" width="44.9615" height="20.3948" fill="#66270C"/>
<rect x="394.83" y="312.421" width="44.9615" height="20.3948" fill="#391506"/>
<rect x="170.022" y="363.408" width="10.0934" height="30.5923" fill="#C05F02"/>
<rect x="235.17" y="363.408" width="10.0934" height="10.1974" fill="#C05F02"/>
<rect x="374.643" y="363.408" width="10.0934" height="10.1974" fill="#C05F02"/>
<rect x="439.791" y="363.408" width="10.0934" height="10.1974" fill="#C05F02"/>
<rect x="180.115" y="373.605" width="279.863" height="20.3948" fill="#C05F02"/>
<rect x="170.022" y="297.588" width="20.1868" height="10.1974" fill="#C05F02"/>
<rect x="235.17" y="297.588" width="20.1868" height="10.1974" fill="#C05F02"/>
<rect x="255.357" y="297.588" width="30.2802" height="10.1974" fill="#66270C"/>
<rect x="344.363" y="297.588" width="30.2802" height="10.1974" fill="#66270C"/>
<rect x="374.643" y="297.588" width="20.1868" height="10.1974" fill="#C05F02"/>
<rect x="439.791" y="297.588" width="20.1868" height="10.1974" fill="#C05F02"/>
<rect x="275.544" y="276.266" width="10.0934" height="21.3219" fill="#C05F02"/>
<rect x="275.544" y="307.785" width="10.0934" height="25.03" fill="#66270C"/>
<rect x="344.363" y="307.785" width="10.0934" height="25.03" fill="#66270C"/>
<rect x="344.363" y="276.266" width="10.0934" height="21.3219" fill="#C05F02"/>
<rect x="235.17" y="307.785" width="20.1868" height="55.6223" fill="#F58C15"/>
<rect x="170.022" y="307.785" width="20.1868" height="55.6223" fill="#F58C15"/>
<rect x="148" y="220.644" width="20.1868" height="55.6223" fill="#FFB930"/>
<rect x="235.17" y="220.644" width="20.1868" height="55.6223" fill="#FFB930"/>
<rect x="374.643" y="220.644" width="20.1868" height="55.6223" fill="#FFB930"/>
<rect x="461.813" y="220.644" width="20.1868" height="55.6223" fill="#FFB930"/>
<rect x="374.643" y="307.785" width="20.1868" height="55.6223" fill="#F58C15"/>
<rect x="439.791" y="307.785" width="20.1868" height="55.6223" fill="#F58C15"/>
<rect x="190.209" y="343.013" width="44.9615" height="10.1974" fill="#391506"/>
<rect x="168.187" y="230.841" width="66.9835" height="10.1974" fill="#391506"/>
<rect x="255.357" y="230.841" width="119.286" height="10.1974" fill="#391506"/>
<rect x="394.83" y="230.841" width="66.9835" height="10.1974" fill="#391506"/>
<rect x="190.209" y="332.815" width="44.9615" height="10.1974" fill="#66270C"/>
<rect x="168.187" y="220.644" width="66.9835" height="10.1974" fill="#66270C"/>
<rect x="394.83" y="220.644" width="66.9835" height="10.1974" fill="#66270C"/>
<rect x="255.357" y="220.644" width="119.286" height="10.1974" fill="#66270C"/>
<rect x="190.209" y="297.588" width="44.9615" height="14.8326" fill="#66270C"/>
<rect x="168.187" y="241.039" width="66.9835" height="14.8326" fill="#66270C"/>
<rect x="394.83" y="241.039" width="66.9835" height="14.8326" fill="#66270C"/>
<rect x="255.357" y="241.039" width="119.286" height="14.8326" fill="#66270C"/>
<rect x="394.83" y="297.588" width="44.9615" height="14.8326" fill="#66270C"/>
<rect x="394.83" y="343.013" width="44.9615" height="10.1974" fill="#391506"/>
<rect x="394.83" y="332.815" width="44.9615" height="10.1974" fill="#66270C"/>
<rect x="255.357" y="343.013" width="119.286" height="10.1974" fill="#D9D9D9"/>
<rect x="255.357" y="343.013" width="119.286" height="10.1974" fill="#391506"/>
<rect x="192.044" y="187.271" width="247.747" height="11.1245" fill="#391506"/>
<rect x="255.357" y="332.815" width="119.286" height="10.1974" fill="#66270C"/>
<rect x="207.643" y="178" width="227.56" height="10.1974" fill="#66270C"/>
<rect x="285.637" y="261.434" width="58.7253" height="71.382" fill="#FFB930"/>
<rect x="148" y="276.266" width="127.544" height="21.3219" fill="#FFB930"/>
<rect x="354.456" y="276.266" width="127.544" height="21.3219" fill="#FFB930"/>
<rect x="309.495" y="287.391" width="10.0934" height="10.1974" fill="#34435A"/>
<rect x="309.495" y="297.588" width="10.0934" height="10.1974" fill="#030405"/>
<rect x="297.566" y="261.434" width="46.7967" height="10.1974" fill="#FACD77"/>
<rect x="157.176" y="198.395" width="22.022" height="22.2489" fill="#FACD77"/>
<rect x="235.17" y="209.519" width="20.1868" height="11.1245" fill="#FACD77"/>
<rect x="374.643" y="209.519" width="20.1868" height="11.1245" fill="#FACD77"/>
<rect x="243.429" y="198.395" width="22.022" height="11.1245" fill="#FACD77"/>
<rect x="368.22" y="198.395" width="22.022" height="11.1245" fill="#FACD77"/>
<rect x="243.429" y="187.271" width="22.022" height="11.1245" fill="#FFB930"/>
<rect x="368.22" y="187.271" width="22.022" height="11.1245" fill="#FFB930"/>
<rect x="253.522" y="178" width="22.022" height="9.27039" fill="#FACD77"/>
<rect x="359.962" y="178" width="22.022" height="9.27039" fill="#FACD77"/>
<rect x="170.022" y="188.198" width="22.022" height="10.1974" fill="#FFB930"/>
<rect x="439.791" y="188.198" width="22.022" height="10.1974" fill="#FFB930"/>
<rect x="185.621" y="178" width="22.022" height="10.1974" fill="#FACD77"/>
<rect x="428.78" y="178" width="22.022" height="10.1974" fill="#FACD77"/>
<rect x="450.802" y="198.395" width="22.022" height="22.2489" fill="#FACD77"/>
</svg>
