<svg width="108" height="45" viewBox="0 0 108 45" fill="none" xmlns="http://www.w3.org/2000/svg">
<rect x="4.25146" y="16.98" width="18.4229" height="4.07527" fill="#F13431"/>
<rect x="4.25146" y="31.2437" width="18.4229" height="4.07527" fill="#F13431"/>
<rect x="4.25146" y="39.394" width="18.4229" height="4.07527" fill="#9F2D2D"/>
<rect x="3.05176e-05" y="21.0554" width="4.25144" height="10.1882" fill="#F13431"/>
<rect x="22.6743" y="21.0554" width="4.25144" height="10.1882" fill="#F13431"/>
<rect x="4.25146" y="35.3184" width="18.4229" height="4.07527" fill="#9F2D2D"/>
<rect x="4.25146" y="21.0554" width="18.4229" height="10.1882" fill="#9F2D2D"/>
<rect x="3.05176e-05" y="31.2437" width="4.25144" height="8.15054" fill="#9F2D2D"/>
<rect x="22.6743" y="31.2437" width="4.25144" height="8.15054" fill="#9F2D2D"/>
<rect x="46.0572" y="-0.000244141" width="18.4229" height="4.07527" fill="#F13431"/>
<rect x="46.0572" y="14.2634" width="18.4229" height="4.07527" fill="#F13431"/>
<rect x="46.0572" y="22.4141" width="18.4229" height="4.07527" fill="#9F2D2D"/>
<rect x="41.8058" y="4.07495" width="4.25144" height="10.1882" fill="#F13431"/>
<rect x="64.4801" y="4.07495" width="4.25144" height="10.1882" fill="#F13431"/>
<rect x="46.0572" y="18.3386" width="18.4229" height="4.07527" fill="#9F2D2D"/>
<rect x="46.0572" y="4.07495" width="18.4229" height="10.1882" fill="#9F2D2D"/>
<rect x="41.8058" y="14.2634" width="4.25144" height="8.15054" fill="#9F2D2D"/>
<rect x="64.4801" y="14.2634" width="4.25144" height="8.15054" fill="#9F2D2D"/>
<rect x="85.0288" y="17.6594" width="18.4229" height="4.07527" fill="#F13431"/>
<rect x="85.0288" y="31.9226" width="18.4229" height="4.07527" fill="#F13431"/>
<rect x="85.0288" y="40.0735" width="18.4229" height="4.07527" fill="#9F2D2D"/>
<rect x="80.7774" y="21.7346" width="4.25144" height="10.1882" fill="#F13431"/>
<rect x="103.452" y="21.7346" width="4.25144" height="10.1882" fill="#F13431"/>
<rect x="85.0288" y="35.9978" width="18.4229" height="4.07527" fill="#9F2D2D"/>
<rect x="85.0288" y="21.7346" width="18.4229" height="10.1882" fill="#9F2D2D"/>
<rect x="80.7774" y="31.9226" width="4.25144" height="8.15054" fill="#9F2D2D"/>
<rect x="103.452" y="31.9226" width="4.25144" height="8.15054" fill="#9F2D2D"/>
</svg>
