<svg width="1440" height="90" viewBox="0 0 1440 90" fill="none" xmlns="http://www.w3.org/2000/svg">
<path d="M6.10217 15.8274C-5.15711 14.1296 -14.2199 10.0028 -26 9.80738V89.6501H1437V0.650146C1433.01 2.30298 1433.13 6.06522 1430.05 8.62033C1427.16 11.0124 1421.92 13.0837 1420.03 15.9122C1414.91 23.5504 1404.6 30.1337 1398.35 37.6182C1392.41 44.7405 1386.12 61.6984 1374.43 61.6984C1366.88 61.6984 1352.49 59.429 1345.91 62.4615C1334.7 67.627 1329.3 69.5253 1316.46 67.888C1297.87 65.5155 1278.52 63.2246 1259.42 63.2246C1247.9 63.2246 1233.66 57.9419 1222.71 54.9152C1211.89 51.9239 1200.52 49.4533 1190 46.0971C1179.83 42.8553 1169.97 32.7005 1158.71 32.7005H1108.82C1104.48 32.7005 1096.9 31.4825 1093.08 33.4636C1090.59 34.7527 1088.58 35.6779 1085.51 35.7529C1080.58 35.8732 1071.97 37.0723 1068.13 34.2267C1054.99 24.4767 1035.98 32.7005 1020.08 32.7005C1012.84 32.7005 1005.98 34.9121 999.02 36.516C993.55 37.7761 984.509 37.5046 979.697 39.6532C970.039 43.9663 959.178 50.2637 948.924 52.8803C932.855 56.9808 905.45 55.5608 889.525 52.6259C875.636 50.0662 866.87 43.6179 850.266 44.9949C845.219 45.4135 841.122 49.6708 836.26 51.0149C830.196 52.6913 823.946 52.5411 817.653 52.5411C792.007 52.5411 735.635 40.6706 710 40.6706C634.5 64 597.034 47.9625 525.155 47.9625C511.242 47.9625 498.997 43.7593 485.59 40.6706C470.024 37.0846 457.842 35.0721 441.424 35.7529C436.796 35.9448 430.782 37.3206 426.293 38.4661C412.829 41.902 398.435 43.3015 384.785 46.4363C379.011 47.7625 359.646 51.7005 353.501 47.6233C346.382 42.9004 339.313 37.3681 330.089 35.6681C315.838 33.0417 301.879 32.3481 287.865 28.1218C276.503 24.6952 267.074 19.4191 254.536 17.4384C241.973 15.4538 230.304 9.95711 217.833 8.36596C202.217 6.3735 187.68 14.0815 173.156 17.4384C157.637 21.0254 141.998 17.4384 126.332 17.4384L126.008 17.4384C111.824 17.4385 95.5606 17.4387 81.757 15.1491C64.3261 12.2578 43.185 8.02876 25.527 12.0967C20.0964 13.3478 11.7592 16.6804 6.10217 15.8274Z" fill="#1C75AA"/>
<path d="M26.4392 58.2732C11.8021 62.4552 -4.61984 63.9177 -20.6343 63.9177L-20.0001 89.6501H1440.14V54.3326C1422.66 63.0683 1397.82 59.6269 1380.71 70.6273C1361.65 82.8779 1331.77 64.3729 1315.53 55.8236C1276.27 35.1596 1236.09 35.1609 1193.07 35.1624L1191.99 35.1624C1185.16 35.1624 1179.63 38.9965 1172.82 38.9965C1162.41 38.9965 1152.42 39.8026 1142.15 41.7655C1129.08 44.2621 1116.03 46.8755 1102.95 49.3271C1098.6 50.143 1087.48 48.3046 1085.06 52.4156C1082.14 57.3758 1077.15 58.1667 1071.96 58.1667H1029.04C1005.19 58.1667 982.594 43.9558 958.963 42.8305C935.248 41.7012 914.882 29.4114 891.442 29.4114H860.343C848.301 29.4114 827.629 51.9304 816.5 46.984C797.828 38.6855 786.45 78.4875 772.5 62.0007C763.698 51.5979 753.52 51.8089 741.016 52.7351C715 67.6453 693.758 63.5458 673.5 62.0007C652.549 60.4028 637.112 49.0076 616.09 49.0076C612.509 49.0076 606.324 48.2063 604.162 51.9896C598.438 62.0079 573.112 30.8517 563 35C550.846 39.9861 541.932 36.5734 530.012 42.085C522.49 45.5628 514.288 46.0439 506.901 49.327C501.427 51.7599 496.701 41.271 491.21 44.3215C479.778 50.6727 467.253 54.8244 456.278 62.0007C445.509 69.0422 433.737 67.7518 421.239 67.7518C417.041 67.7518 411.917 68.5558 407.82 67.6453C402.425 66.4465 398.371 59.566 393.442 57.1017C386.008 53.3844 382.364 44.7475 373.314 44.7475C365.41 44.7475 357.446 45.3721 349.777 43.2565C326.045 36.7098 303.442 37.0794 278.421 37.0794C267.574 37.0794 251.113 35.3053 242.424 28.9854C233.795 22.7102 221.249 22.0058 211.325 18.3352C202.338 15.0114 192.209 7.89802 183.635 10.3477C178.757 11.7414 174.592 16.4644 169.896 17.9092C165.175 19.362 154.238 21.0211 150.407 24.0863C140.632 31.9063 131.394 27.0452 120.267 29.5179C114.415 30.8182 111.519 33.2454 105.037 33.2454H89.5944C77.1447 33.2454 66.0763 36.1957 53.7035 37.0794C40.862 37.9967 37.3922 55.1438 26.4392 58.2732Z" fill="#0F5685"/>
</svg>
