<svg width="449" height="457" viewBox="0 0 449 457" fill="none" xmlns="http://www.w3.org/2000/svg">
<path d="M130.418 33.0013C131.562 32.9922 131.797 31.3797 130.703 31.0451L108.507 24.2581L107.209 33.1863L130.418 33.0013Z" fill="#02365E"/>
<path d="M47.8957 89.1453L49.0443 88.2541L50.2465 89.0717C57.983 94.3334 65.9582 96.3146 73.834 95.0954C81.7377 93.8718 89.7797 89.3873 97.5351 81.2756C105.154 73.3063 108.069 64.6489 109.3 57.2671C109.918 53.561 110.11 50.186 110.26 47.3367C110.265 47.2353 110.271 47.1344 110.276 47.0339C110.344 45.7397 110.407 44.5272 110.505 43.4762C110.609 42.3646 110.764 41.2789 111.067 40.3774C111.888 37.9411 112.707 33.2598 112.414 28.5722C112.116 23.8101 110.717 19.6405 107.722 17.4795C101.138 12.7301 91.9515 14.2166 87.202 20.7999L25.1777 106.771L47.8957 89.1453Z" fill="#F2463A" stroke="#02365E" stroke-width="4"/>
<circle r="2.78306" transform="matrix(-0.98716 0.159733 0.159733 0.98716 99.4453 26.2876)" fill="#02365E"/>
<path d="M47.0131 76.5849L67.1878 52.0976C69.6353 49.1269 74.1567 48.6105 76.5845 51.5972C86.1864 63.4093 75.6467 72.5832 67.5957 78.8592C66.9518 79.3611 66.0685 79.4153 65.3642 79.0022L64.2398 78.3429C63.5456 77.9358 62.6751 77.9844 62.0305 78.4663L56.7912 82.3834C55.6907 83.2062 54.1308 82.366 54.2124 80.9943C54.2733 79.9688 53.3737 79.1478 52.3579 79.3021L48.8571 79.8339C47.0431 80.1095 45.8464 78.001 47.0131 76.5849Z" fill="#FFB264" stroke="#02365E" stroke-width="4" stroke-linecap="round" stroke-linejoin="round"/>
<path d="M81.2798 35.9962L76.973 39.3502" stroke="#FFB264" stroke-width="3" stroke-linecap="round"/>
<path d="M86.1548 39.072L82.0654 44.3246" stroke="#FFB264" stroke-width="3" stroke-linecap="round"/>
<line x1="1.5" y1="-1.5" x2="5.54065" y2="-1.5" transform="matrix(-0.382464 0.92397 0.92397 0.382464 94.7031 42.2793)" stroke="#FFB264" stroke-width="3" stroke-linecap="round"/>
<path d="M440.087 213C440.087 213 443.115 220.157 444.087 225C444.858 228.849 444.997 231.077 445.087 235C445.203 240.091 445.104 243.011 444.087 248C443.1 252.841 442.567 255.729 440.087 260C437.243 264.897 434.31 266.728 430.087 270.5C423.704 276.202 419.146 278.162 412.087 283C406.637 286.736 403.394 288.565 398.087 292.5C392.845 296.388 389.63 298.316 385.087 303C381.116 307.095 379.372 309.839 376.087 314.5C372.247 319.948 370.108 323.06 367.087 329C364.309 334.463 363.01 337.682 361.087 343.5C359.689 347.728 358.087 354.5 358.087 354.5M353.999 376.5C353.999 376.5 347.564 388.386 339.5 395C333.882 399.609 330.161 401.597 323.5 404.5C314.644 408.361 309.143 409.908 299.5 410.5C291.277 411.006 286.646 409.732 278.5 408.5C272.404 407.579 269.116 406.284 263 405.5C257.177 404.755 253.858 404.113 248 404.5C241.005 404.964 237.03 405.949 230.5 408.5C225.129 410.599 217.5 415.5 217.5 415.5" stroke="#02365E" stroke-width="6" stroke-linecap="round"/>
<path d="M296.656 388.309C300.993 402.893 313.939 405.373 319.869 404.79C320.494 371.607 296.884 368.519 285 371.123C287.078 370.775 292.318 373.725 296.656 388.309Z" fill="#2B99D6" stroke="#02365E" stroke-width="4" stroke-linecap="round" stroke-linejoin="round"/>
<path d="M293.254 376.663C298.095 385.964 306.156 400.145 312.582 400.553" stroke="#E1F3FF" stroke-width="4" stroke-linecap="round" stroke-linejoin="round"/>
<path d="M296.656 388.309C300.993 402.893 313.939 405.373 319.869 404.79C320.494 371.607 296.884 368.519 285 371.123C287.078 370.775 292.318 373.725 296.656 388.309Z" stroke="#02365E" stroke-width="4" stroke-linecap="round" stroke-linejoin="round"/>
<path d="M316.65 401.638C313.126 396.342 305.53 385.515 303.34 384.582" stroke="#02365E" stroke-width="4" stroke-linecap="round" stroke-linejoin="round"/>
<path d="M412.031 247.855C415.45 241.017 434.826 242.157 444.086 243.581C441.237 269.225 408.232 270.887 392.086 268.513C397.31 264.476 408.612 254.694 412.031 247.855Z" fill="#2B99D6" stroke="#02365E" stroke-width="4" stroke-linecap="round" stroke-linejoin="round"/>
<path d="M439.661 244.505C431.063 244.505 415.242 247.486 406.988 257.115" stroke="#E1F3FF" stroke-width="4" stroke-linecap="round" stroke-linejoin="round"/>
<path d="M412.031 247.855C415.45 241.017 434.826 242.157 444.086 243.581C441.237 269.225 408.232 270.887 392.086 268.513C397.31 264.476 408.612 254.694 412.031 247.855Z" stroke="#02365E" stroke-width="4" stroke-linecap="round" stroke-linejoin="round"/>
<path d="M443.675 243.932C443.675 243.932 434.504 251.383 423.613 254.249" stroke="#02365E" stroke-width="4" stroke-linecap="round" stroke-linejoin="round"/>
<path d="M379.955 307.993C369.122 314.953 344.283 326.962 331.595 319.321C334.581 306.899 348.434 287.242 379.955 307.993Z" fill="#2B99D6" stroke="#02365E" stroke-width="4" stroke-linecap="round" stroke-linejoin="round"/>
<path d="M370.619 307.093C362.885 303.571 351.42 300.836 342.008 307.706" stroke="#E1F3FF" stroke-width="4" stroke-linecap="round" stroke-linejoin="round"/>
<path d="M379.955 307.993C369.122 314.953 344.283 326.962 331.595 319.321C334.581 306.899 348.434 287.242 379.955 307.993Z" stroke="#02365E" stroke-width="4" stroke-linecap="round" stroke-linejoin="round"/>
<path d="M377.498 308.734C371.526 307.59 358.504 305.982 354.184 308.71" stroke="#02365E" stroke-width="4" stroke-linecap="round" stroke-linejoin="round"/>
<path d="M279.672 408.25C270.19 415.305 251.965 432.023 254.915 442.452C265.473 439.3 285.206 428.048 279.672 408.25Z" fill="#2B99D6" stroke="#02365E" stroke-width="4" stroke-linecap="round" stroke-linejoin="round"/>
<path d="M276.263 413.084C281.049 419.373 270.212 433.436 265.227 437.936" stroke="#E1F3FF" stroke-width="4" stroke-linecap="round" stroke-linejoin="round"/>
<path d="M279.672 408.25C270.19 415.305 251.965 432.023 254.915 442.452C265.473 439.3 285.206 428.048 279.672 408.25Z" stroke="#02365E" stroke-width="4" stroke-linecap="round" stroke-linejoin="round"/>
<path d="M280.541 408.432L267.546 427.607" stroke="#02365E" stroke-width="4" stroke-linecap="round" stroke-linejoin="round"/>
<path d="M228.267 409.001C220.843 420.814 207.081 446.312 211.421 453.79C197.917 446.107 182.381 426.392 228.267 409.001Z" fill="#2B99D6" stroke="#02365E" stroke-width="4" stroke-linecap="round" stroke-linejoin="round"/>
<path d="M220.582 415.945C216.539 420.677 208.761 433.875 209.989 448.818" stroke="#E1F3FF" stroke-width="4" stroke-linecap="round" stroke-linejoin="round"/>
<path d="M228.267 409.001C220.843 420.814 207.081 446.312 211.421 453.79C197.917 446.107 182.381 426.392 228.267 409.001Z" stroke="#02365E" stroke-width="4" stroke-linecap="round" stroke-linejoin="round"/>
<path d="M222.677 413.791L211.183 427.764" stroke="#02365E" stroke-width="4" stroke-linecap="round" stroke-linejoin="round"/>
<path d="M404.163 287.692C387.207 295.86 394.484 341.931 394.484 341.931C412.603 341.721 417.455 295.23 404.163 287.692Z" fill="#2B99D6" stroke="#02365E" stroke-width="4" stroke-linecap="round" stroke-linejoin="round"/>
<path d="M400.073 301.526C397.092 310.463 397.437 316.298 396.718 320.327" stroke="#E1F3FF" stroke-width="4" stroke-linecap="round" stroke-linejoin="round"/>
<path d="M404.163 287.692C387.207 295.86 394.484 341.931 394.484 341.931C412.603 341.721 417.455 295.23 404.163 287.692Z" stroke="#02365E" stroke-width="4" stroke-linecap="round" stroke-linejoin="round"/>
<path d="M405.155 288.575C403.693 295.474 402.28 304.691 403.408 313.899" stroke="#02365E" stroke-width="4" stroke-linecap="round" stroke-linejoin="round"/>
</svg>
