<svg width="493" height="405" viewBox="0 0 493 405" fill="none" xmlns="http://www.w3.org/2000/svg">
<path d="M303.844 271.338C303.844 268.814 305.89 266.769 308.413 266.769H310.202V312.865H303.844V271.338Z" fill="#02365E"/>
<path d="M322.519 328.113C326.793 305.442 346.598 289.022 369.668 289.022H431.945C455.016 289.022 474.82 305.442 479.094 328.113L482.791 347.72C488.094 375.854 466.516 401.88 437.887 401.88H363.727C335.098 401.88 313.52 375.854 318.823 347.72L322.519 328.113Z" fill="#F2463A" stroke="#02365E" stroke-width="4.34716"/>
<path d="M293.906 328.113C298.18 305.442 317.984 289.022 341.055 289.022H403.332C426.403 289.022 446.207 305.442 450.481 328.113L454.177 347.72C459.481 375.854 437.903 401.88 409.274 401.88H335.114C306.484 401.88 284.906 375.854 290.21 347.72L293.906 328.113Z" fill="#FA9018" stroke="#02365E" stroke-width="4.34716"/>
<path d="M398.682 396.434C423.734 394.575 443.111 373.707 443.111 348.586V337.927C443.111 332.377 451.142 331.627 452.17 337.081L454.176 347.72C459.48 375.854 437.902 401.88 409.272 401.88H325.301L398.682 396.434Z" fill="#FB6B14"/>
<path d="M458.441 266.537H460.23C462.754 266.537 464.8 268.582 464.8 271.106V312.633H458.441V266.537Z" fill="#02365E"/>
<rect x="462.223" y="266.537" width="6.80498" height="155.002" transform="rotate(90 462.223 266.537)" fill="#02365E"/>
<rect x="341.992" y="262" width="74.7086" height="15.8954" rx="4.56946" fill="#FC8E15"/>
<rect x="341.992" y="273.127" width="74.7086" height="4.76863" rx="2.38432" fill="#FB6B14"/>
<rect x="412.13" y="264.079" width="4.15859" height="11.7197" rx="2.0793" fill="#F2463A" stroke="#02365E" stroke-width="4.15859"/>
<line x1="341.099" y1="328.066" x2="409.649" y2="328.066" stroke="#02365E" stroke-width="4.56946" stroke-linecap="round"/>
<path d="M347.953 339.888H410.526" stroke="#02365E" stroke-width="4.56946" stroke-linecap="round"/>
<path d="M347.252 351.015H410.528" stroke="#02365E" stroke-width="4.56946" stroke-linecap="round"/>
<line x1="341.101" y1="361.447" x2="409.651" y2="361.447" stroke="#02365E" stroke-width="4.56946" stroke-linecap="round"/>
<path d="M344.663 361.632C335.074 369.319 321.068 367.776 313.381 358.186L330.745 344.268L348.109 330.35C355.796 339.94 354.253 353.945 344.663 361.632Z" fill="#FB6B14"/>
<path fill-rule="evenodd" clip-rule="evenodd" d="M330.867 366.91C343.157 366.91 353.121 356.946 353.121 344.656C353.121 332.366 343.157 322.402 330.867 322.402C318.577 322.402 308.613 332.366 308.613 344.656C308.613 356.946 318.577 366.91 330.867 366.91ZM330.867 360.551C339.646 360.551 346.762 353.435 346.762 344.656C346.762 335.877 339.646 328.761 330.867 328.761C322.088 328.761 314.971 335.877 314.971 344.656C314.971 353.435 322.088 360.551 330.867 360.551Z" fill="#FED9AF"/>
<path d="M350.947 344.656C350.947 355.746 341.957 364.736 330.867 364.736V369.083C344.358 369.083 355.294 358.147 355.294 344.656H350.947ZM330.867 324.576C341.957 324.576 350.947 333.566 350.947 344.656H355.294C355.294 331.165 344.358 320.229 330.867 320.229V324.576ZM310.787 344.656C310.787 333.566 319.777 324.576 330.867 324.576V320.229C317.376 320.229 306.44 331.165 306.44 344.656H310.787ZM330.867 364.736C319.777 364.736 310.787 355.746 310.787 344.656H306.44C306.44 358.147 317.376 369.083 330.867 369.083V364.736ZM344.589 344.656C344.589 352.234 338.445 358.378 330.867 358.378V362.725C340.846 362.725 348.936 354.635 348.936 344.656H344.589ZM330.867 330.934C338.445 330.934 344.589 337.078 344.589 344.656H348.936C348.936 334.677 340.846 326.587 330.867 326.587V330.934ZM317.145 344.656C317.145 337.078 323.288 330.934 330.867 330.934V326.587C320.887 326.587 312.798 334.677 312.798 344.656H317.145ZM330.867 358.378C323.288 358.378 317.145 352.234 317.145 344.656H312.798C312.798 354.635 320.887 362.725 330.867 362.725V358.378Z" fill="#02365E"/>
<circle cx="330.865" cy="344.656" r="9.53727" fill="#02365E"/>
<path fill-rule="evenodd" clip-rule="evenodd" d="M332.594 341.755L326.884 332.359L328.429 343.248C327.952 344.082 327.829 345.111 328.178 346.087C328.812 347.858 330.762 348.78 332.533 348.146C334.304 347.513 335.226 345.563 334.593 343.792C334.243 342.815 333.493 342.097 332.594 341.755Z" fill="#FE2F21"/>
<path d="M293.906 328.113C298.18 305.442 317.984 289.022 341.055 289.022H403.332C426.403 289.022 446.207 305.442 450.481 328.113L454.177 347.72C459.481 375.854 437.903 401.88 409.274 401.88H335.114C306.484 401.88 284.906 375.854 290.21 347.72L293.906 328.113Z" stroke="#02365E" stroke-width="4.34716"/>
<rect x="394.928" y="308.123" width="9.53727" height="9.53727" rx="4.56946" fill="#F2463A" stroke="#02365E" stroke-width="4.34716"/>
<rect x="424.416" y="308.097" width="9.53727" height="9.53727" rx="4.56946" fill="#F2463A" stroke="#02365E" stroke-width="4.34716"/>
<rect x="408.537" y="308.123" width="9.53727" height="9.53727" rx="4.56946" fill="#F2463A" stroke="#02365E" stroke-width="4.34716"/>
<path d="M304.639 323.992C306.758 315.25 316.083 298.083 336.43 299.355" stroke="#FED9AF" stroke-width="9.13892" stroke-linecap="round" stroke-linejoin="round"/>
<rect x="341.992" y="262" width="74.7086" height="15.8954" rx="4.56946" stroke="#02365E" stroke-width="4.34716"/>
<path d="M348.352 265.256H388.09" stroke="#FED9AF" stroke-width="9.13892" stroke-linecap="round" stroke-linejoin="round"/>
<line x1="2.17358" y1="-2.17358" x2="17.9161" y2="-2.17358" transform="matrix(0.860767 -0.508999 0.256436 0.966561 461.621 363.14)" stroke="#02365E" stroke-width="4.34716" stroke-linecap="round"/>
<line x1="2.17358" y1="-2.17358" x2="17.9161" y2="-2.17358" transform="matrix(0.860763 -0.509006 0.256431 0.966562 463.396 370.979)" stroke="#02365E" stroke-width="4.34716" stroke-linecap="round"/>
<line x1="2.17358" y1="-2.17358" x2="17.9161" y2="-2.17358" transform="matrix(0.860767 -0.508999 0.256436 0.966561 463.859 378.786)" stroke="#02365E" stroke-width="4.34716" stroke-linecap="round"/>
<line x1="2.17358" y1="-2.17358" x2="17.9161" y2="-2.17358" transform="matrix(0.860767 -0.508999 0.256436 0.966561 463.014 386.561)" stroke="#02365E" stroke-width="4.34716" stroke-linecap="round"/>
<ellipse cx="461.844" cy="314.549" rx="4.9147" ry="7.93913" fill="#02365E"/>
<path d="M87.9672 269.099L60.4844 237.048L91.1796 213.094L118.662 245.145" stroke="#02365E" stroke-width="10" stroke-linejoin="round"/>
<ellipse rx="13.2735" ry="8.61635" transform="matrix(0.788359 -0.615216 0.650942 0.759127 82.3777 274.042)" fill="#02365E"/>
<ellipse rx="13.2735" ry="8.61635" transform="matrix(0.788359 -0.615216 0.650942 0.759127 113.034 250.799)" fill="#02365E"/>
<path d="M27.7273 118.14L22.4883 76.2466L61.3048 73.2036L66.5438 115.097" stroke="#02365E" stroke-width="10" stroke-linejoin="round"/>
<ellipse rx="13.2735" ry="8.61635" transform="matrix(0.99694 -0.0781555 0.124086 0.992272 20.3372 119.179)" fill="#02365E"/>
<ellipse rx="13.2735" ry="8.61635" transform="matrix(0.99694 -0.0781555 0.124086 0.992272 58.7298 116.706)" fill="#02365E"/>
<path d="M94.0606 51.6915L109.539 12.9497L144.328 26.8487L128.849 65.5905" stroke="#02365E" stroke-width="10" stroke-linejoin="round"/>
<ellipse cx="87.2848" cy="47.7683" rx="12.7712" ry="8.51416" transform="rotate(21.7782 87.2848 47.7683)" fill="#02365E"/>
<ellipse cx="122.049" cy="61.678" rx="12.7712" ry="8.51416" transform="rotate(21.7782 122.049 61.678)" fill="#02365E"/>
<path d="M102.48 29.9111L137.054 44.5907" stroke="#02365E" stroke-width="10" stroke-linecap="round" stroke-linejoin="round"/>
<path d="M68.9102 149.719C69.7121 154.225 67.3069 159.355 74.8852 164.678C79.8111 168.139 78.114 175.796 73.7234 181.836" stroke="#02365E" stroke-width="10" stroke-linecap="round" stroke-linejoin="round"/>
<path d="M51.4269 187.858L68.3574 150.615" stroke="#02365E" stroke-width="10" stroke-linecap="round" stroke-linejoin="round"/>
<ellipse rx="12.5238" ry="8.34923" transform="matrix(0.910352 0.413838 -0.413838 0.910349 44.7115 184.595)" fill="#02365E"/>
</svg>
