<svg width="382" height="480" viewBox="0 0 382 480" fill="none" xmlns="http://www.w3.org/2000/svg">
<path fill-rule="evenodd" clip-rule="evenodd" d="M207.861 420.898L234.177 262.375L184.979 415.351C184.562 416.172 184.233 417.053 184.007 417.987C182.433 424.479 186.42 431.018 192.913 432.592C199.405 434.166 205.944 430.179 207.518 423.686C207.744 422.753 207.855 421.819 207.861 420.898Z" fill="#FFEBA5"/>
<path fill-rule="evenodd" clip-rule="evenodd" d="M85.1937 356.238L211.482 256.872L72.0293 336.717C71.1684 337.043 70.3313 337.472 69.5351 338.009C63.9966 341.744 62.5346 349.262 66.2697 354.801C70.0048 360.339 77.5226 361.801 83.0611 358.066C83.8574 357.529 84.5693 356.914 85.1937 356.238Z" fill="#FFEBA5"/>
<path fill-rule="evenodd" clip-rule="evenodd" d="M420.899 271.497L262.375 245.18L415.351 294.379C416.172 294.795 417.053 295.124 417.987 295.35C424.479 296.924 431.018 292.937 432.592 286.445C434.166 279.953 430.179 273.414 423.686 271.84C422.753 271.614 421.819 271.502 420.899 271.497Z" fill="#FFEBA5"/>
<path fill-rule="evenodd" clip-rule="evenodd" d="M356.237 394.163L256.872 267.876L336.717 407.328C337.043 408.189 337.472 409.026 338.009 409.822C341.744 415.361 349.262 416.823 354.8 413.088C360.339 409.352 361.801 401.835 358.066 396.296C357.529 395.5 356.914 394.788 356.237 394.163Z" fill="#FFEBA5"/>
<path fill-rule="evenodd" clip-rule="evenodd" d="M64.0063 184.978L216.983 234.176L58.4595 207.86C57.5391 207.854 56.6048 207.743 55.6714 207.517C49.1791 205.943 45.192 199.404 46.7659 192.912C48.3398 186.419 54.8787 182.432 61.3709 184.006C62.3042 184.232 63.1857 184.561 64.0063 184.978Z" fill="#FFEBA5"/>
<path fill-rule="evenodd" clip-rule="evenodd" d="M142.641 72.0293L222.485 211.481L123.12 85.193C122.444 84.5686 121.829 83.8568 121.292 83.0607C117.557 77.5221 119.019 70.0043 124.557 66.2692C130.096 62.5341 137.613 63.9961 141.349 69.5346C141.886 70.331 142.315 71.1682 142.641 72.0293Z" fill="#FFEBA5"/>
<path fill-rule="evenodd" clip-rule="evenodd" d="M294.38 64.0065L245.181 216.983L271.498 58.4594C271.503 57.5391 271.614 56.6048 271.841 55.6715C273.415 49.1792 279.953 45.1921 286.446 46.7659C292.938 48.3398 296.925 54.8787 295.351 61.371C295.125 62.3043 294.796 63.1858 294.38 64.0065Z" fill="#FFEBA5"/>
<path fill-rule="evenodd" clip-rule="evenodd" d="M407.328 142.641L267.876 222.485L394.164 123.12C394.789 122.444 395.501 121.829 396.297 121.292C401.835 117.557 409.353 119.019 413.088 124.557C416.823 130.096 415.361 137.614 409.823 141.349C409.026 141.886 408.189 142.315 407.328 142.641Z" fill="#FFEBA5"/>
<path fill-rule="evenodd" clip-rule="evenodd" d="M165.68 350.864L229.198 252.834L152.038 340.53C151.522 340.956 151.047 341.448 150.625 342.005C147.693 345.876 148.454 351.391 152.325 354.323C156.196 357.255 161.711 356.494 164.643 352.623C165.065 352.066 165.41 351.476 165.68 350.864Z" fill="#E8B500"/>
<path fill-rule="evenodd" clip-rule="evenodd" d="M102.673 272.189L215.667 242.585L99.5586 255.36C98.8905 255.327 98.2082 255.371 97.5219 255.497C92.7469 256.381 89.592 260.968 90.4753 265.743C91.3585 270.518 95.9454 273.672 100.72 272.789C101.407 272.662 102.06 272.459 102.673 272.189Z" fill="#E8B500"/>
<path fill-rule="evenodd" clip-rule="evenodd" d="M351.011 313.072L252.981 249.554L340.676 326.714C341.103 327.23 341.595 327.705 342.152 328.126C346.022 331.059 351.537 330.297 354.469 326.427C357.401 322.556 356.64 317.041 352.769 314.109C352.213 313.687 351.623 313.342 351.011 313.072Z" fill="#E8B500"/>
<path fill-rule="evenodd" clip-rule="evenodd" d="M272.335 376.079L242.732 263.084L255.506 379.193C255.473 379.861 255.517 380.544 255.644 381.23C256.527 386.005 261.114 389.16 265.889 388.276C270.664 387.393 273.819 382.806 272.936 378.031C272.809 377.345 272.605 376.692 272.335 376.079Z" fill="#E8B500"/>
<path fill-rule="evenodd" clip-rule="evenodd" d="M138.22 151.893L225.916 229.054L127.887 165.536C127.275 165.265 126.684 164.92 126.128 164.499C122.257 161.566 121.496 156.052 124.428 152.181C127.36 148.31 132.875 147.549 136.746 150.481C137.302 150.902 137.794 151.377 138.22 151.893Z" fill="#E8B500"/>
<path fill-rule="evenodd" clip-rule="evenodd" d="M223.393 99.414L236.167 215.522L206.563 102.526C206.294 101.914 206.09 101.261 205.963 100.575C205.08 95.7997 208.235 91.2128 213.01 90.3295C217.785 89.4463 222.372 92.6012 223.255 97.3762C223.382 98.0628 223.426 98.7456 223.393 99.414Z" fill="#E8B500"/>
<path fill-rule="evenodd" clip-rule="evenodd" d="M326.859 138.076L249.698 225.772L313.216 127.742C313.487 127.13 313.832 126.54 314.254 125.983C317.186 122.112 322.7 121.351 326.571 124.283C330.442 127.215 331.203 132.73 328.271 136.601C327.85 137.158 327.375 137.65 326.859 138.076Z" fill="#E8B500"/>
<path fill-rule="evenodd" clip-rule="evenodd" d="M379.338 223.246L263.23 236.021L376.226 206.417C376.838 206.147 377.491 205.944 378.177 205.817C382.952 204.934 387.539 208.089 388.422 212.864C389.306 217.639 386.151 222.225 381.376 223.109C380.689 223.236 380.007 223.279 379.338 223.246Z" fill="#E8B500"/>
</svg>
