<svg width="460" height="437" viewBox="0 0 460 437" fill="none" xmlns="http://www.w3.org/2000/svg">
<path fill-rule="evenodd" clip-rule="evenodd" d="M247.001 123.325C247.99 123.325 248.379 122.042 247.555 121.493L216.943 101.105C216.607 100.882 216.17 100.882 215.834 101.105L185.222 121.493C184.398 122.042 184.787 123.325 185.776 123.325H247.001ZM250.777 124.326C250.777 123.774 250.329 123.326 249.777 123.326H183C182.448 123.326 182 123.774 182 124.326V188.588C182 189.141 182.448 189.588 183 189.588H249.777C250.329 189.588 250.777 189.141 250.777 188.588V124.326Z" fill="url(#paint0_linear_191_2884)"/>
<rect x="202.633" y="147.422" width="27.5108" height="42.167" rx="1" fill="url(#paint1_linear_191_2884)"/>
<path fill-rule="evenodd" clip-rule="evenodd" d="M216.454 152.693H216.324C216.345 152.693 216.367 152.693 216.389 152.693C216.41 152.693 216.432 152.693 216.454 152.693ZM203.633 140.645C203.081 140.645 202.628 140.196 202.68 139.646C203.26 133.46 209.176 128.598 216.389 128.598C223.601 128.598 229.517 133.46 230.097 139.646C230.149 140.196 229.696 140.645 229.144 140.645H203.633Z" fill="url(#paint2_linear_191_2884)"/>
<rect x="188.879" y="148.174" width="6.87771" height="24.0954" rx="1" fill="url(#paint3_linear_191_2884)"/>
<rect x="237.021" y="148.174" width="6.87771" height="24.0954" rx="1" fill="url(#paint4_linear_191_2884)"/>
<rect x="182" y="189.588" width="68.7771" height="66.2624" rx="1" fill="url(#paint5_linear_191_2884)"/>
<path fill-rule="evenodd" clip-rule="evenodd" d="M317.56 111.277C318.476 111.277 318.91 110.149 318.231 109.535L285.836 80.2581C285.455 79.914 284.876 79.914 284.495 80.2581L252.1 109.535C251.42 110.149 251.855 111.277 252.77 111.277H317.56ZM319.554 112.277C319.554 111.725 319.107 111.277 318.554 111.277H251.777C251.225 111.277 250.777 111.725 250.777 112.277V188.588C250.777 189.14 251.225 189.588 251.777 189.588H318.554C319.107 189.588 319.554 189.14 319.554 188.588V112.277Z" fill="url(#paint6_linear_191_2884)"/>
<path d="M284.562 90.6537C284.919 90.3827 285.413 90.3827 285.771 90.6537L300.666 101.952C301.43 102.531 301.02 103.749 300.062 103.749H270.271C269.312 103.749 268.903 102.531 269.666 101.952L284.562 90.6537Z" fill="url(#paint7_linear_191_2884)"/>
<path fill-rule="evenodd" clip-rule="evenodd" d="M274.849 133.114V162.233C274.849 162.785 274.401 163.233 273.849 163.233H262.094C261.541 163.233 261.094 162.785 261.094 162.233V133.114C261.094 133.114 261.094 133.113 261.094 133.113C261.094 129.787 264.173 127.09 267.971 127.09C271.77 127.09 274.849 129.787 274.849 133.113C274.849 133.113 274.849 133.114 274.849 133.114Z" fill="url(#paint8_linear_191_2884)"/>
<path fill-rule="evenodd" clip-rule="evenodd" d="M298.985 148.927H298.855C298.876 148.927 298.898 148.927 298.92 148.927C298.941 148.927 298.963 148.927 298.985 148.927ZM286.164 136.88C285.612 136.88 285.159 136.43 285.211 135.88C285.791 129.694 291.707 124.832 298.92 124.832C306.132 124.832 312.049 129.694 312.629 135.88C312.68 136.43 312.227 136.88 311.675 136.88H286.164Z" fill="url(#paint9_linear_191_2884)"/>
<rect x="250.777" y="189.588" width="68.7771" height="66.2624" rx="1" fill="url(#paint10_linear_191_2884)"/>
<rect x="296.342" y="213.684" width="13.7554" height="12.0477" rx="1" fill="url(#paint11_linear_191_2884)"/>
<rect x="261.953" y="195.611" width="48.1439" height="12.0477" rx="1" fill="url(#paint12_linear_191_2884)"/>
<rect x="285.164" y="142.902" width="27.5108" height="42.167" rx="1" fill="url(#paint13_linear_191_2884)"/>
<rect x="292.041" y="148.926" width="13.7554" height="12.0477" rx="1" fill="url(#paint14_linear_191_2884)"/>
<rect x="258.514" y="213.684" width="27.5108" height="42.167" rx="1" fill="url(#paint15_linear_191_2884)"/>
<path d="M409.781 243.977C409.692 243.611 409.97 243.258 410.348 243.258H455.11C455.487 243.258 455.765 243.611 455.677 243.977L452.104 258.83C452.041 259.092 451.807 259.276 451.537 259.276H413.921C413.651 259.276 413.417 259.092 413.353 258.83L409.781 243.977Z" fill="url(#paint16_linear_191_2884)"/>
<path d="M406.305 243.841C406.305 243.519 406.566 243.258 406.888 243.258H458.57C458.892 243.258 459.153 243.519 459.153 243.841V248.5C459.153 248.822 458.892 249.083 458.57 249.083H406.888C406.566 249.083 406.305 248.822 406.305 248.5V243.841Z" fill="url(#paint17_linear_191_2884)"/>
<path d="M419.492 192.789L432.281 177.533C432.514 177.255 432.941 177.255 433.174 177.533L445.962 192.789C446.281 193.168 446.011 193.747 445.516 193.747H441.758C441.274 193.747 441.001 194.303 441.297 194.686L453.886 211.01C454.181 211.394 453.908 211.95 453.424 211.95H447.937C447.456 211.95 447.182 212.5 447.472 212.885L457.619 226.305C457.91 226.689 457.636 227.24 457.154 227.24H454.615C454.121 227.24 453.851 227.816 454.167 228.196L461.66 237.206C461.976 237.586 461.706 238.162 461.211 238.162H404.28C403.78 238.162 403.512 237.574 403.84 237.196L411.656 228.206C411.985 227.829 411.717 227.24 411.216 227.24H407.139C406.644 227.24 406.374 226.662 406.692 226.283L417.888 212.907C418.206 212.528 417.936 211.95 417.441 211.95H412.487C411.995 211.95 411.724 211.378 412.035 210.998L425.344 194.699C425.655 194.318 425.384 193.747 424.892 193.747H419.939C419.444 193.747 419.174 193.168 419.492 192.789Z" fill="url(#paint18_linear_191_2884)"/>
<path d="M158.309 32.5771L143.193 30.1152V259.889H158.309V32.5771Z" fill="url(#paint19_linear_191_2884)"/>
<rect width="19.7662" height="4.37576" rx="1" transform="matrix(-1 0 0 1 93.875 69.4648)" fill="url(#paint20_linear_191_2884)"/>
<path d="M223.592 33.3145L222.3 20.2371L45.512 38.3256L46.3734 47.0439L223.592 33.3145Z" fill="url(#paint21_linear_191_2884)"/>
<rect width="9.87497" height="17.5213" rx="1" transform="matrix(-0.997013 0.0772403 0.0983221 0.995155 224.957 18.0508)" fill="url(#paint22_linear_191_2884)"/>
<rect x="72" y="171" width="109.608" height="86.2429" rx="1" fill="url(#paint23_linear_191_2884)"/>
<rect x="77.7695" y="216.658" width="28.8442" height="20.2925" rx="1" fill="url(#paint24_linear_191_2884)"/>
<rect x="146.996" y="216.658" width="28.8442" height="20.2925" rx="1" fill="url(#paint25_linear_191_2884)"/>
<rect x="115.266" y="216.658" width="23.0754" height="40.5849" rx="1" fill="url(#paint26_linear_191_2884)"/>
<rect x="77.7695" y="176.707" width="98.0703" height="20.2925" rx="1" fill="url(#paint27_linear_191_2884)"/>
<ellipse cx="92.5468" cy="225.536" rx="11.5449" ry="5.07311" fill="url(#paint28_linear_191_2884)"/>
<rect x="321" y="164" width="109.608" height="86.2429" rx="1" fill="url(#paint29_linear_191_2884)"/>
<rect x="326.77" y="209.658" width="28.8442" height="20.2925" rx="1" fill="url(#paint30_linear_191_2884)"/>
<rect x="395.996" y="209.658" width="28.8442" height="20.2925" rx="1" fill="url(#paint31_linear_191_2884)"/>
<rect x="364.266" y="209.658" width="23.0754" height="40.5849" rx="1" fill="url(#paint32_linear_191_2884)"/>
<rect x="326.77" y="169.707" width="98.0703" height="20.2925" rx="1" fill="url(#paint33_linear_191_2884)"/>
<ellipse cx="341.547" cy="218.536" rx="11.5449" ry="5.07311" fill="url(#paint34_linear_191_2884)"/>
<path d="M0.744141 268.433V259.354H37.737H96.9255H168.797H215.303H285.061H297.215H460.512V353.704V406.998V437L411.893 417.262L404.495 410.551H394.982L342.135 378.179L315.183 355.283L297.215 356.862L285.061 353.704L248.596 330.017H235.384L225.344 338.308L188.351 315.016L144.488 307.079L129.162 304.306L103.267 299.62H55.7049L0.744141 268.433Z" fill="url(#paint35_linear_191_2884)"/>
<path d="M225.683 338.308L188.743 315.016L144.944 307.079L129.64 304.306L81.6193 289.356H66.3158L51.0124 277.908L35.709 270.407L38.3475 259.354H97.4504L88.4794 280.276L144.944 307.079L188.743 315.016L225.683 338.308L235.709 330.017H248.901L285.313 353.704L297.45 356.862L315.392 355.283L342.305 378.179L395.076 410.551H404.574L411.962 417.262L460.511 437V406.998L404.574 390.023L370.801 379.759L320.669 340.281H306.949L301.672 348.572L278.981 341.861L254.179 309.489L227.793 313.832L213.018 304.306L188.743 296.462H160.775L169.218 259.354H215.656H285.313H297.45H460.511V353.704V406.998V437L411.962 417.262L404.574 410.551H395.076L342.305 378.179L315.392 355.283L297.45 356.862L285.313 353.704L248.901 330.017H235.709L225.683 338.308Z" fill="url(#paint36_linear_191_2884)"/>
<path d="M160.695 296.462L169.141 259.354H215.591L185.504 289.356L188.671 296.462L212.952 304.306L227.732 313.832L254.124 309.489L285.267 259.354H297.407L301.63 304.306L317.993 335.285L330.134 327.649L366.555 331.597L379.223 340.281L383.974 327.649L401.393 331.597L409.311 325.28L424.618 335.285L435.175 331.597L460.512 353.704V406.998L404.56 390.023L370.778 379.759L320.633 340.281H306.909L301.63 348.572L278.933 341.861L254.124 309.489L227.732 313.832L212.952 304.306L188.671 296.462H160.695Z" fill="url(#paint37_linear_191_2884)"/>
<path d="M0 258.24C0 262.238 169.298 265.479 374.88 265.479C403.938 265.479 434.858 265.414 462 265.292V251.187C434.858 251.065 403.938 251 374.88 251C169.298 251 0 254.241 0 258.24Z" fill="url(#paint38_linear_191_2884)"/>
<defs>
<linearGradient id="paint0_linear_191_2884" x1="216.389" y1="100.938" x2="216.389" y2="189.588" gradientUnits="userSpaceOnUse">
<stop stop-color="#006EAD"/>
<stop offset="1" stop-color="#006EAD" stop-opacity="0"/>
</linearGradient>
<linearGradient id="paint1_linear_191_2884" x1="216.388" y1="147.422" x2="216.388" y2="189.589" gradientUnits="userSpaceOnUse">
<stop stop-color="#006EAD"/>
<stop offset="1" stop-color="#006EAD" stop-opacity="0"/>
</linearGradient>
<linearGradient id="paint2_linear_191_2884" x1="216.389" y1="128.598" x2="216.389" y2="152.693" gradientUnits="userSpaceOnUse">
<stop stop-color="#006EAD"/>
<stop offset="1" stop-color="#006EAD" stop-opacity="0"/>
</linearGradient>
<linearGradient id="paint3_linear_191_2884" x1="192.318" y1="148.174" x2="192.318" y2="172.269" gradientUnits="userSpaceOnUse">
<stop stop-color="#006EAD"/>
<stop offset="1" stop-color="#006EAD" stop-opacity="0"/>
</linearGradient>
<linearGradient id="paint4_linear_191_2884" x1="240.46" y1="148.174" x2="240.46" y2="172.269" gradientUnits="userSpaceOnUse">
<stop stop-color="#006EAD"/>
<stop offset="1" stop-color="#006EAD" stop-opacity="0"/>
</linearGradient>
<linearGradient id="paint5_linear_191_2884" x1="216.389" y1="189.588" x2="216.389" y2="255.85" gradientUnits="userSpaceOnUse">
<stop stop-color="#006EAD"/>
<stop offset="1" stop-color="#006EAD" stop-opacity="0"/>
</linearGradient>
<linearGradient id="paint6_linear_191_2884" x1="285.166" y1="80" x2="285.166" y2="189.588" gradientUnits="userSpaceOnUse">
<stop stop-color="#006EAD"/>
<stop offset="1" stop-color="#006EAD" stop-opacity="0"/>
</linearGradient>
<linearGradient id="paint7_linear_191_2884" x1="285.166" y1="90.1953" x2="285.166" y2="108.267" gradientUnits="userSpaceOnUse">
<stop stop-color="#006EAD"/>
<stop offset="1" stop-color="#006EAD" stop-opacity="0"/>
</linearGradient>
<linearGradient id="paint8_linear_191_2884" x1="267.972" y1="127.09" x2="267.972" y2="163.233" gradientUnits="userSpaceOnUse">
<stop stop-color="#006EAD"/>
<stop offset="1" stop-color="#006EAD" stop-opacity="0"/>
</linearGradient>
<linearGradient id="paint9_linear_191_2884" x1="298.92" y1="124.832" x2="298.92" y2="148.927" gradientUnits="userSpaceOnUse">
<stop stop-color="#006EAD"/>
<stop offset="1" stop-color="#006EAD" stop-opacity="0"/>
</linearGradient>
<linearGradient id="paint10_linear_191_2884" x1="285.166" y1="189.588" x2="285.166" y2="255.85" gradientUnits="userSpaceOnUse">
<stop stop-color="#006EAD"/>
<stop offset="1" stop-color="#006EAD" stop-opacity="0"/>
</linearGradient>
<linearGradient id="paint11_linear_191_2884" x1="303.22" y1="213.684" x2="303.22" y2="225.731" gradientUnits="userSpaceOnUse">
<stop stop-color="#006EAD"/>
<stop offset="1" stop-color="#006EAD" stop-opacity="0"/>
</linearGradient>
<linearGradient id="paint12_linear_191_2884" x1="286.025" y1="195.611" x2="286.025" y2="207.659" gradientUnits="userSpaceOnUse">
<stop stop-color="#006EAD"/>
<stop offset="1" stop-color="#006EAD" stop-opacity="0"/>
</linearGradient>
<linearGradient id="paint13_linear_191_2884" x1="298.919" y1="142.902" x2="298.919" y2="185.069" gradientUnits="userSpaceOnUse">
<stop stop-color="#006EAD"/>
<stop offset="1" stop-color="#006EAD" stop-opacity="0"/>
</linearGradient>
<linearGradient id="paint14_linear_191_2884" x1="298.919" y1="148.926" x2="298.919" y2="160.973" gradientUnits="userSpaceOnUse">
<stop stop-color="#006EAD"/>
<stop offset="1" stop-color="#006EAD" stop-opacity="0"/>
</linearGradient>
<linearGradient id="paint15_linear_191_2884" x1="272.269" y1="213.684" x2="272.269" y2="255.851" gradientUnits="userSpaceOnUse">
<stop stop-color="#006EAD"/>
<stop offset="1" stop-color="#006EAD" stop-opacity="0"/>
</linearGradient>
<linearGradient id="paint16_linear_191_2884" x1="432.729" y1="243.258" x2="432.729" y2="259.276" gradientUnits="userSpaceOnUse">
<stop stop-color="#006EAD"/>
<stop offset="1" stop-color="#006EAD" stop-opacity="0"/>
</linearGradient>
<linearGradient id="paint17_linear_191_2884" x1="432.729" y1="243.258" x2="432.729" y2="249.083" gradientUnits="userSpaceOnUse">
<stop stop-color="#006EAD"/>
<stop offset="1" stop-color="#006EAD" stop-opacity="0"/>
</linearGradient>
<linearGradient id="paint18_linear_191_2884" x1="432.727" y1="177" x2="432.727" y2="238.162" gradientUnits="userSpaceOnUse">
<stop stop-color="#006EAD"/>
<stop offset="1" stop-color="#006EAD" stop-opacity="0"/>
</linearGradient>
<linearGradient id="paint19_linear_191_2884" x1="150.751" y1="30.1152" x2="150.751" y2="259.889" gradientUnits="userSpaceOnUse">
<stop stop-color="#006EAD"/>
<stop offset="1" stop-color="#006EAD" stop-opacity="0"/>
</linearGradient>
<linearGradient id="paint20_linear_191_2884" x1="9.88308" y1="0" x2="9.88308" y2="4.37576" gradientUnits="userSpaceOnUse">
<stop stop-color="#006EAD"/>
<stop offset="1" stop-color="#006EAD" stop-opacity="0"/>
</linearGradient>
<linearGradient id="paint21_linear_191_2884" x1="222.946" y1="26.7758" x2="46.0972" y2="44.2486" gradientUnits="userSpaceOnUse">
<stop stop-color="#006EAD"/>
<stop offset="1" stop-color="#006EAD" stop-opacity="0"/>
</linearGradient>
<linearGradient id="paint22_linear_191_2884" x1="4.93749" y1="0" x2="4.93749" y2="17.5213" gradientUnits="userSpaceOnUse">
<stop stop-color="#006EAD"/>
<stop offset="1" stop-color="#006EAD" stop-opacity="0"/>
</linearGradient>
<linearGradient id="paint23_linear_191_2884" x1="126.804" y1="171" x2="126.804" y2="257.243" gradientUnits="userSpaceOnUse">
<stop stop-color="#006EAD"/>
<stop offset="1" stop-color="#006EAD" stop-opacity="0"/>
</linearGradient>
<linearGradient id="paint24_linear_191_2884" x1="92.1916" y1="216.658" x2="92.1916" y2="236.951" gradientUnits="userSpaceOnUse">
<stop stop-color="#006EAD"/>
<stop offset="1" stop-color="#006EAD" stop-opacity="0"/>
</linearGradient>
<linearGradient id="paint25_linear_191_2884" x1="161.418" y1="216.658" x2="161.418" y2="236.951" gradientUnits="userSpaceOnUse">
<stop stop-color="#006EAD"/>
<stop offset="1" stop-color="#006EAD" stop-opacity="0"/>
</linearGradient>
<linearGradient id="paint26_linear_191_2884" x1="126.803" y1="216.658" x2="126.803" y2="257.243" gradientUnits="userSpaceOnUse">
<stop stop-color="#006EAD"/>
<stop offset="1" stop-color="#006EAD" stop-opacity="0"/>
</linearGradient>
<linearGradient id="paint27_linear_191_2884" x1="126.805" y1="176.707" x2="126.805" y2="196.999" gradientUnits="userSpaceOnUse">
<stop stop-color="#006EAD"/>
<stop offset="1" stop-color="#006EAD" stop-opacity="0"/>
</linearGradient>
<linearGradient id="paint28_linear_191_2884" x1="92.5468" y1="220.463" x2="92.5468" y2="230.609" gradientUnits="userSpaceOnUse">
<stop stop-color="#006EAD"/>
<stop offset="1" stop-color="#006EAD" stop-opacity="0"/>
</linearGradient>
<linearGradient id="paint29_linear_191_2884" x1="375.804" y1="164" x2="375.804" y2="250.243" gradientUnits="userSpaceOnUse">
<stop stop-color="#006EAD"/>
<stop offset="1" stop-color="#006EAD" stop-opacity="0"/>
</linearGradient>
<linearGradient id="paint30_linear_191_2884" x1="341.192" y1="209.658" x2="341.192" y2="229.951" gradientUnits="userSpaceOnUse">
<stop stop-color="#006EAD"/>
<stop offset="1" stop-color="#006EAD" stop-opacity="0"/>
</linearGradient>
<linearGradient id="paint31_linear_191_2884" x1="410.418" y1="209.658" x2="410.418" y2="229.951" gradientUnits="userSpaceOnUse">
<stop stop-color="#006EAD"/>
<stop offset="1" stop-color="#006EAD" stop-opacity="0"/>
</linearGradient>
<linearGradient id="paint32_linear_191_2884" x1="375.803" y1="209.658" x2="375.803" y2="250.243" gradientUnits="userSpaceOnUse">
<stop stop-color="#006EAD"/>
<stop offset="1" stop-color="#006EAD" stop-opacity="0"/>
</linearGradient>
<linearGradient id="paint33_linear_191_2884" x1="375.805" y1="169.707" x2="375.805" y2="189.999" gradientUnits="userSpaceOnUse">
<stop stop-color="#006EAD"/>
<stop offset="1" stop-color="#006EAD" stop-opacity="0"/>
</linearGradient>
<linearGradient id="paint34_linear_191_2884" x1="341.547" y1="213.463" x2="341.547" y2="223.609" gradientUnits="userSpaceOnUse">
<stop stop-color="#006EAD"/>
<stop offset="1" stop-color="#006EAD" stop-opacity="0"/>
</linearGradient>
<linearGradient id="paint35_linear_191_2884" x1="230.628" y1="259.354" x2="230.628" y2="437" gradientUnits="userSpaceOnUse">
<stop stop-color="#006EAD"/>
<stop offset="1" stop-color="#006EAD" stop-opacity="0"/>
</linearGradient>
<linearGradient id="paint36_linear_191_2884" x1="248.11" y1="259.354" x2="248.11" y2="437" gradientUnits="userSpaceOnUse">
<stop stop-color="#006EAD"/>
<stop offset="1" stop-color="#006EAD" stop-opacity="0"/>
</linearGradient>
<linearGradient id="paint37_linear_191_2884" x1="310.604" y1="259.354" x2="310.604" y2="437" gradientUnits="userSpaceOnUse">
<stop stop-color="#006EAD"/>
<stop offset="1" stop-color="#006EAD" stop-opacity="0"/>
</linearGradient>
<linearGradient id="paint38_linear_191_2884" x1="231" y1="251" x2="231" y2="265.479" gradientUnits="userSpaceOnUse">
<stop stop-color="#006EAD"/>
<stop offset="1" stop-color="#006EAD" stop-opacity="0"/>
</linearGradient>
</defs>
</svg>
