<svg width="282" height="380" viewBox="0 0 282 380" fill="none" xmlns="http://www.w3.org/2000/svg">
<path fill-rule="evenodd" clip-rule="evenodd" d="M183.206 184.905C187.457 187.481 188.816 193.015 186.241 197.266C188.816 193.015 194.35 191.656 198.602 194.231C194.35 191.656 192.991 186.122 195.566 181.87C192.991 186.122 187.457 187.481 183.206 184.905Z" fill="#D9FFDE"/>
<path fill-rule="evenodd" clip-rule="evenodd" d="M276.802 236.615L215.492 205.374L271.579 245.239C271.86 245.515 272.177 245.763 272.529 245.976C274.976 247.458 278.161 246.676 279.643 244.229C281.124 241.783 280.342 238.598 277.896 237.116C277.544 236.903 277.177 236.736 276.802 236.615Z" fill="#D9FFDE"/>
<path fill-rule="evenodd" clip-rule="evenodd" d="M224.182 295.44L199.949 231.038L214.511 298.29C214.533 298.683 214.6 299.081 214.716 299.475C215.525 302.219 218.405 303.788 221.149 302.979C223.893 302.171 225.462 299.291 224.653 296.547C224.537 296.152 224.378 295.782 224.182 295.44Z" fill="#D9FFDE"/>
<path fill-rule="evenodd" clip-rule="evenodd" d="M236.613 102.862L205.372 164.172L245.237 108.085C245.513 107.804 245.761 107.487 245.974 107.135C247.456 104.688 246.674 101.504 244.227 100.022C241.781 98.5396 238.596 99.3217 237.114 101.768C236.901 102.12 236.734 102.487 236.613 102.862Z" fill="#D9FFDE"/>
<path fill-rule="evenodd" clip-rule="evenodd" d="M295.438 155.482L231.036 179.715L298.288 165.153C298.681 165.131 299.079 165.064 299.473 164.948C302.217 164.139 303.786 161.259 302.977 158.515C302.169 155.771 299.289 154.202 296.545 155.011C296.15 155.127 295.78 155.286 295.438 155.482Z" fill="#D9FFDE"/>
<path fill-rule="evenodd" clip-rule="evenodd" d="M134.424 271.579L174.288 215.492L143.048 276.802C142.926 277.177 142.76 277.544 142.547 277.896C141.065 280.343 137.88 281.125 135.434 279.643C132.987 278.161 132.205 274.976 133.687 272.529C133.9 272.178 134.148 271.86 134.424 271.579Z" fill="#D9FFDE"/>
<path fill-rule="evenodd" clip-rule="evenodd" d="M81.3798 214.514L148.632 199.952L84.2296 224.185C83.8873 224.381 83.5171 224.54 83.1227 224.656C80.3787 225.464 77.4989 223.896 76.6903 221.152C75.8817 218.408 77.4506 215.528 80.1945 214.719C80.589 214.603 80.9863 214.536 81.3798 214.514Z" fill="#D9FFDE"/>
<path fill-rule="evenodd" clip-rule="evenodd" d="M108.083 134.426L164.17 174.29L102.86 143.05C102.485 142.928 102.118 142.762 101.766 142.549C99.3193 141.067 98.5372 137.882 100.019 135.435C101.501 132.989 104.686 132.207 107.133 133.689C107.484 133.902 107.802 134.15 108.083 134.426Z" fill="#D9FFDE"/>
<path fill-rule="evenodd" clip-rule="evenodd" d="M165.15 81.3817L179.712 148.634L155.479 84.2316C155.284 83.8893 155.124 83.5191 155.008 83.1246C154.2 80.3807 155.769 77.5008 158.512 76.6922C161.256 75.8836 164.136 77.4525 164.945 80.1965C165.061 80.5909 165.128 80.9882 165.15 81.3817Z" fill="#D9FFDE"/>
<path fill-rule="evenodd" clip-rule="evenodd" d="M250.847 267.48L207.137 214.336L242.612 273.297C242.759 273.662 242.951 274.017 243.188 274.353C244.839 276.689 248.071 277.245 250.407 275.595C252.744 273.945 253.3 270.713 251.65 268.376C251.412 268.04 251.142 267.741 250.847 267.48Z" fill="#D9FFDE"/>
<path fill-rule="evenodd" clip-rule="evenodd" d="M179.101 300.368L182.632 231.648L169.097 299.114C168.959 299.484 168.862 299.875 168.811 300.283C168.455 303.121 170.468 305.71 173.306 306.066C176.145 306.422 178.734 304.409 179.09 301.571C179.141 301.162 179.143 300.76 179.101 300.368Z" fill="#D9FFDE"/>
<path fill-rule="evenodd" clip-rule="evenodd" d="M267.478 128.813L214.334 172.523L273.295 137.048C273.66 136.901 274.015 136.709 274.351 136.472C276.687 134.821 277.243 131.589 275.593 129.253C273.943 126.916 270.711 126.36 268.374 128.011C268.038 128.248 267.739 128.518 267.478 128.813Z" fill="#D9FFDE"/>
<path fill-rule="evenodd" clip-rule="evenodd" d="M300.364 200.561L231.644 197.031L299.11 210.565C299.48 210.703 299.871 210.8 300.279 210.851C303.117 211.207 305.706 209.194 306.062 206.356C306.418 203.517 304.405 200.928 301.567 200.572C301.159 200.521 300.756 200.519 300.364 200.561Z" fill="#D9FFDE"/>
<path fill-rule="evenodd" clip-rule="evenodd" d="M106.365 242.616L165.326 207.14L112.182 250.851C111.921 251.146 111.622 251.416 111.286 251.653C108.95 253.304 105.718 252.747 104.067 250.411C102.417 248.074 102.973 244.842 105.309 243.192C105.645 242.955 106 242.763 106.365 242.616Z" fill="#D9FFDE"/>
<path fill-rule="evenodd" clip-rule="evenodd" d="M80.5547 169.105L148.021 182.64L79.301 179.109C78.9092 179.151 78.5063 179.149 78.0983 179.098C75.2599 178.742 73.2473 176.153 73.603 173.315C73.9586 170.476 76.5479 168.464 79.3863 168.819C79.7944 168.871 80.1854 168.968 80.5547 169.105Z" fill="#D9FFDE"/>
<path fill-rule="evenodd" clip-rule="evenodd" d="M137.046 106.367L172.522 165.328L128.811 112.184C128.516 111.923 128.246 111.624 128.009 111.288C126.358 108.951 126.915 105.719 129.251 104.069C131.588 102.419 134.82 102.975 136.47 105.311C136.707 105.647 136.899 106.002 137.046 106.367Z" fill="#D9FFDE"/>
<path fill-rule="evenodd" clip-rule="evenodd" d="M210.557 80.5566L197.022 148.023L200.553 79.303C200.511 78.9112 200.513 78.5083 200.564 78.1003C200.92 75.2619 203.509 73.2492 206.347 73.6049C209.186 73.9606 211.198 76.5499 210.843 79.3883C210.792 79.7963 210.694 80.1873 210.557 80.5566Z" fill="#D9FFDE"/>
</svg>
