<svg width="487" height="302" viewBox="0 0 487 302" fill="none" xmlns="http://www.w3.org/2000/svg">
<path d="M120.093 63.5446C87.7086 116.051 80.606 176.644 85.8627 197.162C82.6264 209.645 81.9487 212.81 102.079 187.322C122.209 161.834 125.395 97.1831 120.093 63.5446Z" fill="#2B99D6"/>
<path d="M106.889 94.6606L111.393 105.6C111.393 105.6 115.315 101.286 117.828 98.5215M98.5234 117.182L104.958 122.33L111.393 117.182C111.393 117.182 115.315 123.457 117.828 127.478M94.0191 136.487C94.4481 134.985 95.9495 132.883 98.5234 136.487C101.097 140.09 103.886 137.988 104.958 136.487L106.889 143.565L117.828 139.061M94.0191 151.287H98.5234L101.741 155.791H106.889C106.889 155.791 109.634 160.105 111.393 162.869M90.1582 166.087L94.0191 162.869L98.5234 169.304H104.958L106.889 171.878" stroke="#006EAD" stroke-width="4" stroke-linecap="round" stroke-linejoin="round"/>
<path d="M88.2827 197.789C88.3887 197.38 88.3893 196.951 88.2844 196.541C85.8003 186.845 86.1671 167.023 91.3077 142.869C96.0235 120.712 104.697 95.2002 118.561 71.0117C120.321 87.0237 120.415 107.983 118.139 128.21C115.496 151.7 109.717 173.617 100.117 185.772C95.0875 192.141 91.3898 196.678 88.7194 199.718C88.2536 200.248 87.8229 200.728 87.4254 201.161C87.6676 200.17 87.957 199.045 88.2827 197.789Z" stroke="#A9DEFE" stroke-width="5" stroke-linecap="round" stroke-linejoin="round"/>
<path d="M120.093 63.5446C87.7086 116.051 80.606 176.644 85.8627 197.162C82.6264 209.645 81.9487 212.81 102.079 187.322C122.209 161.834 125.395 97.1831 120.093 63.5446Z" stroke="#02365E" stroke-width="4" stroke-linecap="round" stroke-linejoin="round"/>
<path d="M73.4281 2C44.0855 75.0991 50.2628 152.145 62.4889 176.383C61.4165 192.684 64.2907 216.15 84.3672 179.6C104.444 143.05 89.0861 42.5391 73.4281 2Z" fill="#2B99D6" stroke="#02365E" stroke-width="4" stroke-linecap="round" stroke-linejoin="round"/>
<path d="M65.0617 58.626L70.853 63.7738L75.3574 58.626C75.3574 58.626 78.4949 60.5869 80.5052 61.8434M60.5574 79.8608L67.6356 75.3564L76.6443 78.5738L80.5052 75.3564C80.5052 75.3564 82.074 78.1017 83.0791 79.8608M58.627 97.2347H65.0617L67.6356 99.8086L75.3574 94.6608L78.5748 97.2347L83.0791 94.6608L87.5835 97.2347" stroke="#006EAD" stroke-width="4" stroke-linecap="round" stroke-linejoin="round"/>
<path d="M58.3693 112.678L70.724 119.756L76.1293 114.609C76.1293 114.609 82.9829 118.5 85.3953 119.756M58.3693 135.843L66.8632 131.339L77.6736 134.556L82.3066 131.339C82.3066 131.339 84.1891 134.084 85.3953 135.843M56.0527 153.217H63.7745L66.8632 155.791L76.1293 150.643L79.9901 153.217L85.3953 150.643L90.8006 153.217" stroke="#006EAD" stroke-width="4" stroke-linecap="round" stroke-linejoin="round"/>
<path d="M65.9813 176.612C66.0224 175.988 65.8955 175.365 65.6138 174.806C59.8862 163.451 55.278 138.818 55.8696 107.581C56.41 79.0478 61.2843 45.4326 73.2918 12.1855C79.8586 32.651 85.9911 62.7752 88.8136 92.6256C90.445 109.879 90.9592 126.929 89.8395 141.87C88.7136 156.892 85.9587 169.433 81.2996 177.915C76.3117 186.995 72.6106 191.916 70.0264 194.172C68.9625 195.101 68.3244 195.367 68.0711 195.439C68.0685 195.436 68.0658 195.433 68.0631 195.43C67.8034 195.15 67.3915 194.475 66.9925 193.175C66.609 191.925 66.3122 190.347 66.1106 188.519C65.7077 184.865 65.7217 180.559 65.9813 176.612Z" stroke="#A9DEFE" stroke-width="7" stroke-linecap="round" stroke-linejoin="round"/>
<path d="M73.4281 2C44.0855 75.0991 50.2628 152.145 62.4889 176.383C61.4165 192.684 64.2907 216.15 84.3672 179.6C104.444 143.05 89.0861 42.5391 73.4281 2Z" stroke="#02365E" stroke-width="4" stroke-linecap="round" stroke-linejoin="round"/>
<path d="M62.4527 216.922C52.0639 199.299 23.7986 148.2 31.0216 88.3664C44.3941 115.831 64.4201 182.537 62.4527 216.922C64.0275 229.712 54.5932 255.895 61.3519 225.433C61.9143 222.898 62.2741 220.043 62.4527 216.922C62.4527 216.922 62.4527 216.922 62.4527 216.922Z" fill="#2B99D6"/>
<path d="M30.7198 96.1169L36.7787 105.818M30.5547 119.477L36.498 123.214L39.7765 117.006M32.3234 138.989C32.2422 137.456 32.774 135.137 35.551 138.124C38.3281 141.11 39.7821 138.545 40.1619 136.888L43.3772 143.355L50.0499 136.904M36.1539 153.284L39.3816 152.42L42.8528 156.153L46.5415 155.164C46.5415 155.164 49.6253 158.804 51.6012 161.137M39.1517 164.472L44.0448 169.823L48.6557 168.588L50.7051 170.703" stroke="#006EAD" stroke-width="4" stroke-linecap="round" stroke-linejoin="round"/>
<path d="M60.5607 209.61C49.098 189.05 28.6057 146.021 32.2927 95.9666C38.2772 109.843 45.1023 129.865 50.5556 150.559C56.1182 171.667 60.1944 193.255 60.5607 209.61Z" stroke="#A9DEFE" stroke-width="4" stroke-linecap="round" stroke-linejoin="round"/>
<path d="M62.4527 216.922C52.0639 199.299 23.7986 148.2 31.0216 88.3664C45.608 118.324 68.1106 194.971 61.3519 225.433C54.5931 255.895 64.0276 229.712 62.4527 216.922Z" stroke="#02365E" stroke-width="4" stroke-linecap="round" stroke-linejoin="round"/>
<path fill-rule="evenodd" clip-rule="evenodd" d="M22.5913 173.808H20.3385C1.79656 210.514 -18.8177 287.126 47.0607 299.93H51.4949H100.505H104.939C170.818 287.126 150.203 210.514 131.661 173.808H129.409H22.5913Z" fill="#FA9018"/>
<path d="M131.662 173.809H116.539C135.532 261.459 113.722 282.528 51.4949 299.93H104.939C170.818 287.126 150.203 210.514 131.662 173.809Z" fill="#F0600F"/>
<path d="M20.3385 173.808V171.808C19.5839 171.808 18.8936 172.233 18.5533 172.906L20.3385 173.808ZM47.0607 299.93L46.6791 301.893C46.8048 301.918 46.9326 301.93 47.0607 301.93V299.93ZM104.939 299.93V301.93C105.067 301.93 105.195 301.918 105.321 301.893L104.939 299.93ZM131.661 173.808L133.447 172.906C133.106 172.233 132.416 171.808 131.661 171.808V173.808ZM20.3385 175.808H22.5913V171.808H20.3385V175.808ZM47.4423 297.967C31.3853 294.846 20.7948 287.888 14.0955 278.797C7.36856 269.668 4.41495 258.182 4.04106 245.772C3.29162 220.896 12.929 192.912 22.1237 174.71L18.5533 172.906C9.2061 191.41 -0.734664 220.084 0.0428765 245.892C0.432485 258.824 3.51863 271.186 10.8753 281.17C18.2597 291.191 29.7969 298.612 46.6791 301.893L47.4423 297.967ZM51.4949 297.93H47.0607V301.93H51.4949V297.93ZM51.4949 301.93H100.505V297.93H51.4949V301.93ZM100.505 301.93H104.939V297.93H100.505V301.93ZM105.321 301.893C122.203 298.612 133.74 291.191 141.125 281.17C148.481 271.186 151.568 258.824 151.957 245.892C152.735 220.084 142.794 191.41 133.447 172.906L129.876 174.71C139.071 192.912 148.708 220.896 147.959 245.772C147.585 258.182 144.631 269.668 137.904 278.797C131.205 287.888 120.615 294.846 104.558 297.967L105.321 301.893ZM131.661 171.808H129.409V175.808H131.661V171.808ZM129.409 171.808H22.5913V175.808H129.409V171.808Z" fill="#02365E"/>
<line x1="122.4" y1="260.608" x2="138.992" y2="260.608" stroke="#02365E" stroke-width="4" stroke-linecap="round"/>
<line x1="117.252" y1="272.191" x2="133.843" y2="272.191" stroke="#02365E" stroke-width="4" stroke-linecap="round"/>
<line x1="106.957" y1="282.487" x2="123.548" y2="282.487" stroke="#02365E" stroke-width="4" stroke-linecap="round"/>
<path d="M23.8785 189.896C20.0176 201.693 12.5532 228.376 13.5828 240.73" stroke="#FED9AF" stroke-width="4" stroke-linecap="round"/>
<rect x="459.682" y="50" width="7.23473" height="24.9196" rx="3.61736" fill="#2B99D6" stroke="#02365E" stroke-width="4"/>
<path d="M456.467 75.7041C456.467 73.495 458.258 71.7041 460.467 71.7041H466.132C468.342 71.7041 470.132 73.495 470.132 75.7041V92.6237C470.132 94.8329 468.342 96.6237 466.132 96.6237H460.467C458.258 96.6237 456.467 94.8329 456.467 92.6237V75.7041Z" fill="#2B99D6" stroke="#02365E" stroke-width="4"/>
<path d="M410.646 96.624H480.601C482.811 96.624 484.601 98.4149 484.601 100.624V296C484.601 298.209 482.811 300 480.601 300H410.646V96.624Z" fill="#006EAD" stroke="#02365E" stroke-width="4" stroke-linejoin="round"/>
<path d="M401.865 100.624C401.865 98.4144 403.656 96.6235 405.865 96.6235H453.737V154.501H401.865V100.624Z" fill="#A9DEFE" stroke="#02365E" stroke-width="4" stroke-linejoin="round"/>
<rect x="411.375" y="172.186" width="51.8716" height="86.8167" fill="#A9DEFE" stroke="#02365E" stroke-width="4" stroke-linejoin="round"/>
<rect x="411.375" y="226.849" width="51.8716" height="4.82315" fill="#2B99D6"/>
<rect x="411.375" y="172.186" width="51.8716" height="86.8167" stroke="#02365E" stroke-width="4" stroke-linejoin="round"/>
<path d="M401 283.119H452.872V300H405C402.791 300 401 298.209 401 296V283.119Z" fill="#A9DEFE" stroke="#02365E" stroke-width="4" stroke-linejoin="round"/>
<path d="M411.374 259.003H463.246L452.872 283.119H401L411.374 259.003Z" fill="#E1F3FF" stroke="#02365E" stroke-width="4" stroke-linejoin="round"/>
<path d="M401.865 154.501H453.737L463.247 172.186H411.375L401.865 154.501Z" fill="#2B99D6" stroke="#02365E" stroke-width="4" stroke-linejoin="round"/>
<path d="M411.599 162.698C410.859 161.365 411.823 159.727 413.348 159.727H449.277C450.004 159.727 450.673 160.12 451.026 160.755L452.822 163.99C453.563 165.323 452.599 166.961 451.074 166.961H415.144C414.418 166.961 413.749 166.567 413.396 165.932L411.599 162.698Z" fill="#006EAD"/>
<rect x="409.842" y="114.309" width="33.7621" height="23.3119" rx="2" fill="#2B99D6" stroke="#02365E" stroke-width="4"/>
<rect x="416.562" y="182.637" width="10.3392" height="6.0085" rx="2" fill="#006EAD"/>
<rect x="430.779" y="182.637" width="10.9854" height="6.0085" rx="2" fill="#006EAD"/>
<rect x="444.996" y="182.637" width="10.3392" height="6.0085" rx="2" fill="#006EAD"/>
<rect x="416.562" y="192.851" width="10.3392" height="6.0085" rx="2" fill="#006EAD"/>
<rect x="430.779" y="192.851" width="10.9854" height="6.0085" rx="2" fill="#006EAD"/>
<rect x="444.996" y="192.851" width="10.3392" height="6.0085" rx="2" fill="#006EAD"/>
<rect x="416.562" y="203.065" width="10.3392" height="6.0085" rx="2" fill="#006EAD"/>
<rect x="430.779" y="203.065" width="10.9854" height="6.0085" rx="2" fill="#006EAD"/>
<rect x="444.996" y="203.065" width="10.3392" height="6.0085" rx="2" fill="#006EAD"/>
<rect x="416.562" y="212.802" width="10.3392" height="6.0085" rx="2" fill="#006EAD"/>
<rect x="430.779" y="212.802" width="10.9854" height="6.0085" rx="2" fill="#006EAD"/>
<rect x="444.996" y="212.802" width="10.3392" height="6.0085" rx="2" fill="#006EAD"/>
<rect x="417.426" y="237.299" width="10.3392" height="6.0085" rx="2" fill="#E1F3FF"/>
<rect x="431.643" y="237.299" width="10.9854" height="6.0085" rx="2" fill="#E1F3FF"/>
<rect x="445.859" y="237.299" width="10.3392" height="6.0085" rx="2" fill="#E1F3FF"/>
<rect x="417.426" y="247.514" width="10.3392" height="6.0085" rx="2" fill="#E1F3FF"/>
<rect x="431.643" y="247.514" width="10.9854" height="6.0085" rx="2" fill="#E1F3FF"/>
<rect x="445.859" y="247.514" width="10.3392" height="6.0085" rx="2" fill="#E1F3FF"/>
<path d="M404.627 112.701C404.627 113.806 405.522 114.701 406.627 114.701C407.732 114.701 408.627 113.806 408.627 112.701H404.627ZM416.273 105.055C417.378 105.055 418.273 104.159 418.273 103.055C418.273 101.95 417.378 101.055 416.273 101.055V105.055ZM408.627 112.701V109.055H404.627V112.701H408.627ZM412.627 105.055H416.273V101.055H412.627V105.055ZM408.627 109.055C408.627 106.846 410.418 105.055 412.627 105.055V101.055C408.209 101.055 404.627 104.636 404.627 109.055H408.627Z" fill="white"/>
<path d="M462.896 54.0195V64.0678" stroke="white" stroke-width="4" stroke-linecap="round"/>
<path d="M460.486 78.939V88.9872" stroke="white" stroke-width="4" stroke-linecap="round"/>
</svg>
