<svg width="321" height="321" viewBox="0 0 321 321" fill="none" xmlns="http://www.w3.org/2000/svg">
<path d="M196.001 125.998C196.001 125.998 198.487 131.009 200.936 134.728C204.306 139.846 206.397 142.617 210.499 147.169C214.961 152.12 217.836 154.569 222.959 158.831C227.344 162.478 229.742 164.675 234.64 167.596C240.245 170.939 243.85 171.965 249.922 174.355C256.07 176.776 259.677 177.699 265.911 179.889C273.985 182.726 278.896 183.434 286.541 187.28C291.6 189.825 294.908 190.83 298.927 194.819C302.433 198.299 305.098 201.277 307.309 205.695C309.589 210.248 310.778 214.537 311.598 220.5C312.369 226.109 312.163 229.365 311.598 234.999C311.222 238.742 310.928 240.853 310.001 244.5C308.767 249.35 305.501 256.5 305.501 256.5M186.001 106.498C186.001 106.498 176.813 96.8096 167.307 92.519C160.683 89.5294 156.574 88.5775 149.387 87.5051C139.832 86.0794 134.118 86.0161 124.652 87.9508C116.581 89.6005 112.44 92.035 104.894 95.3414C99.2473 97.8159 96.4089 99.9218 90.7072 102.268C85.278 104.502 82.2404 105.984 76.483 107.133C69.608 108.504 65.5132 108.586 58.5448 107.82C52.8133 107.19 44.172 104.44 44.172 104.44" stroke="#02365E" stroke-width="6" stroke-linecap="round"/>
<path d="M195.785 125.097C192.844 117.931 179.521 105.861 149.759 114.907C160.368 128.153 184.344 147.801 195.785 125.097Z" fill="#2B99D6" stroke="#02365E" stroke-width="4" stroke-linecap="round" stroke-linejoin="round"/>
<path d="M189.768 121.37C182.778 118.007 178.656 116.432 167.28 119.792" stroke="#E1F3FF" stroke-width="4" stroke-linecap="round" stroke-linejoin="round"/>
<path d="M195.785 125.097C192.844 117.931 179.521 105.861 149.759 114.907C160.368 128.153 184.344 147.801 195.785 125.097Z" stroke="#02365E" stroke-width="4" stroke-linecap="round" stroke-linejoin="round"/>
<path d="M192.906 125.324C187.89 124.764 176.999 123.398 173.56 122.41" stroke="#02365E" stroke-width="4" stroke-linecap="round" stroke-linejoin="round"/>
<path d="M120.029 84.474C132.563 95.9287 146.37 90.8576 151.707 86.8902C133.226 54.7936 108.869 65.415 99 74.7378C100.787 73.2104 107.496 73.0193 120.029 84.474Z" fill="#2B99D6" stroke="#02365E" stroke-width="4" stroke-linecap="round" stroke-linejoin="round"/>
<path d="M110.081 75.2902C120.059 81.4032 135.922 90.3317 142.303 87.0271" stroke="#E1F3FF" stroke-width="4" stroke-linecap="round" stroke-linejoin="round"/>
<path d="M120.029 84.474C132.563 95.9287 146.37 90.8576 151.707 86.8902C133.226 54.7936 108.869 65.415 99 74.7378C100.787 73.2104 107.496 73.0193 120.029 84.474Z" stroke="#02365E" stroke-width="4" stroke-linecap="round" stroke-linejoin="round"/>
<path d="M146.814 85.7272C140.399 82.6873 126.909 76.6991 124.277 77.0662" stroke="#02365E" stroke-width="4" stroke-linecap="round" stroke-linejoin="round"/>
<path d="M278.116 185.075C269.416 191.725 251.318 205.464 248.527 207.222C245.038 209.419 248.953 172.126 278.116 185.075Z" fill="#2B99D6" stroke="#02365E" stroke-width="4" stroke-linecap="round" stroke-linejoin="round"/>
<path d="M270.894 189.515C266.505 191.358 256.778 196.373 252.981 201.695" stroke="#E1F3FF" stroke-width="4" stroke-linecap="round" stroke-linejoin="round"/>
<path d="M278.116 185.075C269.416 191.725 251.318 205.464 248.527 207.222C245.038 209.419 248.953 172.126 278.116 185.075Z" stroke="#02365E" stroke-width="4" stroke-linecap="round" stroke-linejoin="round"/>
<path d="M277.099 184.772C271.549 186.746 259.95 191.226 257.951 193.359" stroke="#02365E" stroke-width="4" stroke-linecap="round" stroke-linejoin="round"/>
<path d="M285.176 229.836C289.529 234.896 305.073 229.673 312.301 226.428C304.11 205.264 276.808 211.1 264.18 216.664C269.365 218.946 280.822 224.777 285.176 229.836Z" fill="#2B99D6" stroke="#02365E" stroke-width="4" stroke-linecap="round" stroke-linejoin="round"/>
<path d="M308.482 226.615C301.468 228.503 287.881 229.445 278.945 223.075" stroke="#E1F3FF" stroke-width="4" stroke-linecap="round" stroke-linejoin="round"/>
<path d="M285.176 229.836C289.529 234.896 305.073 229.673 312.301 226.428C304.11 205.264 276.808 211.1 264.18 216.664C269.365 218.946 280.822 224.777 285.176 229.836Z" stroke="#02365E" stroke-width="4" stroke-linecap="round" stroke-linejoin="round"/>
<path d="M311.885 226.221C311.885 226.221 302.699 221.903 293.159 221.859" stroke="#02365E" stroke-width="4" stroke-linecap="round" stroke-linejoin="round"/>
<path d="M245.609 171.058C244.719 159.013 239.718 133.621 226.836 128.417C219.207 137.659 212.281 159.127 245.609 171.058Z" fill="#2B99D6" stroke="#02365E" stroke-width="4" stroke-linecap="round" stroke-linejoin="round"/>
<path d="M239.67 164.567C232.668 160.755 224.155 153.702 223.999 142.773" stroke="#E1F3FF" stroke-width="4" stroke-linecap="round" stroke-linejoin="round"/>
<path d="M245.609 171.058C244.719 159.013 239.718 133.621 226.836 128.417C219.207 137.659 212.281 159.127 245.609 171.058Z" stroke="#02365E" stroke-width="4" stroke-linecap="round" stroke-linejoin="round"/>
<path d="M244.779 168.798C240.554 164.967 232.007 156.11 231.616 151.334" stroke="#02365E" stroke-width="4" stroke-linecap="round" stroke-linejoin="round"/>
<path d="M50.2537 106.433C39.4945 96.4749 18.5666 74.3651 20.9279 65.5915C9.32552 77.0756 -1.05266 101.322 50.2537 106.433Z" fill="#2B99D6" stroke="#02365E" stroke-width="4" stroke-linecap="round" stroke-linejoin="round"/>
<path d="M40.5603 101.487C35.1664 97.791 23.6694 86.5246 20.8334 71.0278" stroke="#E1F3FF" stroke-width="4" stroke-linecap="round" stroke-linejoin="round"/>
<path d="M50.2537 106.433C39.4945 96.4749 18.5666 74.3651 20.9279 65.5915C9.32552 77.0756 -1.05266 101.322 50.2537 106.433Z" stroke="#02365E" stroke-width="4" stroke-linecap="round" stroke-linejoin="round"/>
<path d="M43.2726 103.1L27.7947 92.0632" stroke="#02365E" stroke-width="4" stroke-linecap="round" stroke-linejoin="round"/>
<path d="M96.6426 99C88.0219 102.954 69.1972 115.53 62.8642 134.205C72.6009 136.434 92.9881 132.513 96.6426 99Z" fill="#2B99D6"/>
<path d="M92.4004 106.76L77.1064 131.909" stroke="#E1F3FF" stroke-width="4" stroke-linecap="round" stroke-linejoin="round"/>
<path d="M96.6426 99C88.0219 102.954 69.1972 115.53 62.8642 134.205C72.6009 136.434 92.9881 132.513 96.6426 99Z" stroke="#02365E" stroke-width="4" stroke-linecap="round" stroke-linejoin="round"/>
<path d="M93.875 99.9773L81.9067 118.239" stroke="#02365E" stroke-width="4" stroke-linecap="round" stroke-linejoin="round"/>
</svg>
