<?xml version="1.0" encoding="UTF-8"?>
<svg version="1.1" xmlns="http://www.w3.org/2000/svg" width="619" height="470">
<path d="M0 0 C1.28686523 1.8984375 1.28686523 1.8984375 2.55859375 4.375 C3.02716797 5.27863281 3.49574219 6.18226563 3.97851562 7.11328125 C4.45998047 8.06589844 4.94144531 9.01851562 5.4375 10 C6.15389648 11.38251953 6.15389648 11.38251953 6.88476562 12.79296875 C15 28.57815715 15 28.57815715 15 32 C15.56992676 31.91959473 16.13985352 31.83918945 16.72705078 31.75634766 C59.13428658 25.87554206 102.1334085 24.99459647 144.65185547 30.39013672 C148.46781266 30.87382219 152.15651739 31.03166687 156 31 C156.34256836 30.2793335 156.68513672 29.55866699 157.03808594 28.81616211 C158.60593239 25.5219378 160.17792858 22.22971003 161.75 18.9375 C162.28882813 17.80376953 162.82765625 16.67003906 163.3828125 15.50195312 C166.07253475 9.87649744 168.79920192 4.35279096 172 -1 C213.1445757 5.1033966 253.39005433 17.35845902 291.49609375 33.95068359 C293.89903287 35.00239078 293.89903287 35.00239078 296.05078125 35.64697266 C302.00560781 37.59763541 304.29946648 42.16301578 307.375 47.25 C307.93952881 48.15242432 308.50405762 49.05484863 309.08569336 49.98461914 C310.74283399 52.64524393 312.3741315 55.32018432 314 58 C314.80540331 59.30635122 315.61132446 60.61238344 316.41796875 61.91796875 C318.25580955 64.91676793 320.047356 67.94038967 321.81933594 70.97851562 C322.64899316 72.39902054 323.48340639 73.81675315 324.32128906 75.23242188 C358.68120717 133.35058773 381.33316193 197.53792484 390.8125 264.375 C390.9618248 265.41066605 390.9618248 265.41066605 391.11416626 266.46725464 C394.25243251 288.57146402 395.34276814 310.79769638 395.26074219 333.10717773 C395.24998983 336.5657701 395.26074458 340.02384463 395.2734375 343.48242188 C395.28416852 355.11541188 395.02271676 366.73028328 394.33203125 378.34375 C394.28439636 379.4280983 394.23676147 380.51244659 394.18768311 381.62965393 C393.60106494 389.970045 393.60106494 389.970045 390.3581543 393.56811523 C386.2855254 396.87204096 386.2855254 396.87204096 383.875 398.00390625 C380.40008406 399.75643401 377.24537895 401.78744949 374.02685547 403.97070312 C334.71489739 430.39304279 291.86410643 450.49812007 247.1875 465.9375 C246.20370361 466.28594971 245.21990723 466.63439941 244.20629883 466.9934082 C243.3067749 467.29335693 242.40725098 467.59330566 241.48046875 467.90234375 C240.70598389 468.16523193 239.93149902 468.42812012 239.13354492 468.69897461 C236.33134268 469.09434197 235.30479991 468.62514222 233 467 C231.25170898 464.87133789 231.25170898 464.87133789 229.49609375 462.22265625 C228.84286133 461.24288818 228.18962891 460.26312012 227.51660156 459.25366211 C226.83049805 458.20057861 226.14439453 457.14749512 225.4375 456.0625 C224.72948242 454.98814697 224.02146484 453.91379395 223.29199219 452.80688477 C217.56646663 444.0428355 212.17947315 435.11123839 207.10351562 425.95654297 C206.36423012 424.64578323 205.60206503 423.34768263 204.81835938 422.06298828 C202.75331031 418.65529567 202 417.09937045 202 413 C203.14210938 412.57332031 204.28421875 412.14664062 205.4609375 411.70703125 C219.22169101 406.44247326 232.27844181 400.05035781 245.36303711 393.29345703 C247.87063831 392.06345322 250.39320481 390.99977777 253 390 C248.3245226 385.11343849 248.3245226 385.11343849 243 381 C239.22886264 381.33056481 236.06012229 382.77539487 232.63647461 384.32275391 C186.67418281 405.01012273 136.64264693 414.47535528 86.4375 414.3125 C85.24212616 414.31034485 84.04675232 414.3081897 82.81515503 414.30596924 C65.69096539 414.25639578 48.90906031 413.9447323 32 411 C30.20973389 410.70198486 30.20973389 410.70198486 28.38330078 410.39794922 C-3.10519644 405.0639632 -35.4887097 397.32583152 -64.14575195 382.85522461 C-67.03203912 381.47285985 -68.56256396 380.89393588 -71.72265625 381.66015625 C-73.76018664 382.85890912 -75.45001151 384.03191404 -77.1875 385.625 C-80 388 -80 388 -82 388 C-82 388.66 -82 389.32 -82 390 C-80.83984375 390.32291016 -80.83984375 390.32291016 -79.65625 390.65234375 C-74.67235361 392.48935684 -70.16395642 395.03596192 -65.5 397.5625 C-56.45632939 402.39485074 -47.31383858 406.55319825 -37.74414062 410.23266602 C-36.87208984 410.57096436 -36.00003906 410.9092627 -35.1015625 411.2578125 C-34.33150879 411.5480127 -33.56145508 411.83821289 -32.76806641 412.13720703 C-31 413 -31 413 -30 415 C-30.78173828 416.92919922 -30.78173828 416.92919922 -32.0703125 419.3046875 C-32.54823242 420.18858154 -33.02615234 421.07247559 -33.51855469 421.9831543 C-34.04868164 422.93746338 -34.57880859 423.89177246 -35.125 424.875 C-35.66543945 425.85573486 -36.20587891 426.83646973 -36.76269531 427.84692383 C-42.36764306 437.87958692 -48.53017091 447.50684551 -55 457 C-55.42893555 457.63164062 -55.85787109 458.26328125 -56.29980469 458.9140625 C-62.37602124 467.79200708 -62.37602124 467.79200708 -66 469 C-68.81787109 468.29418945 -68.81787109 468.29418945 -72.2734375 467.11328125 C-72.9003096 466.90065643 -73.5271817 466.68803162 -74.17304993 466.46896362 C-76.24440934 465.76130979 -78.30994126 465.03832153 -80.375 464.3125 C-81.08806305 464.06424469 -81.8011261 463.81598938 -82.53579712 463.56021118 C-123.40393243 449.3019513 -162.12614944 430.60302926 -198.27294922 406.75732422 C-201.06325916 404.9592355 -203.89981583 403.26106777 -206.75390625 401.56640625 C-220.77895874 392.96835418 -220.77895874 392.96835418 -222.65234375 387.23046875 C-223.11944069 383.81077363 -223.13453941 380.69154411 -223.03096008 377.25630188 C-222.98031528 373.56542156 -223.24190352 369.90058627 -223.4765625 366.21875 C-224.05347058 356.20512024 -224.20034529 346.21610322 -224.1875 336.1875 C-224.18689575 335.30225647 -224.1862915 334.41701294 -224.18566895 333.50494385 C-224.03867436 253.40902951 -204.79332661 176.40438293 -169 105 C-168.48856445 103.97455078 -167.97712891 102.94910156 -167.45019531 101.89257812 C-159.38125375 85.79491401 -150.49817258 70.29412978 -141 55 C-140.25459961 53.77941895 -140.25459961 53.77941895 -139.49414062 52.53417969 C-138.20306355 50.42639166 -136.88914851 48.33552635 -135.5625 46.25 C-134.86253906 45.14140625 -134.16257812 44.0328125 -133.44140625 42.890625 C-127.27628141 35.59111719 -118.05444762 32.72251974 -109.375 29.3125 C-108.72305664 29.05432495 -108.07111328 28.7961499 -107.39941406 28.53015137 C-77.8245613 16.84522013 -47.47723824 7.76907741 -16.3125 1.4375 C-14.37793945 1.04159668 -14.37793945 1.04159668 -12.40429688 0.63769531 C-11.21513672 0.4053418 -10.02597656 0.17298828 -8.80078125 -0.06640625 C-7.75059814 -0.27209229 -6.70041504 -0.47777832 -5.6184082 -0.68969727 C-3 -1 -3 -1 0 0 Z M-49 207 C-50.051875 207.7425 -51.10375 208.485 -52.1875 209.25 C-65.29687129 222.06805193 -72.28581743 239.33826681 -72.5 257.5625 C-72.28083185 274.5606386 -65.69425138 290.66069205 -54 303 C-43.38274873 312.90363274 -31.32658518 318.67112122 -16.63671875 319.09765625 C-1.56190326 318.35745573 11.80074479 312.23489306 22.16015625 301.21875 C35.06198387 285.65985809 39.64086244 267.82044325 38 248 C35.83708966 231.7397451 28.20668708 217.57831759 15.625 207.00390625 C-4.67819222 191.87412359 -28.75533638 192.35278477 -49 207 Z M148.35546875 214.140625 C139.51780358 224.86893496 133.89811427 238.07922882 133 252 C132.9484375 252.79277344 132.896875 253.58554688 132.84375 254.40234375 C132.25889112 270.99771449 137.5323691 287.03890763 148.5 299.5625 C149.97826355 301.06339004 151.47700848 302.54451697 153 304 C153.62390625 304.64324219 154.2478125 305.28648437 154.890625 305.94921875 C163.87738826 314.65278569 175.99654965 318.83151438 188.33984375 319.0625 C204.09448656 318.50542976 217.25830685 311.67246367 228.0546875 300.3515625 C241.64664011 283.92112982 244.01168193 266.52435177 243 246 C241.22427606 230.89820097 233.04620641 218.03251945 222 208 C198.27023878 189.69796659 168.91364856 192.56924396 148.35546875 214.140625 Z " fill="#A0244C" transform="translate(224,1)"/>
</svg>
