<svg width="38" height="38" viewBox="0 0 38 38" fill="none" xmlns="http://www.w3.org/2000/svg">
<rect x="14.0194" y="0.90271" width="11.6257" height="9.22519" fill="#9A1D49"/>
<rect x="10.0768" y="2.48975" width="3.94262" height="6.34852" fill="#9A1D49"/>
<rect x="25.6451" y="2.48975" width="2.62842" height="6.34852" fill="#9A1D49"/>
<rect x="30.9019" y="15.3854" width="6.46995" height="8.82841" fill="#9A1D49"/>
<rect x="12.6041" y="8.83838" width="1.4153" height="1.28954" fill="#9A1D49"/>
<rect x="13.8172" y="10.1277" width="1.4153" height="1.28954" fill="#9A1D49"/>
<rect x="8.6615" y="12.707" width="1.4153" height="1.28954" fill="#9A1D49"/>
<rect x="28.2735" y="12.6079" width="1.4153" height="1.38874" fill="#9A1D49"/>
<rect x="15.3336" y="26.892" width="1.4153" height="1.38874" fill="#9A1D49"/>
<rect x="24.2298" y="36.5142" width="1.4153" height="1.38874" fill="#9A1D49"/>
<rect x="12.4019" y="35.7203" width="2.8306" height="2.1823" fill="#9A1D49"/>
<rect x="29.4866" y="22.825" width="1.4153" height="1.38874" fill="#9A1D49"/>
<rect x="26.8582" y="25.5033" width="1.4153" height="1.38874" fill="#9A1D49"/>
<rect x="21.7025" y="26.7927" width="13.2432" height="1.38874" fill="#9A1D49"/>
<rect x="23.1178" y="28.1816" width="11.8279" height="1.38874" fill="#9A1D49"/>
<rect x="24.2298" y="29.5702" width="9.30055" height="1.38874" fill="#9A1D49"/>
<rect x="24.2298" y="30.959" width="8.28962" height="1.38874" fill="#9A1D49"/>
<rect x="24.2298" y="32.3477" width="6.87432" height="1.38874" fill="#9A1D49"/>
<rect x="24.2298" y="33.7366" width="5.45902" height="1.38874" fill="#9A1D49"/>
<rect x="24.2298" y="35.1252" width="4.04372" height="1.38874" fill="#9A1D49"/>
<rect x="31.1041" y="6.3584" width="1.4153" height="9.0268" fill="#9A1D49"/>
<rect x="33.9347" y="10.1277" width="1.4153" height="5.25737" fill="#9A1D49"/>
<rect x="35.3501" y="12.707" width="1.4153" height="2.67828" fill="#9A1D49"/>
<rect x="32.5194" y="7.64795" width="1.4153" height="7.73726" fill="#9A1D49"/>
<rect x="4.41559" y="7.54871" width="1.4153" height="23.2118" fill="#9A1D49"/>
<rect x="3.2025" y="10.1277" width="1.4153" height="19.1448" fill="#9A1D49"/>
<rect x="1.7872" y="12.707" width="1.4153" height="14.0858" fill="#9A1D49"/>
<rect x="0.371887" y="15.187" width="1.4153" height="9.0268" fill="#9A1D49"/>
<rect x="5.8309" y="6.3584" width="1.4153" height="20.4343" fill="#9A1D49"/>
<rect x="23.1178" y="10.1277" width="1.4153" height="1.28954" fill="#9A1D49"/>
<rect x="28.2735" y="3.77942" width="1.4153" height="5.05898" fill="#9A1D49"/>
<rect x="8.6615" y="3.77942" width="1.4153" height="5.05898" fill="#9A1D49"/>
<rect x="29.6888" y="5.06885" width="1.4153" height="10.3163" fill="#9A1D49"/>
<rect x="7.24622" y="4.9696" width="1.4153" height="10.3163" fill="#9A1D49"/>
<rect x="28.2735" y="24.2136" width="7.78415" height="2.57909" fill="#9A1D49"/>
<rect x="10.0768" y="31.9508" width="5.15574" height="3.76943" fill="#9A1D49"/>
<rect x="5.8309" y="28.1816" width="1.4153" height="3.76943" fill="#9A1D49"/>
<rect x="7.24622" y="29.5702" width="1.4153" height="3.76943" fill="#9A1D49"/>
<rect x="8.6615" y="30.7607" width="1.4153" height="3.76943" fill="#9A1D49"/>
<rect x="7.24622" y="23.1226" width="1.4153" height="3.76943" fill="#9A1D49"/>
<rect x="8.6615" y="24.3129" width="1.4153" height="3.76943" fill="#9A1D49"/>
<rect x="9.87463" y="25.5033" width="1.4153" height="3.76943" fill="#9A1D49"/>
<rect x="11.2899" y="26.7927" width="1.4153" height="3.76943" fill="#9A1D49"/>
<rect x="12.7052" y="26.7927" width="1.4153" height="3.76943" fill="#9A1D49"/>
<rect x="14.1205" y="26.892" width="1.4153" height="2.3807" fill="#9A1D49"/>
</svg>
