<svg width="84" height="58" viewBox="0 0 84 58" fill="none" xmlns="http://www.w3.org/2000/svg">
<g id="Group 150">
<path id="Vector" d="M60.4054 48.916C56.3522 51.014 51.5777 51.8081 47.1424 51.1415C42.7107 50.4754 38.9928 48.4098 36.7746 45.4244C34.5564 42.439 33.9918 38.7409 35.2466 35.1315C36.5026 31.519 39.477 28.3024 43.5303 26.2044C47.5835 24.1064 52.3578 23.3121 56.7932 23.9787C61.2249 24.6447 64.9429 26.7106 67.1611 29.696C69.3793 32.6813 69.9438 36.3792 68.6889 39.9887C67.433 43.6012 64.4586 46.818 60.4054 48.916Z" fill="#BE79CE" stroke="black"/>
<path id="Vector_2" d="M32.9468 24.9025L33.2933 24.7677L33.2529 24.4041L31.0114 4.21508L53.4869 35.2726C53.3715 35.2656 53.243 35.2601 53.1018 35.2561C38.982 34.7195 24.8079 34.1686 10.5793 33.6036L32.9468 24.9025Z" fill="#FD703A" stroke="black"/>
<path id="Vector_3" d="M73.228 31.1887C71.8402 32.6987 69.944 33.702 67.8836 34.0049C65.6203 34.3376 63.3444 33.7981 61.555 32.508C59.7656 31.2179 58.6059 29.2804 58.3335 27.1195C58.309 26.9252 58.347 26.8071 58.3999 26.7245C58.4575 26.6343 58.564 26.5385 58.7541 26.4437C59.1541 26.2441 59.7613 26.1244 60.522 26.0069C60.6459 25.9878 60.7734 25.9688 60.9034 25.9494C61.5328 25.8555 62.2197 25.753 62.8379 25.5872C63.5796 25.3884 64.3311 25.0729 64.8087 24.4748C65.2848 23.8784 65.4096 23.0992 65.4217 22.3574C65.4316 21.7451 65.3633 21.0847 65.3004 20.4759C65.2865 20.3419 65.2729 20.2105 65.2605 20.0826C65.1882 19.3396 65.157 18.7331 65.2607 18.2983C65.3103 18.0904 65.383 17.9594 65.4639 17.8769C65.5378 17.8015 65.6496 17.7343 65.8501 17.7048C68.1135 17.3721 70.3893 17.9117 72.1787 19.2018C73.9681 20.4919 75.1279 22.4293 75.4003 24.5903L75.4004 24.5915C75.4018 24.602 75.4027 24.6092 75.3847 24.6333C75.357 24.6703 75.2915 24.7315 75.155 24.8067C74.8782 24.9594 74.4455 25.0979 73.8901 25.232C73.456 25.3369 72.9812 25.4315 72.4912 25.5292C72.3627 25.5548 72.2332 25.5806 72.103 25.6069C71.487 25.7312 70.8596 25.8653 70.3214 26.0302C69.8016 26.1893 69.2801 26.401 68.9437 26.7221C68.7649 26.8929 68.6206 27.1114 68.5763 27.3802C68.532 27.6485 68.5967 27.9097 68.7275 28.1514C68.9764 28.6115 69.5102 29.0853 70.3038 29.6025C71.0099 30.0626 71.9689 30.5866 73.228 31.1887Z" fill="#598EFB" stroke="black"/>
<path id="Vector_4" d="M79.2272 26.4932C78.3817 27.1206 77.2222 27.4595 75.8974 27.4145C74.3171 27.361 72.6588 26.7629 71.3031 25.732C69.9473 24.7011 69.0346 23.3442 68.7457 21.9763C68.4574 20.6117 68.8145 19.3723 69.6723 18.4992C70.5301 17.6262 71.8726 17.1361 73.4491 17.1895C75.0295 17.2431 76.6878 17.8412 78.0436 18.8721C79.3293 19.8498 80.2165 21.1206 80.5512 22.416C80.3413 22.4416 80.0282 22.4429 79.624 22.4235C79.2836 22.4073 78.914 22.3787 78.5319 22.3492C78.4051 22.3394 78.2769 22.3295 78.148 22.3199C77.6411 22.2821 77.1228 22.2492 76.6808 22.2549C76.4595 22.2577 76.2424 22.2703 76.0465 22.3008C75.8594 22.3299 75.6435 22.3823 75.4588 22.4921C75.2495 22.6166 75.08 22.8185 75.0627 23.0863C75.0478 23.3163 75.1517 23.5227 75.2706 23.6889C75.5106 24.0245 75.9813 24.4257 76.6871 24.9156C77.307 25.3458 78.14 25.8656 79.2272 26.4932Z" fill="#FD703A" stroke="black"/>
</g>
</svg>
