<svg width="36" height="36" viewBox="0 0 36 36" fill="none" xmlns="http://www.w3.org/2000/svg">
<rect x="6.21236" y="0.708008" width="22.0968" height="4.86799" fill="#9A1D49"/>
<rect x="6.88195" y="30.84" width="22.0968" height="4.86799" fill="#9A1D49"/>
<rect x="2.19475" y="3.38635" width="4.6872" height="4.6872" fill="#9A1D49"/>
<path d="M28.3092 3.38635H32.9964V8.07355H28.3092V3.38635Z" fill="#9A1D49"/>
<rect x="2.86436" y="28.1615" width="4.6872" height="4.6872" fill="#9A1D49"/>
<rect x="28.9788" y="28.1615" width="4.6872" height="4.6872" fill="#9A1D49"/>
<rect x="0.185944" y="7.40405" width="4.86799" height="21.1147" fill="#9A1D49"/>
<rect x="30.318" y="7.22546" width="4.86799" height="21.1147" fill="#9A1D49"/>
<rect x="14.5345" y="11.4215" width="6.45686" height="2.05663" fill="#9A1D49"/>
<rect x="13.4584" y="12.4498" width="2.15229" height="2.05663" fill="#9A1D49"/>
<rect x="19.9152" y="12.4498" width="2.15229" height="2.05663" fill="#9A1D49"/>
<rect x="20.9914" y="13.4783" width="2.15229" height="2.05663" fill="#9A1D49"/>
<rect x="12.3822" y="13.4783" width="2.15229" height="2.05663" fill="#9A1D49"/>
<rect x="11.3061" y="14.5065" width="2.15229" height="2.05663" fill="#9A1D49"/>
<rect x="11.3061" y="20.6764" width="2.15229" height="2.05663" fill="#9A1D49"/>
<rect x="12.3822" y="21.7047" width="2.15229" height="2.05663" fill="#9A1D49"/>
<rect x="13.4584" y="22.733" width="2.15229" height="2.05663" fill="#9A1D49"/>
<rect x="22.0675" y="20.6764" width="2.15229" height="2.05663" fill="#9A1D49"/>
<rect x="20.9914" y="21.7047" width="2.15229" height="2.05663" fill="#9A1D49"/>
<rect x="19.9152" y="22.733" width="2.15229" height="2.05663" fill="#9A1D49"/>
<rect x="14.5345" y="23.7615" width="6.45686" height="2.05663" fill="#9A1D49"/>
<rect x="10.2299" y="15.5349" width="2.15229" height="6.16989" fill="#9A1D49"/>
<rect x="22.0675" y="14.5065" width="2.15229" height="2.05663" fill="#9A1D49"/>
<rect x="23.1437" y="15.5349" width="2.15229" height="6.16989" fill="#9A1D49"/>
<ellipse cx="25.296" cy="10.1047" rx="2.0088" ry="1.91952" fill="#9A1D49"/>
</svg>
