<svg width="39" height="35" viewBox="0 0 39 35" fill="none" xmlns="http://www.w3.org/2000/svg">
<rect x="9.45599" y="28.4105" width="20.1417" height="6.58951" fill="#A51A4B"/>
<rect x="10.0726" width="19.5252" height="6.58951" fill="#A51A4B"/>
<rect x="0.515564" y="17.2839" width="11.9206" height="3.78086" fill="#A51A4B"/>
<rect x="2.15976" y="13.5032" width="10.2764" height="3.78086" fill="#A51A4B"/>
<rect x="3.59845" y="9.72229" width="8.8377" height="3.78086" fill="#A51A4B"/>
<rect x="4.72888" y="5.94141" width="7.7073" height="3.78086" fill="#A51A4B"/>
<rect x="26.6175" y="5.94141" width="8.32388" height="3.78086" fill="#A51A4B"/>
<rect x="28.4673" y="9.72229" width="8.32388" height="3.78086" fill="#A51A4B"/>
<rect x="29.1867" y="13.5032" width="8.32388" height="3.78086" fill="#A51A4B"/>
<rect x="29.1867" y="17.2839" width="9.55705" height="3.78086" fill="#A51A4B"/>
<rect x="28.8784" y="21.0648" width="8.63218" height="3.78086" fill="#A51A4B"/>
<rect x="27.0287" y="24.7377" width="9.45429" height="3.78086" fill="#A51A4B"/>
<rect x="24.4595" y="28.4105" width="9.45429" height="3.78086" fill="#A51A4B"/>
<rect x="23.5347" y="31.2192" width="9.45429" height="3.78086" fill="#A51A4B"/>
<rect x="6.47586" y="2.16052" width="5.96031" height="3.78086" fill="#A51A4B"/>
<rect x="26.6175" y="2.80859" width="6.37137" height="3.78086" fill="#A51A4B"/>
<rect x="8.0173" y="0.756104" width="5.96031" height="3.78086" fill="#A51A4B"/>
<rect x="25.0761" y="0.756104" width="6.16584" height="3.78086" fill="#A51A4B"/>
<rect x="2.15976" y="20.2006" width="10.2764" height="3.24074" fill="#A51A4B"/>
<rect x="3.59845" y="23.1173" width="8.8377" height="3.24074" fill="#A51A4B"/>
<rect x="4.72888" y="25.926" width="7.7073" height="3.24074" fill="#A51A4B"/>
<rect x="6.47586" y="28.5184" width="4.72714" height="3.24074" fill="#A51A4B"/>
<rect x="8.0173" y="30.8951" width="4.72714" height="3.24074" fill="#A51A4B"/>
<ellipse cx="20.8629" cy="17.554" rx="4.21332" ry="5.88735" fill="#A51A4B"/>
<rect x="16.6495" y="11.1266" width="2.87739" height="12.8549" fill="#A51A4B"/>
<rect x="25.8983" y="25.926" width="2.36357" height="2.48457" fill="#A51A4B"/>
<rect x="24.4595" y="26.8982" width="2.36357" height="2.48457" fill="#A51A4B"/>
<rect x="28.0563" y="23.1173" width="2.36357" height="2.48457" fill="#A51A4B"/>
<rect x="23.2264" y="5.29321" width="2.36357" height="2.48457" fill="#A51A4B"/>
<rect x="25.4872" y="6.2655" width="2.36357" height="2.48457" fill="#A51A4B"/>
<rect x="27.748" y="8.75" width="2.36357" height="2.48457" fill="#A51A4B"/>
<rect x="22.8153" y="27.5464" width="2.36357" height="2.48457" fill="#A51A4B"/>
<rect x="19.3214" y="11.1266" width="1.54146" height="1.08025" fill="#A51A4B"/>
<rect x="19.3214" y="22.9012" width="1.54146" height="1.08025" fill="#A51A4B"/>
<rect x="19.938" y="22.5771" width="1.54146" height="1.08025" fill="#A51A4B"/>
<rect x="19.938" y="11.4506" width="1.54146" height="1.08025" fill="#A51A4B"/>
</svg>
