<svg width="36" height="36" viewBox="0 0 36 36" fill="none" xmlns="http://www.w3.org/2000/svg">
<rect x="3.17464" y="30.4415" width="2.61682" height="2.63323" fill="#9A1D49"/>
<rect x="0.557831" y="33.0748" width="2.61682" height="2.63323" fill="#9A1D49"/>
<rect x="5.79146" y="27.8082" width="2.61682" height="2.63323" fill="#9A1D49"/>
<rect x="8.19023" y="25.3944" width="2.61682" height="2.63323" fill="#9A1D49"/>
<rect x="10.589" y="22.9807" width="2.61682" height="2.63323" fill="#9A1D49"/>
<rect x="15.6046" y="20.567" width="2.61682" height="2.63323" fill="#9A1D49"/>
<rect x="18.0033" y="22.9807" width="2.61682" height="2.63323" fill="#9A1D49"/>
<rect x="23.0189" y="30.4415" width="2.61682" height="2.63323" fill="#9A1D49"/>
<rect x="32.6139" y="30.4415" width="2.61682" height="2.63323" fill="#9A1D49"/>
<rect x="27.7074" y="23.2002" width="2.61682" height="4.82759" fill="#9A1D49"/>
<rect x="30.3242" y="27.8082" width="2.61682" height="2.63323" fill="#9A1D49"/>
<rect x="25.4176" y="20.567" width="2.61682" height="2.63323" fill="#9A1D49"/>
<rect x="22.8008" y="17.9337" width="2.61682" height="2.63323" fill="#9A1D49"/>
<rect x="22.8008" y="10.5825" width="2.61682" height="2.63323" fill="#9A1D49"/>
<rect x="18.0033" y="10.5825" width="2.61682" height="2.63323" fill="#9A1D49"/>
<rect x="15.3865" y="7.94934" width="2.61682" height="2.63323" fill="#9A1D49"/>
<rect x="10.3709" y="12.9965" width="2.61682" height="2.63323" fill="#9A1D49"/>
<rect x="7.97215" y="10.5825" width="2.61682" height="2.63323" fill="#9A1D49"/>
<rect x="2.95657" y="5.755" width="2.61682" height="2.63323" fill="#9A1D49"/>
<rect x="0.666855" y="0.708008" width="2.61682" height="5.04702" fill="#9A1D49"/>
<rect x="5.57341" y="5.755" width="2.61682" height="4.9373" fill="#9A1D49"/>
<rect x="12.7697" y="3.34119" width="2.61682" height="4.60815" fill="#9A1D49"/>
<rect x="3.28368" y="0.708008" width="9.70405" height="2.63323" fill="#9A1D49"/>
<rect x="25.4176" y="8.05896" width="2.61682" height="2.63323" fill="#9A1D49"/>
<rect x="27.7074" y="5.42578" width="2.61682" height="2.63323" fill="#9A1D49"/>
<rect x="30.3242" y="2.79272" width="2.61682" height="2.63323" fill="#9A1D49"/>
<rect x="32.941" y="0.708008" width="2.61682" height="2.63323" fill="#9A1D49"/>
<rect x="20.4021" y="13.2158" width="2.61682" height="5.04702" fill="#9A1D49"/>
<rect x="25.4176" y="33.0748" width="9.81308" height="2.63323" fill="#9A1D49"/>
<rect x="20.4021" y="25.6139" width="2.61682" height="4.82759" fill="#9A1D49"/>
<rect x="12.9877" y="15.6296" width="2.61682" height="7.57053" fill="#9A1D49"/>
</svg>
